<?xml version="1.0" encoding="UTF-8"?>
<svg id="Layer_1" data-name="Layer 1" xmlns="http://www.w3.org/2000/svg" viewBox="0 0 360 200">
  <defs>
    <style>
      .cls-1 {
        fill: none;
      }

      .cls-2 {
        fill: #c21927;
      }

      .cls-3 {
        fill: #ca3642;
      }
    </style>
  </defs>
  <g id="_5ahaYt.tif" data-name="5ahaYt.tif">
    <g>
      <path class="cls-2" d="M344.84,18.92c-2.6,2.66-5.33,3.98-8.77,5.24-7.34,2.69-14.64,3.21-21.99,5.35-7.58,2.21-27.15,10.88-32.01,16.74-2.76,3.32-3.25,10.01-1.94,14.02,3.66,11.17,15.44,14.66,21,24.79,5.2,9.46,5.83,25.69,1.89,35.69-5.07,12.86-26.84,24-39.08,29.04-9.17,3.78-17.46,6.66-27.45,7.64-22.1,2.16-37.22-.03-55.55-12.8-3.59-2.5-6.82-5.63-10.52-7.94-7.87-4.91-17.79-6.97-27-7.06,2.8,15.87-3.75,33.05-19.93,38.28-7.7,2.49-20.18,2.76-23.24-6.62-4.12-12.62,9.48-21.69,19.25-25.84,6.96-2.96,14.58-5.8,22.09-6.73-.34-7.22-8.22-11.67-14.13-14.23-36.21-15.69-70.03,14.6-90.31,41.36-6.82,9-12.54,18.86-20.07,27.32-.61.25-.33-1.35-.22-1.59,8.19-9.82,14.68-20.9,22.67-30.87,20.51-25.58,53.21-52.42,88.09-37.52,6.61,2.82,14.55,7.38,15.36,15.28,10.54-.22,21.61,2.49,30.25,8.59,10.85,7.66,18.23,14.13,31.64,17.8,12.18,3.33,32.04,2.47,44.19-1.01,15.6-4.47,39.91-15.65,49.94-28.66,7.48-9.71,6.42-30.07.5-40.36-4.64-8.07-13.66-11.45-18.22-19.14-4.11-6.94-4.95-16.28,1.55-22.06,6.53-5.8,23.6-13.41,32.13-15.72,5.52-1.49,11.11-2.01,16.63-3.65,5-1.49,9.49-3.15,13.21-6.95v1.59ZM142.07,129.88c-7.34,1.01-14.6,3.65-21.4,6.5-8.57,3.58-20.9,10.83-19.8,21.84,1.06,10.66,13.39,11.07,21.44,8.73,16.1-4.66,22.73-21.5,19.77-37.07Z"/>
      <g>
        <path class="cls-1" d="M344.84,18.92c-2.6,2.66-5.33,3.98-8.77,5.24-7.34,2.69-14.64,3.21-21.99,5.35-7.58,2.21-27.15,10.88-32.01,16.74-2.76,3.32-3.25,10.01-1.94,14.02,3.66,11.17,15.44,14.66,21,24.79,5.2,9.46,5.83,25.69,1.89,35.69-5.07,12.86-26.84,24-39.08,29.04-9.17,3.78-17.46,6.66-27.45,7.64-22.1,2.16-37.22-.03-55.55-12.8-3.59-2.5-6.82-5.63-10.52-7.94-7.87-4.91-17.79-6.97-27-7.06,2.8,15.87-3.75,33.05-19.93,38.28-7.7,2.49-20.18,2.76-23.24-6.62-4.12-12.62,9.48-21.69,19.25-25.84,6.96-2.96,14.58-5.8,22.09-6.73-.34-7.22-8.22-11.67-14.13-14.23-36.21-15.69-70.03,14.6-90.31,41.36-6.82,9-12.54,18.86-20.07,27.32-.61.25-.33-1.35-.22-1.59,8.19-9.82,14.68-20.9,22.67-30.87,20.51-25.58,53.21-52.42,88.09-37.52,6.61,2.82,14.55,7.38,15.36,15.28,10.54-.22,21.61,2.49,30.25,8.59,10.85,7.66,18.23,14.13,31.64,17.8,12.18,3.33,32.04,2.47,44.19-1.01,15.6-4.47,39.91-15.65,49.94-28.66,7.48-9.71,6.42-30.07.5-40.36-4.64-8.07-13.66-11.45-18.22-19.14-4.11-6.94-4.95-16.28,1.55-22.06,6.53-5.8,23.6-13.41,32.13-15.72,5.52-1.49,11.11-2.01,16.63-3.65,5-1.49,9.49-3.15,13.21-6.95v1.59ZM142.07,129.88c-7.34,1.01-14.6,3.65-21.4,6.5-8.57,3.58-20.9,10.83-19.8,21.84,1.06,10.66,13.39,11.07,21.44,8.73,16.1-4.66,22.73-21.5,19.77-37.07Z"/>
        <g>
          <path class="cls-3" d="M142.3,129.83c-.04-.06-.1-.01-.06.17l.13.11-.07-.28Z"/>
          <path class="cls-3" d="M142.27,131.1c.09.2.22.44.31.28-.14-.2-.1-.26-.27-.46-.04-.18-.01-.32.04-.3-.04-.06-.02-.29-.1-.37-.05.25-.01.55.11.86-.02.07-.05.01-.08,0Z"/>
          <path class="cls-3" d="M140.66,148.78l.05-.1s-.03.06-.05.1Z"/>
          <path class="cls-3" d="M135.22,158.34c.05-.07.07-.1.06-.11-.04.06-.08.12-.06.11Z"/>
          <path class="cls-3" d="M133.87,159.65s.06-.05.09-.07c-.04.02-.07.05-.09.07Z"/>
          <path class="cls-3" d="M140.66,148.78l-.13.27s.07-.13.13-.27Z"/>
          <path class="cls-3" d="M142.86,133.53c-.01-.06-.02-.11-.04-.16l.02.15h.02Z"/>
          <path class="cls-3" d="M141.84,144.05v-.09s0-.06-.02-.08l.02.17Z"/>
          <path class="cls-3" d="M142.32,140.34c-.01.08.08.12.12.16-.04-.05-.05-.12-.05-.19-.02,0-.04,0-.07.03Z"/>
          <path class="cls-3" d="M142.53,134.41l-.02-.1s.01.07.02.1Z"/>
          <path class="cls-3" d="M141.21,146.65s-.03.01-.04.02c.01,0,.03,0,.04-.02Z"/>
          <path class="cls-3" d="M137.67,130.2s0,.01,0,.02c.02-.01.02-.02,0-.02Z"/>
          <path class="cls-3" d="M142.07,129.9h-.06s0,.05,0,.07l.06-.07Z"/>
          <path class="cls-3" d="M131.23,161.83h.01c.06-.07.02-.04-.01,0Z"/>
          <path class="cls-3" d="M102.82,162.83c.09.36-.37-.44-.2.08,0-.06.37.33.2-.08Z"/>
          <path class="cls-3" d="M142.86,133.63v.16c.01-.07,0-.12,0-.16Z"/>
          <path class="cls-3" d="M102.62,162.9h0s.02.05.02.05c0-.02-.01-.04-.02-.05Z"/>
          <path class="cls-3" d="M124.43,165.76s.06.01.09.01c0,0-.03-.01-.09-.01Z"/>
          <path class="cls-3" d="M129.73,163.19l-.13.07c.05-.02.1-.05.13-.07Z"/>
          <path class="cls-3" d="M121.57,166.84c-.08.01-.11,0-.21.05h.03s.08-.04.18-.05Z"/>
          <path class="cls-3" d="M118.44,167.49h.06s.07,0,.1,0h-.16Z"/>
          <path class="cls-3" d="M128.21,132.99c.08,0,.13.02.17.03-.07-.05.37-.23-.17-.03Z"/>
          <path class="cls-3" d="M142.81,133.54s.04.04.05.09v-.11s-.04,0-.05.01Z"/>
          <path class="cls-3" d="M121.63,167.63l-.51.12c.14-.03.33-.07.51-.12Z"/>
          <path class="cls-3" d="M107.59,143.6l.08-.09s-.07.06-.08.09Z"/>
          <path class="cls-3" d="M119.62,168.08c-.1-.02-.2-.02-.3,0-.02.01-.04.02-.05.04l.35-.03Z"/>
          <path class="cls-3" d="M128.38,133.03h0s0,0,0,0Z"/>
          <path class="cls-3" d="M131.53,131.74c-.47.14-.18.19-.26.29-.55.21-.29,0-.5-.01-.34.15-.57.35-.83.43-.03-.01-.08,0-.03-.05-.34.22-1.09.38-1.47.64-.04,0-.05,0-.07-.01.09.04.12.1.12.15-.21.07-.36.21-.46.16.13-.04.13-.08.18-.13l-.2.11c-.24-.04.28-.15.25-.23-.41.19-.87.46-1.2.54-.11-.09.74-.31.28-.25l.52-.14c-.45-.04.31-.1-.11-.16-.67.2-.72.32-1.39.53-.12.12.08.07-.04.19-.89.46-.84,0-1.46.4-.15.14-.16.31-.67.42l.12-.19c-.64.24-.29.32-.98.5.1-.1.48-.24.38-.21-.47.07-.27.19-.6.32l-.11-.08c-.66.29-1.37.67-2.1.99.03-.05.14-.14-.05-.1-.91.45-1.99.83-2.9,1.19l-.29.25c-.08.04-.17.03-.09-.03-.36.13.01.07-.14.18-.19.1-.28.07-.17-.02-.56.38-1.63,1.01-2.3,1.27l.11-.09c-.5.23-.44.49-.94.65l.08-.06c-1.06.55-2.15,1.31-2.98,1.7-.06.22-1.02.61-.97.82-.61.32-.47.18-1.29.7-.21.15-.23.33-.47.54l-.07-.08-.26.37-.26.05-.21.22c.1-.07.22-.13.23-.09-.32.34-.92.68-.96.65-.26.27-.49.56-.74.83-.01-.05.11-.19.2-.31-.35.49-.16,0-.48.45.07-.03.02.07.02.1-.24.14-.69.57-.96.94v-.12c-.28.31-.56.64-.84.99-.29.35-.52.75-.8,1.12.22-.25.28-.11.13.11l-.16.02c-.04.18.2-.2.06.14-.21.27-.24.12-.16-.07l-.21.36s0-.09-.02-.13c-.06.17-.49.56-.51.84h-.04c-.23.41-.39.71-.54.99-.14.29-.23.57-.38.93.08.05-.05.32-.06.56-.28.49-.47,1.08-.65,1.73-.08.47.04.15.05.37-.12,0-.22.67-.23.32-.08.81-.13,1.04-.14,2.06.03-.11.06-.23.09-.17,0,.18-.03.42-.08.39v-.05c.08.57,0,1.23,0,1.87.05.63.1,1.25.27,1.68l-.02-.05c.07.31.25.59.37.89.13.42-.15-.23-.1.1.43.94.62,1.52,1.11,2.22.03.37.45.81.84,1.29.4.48.95.83,1.22,1.21v-.08c.21.11.18.22.32.32,0-.05-.18-.18-.04-.13,1.6,1.12,3.5,2,5.44,2.44.71.17.46-.21,1.33.05l-.27.08c.73.03,1.46.12,2.2.14.73.06,1.47.03,2.17-.04-.08.03-.08.06-.22.07.3.09,1.1-.04,1.1-.12.22-.01.06.06.19.08.3.02.74-.17.91-.1.03.01-.08.03-.13.05.19-.04.9-.1.71-.17.53-.03,1-.18,1.42-.2.25-.16.9-.13.95-.29,0,.17.94-.06,1.24-.23-.1.07.29-.02.18.07.37-.1.7-.21.61-.28.73-.03,1.29-.6,1.74-.5.52-.24,1.03-.42,1.51-.67.47-.25.93-.49,1.38-.73.04.16-1.01.5-.9.63.85-.48,1.3-.82,2.16-1.23.22-.11-.08.14-.15.2.8-.56,1.6-.97,2.29-1.49,0,.01-.06.08-.13.13.14-.09.35-.19.29-.24l-.13.1c-.14.03-.03-.1.11-.25.13-.17.3-.35.29-.38-.1.34.7-.48.49.01.08-.08.17-.19.12-.22.14-.09.2-.1.1.05.45-.41.24-.33.67-.67.02.03-.06.11-.08.17.18-.23.36-.44.73-.71,0,.03.05.02-.05.11.58-.55.85-1.07,1.52-1.63-.08.28.25-.17.38-.11.1-.12.21-.23.3-.36-.06.03-.11.07-.17.1.27-.31.43-.65.69-.89l-.16.27.48-.61-.32.3c.21-.36-.15-.07.22-.47-.06.09.26-.31.46-.43h0c.09-.18.21-.36.41-.58.08-.04.08.14.13.11.02-.23.52-.81.56-1.09-.02.09.03.13.06.11l.02-.19c.13-.14.16-.16.19-.1.33-.46-.24.06.2-.46-.02.05,0,.03-.05.13.43-.53.66-1.14.99-1.66.2-.1-.23.5-.04.36.39-.82.81-1.69,1.15-2.49l-.08.14c-.12-.19.34-.56.44-1-.03.1.04.17.03.14.25-.54.48-1.13.69-2.01v.12c.16-.32.33-.87.47-1.23,0-.12.07-.33-.04-.22.65-1.03.42-2.19.91-3.14-.03.12-.03.3,0,.2.06-.29.11-.58.14-.88-.09.05-.07.11-.16.28-.03-.12-.03-.37,0-.59,0,.4.13.02.2-.14-.03.02-.05-.04-.07-.03.21-.43-.15-.1.05-.71l.04.04c.02-.24,0-.46.05-.71.11-.09,0,.25.08.28.05-.36-.06-.72.07-1.03.02.15-.03.37-.02.52.16-.33.15-.38.18-.64v.03s.09-.6.09-.6l-.04.15c-.21-.47.03-.91-.08-1.52.1.59.08.1.18.15.04-.15.09-.38.12-.32-.07-.29.12-.47-.01-.88.03-.02,0-.31.09-.24-.03-.37-.06.09-.1.05-.12-.57.14-1.35-.01-2.17-.08-.71-.23-.83-.33-1.48.04-.22.14.17.14.17.02-.36,0-.63-.07-.96.03.07.05,0,.09-.11-.03-.27-.14-.17-.11-.53.04.06.11.13.16.26-.05-.32-.13-.62-.22-.95.05-.09.12.19.18.3-.08-.36-.2-.95-.31-1.05v.24c-.02-.13.07-.08.1.02.12.3.04.46,0,.48l-.06-.23c-.08.13-.04.36.03.62.05.26.13.55.14.78l-.16-.18.16.47c-.03.11-.11.18-.14-.05-.05.34.07.29.02.59-.01.03-.02.02-.03-.01l.07.33c-.04-.06-.1.06-.09-.14-.04.59.18.94.09,1.17v-.05c.04.82.1.07.22.69l-.26.42.11.08c0,.08-.01.25-.06.22.07.31.05-.05.12.13-.1.41.04,1.13-.13,1.21.08.15.06-.39.12.05-.17.12,0,.5-.11.87-.09-.12,0-.47-.12-.1.14.23-.09.72-.09,1.03.13.03,0,.68,0,1.21-.03-.04-.22.97-.34,1.44l-.02-.02c.11.11,0,.61-.02.98-.07-.03-.09-.1-.1-.3l-.05.34c.03.09.03.2.01.42l-.08-.1c-.09.45-.1.92-.3,1.48.08.05.35-.4.26.22-.05.01-.14.01-.12-.15,0,.05,0,.2-.05.3l-.02-.26c-.1.25.03.15-.03.36-.07-.02-.09.14-.13.1,0-.05.07-.18.07-.26-.07.23-.18.51-.25.59.04-.01.09.02.06.2-.11.45-.11.13-.22.38.01.12-.13.38-.03.42-.04.13-.1.14-.14.18-.03.24-.34,1.05-.15.84l.03-.06s0,.02,0,.04h0s0,0,0,0c-.08.39-.22.77-.37,1.14-.17.37-.37.72-.5,1.09h-.03c-.15.42-.39.94-.45,1.27-.05.13-.19.27-.2.2-.13.33-.13.37-.42.8.12-.34-.11.08.14-.34-.25.39-.34.45-.5.93,0-.19-.26.25-.34.45l.21-.25c-.11.22-.22.4-.33.59l-.04-.16c-.56.74-.72,1.53-1.3,2-.07.25.33-.39.29-.15-.26.35-.64.62-.72.73-.41.43-.21.53-.64.98.08-.03.22-.02-.05.36-.29.32-.47.29-.32.06.06-.08.11-.11.11-.1.08-.12.18-.27.04-.17v.07c-.17.14-.55.59-.51.44-.18.27-.04.15.13-.02-.4.38-.54.67-.99,1.02.08-.05.18-.07.11,0-.63.54-.21.31-.6.72-.27.18-.02-.19-.39.24-.28.21-.13-.03-.05-.15-.32.41-.71.65-.96.8l.19-.19c-.11.11-.22.19-.32.28l.18-.03c-.13.09-.24.17-.26.14-.09.14.19.03-.02.29-.19.1-.48.44-.61.39.55-.38-.13-.04.31-.4-.08.08-.18.16-.32.24-.03,0,0-.03.03-.06-.56.31-.15.28-.68.68.03-.1-.19,0-.27.08.21-.16.16,0,0,.2-.37.21-.37.28-.56.4l.23-.12c-.04.1-.22.2-.47.38-.05-.03.21-.17.11-.13-.22.27-.69.3-1.05.6-.2.08-.08-.09-.25-.02-.4.33-.5.24-.96.52.18,0,.2-.02-.11.21.26-.15.52-.28.76-.46-.14.14-.28.27-.44.38.25-.1.47-.33.61-.39-.2.2-.18.17-.04.16-.36.1-.61.41-1.03.52l-.08-.19c-.61.19-.98.58-1.75.89l.25-.08c-.07.12-.45.24-.7.35,0-.07-.17-.04-.29-.04.03.04-.57.19-.6.35l-.38.04c-.64.18-.66.44-1.28.63.16-.14-.13-.09.26-.28-.2.07-.39.12-.38.16-.13-.01-.55.24-.76.23-.08.05-.09.13-.33.18-.03,0,0-.03,0-.03,0,.03-.36.14-.13.16-.7-.07-1.82.41-2.43.29-.46.08-1.02.21-1.44.24.03-.02,0-.03.08-.03-.59-.01-.34.23-1.02.21-.35-.08.35-.09.14-.11-.11-.21-.8.1-1.26-.04l.11-.02c-.34-.08-.84.12-1.4.08,0,0,.03-.02,0-.03-.38.09-1.12.12-1.66.09.18-.07.25-.02.15-.12-.24-.02.06.15-.43.12-.15-.07-.49-.15-.53-.26l.45.05c-.22-.15-.58-.07-.82-.12l.04-.05c-.69-.08-.72.02-1.45-.14l.07.06c-.43.03-.32-.13-.74-.16l-.08-.17c-.26-.06-.95-.15-1.4-.32.29.03.85.13,1.2.19-.25-.09-.86-.27-1.02-.26.1.03.25.03.34.09-.36.02-.76-.14-1.25-.37.1-.11-.21-.25-.56-.46-.33-.23-.72-.48-.82-.67-.8-.46-1.4-1.18-2.04-2.02.07.42-.2-.24-.33-.06-.18-.18-.2-.29-.2-.31l-.26-.74c-.03-.19.16.19.19.14-.25-.48-.03-.24-.15-.58-.02.09-.22-.1-.27-.42.01.15.03.3.08.44-.42-.65-.06-.68-.43-1.36l.14.21c-.07-.18-.24-.51-.3-.87-.08-.35-.17-.71-.29-.88.01-.07.05-.17.1,0-.03-.23-.09-.48-.14-.73-.02-.25-.05-.51-.07-.76-.03-.5-.12-.99-.01-1.35l.04.07c0-.18-.06-.31.02-.53.02.01.04.08.06,0,0-.09-.03-.48.03-.71l.03.21c.13-.91.16-1.42.31-2.2.08.03.16-.14.27-.34.12-.2.25-.44.33-.61l.02.02c.4-1,.68-1.71,1.13-2.62.49-.43,1.26-1.72,2.03-2.39-.12.1-.07-.1.03-.24.18-.16.36-.57.43-.44l-.06.06c.21-.04.55-.4.82-.67l-.08-.18c.87-.53,1.9-1.82,2.47-1.99.17-.18.41-.36.57-.54l.05.09c.55-.39.82-.58,1.5-1.06l-.1.15c.39-.25.33-.57.69-.81l.19.05c.68-.45,1.47-.75,2.09-1.29,0,.03,0,.07-.11.15.34-.19,1.35-.63,1.13-.75.07.11.74-.4,1.12-.65l-.02.12c.28-.28.27-.32.72-.58.12-.04.13.02-.03.07.39-.14.24-.23.72-.4l-.14.14c.39-.17.34-.19.52-.35.23-.15.74-.32.83-.27.03-.07.21-.24.45-.32.04.02-.03.07-.07.1.68-.22.92-.52,1.41-.63.02.03.06.03.1.02-.52.22-.94.4-.9.38.04.08.46-.08.18.17.31-.21.82-.59,1.25-.72.02,0,.05,0,.07,0l-.04.03c.1-.03.18-.07.25-.12.14-.04.22-.07.35-.12.08.05.5-.16.71-.24-.05-.08.23-.18-.06-.15.04,0-.04.03-.17.09-.03.02-.07.03-.09.05h.01c-.14.04-.32.12-.52.21.15-.12.31-.23.56-.27.08-.1.18-.21.24-.27.34,0,.93-.15,1.04-.1.63-.31,1.51-.63,1.85-.96.18-.09.23-.03.31-.03-.1.06-.23.1-.28.15.35-.19,1.09-.43,1.13-.58.49-.12-.22.21.41-.05l-.07.07c1.33-.27,1.95-1.06,3.46-1.28-.1.02-.15.03-.18.01,1.65-.42,3.32-1.17,4.99-1.41.47-.08.5-.17.77-.3l.13.08.45-.24c.67-.24,1.25-.03,2.09-.37l-.13-.05c.32-.05.99-.25.95-.15.03-.02.09-.09.22-.08l.02.05.76-.23c.61-.06-.06.23.82.1.32-.07.91-.3.78-.32-.13.02-.34.02-.36-.04l.3-.07c.03-.17.24-.37-.52-.37l-.5.18-.18-.05.44-.07c-.26-.04-.41.05-.57.12-.05-.04-.13-.05-.23-.05l-.48.24c-.07-.05.21-.17-.14-.14-.22.11.25.1-.13.22-.26-.03-.2-.1-.48.01-.05-.03,0-.07.12-.11-.25.1-.68.16-.79.27-.27-.04-.86.2-.87.05-.07.05-.42.22-.66.28.39-.28-.88.19-.81-.02-.28.24-1.12.35-1.65.6.03-.02.08-.06.13-.07-.32.07-.42.05-.63.07,0,.14-.48.31-.72.47-.42-.02.19-.22.03-.31.05.1-.63.3-.48.35-.31,0-.26.03-.44-.03,0,.18-.26.11-.47.29-.44.05-.16-.12-.6.07-.24.02.16-.17.16-.17ZM120.9,135.99h0c.09-.04.17-.08.22-.1-.04.02-.11.05-.22.1ZM120.01,136.37c.11-.05.24-.1.38-.16.04.02.02.06-.07.1.04-.04-.18.03-.32.06ZM122.14,136.22c-.13.07-.19.07-.22.06.06-.03.14-.07.24-.11v-.02s0,.05-.02.07Z"/>
          <path class="cls-3" d="M122.35,135.99s.03-.02.06-.03c-.03,0-.06,0-.09.01l-.04.05.08-.03Z"/>
          <path class="cls-3" d="M140.72,148.66v.02s0-.03.02-.04c0,.01-.01.01-.02.02Z"/>
          <polygon class="cls-3" points="108.39 142.86 108.41 142.88 108.46 142.81 108.39 142.86"/>
          <path class="cls-3" d="M142.36,143.63s.02-.03.04-.06c0,0-.02.03-.04.06Z"/>
          <path class="cls-3" d="M142.72,141.36l.06-.32c-.03.14-.05.24-.06.32Z"/>
          <path class="cls-3" d="M142.91,139.61s-.03-.03-.04-.04h0s.04.04.04.04Z"/>
          <path class="cls-3" d="M130.2,163.67l-.06.04c-.13.1-.04.04.06-.04Z"/>
          <path class="cls-3" d="M136.15,157.81c-.04.08-.09.16-.14.23.1-.11.18-.2.14-.23Z"/>
          <polygon class="cls-3" points="121.69 167.61 121.69 167.61 121.63 167.63 121.69 167.61"/>
          <path class="cls-3" d="M135.76,158.34c.11-.1.19-.2.25-.3-.08.09-.18.19-.25.3Z"/>
          <path class="cls-3" d="M142.69,131.96v-.08s-.02,0-.03,0l.03.09Z"/>
          <path class="cls-3" d="M142.67,131.87l-.03-.09s.01.08.03.09Z"/>
          <path class="cls-3" d="M142.59,131.59l.05.19c-.01-.07-.02-.15-.05-.19Z"/>
          <path class="cls-3" d="M142.88,134.3l.04.02s-.02-.02-.04-.02Z"/>
          <path class="cls-3" d="M142.95,135c0-.17.04-.43,0-.66l-.03-.02c.06.11-.05.53.03.68Z"/>
          <path class="cls-3" d="M142.56,137.96l.03-.59c-.04.1-.09.24-.1-.03-.11.74.09-.15.07.62Z"/>
          <path class="cls-3" d="M142.41,139.78c0-.32-.06,0-.08-.02.02.2.02.25.08.02Z"/>
          <path class="cls-3" d="M139.11,152.44l-.07-.07c-.11.22.03.02.07.07Z"/>
          <polygon class="cls-3" points="138.29 154.89 138.46 154.7 138.44 154.56 138.29 154.89"/>
          <polygon class="cls-3" points="136.94 155.79 136.98 155.69 136.78 156.05 136.94 155.79"/>
          <path class="cls-3" d="M118.98,167.32l.09.1c.16-.05.17-.18-.09-.1Z"/>
          <path class="cls-3" d="M109.56,167.32c-.09-.08-.34-.17-.51-.15.21.05.4.14.51.15Z"/>
          <polygon class="cls-3" points="107.05 145.2 106.94 145.36 107.17 145.09 107.05 145.2"/>
        </g>
        <g>
          <path class="cls-3" d="M344.61,18.92c.03.61.1.15.08-1.08v-.08s-.02-.04-.02-.04l-.04.05-.16.19-.25.33.25-.25s.09-.1.12-.12v.19s.02.81.02.81Z"/>
          <path class="cls-3" d="M337.03,22.44c-1.76.79-3.85,1.54-2.63,1.25,1.77-.74,2.23-.84,4.05-1.81,1.48-.71,2.53-1.34,2.32-1.15.5-.3,2.15-1.39,2.77-2.04-1.68,1.33-3.99,2.75-6.59,3.86-.57.2-.04-.04.08-.12Z"/>
          <path class="cls-3" d="M293.17,131.08l.78-.67c-.21.18-.48.41-.78.67Z"/>
          <path class="cls-3" d="M200.8,153.35c.71.24,1.01.33,1.05.33-.66-.22-1.21-.39-1.05-.33Z"/>
          <path class="cls-3" d="M185.91,145.62c.3.2.55.37.82.55-.32-.21-.62-.43-.82-.55Z"/>
          <path class="cls-3" d="M293.17,131.08c-.67.57-1.32,1.16-2.03,1.68-.12.15,1.09-.81,2.03-1.68Z"/>
          <path class="cls-3" d="M315.75,28.03c.53-.14.97-.26,1.38-.37-.44.11-.86.22-1.3.33-.02.01-.04.02-.08.04Z"/>
          <path class="cls-3" d="M301.95,91.21l-.25-.76c-.09-.22-.17-.42-.25-.61l.51,1.37Z"/>
          <path class="cls-3" d="M281.05,65.78c.41.65.64.82.83,1.04-.26-.34-.62-.79-.94-1.38-.02,0,0,.1.11.34Z"/>
          <path class="cls-3" d="M308.51,29.96l.88-.35c-.23.09-.61.24-.88.35Z"/>
          <path class="cls-3" d="M303.13,114.78c-.03.05-.06.17-.1.29.01,0,.05-.11.1-.29Z"/>
          <path class="cls-3" d="M308.39,31.02s.01,0,0,.02c.18-.08.23-.11,0-.02Z"/>
          <path class="cls-3" d="M344.86,18.94l-.38.38c-.03.05-.06.11-.04.12l.42-.5Z"/>
          <path class="cls-3" d="M159.27,130.03c.06.02.08.02.13.04.79.22.34.09-.13-.04Z"/>
          <path class="cls-3" d="M88.89,113.88c-3.06.94,4.91-1.76.3-.32.42-.15-4.06,1.66-.3.32Z"/>
          <path class="cls-3" d="M314.92,28.24c-.43.13-.87.25-1.31.38.6-.17,1-.29,1.31-.38Z"/>
          <path class="cls-3" d="M89.19,113.56h0s-.48.15-.48.15c.2-.06.31-.1.48-.15Z"/>
          <path class="cls-3" d="M96.01,109.7c.15,0,.43-.05.73-.09-.03,0-.19.01-.73.09Z"/>
          <path class="cls-3" d="M142.93,126.58c-.13-.43-.21-.88-.39-1.29.2.49.27.93.39,1.29Z"/>
          <path class="cls-3" d="M70.84,120.87c-.6.39-.83.49-1.61,1.07.08-.05.15-.1.25-.16.28-.22.67-.48,1.36-.91Z"/>
          <path class="cls-3" d="M49,139.48c.11-.11.25-.25.38-.37.2-.21.42-.45.63-.66l-1,1.03Z"/>
          <path class="cls-3" d="M303.87,93.77c-.09-.62-.19-.99-.23-1.29.04.44-1.05-3.59.23,1.29Z"/>
          <path class="cls-3" d="M315.73,27.98c-.15.07-.39.13-.81.26.32-.09.62-.17.92-.25.08-.04.09-.05-.11-.01Z"/>
          <path class="cls-3" d="M70.29,122.15c-1.24.87-2.5,1.7-3.7,2.62,1.01-.77,2.38-1.69,3.7-2.62Z"/>
          <path class="cls-3" d="M143.01,129.51l-.04-.27,1.36.02c-.51,0-.99-.02-1.36-.02.02.11.03.2.04.28Z"/>
          <path class="cls-3" d="M56.25,133.41c-.62.53-1.27,1.09-1.91,1.7-.13.14-.27.29-.36.39.74-.71,1.5-1.4,2.27-2.09Z"/>
          <path class="cls-3" d="M303.63,92.46s0,0,0,0c0,0,0,0,0,0Z"/>
          <path class="cls-3" d="M285.39,69.6c1.54,1.58,1.98,1.86,2.05,1.9.09.03-.13-.25.23.04,3.91,3.43,1.75,1.66,3.03,2.88,2.48,2.07,4.42,3.61,6.04,5.37.11.14.42.48.03.11,1.18,1.2,2.81,3.13,4.05,5.39,1.25,2.25,2.1,4.78,2.7,6.67.07.29.09.43.1.51-.11-.64-.07-.75.01-.63.27.93.51,1.8.66,2.54.17.73.3,1.32.3,1.69-.2-1.17-.29-1.26-.42-1.8.15.66.32,1.32.43,1.99.09.91-.03.23-.19-.68-.2-.9-.44-2.02-.49-2.01.96,3.84,1.48,8.45,1.44,11.5-.06.32-.09-1.46-.17-2.8-.1-1.34-.18-2.26-.08-.24-.08-1.56-.23-3.12-.45-4.67.16,1.79.06,1.08-.03.34-.12-.74-.25-1.51-.08.12.18,1.53.32,2.72.38,3.75.09,1.03.12,1.89.14,2.74.05,1.72.06,3.44-.25,6.49-.08,1.38.15-.44.06.94-.49,4.36-1.21,5.97-1.66,7.31-.29.65-.46,1.28-.86,2.03-.4.75-.76,1.76-1.64,3.1-.2.36-.37.67-.55.99-.18.32-.41.62-.68,1-.28.38-.61.83-1.06,1.4-.49.54-1.11,1.19-1.9,2.02l.97-1.23c-.51.54-.92.99-1.27,1.37-.37.36-.67.64-.92.88-.49.49-.8.8-1.11,1.12-.3.33-.66.61-1.21,1.09-.57.47-1.32,1.15-2.6,2.05.9-.66,3.62-3,2.92-2.42-1.59,1.26-2.13,1.72-2.6,2.1-.46.38-.81.72-2.07,1.64l-.6.27c-5.2,3.67-11.31,7.2-17.71,10.23.34-.2,1.42-.75-.09-.08-8.05,3.79-17.56,7.51-25.97,9.17-1.06.26-2.13.5-3.2.7-.75.12-1.4.18-.59.03-3.31.43-.16.09-1.75.35-1.89.24-2.5.22-1.31.06-2.93.34-7.13.77-11.38.89-4.25.14-8.54-.03-11.63-.41l1.21.07c-4.8-.54-5.47-.39-9.83-1.46l.84.18c-5.12-1.17-10.35-3.09-15-5.46-4.66-2.35-8.77-5.11-11.96-7.51-.66-.39-2.67-2.04-4.63-3.62-1.95-1.59-3.97-2.94-4.33-3.02-2.56-1.64-3.57-2.06-4.81-2.7-1.27-.56-2.81-1.35-6.91-2.57-2.21-.61-3.34-.71-6.11-1.17l-.05-.12c-1.27-.17-2.54-.29-3.81-.37-.67-.11-1.35-.2-2.02-.29-.88-.03-1.76-.08-2.65-.08,1.05.02,2.24.14,2.07.16-.46-.02-.95-.04-1.45-.06-.62-.01-1.26-.03-1.9-.04.13,1,.26,1.99.39,2.94.11.82.1,1.59.14,2.25.03.66.06,1.22.03,1.62-.02.4-.03.63-.04.65.05,1.6-.09,3.2-.22,4.8l-.36,2.38c-.11.8-.34,1.57-.5,2.35-.01-.22.43-1.77.55-3.04-.15,1.28-.35,1.95-.44,2.34-.1.39-.14.49-.17.57-.04.08-.07.15-.15.49-.07.34-.25.93-.6,2.05.22-.59-.05.34-.06.45-.1.27-.2.6-.35.95-.15.35-.32.73-.5,1.13-.18.41-.37.84-.56,1.3-.23.44-.48.89-.73,1.36-.26.46-.48.96-.78,1.41l-.9,1.37c-.56.94-1.3,1.72-1.89,2.5l.42-.63c-2.23,2.75-5.11,5.22-8.51,7.01-.85.44-1.7.91-2.63,1.22-.91.34-1.81.74-2.76.98-1.89.54-3.85.91-5.84,1.08,2.84-.29,2.22-.07-.12.18l-.94-.05c-1.51.16,2.45-.1-.65.15-1.5.03-1.99-.08-1.91-.1.09-.02.76-.02,1.61-.07-.6.02-1.21.03-1.81-.02l-.9-.04-.89-.11c-.2-.06.63.03.86.02-.37-.03-.93-.11-1.61-.2-.66-.18-1.45-.29-2.2-.59-.78-.23-1.51-.6-2.19-.92-.64-.38-1.24-.71-1.66-1.02l-.13-.15c-1.5-1.2-2.46-2.63-2.99-4.04-.34-.68-.46-1.4-.64-2.08-.08-.34-.19-.67-.23-1.01-.03-.34-.06-.67-.09-1-.21-2.63.26-5.17,1.8-7.99-.05-.16,1.23-2.35,2.53-3.8,3.2-3.56,7.72-6.57,12.93-9.08,3.68-1.74,1.04-.58,2.7-1.37.3-.06,5.69-2.23,2.92-1.05,3.24-1.31,5.34-2.05,7.67-2.82,2.34-.73,4.91-1.57,9.24-2.35-.95.11-2.01.31-1.47.18.78-.16,1.68-.3,2.36-.38.44-.05.81-.09,1.05-.12.08,0,.14,0,.11-.08,0-.05,0-.09,0-.11,0-.05,0-.06.01-.01.14.31-.23.23-.42.29l.37-.05s.07,0,.08-.02v-.09s-.03-.19-.03-.19l-.08-.69c-.05-.32-.06-.66-.16-.97-.08-.32-.16-.65-.25-.97-.12-.31-.24-.63-.36-.95-.54-1.25-1.28-2.44-2.19-3.5-1.83-2.12-4.17-3.81-6.55-5.2-2.4-1.39-4.87-2.48-7.21-3.38-2.34-.89-4.57-1.54-6.53-1.94l.44.1c-2.68-.67-5.43-.99-8.17-1.22-1.9-.1-1.33-.08-.63-.08.7,0,1.51.07.11-.07-4.46-.21-7.99.1-11.28.61-3.28.51-6.35,1.22-9.8,2.46-2.73.77-7.43,2.67-12.03,5.28-4.62,2.57-9.14,5.76-12.2,8.06l.39-.22c-1.53,1.25-1.89,1.46-3.05,2.35.19-.09,1.71-1.3.77-.5-12.98,10.59-24.65,24.27-34.15,38.5-1.78,2.57-2.22,3.34-2.79,4.27-.58.92-1.26,2.03-3.66,5.14l1.23-1.87c-1.82,2.56-3.74,5.11-5.8,7.53l-.6.69c-.04.05-.14.19-.17.05,0-.04,0-.09,0-.13,0-.05,0-.04.05-.26.02-.04-.02,0,.06-.09l.19-.23.38-.47c1.02-1.24,2.02-2.51,3-3.79,3.91-5.12,7.48-10.41,10.98-15.5-.4.62-.39.65-1.07,1.64.78-1.05,2.16-3.02,3.36-4.73.6-.85,1.16-1.64,1.56-2.22.2-.29.37-.53.48-.69.11-.17.17-.26.17-.27,1.15-1.54.31-.32,1.05-1.24,1.6-2.06,3.97-5.21,4.93-6.22.17-.17-.46.57-.75.95,1.03-1.36,5.17-6,4.03-4.84,3.1-3.43,5.99-6.52,8.69-9.03,1.65-1.76,5.86-5.32,6.38-5.88-.07.17,1.48-1.13,3.4-2.62,1.91-1.51,4.2-3.18,5.38-4.04-.39.3.14-.05.65-.39.52-.32,1.03-.63.57-.29,2.76-1.87,5.4-3.38,4.85-3.18,5.38-2.93,10.98-5.65,14.36-6.44,9.35-3.14,18.78-3.77,27.49-1.97-.18.08-2.57-.47-4.93-.67-1.17-.17-2.34-.17-3.17-.22-.84-.04-1.36-.02-1.27.02,4.2.05,7.5.55,10.74,1.25,3.24.68,6.38,1.79,10.21,3.47,1.95.93-1.14-.47-1.84-.69,3.89,1.58,7.54,3.52,10.47,6.11,1.46,1.3,2.71,2.78,3.6,4.44.24.4.43.84.6,1.27.2.42.32.87.45,1.32.15.44.22.9.29,1.35l.08.5.05.28s0,.12.05.11h.14s.94-.01.94-.01c0,0-.06,0-.15.01-.12,0-.29,0-.49.01-.12,0-.26,0-.4,0-.1.03-.1-.05-.11-.13l-.04-.22c-.04-.24-.09-.49-.13-.73.04.24.08.49.12.74l.04.24s0,.09.03.11h.12s.49,0,.49,0c.41,0,.82,0,1.17,0,.65-.01,1.1,0,1.02-.03-.48-.02-.96,0-1.44,0-1.18-.03.29-.15,2.09-.12,1.8,0,3.93.17,4.06.17-1.26-.01.59.14,2.24.42,1.65.27,3.1.58,1.12.36.96.14,2.16.36,1.95.27,1.41.31,1.85.44.41.19,2.58.55,3.4.8,4.17,1,.38.1.75.2,1.3.38.55.18,1.3.42,2.41.86-.03.03-.93-.31-1.41-.44,1.15.38,2.29.79,3.6,1.35,1.3.57,2.77,1.27,4.5,2.33-.22-.1.17.15-.87-.46,3.02,1.71,5.39,3.54,7.91,5.28,2.51,1.77,5.06,3.62,8.24,5.78-.98-.57-.45-.19.37.36.83.54,1.94,1.27,2.08,1.42,1.18.71,2.39,1.39,3.61,2.04l-1.42-.87c3.16,1.8,6.12,3.06,9.02,4.19-.85-.3-1.7-.6-2.53-.95,2.09.89,4.23,1.65,6.41,2.28-1.23-.36-2.43-.82-3.64-1.26,1.74.59,1.67.49,1.72.49.06-.03.22.08,2.53.76-.95-.24,3.48,1,5.35,1.32h-.01c1.77.27,3.61.47,6.27.75.69.09-.57.1-.12.16.89.01,3,.17,5.18.22,2.18.06,4.42.03,5.54-.06-.75.04-.78.11-.54.12l1.48-.11c1.68-.04,1.92-.04,1.65.03,5.04-.26-1.61-.03,4.37-.36-.47.04-.24.04-1.22.12,6-.4,11.56-1.32,16.91-2.73.81-.14-.36.17-1.5.48-1.14.3-2.27.52-1.34.38,3.91-.89,7.81-2.25,11.64-3.68,3.83-1.45,7.57-3.02,11.08-4.63l-1.32.58c.9-.59,5.26-2.31,8.66-4.23-.84.45-1.06.67-.84.53,2.35-1.21,4.7-2.55,7.28-4.15,2.56-1.63,5.4-3.5,8.5-6.03l-.75.65c2.54-1.81,6.32-5.27,8.42-7.93.16-.2.35-.44.54-.68.18-.25.33-.51.46-.7.25-.39.34-.56-.02-.09.36-.54.79-1.04,1.08-1.62.3-.57.61-1.14.91-1.7.48-1.18,1.01-2.33,1.32-3.54.76-2.38,1.1-4.82,1.36-7.21.4-4.8.14-9.47-.55-14.03.19,1.09.43,2.59.31,1.72-.36-2.6-.97-5.16-1.79-7.65.06.31.13.56.24.92.09.38.2.87.39,1.68-.28-.95-.92-3.07-1.66-4.86.36.8.5,1.22.56,1.35.06.13.02-.03-.06-.34-.18-.61-.67-1.79-.93-2.51.08.24-.16-.22-.13-.09-.88-1.86-.98-2-1.23-2.27-.26-.26-.47-.78-2.2-2.98l.22.2c-1.35-1.61-2.77-2.92-4.46-4.4-.64-.69,1.69,1.44,1.83,1.51-2.3-2.2-4.86-3.93-6.96-5.87,1.04.85,2.54,2.07,3.58,2.92-2.35-2.06-2.62-2.29-4.36-3.81l.17.15c-1.31-1.2-2.59-2.44-3.7-3.81l.87,1.04c-1.43-1.36-2.64-2.99-3.64-4.92-1.01-1.93-1.83-4.15-2.35-6.76.56,2.53.75,2.69.63,2.33-.08-.37-.3-1.32-.2-1.14-.29-1.32-.42-3.36-.34-2.78-.1-.61-.07-1.19-.1-1.74.02-.56.06-1.11.12-1.68.18-1.14.41-2.41,1.02-4.05.05-.06.34-.66.6-1.16.29-.49.58-.88.46-.63.41-.69.63-.96.68-1.03.05-.07-.08.07-.26.28-.32.46-.83,1.23-.78,1.1.62-1.07,1.41-2.18,2.49-3.15,1.06-.98,2.31-1.9,3.66-2.79,2.7-1.78,5.78-3.47,8.97-5.18,2.78-1.43,4.45-2.24,6.07-3.01,1.62-.77,3.21-1.5,5.9-2.59.93-.32.56-.15-.03.1-.6.26-1.41.61-1.41.61,2.96-1.12,5.18-1.96,8.02-2.86-.57.2.03.05.91-.17,2.3-.61,1.51-.54,4.6-1.15-.52.14-1.2.33-2.3.64,2.73-.66,5.47-1.18,8.33-1.78.77-.09-1.71.43-2.72.65,1.61-.31,3.7-.72,5.5-1.15,1.8-.42,3.29-.9,3.76-1.09-.68.19-1.36.37-2.04.54,1.16-.31.62-.08-.23.16-2.72.75-3.98.84-4.14.85l2.03-.45c-2.11.32-8.23,1.49-12.27,2.56.55-.2,1.1-.38,1.66-.56-1.39.35-2.75.78-4.11,1.25-.88.25-1.5.36.46-.3-2.88.86-2.51.87-4.96,1.69-.27.09-.15.04.09-.06-.91.35-1.82.73-2.72,1.11.52-.24-.49.09,1.19-.56-4.93,1.86-7.77,3.44-9.6,4.19l.39-.2c-1.64.8-2.49,1.25-2.92,1.49-.43.24-.45.27-.42.27.07.02.32-.11-2.06,1.25-1.13.5-2.23,1.04-3.34,1.59l-.56.47c-.65.38-1.9,1.19-1.7,1.01-2.3,1.61.42-.23-.9.73-1.51,1-3.54,2.52-4.84,4.25-1.33,1.71-1.96,3.43-2.17,3.79-.19.63.13-.19.33-.7.26-.49.28-.72-.36,1.11-.25.5-.55,1.59-.71,2.99-.12,1.4-.07,3.08.13,4.73-.27-.99-.37-4.17-.23-.82.17,1,.45,2.6.96,4.24.5,1.65,1.21,3.34,1.95,4.55.04.01.24.36.62.89.19.27.39.6.65.96.27.35.57.74.89,1.15,1.32,1.64,3.27,3.47,5.08,4.97-.34-.08,7.01,5.46,9.49,9.05l-.09-.09c.15.15.43.48.79.95.34.48.75,1.09,1.16,1.8.79,1.43,1.59,3.19,2.12,4.74-.11-.1-.31-.65-1.03-2.26l.59,1.41c.19.47.33.96.5,1.44.13.34.29.73.47,1.28.15.56.35,1.27.62,2.22l-.29-.72c.99,3.94,1.72,8.07,1.57,13.33.08.3.33-4.19.28,1.39-.05.21-.14.41-.13-1.05,0,.24,0,.66,0,1.15-.03.49-.07,1.03-.12,1.51.02-.74.08-1.48.05-2.22-.14,2.39,0,1.25-.14,3.17-.04-.04-.22,1.4-.24,1.12.09-.48.21-1.66.23-2.39-.05.54-.1,1.1-.15,1.66-.09.55-.17,1.1-.25,1.61-.14,1.02-.36,1.86-.47,2.27.07-.18.1.02-.24,1.56-1.16,3.91-.42,1.33-1.28,3.54-.23.97-1.54,3.21-1.47,3.33-.66.99-.83,1.14-1.1,1.5-.26.46-.87,1.1-1.49,1.86-.61.78-1.39,1.54-2.05,2.22-1.3,1.39-2.37,2.22-1.42,1.49l.41-.35c-.08.07-.16.15-.26.23h.01s-.01,0-.01,0c-2.51,2.4-5.41,4.56-8.38,6.59-3.01,1.98-6.1,3.81-9.12,5.47v-.04c-3.6,2.01-8.16,4.16-10.83,5.4-1.11.49-2.67,1.06-2.2.83-1.44.63-2.25.97-3.22,1.35-.97.39-2.11.84-4.26,1.57,2.95-1.14-1.04.34,3.02-1.16-3.84,1.4-4.72,1.68-8.88,3.06.7-.26-.04-.06-1.19.27-1.16.3-2.72.72-3.67.92.94-.17,1.86-.39,2.79-.62-1.05.29-2.04.54-3.01.74-.96.23-1.91.39-2.86.56l1.01-.3c-4.11.71-7.84,1.19-11.34,1.51-3.5.31-6.77.44-9.95.26-1.1.03.03.06,1.19.08,1.16.03,2.36,0,1.37.08-3.85.04-7.83-.4-9.03-.5-2.61-.27-3.83-.4-5.07-.54-.63-.06-1.25-.16-2.06-.3-.81-.12-1.8-.34-3.13-.68.34.1.66.22.4.2-.13-.01-.41-.06-.9-.16-.49-.13-1.19-.33-2.19-.6-1.83-.6-2.93-1.04-3.28-1.23-.35-.19.02-.08,1.17.31.87.29,1.29.45,1.25.45,1.18.39,2.75.79,1.31.33l-.49-.1c-.9-.32-2.6-.88-3.89-1.42-1.31-.51-2.21-.96-1.63-.73-2.67-1.12-1.17-.42.8.44-4.5-1.98-6.96-3.26-11.21-6.02.67.45,1.27.89.59.46-3.11-2.04-3.76-2.54-4.21-2.8-.44-.27-.64-.37-2.7-1.83-2.29-1.73.92.48-3.23-2.46-2.5-1.85-.47-.48.55.22-1.91-1.32-3.63-2.62-5.24-3.71-1.59-1.1-3.06-1.94-4.25-2.56.73.37,1.47.75,2.18,1.15-1.29-.72-2.37-1.27-3.48-1.8l1.23.69c-.65-.32-1.25-.62-1.68-.83-.44-.2-.71-.32-.69-.34-1.39-.53,1,.55-1.76-.5-1.76-.79-5.56-1.83-6.19-2.04,2.92.79,2.75.78,2.49.64-.27-.09-.62-.32,1.81.5-.94-.32-2.09-.68-3.49-1.07-.21-.06.21.02.59.13-2.79-.8-3.47-.84-4.15-.96-.69-.09-1.41-.19-4.38-.58.77.03-1.37-.28-2.35-.32,2.41.22,1.14.17-1.07.08-1.92-.12-2.97-.1-3.78-.08-.14,0-.21.03-.28,0l-.06-.31c-.08-.37-.1-.78-.26-1.27.12.37.16.76.22,1.14l.06.41v.08s.06,0,.08,0h.15c-.06,0-.12.02-.2.02-.09.02-.06-.13-.09-.2-.05-.23-.12-.7-.21-1.13-.24-.89-.57-2.02-1.24-3.19-.05-.11.3.41.48.9.2.48.37.88.2.43-.6-1.38-1.45-2.87-2.65-4.27-1.19-1.4-2.7-2.74-4.45-3.86-1.6-1.07-.08-.22-1.52-1.13-2.04-1.14-3.17-1.7-4.33-2.26-1.16-.58-2.38-1.08-4.68-1.93.64.3,1.02.46.84.41-.19-.05-.92-.37-2.58-.83,1.29.37,2.53.86,3.79,1.34,1.26.45,2.47,1.02,3.69,1.59-1.56-.72-3.16-1.34-4.79-1.92,2.28.83,4.73,1.93,6.01,2.63-2.22-1.05-1.99-.93-.98-.37-1.46-.79-2.96-1.44-4.57-2.02-1.58-.64-3.29-1.12-5.1-1.73l.17-.17c-2.78-.77-5.3-1.32-8.07-1.58-2.76-.32-5.77-.41-9.51-.19.8-.04,1.6-.1,2.41-.08-1,.04-4.62.26-7.01.65.21-.12-1.28.14-2.31.28.11-.07-5.35,1.24-5.94,1.64-1.08.27-2.13.64-3.19.97-2.84,1.02-4.39,1.79-5.91,2.55-.77.36-1.49.78-2.37,1.24-.88.45-1.87,1.01-3.14,1.71,1.49-.9-.85.3,2.55-1.59-.87.42-1.66.9-2.26,1.22-.59.33-.98.56-.98.59-.51.26-1.63.99-2.84,1.74-1.18.79-2.44,1.62-3.19,2.1-.65.5-.83.7-2.6,1.96-.2.13-.01-.03-.01-.03.01.03-2.69,2.07-1.13,1-2.45,1.69-5.69,4.31-8.69,7.05-3.01,2.73-5.8,5.55-7.66,7.36-2.91,3.05-6.25,6.89-8.66,9.86.14-.2-.02-.03.44-.59-1.7,2.02-2.16,2.69-2.68,3.43-.52.74-1.1,1.55-2.92,3.94-1.92,2.4,1.85-2.6.68-1.09-.7.52-4.25,5.87-6.65,9.13l.55-.81c-1.84,2.48-4.2,6.25-7.18,10.32,0,0,.13-.21-.01-.04-.97,1.43-2.41,3.46-4.05,5.57-.4.53-.82,1.06-1.25,1.59l-.64.79-.16.2c-.07.07-.13.16-.14.27-.04.16-.08.37-.1.58-.02.4-.05.8.22,1.04.08.05.18.04.25,0l.18-.16c.12-.1.26-.26.38-.41.5-.58.86-.99,1.26-1.49-.44.61-.81,1.03-.96,1.23-.19.24-.1.15.23-.16,1.4-1.67-.5.41,2.24-2.96.94-1.06,2.85-3.55,3.17-3.82-.81,1.1-1.64,2.19-2.48,3.27,1.4-1.57,3.21-4.23,4.48-5.98l-.12.26c3.61-5.14,3.5-5.33,7.36-10.86l-.43.55c2-3.1,1.83-2.49,3.91-5.52l.78-.81c1.42-1.97,5.1-6.81,7.96-10.11-1.56,1.92-4.75,5.89-6.62,8.44,1.45-1.92,5.09-6.4,5.89-7.37-.62.75-1.4,1.69-2.01,2.43,1.79-2.35,4.28-5.35,7.58-8.84-.19.41,1.95-1.88,4.59-4.42,2.63-2.55,5.78-5.35,7.19-6.37,3.21-2.77,6.56-5.31,10.22-7.71,3.66-2.39,7.63-4.64,12.13-6.64-3.28,1.23,2.62-1.19,2.01-1.09,1.07-.42,1.81-.71,2.31-.9.5-.18.76-.25.86-.28,2.21-.71,4.45-1.33,6.73-1.77,1.62-.28-2.12.49-1.89.54,2.44-.59,2.97-.63,3.27-.68.32-.04.43-.05,2.06-.26-.68.03,1.7-.43,4.55-.6-1.33.11-2.68.12-4.01.33,3.46-.54,4.99-.5,6.51-.49.76-.02,1.52.03,2.53.08.51.02,1.07.04,1.73.07.66.06,1.41.13,2.29.22l-2.22-.17c.9.1,2.18.19,3.64.39,1.45.25,3.1.5,4.71.94,1.63.34,3.2.91,4.61,1.32,1.38.5,2.58.93,3.42,1.23.58.27,1.33.66-.14.05,3.95,1.69,8.35,3.93,11.39,7.31,1.47,1.69,2.56,3.67,2.81,5.69.02.19.04.38.07.57.06.14-.12.09-.2.12-.47.06-.98.13-1.45.22-.95.15-1.85.32-2.69.49l.64-.19c-1.6.36-2.76.72-4.75,1.22.1-.05.62-.24-.11-.03-.84.23-4.13,1.36-6.16,2.09l1.72-.68c-4.04,1.39-7.05,2.67-9.88,3.97-2.81,1.33-5.39,2.77-8.34,4.81-.02-.04-.39.17-.94.56-.56.39-1.35.92-2.15,1.61-.84.65-1.66,1.47-2.47,2.25-.39.4-.73.82-1.07,1.21-.35.38-.65.75-.89,1.11l.05-.11c-1.55,2-2.58,4.2-3.08,6.39-.33,1.09-.32,2.21-.41,3.29.03.54.09,1.08.14,1.61.03.27.04.53.08.8l.2.77c.38,2.07,1.36,4.06,2.84,5.64,1.48,1.59,3.48,2.71,5.72,3.37,1.38.45,3.31.87,5.56.93,2.25.07,4.81-.16,7.41-.75,5.19-1.19,10.46-3.98,13.75-7.3-1.02.99.08-.25,1.23-1.43.38-.39.76-.91,1.18-1.43.41-.52.84-1.03,1.14-1.55.64-1,1.12-1.72,1.09-1.54l-.43.65c.55-.62,1.28-1.97,2.11-3.53.35-.81.71-1.67,1.08-2.54.29-.89.59-1.78.86-2.61,0-.2,0-.4-.02-.6.73-2.42,1.27-5.36,1.44-8.43.01-1.54.08-3.1-.08-4.64-.06-.77-.09-1.54-.22-2.29-.09-.6-.17-1.2-.26-1.78.44,0,.86.01,1.28.02.56.03,1.11.05,1.64.08,1.07.07,2.07.15,3,.26,1.86.21,3.39.49,4.45.74,2.13.34,4.73,1,6.78,1.63l-.14.06c2.83.95,4.89,1.86,7.02,2.98,2.13,1.12,4.29,2.52,7.18,4.86l-1.23-.88c3.29,2.58,4.26,3.18,7.46,5.39l.89.77c6.08,4.11,12.74,7.73,19.78,9.7-.12-.02-.34-.03-1.49-.38.83.25,2.05.63,3.39,1.04,1.37.32,2.84.75,4.21.98,2.72.55,4.89.73,4.27.57.02.04.5.12,1.27.23.77.11,1.84.17,3.03.27,2.38.16,5.26.18,7.24.13l-.62.1c1.68-.04,2.54-.14,3.57-.19,1.03-.05,2.22-.12,4.55-.29,1.11-.06.97.02-.5.08,1.85-.08,2.56-.19,3.37-.27.82-.08,1.72-.18,3.95-.4l-1.65.25c3.78-.41,3.48-.46,5.53-.86,2.36-.41,7.04-1.54,7.6-1.64.48-.19,2.46-.84,4.59-1.53.3-.07-.47.22-.86.35,6.05-1.97,8.82-3.38,12.88-4.97.1,0,.36-.11.7-.24-4.63,2.03-8.44,3.42-8.08,3.29.03.09,3.84-1.38.86-.09,3.04-1.23,8.15-3.53,11.74-5.23.18-.07.35-.14.49-.2l-.37.19c.83-.39,1.56-.77,2.25-1.12,1.15-.54,1.86-.93,2.94-1.49.46-.13,4.13-2.2,5.87-3.27-.19,0,2.1-1.35-.08-.14.28-.16-.32.21-1.49.9-.26.16-.57.34-.74.45.03-.02.07-.05.12-.08-1.17.64-2.67,1.52-4.43,2.43,1.41-.78,2.85-1.63,4.83-2.7.87-.58,1.82-1.22,2.36-1.58,2.46-1.31,6.91-4.32,7.52-4.76,2.46-1.9,5.29-4.27,7.51-6.84,2.23-2.55,3.92-5.21,4.56-7.08.4-.8.52-1.29.68-1.63.15-.34.24-.56.37-.86-.32.98-.72,2.13-.98,2.63.75-1.62,1.52-4.15,1.94-6.4.24-1.12.35-2.17.48-2.99.07-.82.12-1.41.11-1.63.38-4.44,0,2.51.33-3.6,0,.28.02.55.01.83.18-3.01.06-5.76-.23-8.35-.28-2.6-.78-5.06-1.49-7.49-.71-2.43-1.61-4.86-2.99-7.28-1.37-2.42-3.28-4.74-5.66-7.09.67.64.98.98,1.09,1.14-2.64-2.75-5.72-5.1-8.55-7.72-2.85-2.58-5.46-5.56-7-9.12-.34-.9-.74-1.78-.94-2.72-.22-.93-.34-1.89-.39-2.85-.1-1.92.07-3.85.55-5.7.47-1.84,1.27-3.62,2.64-4.9,1.32-1.32,2.86-2.43,4.42-3.43.88-.59,1.59-1.01,2.17-1.36.58-.36,1.03-.64,1.45-.89.83-.5,1.47-.92,2.61-1.55l.86-.34c1.29-.72,2.59-1.43,3.91-2.1,2.82-1.4,5.33-2.46,8.06-3.52,2.74-1.04,5.66-2.2,9.47-3.29l-1.01.2c2.74-.8,8.82-2.02,8.37-1.85.28-.07.91-.25,2.01-.44l.1.04c2.29-.5,4.58-1.02,6.84-1.67,2.63-.74,2.43-.67,2.55-.64.06.01.19,0,.77-.19.59-.19,1.64-.52,3.48-1.33,1.37-.6,3.22-1.71,4.44-2.78,1.23-1.06,1.92-1.92,1.53-1.52-.83.88-2.34,1.99-2.45,1.98.73-.53,1.42-1.12,2.06-1.76.12-.23.51-.74.28-.62-.12.06-.38.29-.93.75-.56.45-1.4,1.16-2.8,1.98-1.27.82-2.65,1.47-4.06,2.06-.47.15-.94.31-1.42.44,1.21-.43,2.41-.9,3.57-1.45-2,.85-3.3,1.35-4.76,1.9-.37.07-.98.25-1.87.48-1.43.47-2.88.88-4.34,1.25-.55.05,1.95-.56-1.02.06-2.06.51,2.02-.28-1.41.49-2.18.37-1.56.17-4.1.75-.37.03.17-.11,1.17-.32-2.26.48-6,1.27-7.14,1.69-1.13.25-3.03.8-4.57,1.37-1.55.55-2.78,1.02-2.7.91-.67.3-3.75,1.62-5.69,2.51,1.75-.86-.09-.09-2.23.89-2.14.97-4.57,2.18-4.15,1.86-2.49,1.43-9.29,4.77-13.12,8.31.21-.2.63-.59.98-.88-2.23,1.83-2.87,2.57-3.75,4.26-.04.2-.5,1.36-.81,2.82-.33,1.46-.45,3.2-.41,4.42-.04,1.78-.08,1.24-.14.39-.06-.85,0-2.01-.11-1.45.06-.09-.02,1.47.14,2.9.14,1.42.5,2.69.41,2.08.26,1.36.54,1.89.66,2.29.15.39.19.66.45,1.32.19.18.48.74.87,1.51.47.72.99,1.68,1.75,2.52.57.8.92,1.23,1.14,1.5.21.27.3.39.39.51.18.24.4.52,1.96,2.01.73.71.39.43-.14-.03-.51-.49-1.2-1.15-1.2-1.15ZM270.32,146.69h0c.79-.37,1.46-.69,1.88-.91-.39.2-.93.46-1.88.91ZM262.52,150.1c.96-.38,2.15-.88,3.41-1.42.29-.09,0,.07-.78.41.42-.2-1.43.57-2.62,1.01ZM279.1,142.97c-1.18.67-1.58.87-1.76.94.56-.3,1.21-.67,2.07-1.15.03-.02.1-.07.13-.09-.1.08-.22.17-.44.3Z"/>
          <path class="cls-3" d="M281.15,141.66c.17-.1.26-.16.48-.29-.24.13-.47.26-.71.39-.14.09-.28.19-.4.27.21-.13.43-.26.63-.37Z"/>
          <path class="cls-3" d="M294.08,130.29l-.14.12c.12-.09.22-.18.29-.24-.09.07-.09.07-.16.12Z"/>
          <polygon class="cls-3" points="152.8 129.98 152.81 130 153.55 130.1 152.8 129.98"/>
          <path class="cls-3" d="M300.78,86.82c-.03-.09-.11-.25-.26-.56,0,.03.12.27.26.56Z"/>
          <path class="cls-3" d="M287.07,72.02c-.7-.65-1.39-1.3-2.04-2,.84.9,1.51,1.51,2.04,2Z"/>
          <path class="cls-3" d="M278.95,59.19c-.06-.19-.09-.24-.11-.28,0,.01,0,.02,0,.03l.11.25Z"/>
          <path class="cls-3" d="M142.51,127.77c-.03-.2-.07-.4-.1-.58-.18-.66-.22-.76-.17-.58.06.18.2.65.27,1.16Z"/>
          <path class="cls-3" d="M209.26,155.97c-.77-.14-1.54-.24-2.34-.41,1.29.29,2.3.45,2.34.41Z"/>
          <path class="cls-3" d="M70.71,121.88s0,0,0,0c-.15.1-.28.18-.42.28l.42-.27Z"/>
          <path class="cls-3" d="M203.59,154.68c1.25.41,2.33.64,3.33.88-1.05-.26-2.29-.56-3.33-.88Z"/>
          <path class="cls-3" d="M329.36,25.2l.73-.18s.03-.02.08-.04l-.82.22Z"/>
          <path class="cls-3" d="M330.18,24.98l.81-.23c-.37.11-.69.19-.81.23Z"/>
          <path class="cls-3" d="M332.67,24.23l-1.68.52c.59-.16,1.31-.38,1.68-.52Z"/>
          <path class="cls-3" d="M309.35,30.03l-.21.12c.12-.05.19-.09.21-.12Z"/>
          <path class="cls-3" d="M303.54,32.36c1.38-.58,3.49-1.38,5.43-2.11l.17-.1c-.9.38-4.33,1.58-5.6,2.21Z"/>
          <path class="cls-3" d="M281.01,45.38c1.09-1.41,2.48-2.53,3.91-3.55-.76.52-1.78,1.19.16-.24-1.38.94-1.92,1.47-2.16,1.64-.22.19-.09.09.04,0,.13-.09.26-.17.02.05-.13.1-.33.3-.65.63-.33.32-.79.76-1.32,1.46Z"/>
          <path class="cls-3" d="M278.98,61.06c-.84-2.73-.06.05-.11-.09.28.86.53,1.37.56,1.43.05.05-.15-.32-.45-1.35Z"/>
          <path class="cls-3" d="M262.61,148.85l.23-.19c-2,.85,0,.04-.23.19Z"/>
          <path class="cls-3" d="M241.23,155.82c.7-.09,1.4-.22,2.1-.32l.98-.27c-1.03.2-2.05.41-3.08.59Z"/>
          <path class="cls-3" d="M227.94,156.48l.95-.05c-1.2.07-2.41.12-3.62.14.89-.02,1.78-.03,2.67-.09Z"/>
          <path class="cls-3" d="M52.52,135.77l.55-.38c1.04-1.04,1.18-1.35-.55.38Z"/>
          <path class="cls-3" d="M32.44,162.87c.58-.73,1.98-2.68,2.81-3.9-1.13,1.55-2.26,3.09-2.81,3.9Z"/>
          <path class="cls-3" d="M144,142.97c-.08.57-.15,1.15-.25,1.72.17-1.08.34-2.16.48-3.24-.05.51-.16,1.01-.23,1.52Z"/>
        </g>
      </g>
    </g>
  </g>
</svg>