<?xml version="1.0" encoding="UTF-8"?>
<svg id="Layer_2" data-name="Layer 2" xmlns="http://www.w3.org/2000/svg" viewBox="0 0 600 600">
  <defs>
    <style>
      .cls-1 {
        fill: #dddcce;
      }

      .cls-2 {
        fill: #e4e2d1;
      }
    </style>
  </defs>
  <g>
    <path class="cls-1" d="M564.91,222.34c-6.91-8.59-16.54-19.9-28.74-32.46-38.6-39.71-73.76-61.7-109.5-84.58-28.34-18.15-68.52-44.21-120.41-78.95-2.63-1.76-5.56-2.43-8.37-2.25-2.77-.19-5.66.49-8.24,2.25-51.07,34.74-90.62,60.8-118.51,78.95-35.18,22.89-69.78,44.88-107.77,84.58-12.02,12.56-21.49,23.87-28.29,32.46-1.71,2.16-2.62,4.79-2.61,7.5.58,106.93,1.15,213.85,1.73,320.78.04,6.76,5.75,12.22,12.79,12.22h505.84c7.15,0,12.96-5.46,13-12.22.59-106.93,1.17-213.85,1.76-320.78.01-2.71-.91-5.34-2.65-7.5Z"/>
    <g>
      <path class="cls-2" d="M568.26,219.63c-.52-.21-.95,0-1,.49-.04.23.07.61.3,1.08.23.47.56,1.04,1.01,1.74,1,.36,2,.85,2.97,1.48-.82-1.82-1.95-3.44-3.29-4.79Z"/>
      <path class="cls-2" d="M567.84,239.97c1.02,3.19,2.83,6.88,4.81,4.83-2.04-3.17-1.18-3.93-3.61-7.34-.24-2.72.71-4.73,1.5-4.27-.27-.48-.15-1.53-.12-2.65,0-.3,0-.52-.01-.88-.02-.35-.07-.69-.14-1.01-.16-.64-.43-1.19-.85-1.55-.2,1.08-.44,2.23-.69,3.22-.22.99-.35,2.02-.38,3.09-.06,2.14.25,4.43.92,6.77-.48,1-1.03.02-1.43-.21Z"/>
      <path class="cls-2" d="M563.04,505.07l.26-1.71c-.14.46-.22,1.05-.26,1.71Z"/>
      <path class="cls-2" d="M453.86,558.66c1.25-.05,1.77-.26,1.84-.46-1.16.14-2.11.27-1.84.46Z"/>
      <path class="cls-2" d="M425.81,556.3c.6.07,1.11.1,1.65.15-.63-.2-1.26-.31-1.65-.15Z"/>
      <path class="cls-2" d="M563.04,505.07l-.7,4.38c.7.31.53-2.25.7-4.38Z"/>
      <path class="cls-2" d="M572.81,276.56c-.1-.92-.29-1.69-.55-2.39.09.75.16,1.49.22,2.24.12.04.22.08.34.15Z"/>
      <path class="cls-2" d="M561.7,432.65v-1.33c-.24-.39-.53-.76-.86-1.11l.86,2.45Z"/>
      <path class="cls-2" d="M561.68,377.08c-.09,1.26,1.73,1.7,2.52,2.19-.75-.71-1.1-1.65-1.23-2.75-.35-.02-.76.14-1.29.56Z"/>
      <path class="cls-2" d="M565.37,288.97l-.24-1.57c.08.41.14,1.09.24,1.57Z"/>
      <path class="cls-2" d="M561.09,472.42c-.27.09-.51.29-.65.5.23,0,.45-.2.65-.5Z"/>
      <path class="cls-2" d="M526.98,168.9c-.12.06-.13.17-.22.24.37.09.53.06.22-.24Z"/>
      <path class="cls-2" d="M564.54,222.63l-.64-.63c-.33.14-.65.28-.91.49l1.55.14Z"/>
      <path class="cls-2" d="M374.49,553.96c.1.02.13.02.23.03,1.35-.21.59-.17-.23-.03Z"/>
      <path class="cls-2" d="M41.04,426.54c-1.6,5.35-2.14-8.68-3.9-.63.71-.75,2.88,7.29,3.9.63Z"/>
      <path class="cls-2" d="M572.57,278c.02.75.03,1.51,0,2.28.07-1.04.06-1.74,0-2.28Z"/>
      <path class="cls-2" d="M37.14,425.91h-.01s-.17.83-.17.83c.07-.34.12-.54.18-.83Z"/>
      <path class="cls-2" d="M256.22,555.06c.24.32.71.56,1.21.8-.04-.19-.31-.41-1.21-.8Z"/>
      <path class="cls-2" d="M344.33,557.65l-2.18-.24c.86.17,1.57.22,2.18.24Z"/>
      <path class="cls-2" d="M210.48,557.63c-1.19-.14-1.59-.39-3.21-.15.15.09.3.16.49.22.59-.25,1.36-.37,2.71-.08Z"/>
      <path class="cls-2" d="M162.86,557.64c.25.14.59.24.88.37.47-.03,1.02-.07,1.51-.1l-2.39-.27Z"/>
      <path class="cls-2" d="M408.11,84.24c.6,1,.83,1.82.96,2.57.09-1.48,6.21,1.92-.96-2.57Z"/>
      <path class="cls-2" d="M571.79,276.58c.46.28.68.69.78,1.42-.02-.55-.05-1.07-.09-1.58-.27-.14-.53-.17-.69.17Z"/>
      <path class="cls-2" d="M208.54,571.99l-7.56-.27c2.11.18,4.86.27,7.56.27Z"/>
      <path class="cls-2" d="M113.25,135.8l1.28-1.23c-.57.37-1.04.78-1.28,1.23Z"/>
      <path class="cls-2" d="M178.53,571.99c-1.35-.64-2.78-1.02-4.26-1.26-.31.14-.67.26-.88.47l5.14.79Z"/>
      <path class="cls-2" d="M409.07,86.83s0-.02,0-.02c0,0,0,.01,0,.02Z"/>
      <path class="cls-2" d="M453.36,110.18c-6.06-4-4.13.11-6.17.42-7.62-4.12-2.4-3.64-4.21-6.27-4.88-2.38-9.53-2.75-12.85-4.98-.04-.49-.62-1.03.42-.96-5.81-1.46-14.22-9.02-21.07-10.6-.3-.44-.4-.75-.4-.97.25,1.59-.27,2.7-.93,3.31-2.74-1.72-5.86-1.98-6.03-3.96,1.64,1.11,2.12.67,3.16.77l-3.21-1.27c-1.34-3.54,4.3,1.86,5.2.46-5.94-2.97-13.4-5.59-17.29-8.88.31-2.42,10.32,5.82,5.73.51l6.1,4.96c-3.13-6.16,3.86,2.79,1.27-3.31-8.28-6.13-10.27-5.32-18.51-11.47-2.6-.24-.35,1.93-2.95,1.69-13.42-6.15-6.58-10.92-17.15-14.35-3.12-.3-5.56,1.43-11.13-4l3.54-.64c-8.18-5.7-6.72-.15-14.5-7.3,2.09.21,6.99,3.64,5.89,2.56-4.55-5.37-4.77-1.46-9.1-4.33l.32-2.43c-9.03-5.58-19.64-10.73-29.63-16.93.91-.18,2.96.36,1.05-1.72l-.65-.37c-.31-.18-.62-.36-.94-.53-.63-.34-1.29-.65-1.96-.93-1.34-.56-2.76-.98-4.2-1.27-1.44-.28-2.92-.42-4.39-.39h-.55s-.23.03-.23.03c-.16.02-.27,0-.47,0-.74-.01-1.49,0-2.24.07-2.99.25-5.98,1.18-8.59,2.68l-5.38,3.34c-6.69,4.1-13.51,7.91-19.8,11.37l-3.46,4.63c-1.06.69-2.43.6-1.5-.47-5.02,2.51.44,1.16-1.37,3.28-2.56,1.88-4.08,1.43-2.74-.16-7.25,6.83-21.32,18.49-31.08,22.52l1.37-1.59c-7.14,3.82-5.42,8.29-12.64,10.94l1.01-1.07c-15.04,8.98-30.27,21.05-43.03,25.92-.63,3.67-15.21,8.44-14.07,12.27-4.71,1.96-6.57,2.41-8.8,3.22-2.24.81-4.86,1.96-11.11,5.44-3.24,2.02-3.32,5.18-6.93,8.2l-1.25-1.56-3.98,5.41-4.15.08-3.26,3.04c1.49-.95,3.55-1.5,3.67-.88-5.03,4.76-14.24,9.07-15.01,8.4-1.98,1.91-3.95,3.83-5.87,5.8-1.93,1.96-3.88,3.89-5.75,5.9-.24-.85,1.66-2.86,3.02-4.62-5.41,7.19-2.59-.59-7.5,6.06,1.12-.36.34,1.28.47,1.7-1.92.84-4.54,2.83-7.31,5.17-2.76,2.35-5.54,5.19-7.83,7.67v-1.88c-4.55,4.08-9.03,8.72-13.47,13.61-4.49,4.87-8.91,10.03-13.47,15.12,3.75-3.23,4.76-.78,2.28,2.34l-2.64-.21c-.72,2.8,3.35-2.6,1.06,2.42-3.51,3.66-4.06,1-2.65-1.66l-3.5,5.17c-.72-.13-.02-1.45-.38-2.26-.67,2.76-8.56,6.85-9.1,11.18l-.71-.12c-.53.67-1.05,1.32-1.55,1.94-.25.32-.49.62-.73.93-.39.5-.8,1.06-1.15,1.61-1.43,2.21-2.37,4.56-2.88,6.87-.26,1.16-.41,2.3-.47,3.43-.03.56-.04,1.13-.03,1.66.01.31.02.61.04.91.05,1.2.11,2.36.16,3.51.22,4.56.45,8.82.53,14.28,1.82.2,1.44,4.48,2.93,7.73-.54,8.04-1.92,16.96-1.71,26.64.94,6.8,1.55,1.98,2.65,5.03-1.66.51-1.45,10.18-2.67,5.17.33,11.62.41,14.84,1.84,29.52.67-1.6.96-3.39,1.53-2.47.29,2.66-.66,6.07-1.46,5.69l-.18-.7c2.58,16.48-4.63,38.09-1.1,51.2l-.17-.74,1.88,13.61c-.25,6.27-1.27-3.75-2.27.89,2.85,14.67-.28,23.21,1.63,35.3-4.84,9.39.52,33.23-2.53,45.88l1.15-.74c1.15,3.26-.64,3.95-.89,6.36.89-.35,1.02-3.55,1.65-1.52.77,13.83.43,28.11-.22,42.48-.37,7.19-.73,14.39-1.1,21.58-.18,3.59-.35,7.18-.53,10.75l-.02.34v.57s.04,1.23.04,1.23c.02.82.17,1.64.28,2.46.13.82.35,1.62.56,2.42.25.79.53,1.57.84,2.34,1.3,3.05,3.26,5.76,5.66,7.92.87.81,1.77,1.4,2.59,1.94.85.48,1.64.9,2.39,1.19,1.5.6,2.81.81,3.91.91,2.23.09,3.7-.37,5.17-.87.36-.12.73-.25,1.12-.38.22-.06.35-.12.47-.19.13-.06.26-.12.4-.18.56-.23,1.2-.41,1.99-.5,1.58-.2,3.75-.07,7.02.62l-3.71,2.14c20.94-2.57,42.82.09,63.32-2.09-1.22.49-1.26,1.14-3.26,1.13,4.33,1.55,16.01.08,16.08-1.19,3.19.14.74,1.15,2.71,1.79,4.34.92,10.9-1.98,13.21-.44.39.25-1.22.5-2.02.62,2.83-.75,13.19.19,10.48-1.6,7.69.86,14.72-.8,20.86.26,4-2.01,13.17.96,14.44-1.87-.55,2.93,13.49,2.36,18.35.99-1.63.89,4.23.92,2.32,2.14,5.55-.04,10.64-.59,9.67-2.09,10.23,3.51,20.56-2.82,26.32,1.67,16.49-1.57,31.75-2.64,46.59-3.33-.53,2.92-16.4.29-15.76,3.36,14.07-1.2,22.19-3.71,36.15-3.01,3.61.4-2.05,1.27-3.27,1.77,14.06-1.2,27.19.27,39.7-1.33-.03.27-1.38.57-2.66.79,2.47-.09,5.73.43,5.46-.9l-2.4.36c-3.94-1.93,9.79-4.03,10.23-5.05-4.18,3.81,12.36.96,5.71,5.77,1.62-.25,3.66-.88,3.29-1.77,2.41.26,3.17.78.73,1.79,8.83-.72,5.69-2.14,13.7-2.11-.03.64-1.64.89-2.47,1.65,4.05-1.25,8.12-2.51,14.88-1.96-.41.39.38.89-1.64.88,11.61-.19,19.79-3.34,32.53-2.13-3.76,2.79,4.33.92,5.01,3.34l6.85-.72-2.75-1.17c6,.04,11.3-1.72,16.46-.93l-4.46,1,11.25-.46-6.36-.92c6.07-1.25-.65-3.06,7.34-2.39-1.62.25,6,.03,9.13,1.45,0,0-.02,0-.02,0,2.97-.77,6.02-1.58,10.46-.98,1.15.77-.93,2.67-.18,3.19,2.93-2.02,14.05-.56,17.76-2.71-1.24.51-1.3,1.77-.89,2.04l2.46-1.64c2.78.53,3.19.78,2.74,1.79,8.36.3-2.66-3.07,7.27-1.75-.78.13-.41.38-2.03.63,9.97.69,19.26-1.04,28.42-.23,2.7,2.43-8,.6-4.91,2.65,6.6-.22,13.44-.95,20.22-1.55l2.54-.22c.37-.03,1-.09,1.51-.15.54-.04,1.07-.17,1.59-.27,2.1-.45,4.09-1.28,5.86-2.41,3.54-2.25,6.19-5.75,7.32-9.72-.33.97-.77,1.9-1.28,2.76-.25-.43-.38-.9-.39-1.41,0-.5.08-1.05.23-1.66.17-.6.31-1.29.52-2.04.15-.71.32-1.48.49-2.28.67-2.96,1.57-6.51.77-9.74.24,1.58,1.89,2.08,1.51,1.66.6-8.75-.75-17.9-1.75-31.16l.87,1.65c.82-5.15.53-13.58.96-19.15-.87-1.66-.71-4.84-2.01-2.91,5.12-17.15-2.52-32.78,1.76-48,0,1.82.75,4.35.76,2.9l-.74-12.99c-1.5,1.02-.92,1.7-2.1,4.42-.88-1.65-1.55-5.32-1.53-8.53.96,5.84,2.4-.04,3.25-2.55-.46.42-.96-.45-1.43-.24,2.7-6.77-3.01-1.15-1.16-10.4l.78.49c-.38-3.47-1.4-6.67-1.16-10.4,1.74-1.54.79,3.69,2.21,3.94-.07-5.25-3.22-10.37-1.47-15.11.47,2.23.46,5.44.93,7.67,2.06-5.16,1.55-5.76,1.89-9.61l-.05.38.97-8.88-.56,2.26c-4.48-6.59-.75-13.38-3.66-22.24,2.75,8.61,1.61,1.43,3.57,2.1.56-2.26,1.19-5.69,1.73-4.71-1.56-4.19,1.29-6.97-1-12.89.63-.26.09-4.47,1.67-3.52-.47-5.44-1.11,1.28-1.9.82-2.11-8.39,2.73-19.68-.17-31.75-1.16-10.4-3.28-12.33-4.29-21.99,1.03-3.25,2.29,2.68,2.29,2.68.96-5.25.81-9.2.11-14.15.55,1.01,1.02-.02,1.74-1.53-.14-3.97-2.29-2.67-1.33-7.9.7.9,1.82,2.06,2.52,3.98-.55-4.68-1.71-9.31-2.25-14.16,1.11-1.28,1.65,2.93,2.36,4.65-.47-5.45-.92-14.12-2.65-15.81l-.64,3.49c-.07-1.99,1.5-1.01,1.81.45,1.34,4.67-.64,6.73-1.28,6.99l-.39-3.45c-3.72,3.52.52,13.86.27,20.81l-2.68-2.91,2.2,7.14c-.71,1.51-2.22,2.54-2.6-.89-1.36,4.97.93,4.41-.57,8.68-.23.47-.36.26-.47-.18l.78,4.87c-.56-.96-1.91.8-1.5-2.19-1.6,8.73,1.94,14.09-.12,17.37l-.16-.73c.84,12.12,1.97,1.18,4.24,10.28l-4.91,6.09,1.97,1.2c-.08,1.25-.24,3.72-1.03,3.26,1.33,4.66.86-.79,2.13,1.92-1.83,6.01.75,16.6-2.41,17.93,1.49,2.17,1.19-5.75,2.2.68-3.4,1.81.54,7.43-1.05,12.92-1.74-1.7-.78-6.9-2.38-1.41,2.94,3.33-.71,10.7-.17,15.34,2.35.23.93,10.09,1.67,17.87-.79-.5-1.37,14.63-2.26,21.87l-.39-.22c2.37,1.41,1.88,8.88,2.34,14.32-1.42-.22-1.98-1.2-2.6-4.15l-.02,5.11c.76,1.21,1.15,2.81,1.4,6.12l-1.77-1.29c.06,6.8,2.02,13.71.78,22.45,1.66.5,4.66-6.94,5.71,2.33-.9.34-2.43.67-2.79-1.75.11.79.73,2.83.34,4.43l-1.49-3.71c-.68,3.98,1.25,2.09,1.09,5.28-1.28-.07-.93,2.35-1.94,1.89-.12-.81.54-2.78.05-4-.25,3.59-1.03,7.93-2.01,9.36.73-.31,1.72,0,1.87,2.64.06,6.8-1.55,2.32-2.23,6.28.88,1.65-.06,5.99,1.85,6.11-.02,1.99-.91,2.35-1.44,3.12.82,3.52.15,16.44,2.21,12.49l.14-.9c.04.17.04.37.08.58v-.03s0,.03,0,.03c1.84,11.55-1.21,23.96-.46,35.42l-.64-.02c.35,3.42.43,7.22.6,10.78.04.88.1,1.83.11,2.41,0,.67-.05,1.32-.15,1.95-.2,1.26-.58,2.42-.94,3.47-.52.72-1.5,1.25-2.27,1.37-.78.13-1.34-.1-1.3-.59-1.43,1.28-2.48,1.89-3.79,2.27-.34.06-.69.16-1.08.18-.41,0-.76.04-1.41-.01-1.2-.07-2.65-.23-4.54-.49,2.63-.56,2.17-.81,1.96-.89-.11-.04-.15-.05.28-.03.22,0,.55.02,1.06.04.25,0,.55.02.89.03.17,0,.36,0,.55.02.1,0,.2,0,.31,0,.08,0,.16,0,.24,0h-.23s-.31-.04-.31-.04c-.2-.02-.4-.04-.59-.06-.39-.04-.75-.08-1.11-.11-.71-.08-1.35-.16-1.96-.23-1.21-.15-2.27-.27-3.34-.32-2.14-.11-4.35.07-7.99.95,2.48-1.64-5.11-2.06-8.34-1.57l4.76,1.17c-3.63.24-6.8.09-10.02-.05l1.74-2.16c-13.89-2.62-25.05,4.46-35.62.07-3.67,1.51,7.54,1.06,4.26,2.82-6.39-.29-13.05-3.38-15.05-3.39-8.75-1.19-8.17,3.15-17.33,2.33,1.17.77,2.28,2.82-4.57,3.54-6.4-.28-7.86-3.22-3.82-3.84,1.53-.06,2.27.18,2.21.44,2.07-.28,4.78-.61,2.24-1.44l-.83.77c-3.17-.78-11.97-.7-9.9-1.96-4.83.73-2.07,1.26,1.51,1.66-8.2-1.11-12.81-.03-21.25-.78,1.34.42,2.58,1.33,1.24,1.32-12.38-.95-5.45,1.46-13.84,1.8-4.77-1.17,1.71-2.8-6.74-1.82-5.16-.79-1.09-2.04.96-2.67-7.69,1.48-14.38-.97-18.77-1.25l4.05-.62c-2.42.37-4.41.36-6.43.35l2.31,1.54c-2.38-.27-4.39-.27-4.35-.91-2.45,1.01,1.88,2.56-2.99,3.93-3.17-.78-9.66.84-10.76-1.2,9.98.69-1.1-2.05,7.34-2.38-1.63.24-3.62.23-6-.04-.36-.23.34-.42.99-.54-9.55-1.82-4.39,2.31-14.28,2.26,1.26-1.15-2.29-2.18-3.91-1.94,3.99.02,1.91,1.92-1.75,2.8-6.34-.9-6.9.67-10.22.56l3.79.42c-1.29,1.15-4.46,1-8.88,1.36-.38-.9,4.02-.62,2.44-1.01-4.91,2.02-11.1-2.09-17.94-.73-3.17-.78-.31-2.16-3.09-2.69-7.67,1.49-8.31-1.58-16.38-.34,2.32,1.54,2.73,1.17-2.95,2.67l13.26-1.09-8.51,2.25c4,.02,8.45-.97,10.84-.71-4.05,1.26-3.64.88-1.72,2.16-5.48-2.32-10.86,1.35-17.19-.22l.19-3.83c-9.52-1.71-16.91,1.96-29.27,1l3.97.66c-1.66,1.52-7.63.21-11.63.83.37-1.28-2.13-1.74-3.84-2.54.21.95-9.04-.09-10.17,2.47l-5.52-1.68c-9.98-.69-11.39,3.64-20.98,3.21,2.89-1.39-1.47-2.3,4.96-3.29-3.2-.01-6.08-.25-6.13.64-1.87-.8-8.88,1.72-11.82.51-1.35.56-1.79,1.9-5.39,1.8-.39-.26.01-.63.01-.63-.01.63-5.63.86-2.49,2.27-9.86-3.99-27.57.29-36.16-3.14-6.99.43-15.41.84-21.75.93.41-.38.02-.64,1.22-.5-8.75-1.19-5.38,3.67-15.34,2.34-5.09-2.07,5.29-1.12,2.12-1.9-1.38-4.21-12.02.57-18.72-1.88l1.62-.25c-5.12-1.43-12.5,1.59-20.87,1.29,0,0,.41-.37.05-.64-5.72,2.15-16.56,2.86-24.61,3.45,2.51-1.65,3.66-.87,2.13-2.54-3.61.24,1.06,2.69-6.15,3.16-2.34-.9-7.54-1.69-8.23-3.47l6.8-.1c-3.48-2.31-8.8.08-12.38-.32l.46-1.01c-.65.02-1.26.05-1.84.09-.52.04-1.01.08-1.47.12-.28.03-.56.1-.81.1-.26.03-.52.07-.75.06-.97.05-1.86.05-2.77-.14-.89-.2-1.83-.57-2.74-1.39-.9-.81-1.75-2.15-1.9-4.11-.26.29-.42.6-.64.94-.43-.51-.66-1.03-.83-1.49-.16-.51-.21-1.04-.22-1.46-.02-.86.18-1.5.39-2.15.43-1.28.94-2.56-.02-5.61l2.55-1.86c-.64-4.03-2.55-14.13-3.07-21.36,1.92,4.09,2.93,12.56,4.09,17.79,0-4-.26-13.6-1.54-15.67.26,1.61.89,3.64.51,5.23-2.04-4.9-3.06-11.35-3.06-19.32,4.97,1.39,1.14-20.79,4.96-26.59-1.91-14.09.63-27.98.25-44.42-3.83,5.85-.14-4.8-4.09-3.77-.28-3.83-.22-5.29.04-5.63l2.3-11.61c1.14-2.76.89,3.64,1.78,3.28.26-8.38,1.66-3.52,2.68-9.08-1.41,1.14-2.04-2.9-1.53-7.68l-1.79,6.74c-2.17-11.7,3.27-10.14,1.12-21.93l1.27,3.73c-.77-6.05-.1-22.35-3.31-28.27.45-1.07,1.53-2.5,1.83.17.4-14.48-3.56-32.21-1.66-43.47l.97,1.09c-.29-2.7-1.85-4.69-.89-8.08.4.17.97,1.08,1.02-.17-.34-1.43-1.74-7.16-1.19-10.75l1.11,3.05c1.19-14.13-2.77-21.66-3.5-33.49,2.85.02,3.72-11.1,4.15-16.65l.4.19c.13-8.22-.5-15.2-1.31-22.03l-.08-.64-.04-.32c-.01-.1-.03-.25-.04-.25-.05-.14-.09-.28-.13-.43-.07-.3-.1-.61-.1-.94,0-.33.05-.67.13-1.03.05-.17.1-.36.17-.53.02-.05.03-.08.06-.14l.17-.27.34-.55c1.81-2.93,3.74-5.91,5.94-8.97,4.18-2.59,9.53-8.35,15.45-14.56,2.96-3.1,6.03-6.34,9.16-9.32,1.56-1.5,3.1-2.96,4.62-4.34,1.55-1.35,3.08-2.61,4.56-3.76-1.99,1.22-1.29-1.85.42-3.92,2.93-2,5.74-8.09,7.1-5.8l-.95.82c1.82.03,3.96-1.27,6.17-3.03,1.1-.88,2.23-1.88,3.34-2.9,1.12-1,2.25-1.99,3.32-2.89l-1.52-3.2c3.59-1.49,7.22-3.76,10.71-6.48,3.56-2.65,7-5.72,10.38-8.58,3.33-2.9,6.6-5.58,9.54-7.67,2.99-2.04,5.66-3.47,7.96-3.71,2.44-2.74,6.08-5.25,8.55-7.94l.87,1.63c8.48-5.16,12.74-7.68,22.84-14.78l-1.39,2.47c5.9-3.7,4.5-9.23,9.83-12.84l3.12,1.23c10.18-6.69,21.81-11.45,30.49-20.16.06.44.19,1.3-1.39,2.48,4.83-3.09,19.52-10.71,15.71-12.69,1.47,1.96,10.6-6.76,15.46-11.32l.15,2.07c3.33-5.01,3.13-5.62,9.21-10.47,1.66-.83,2.14.3-.14,1.28,5.61-2.63,3.01-4.07,9.7-7.42l-1.65,2.5c5.3-3.4,4.54-3.63,6.66-6.69,2.88-2.81,10.15-6.31,11.84-5.48.14-1.3,2.25-4.33,5.59-6.03.76.23-.14,1.31-.6,1.84,2.35-1.22,4.26-2.5,5.92-3.75.83-.63,1.59-1.25,2.31-1.87.36-.31.71-.61,1.05-.91l.51-.45.25-.22.16-.16c.86-.83,1.86-1.45,2.99-1.71.56-.13,1.15-.16,1.74-.07l.65.1c.26.05.53.05.8.08.32.07.61.16.91.29.06.6.32.92.63,1.16-.3-.06-.6-.08-.9-.1-.33-.01-.45-.02-1.25.02l-.48-.02h-.23s-.1-.01-.1-.01c-.14,0-.28,0-.41,0-.27,0-.54.03-.79.06-1.02.13-1.89.46-2.59.82-.17.1-.34.18-.49.28l-.11.07-.17.11c-.12.07-.23.15-.33.22-.43.27-.79.5-1.08.68-.57.36-.84.5-.73.38.46.69,2.15.14,3.3.05.36.1.64.29.79.64.08.17.12.39.15.64.06.09-.09.34-.21.58-.13.24-.29.52-.49.83.24-.26.48-.53.74-.8.06-.06.14-.15.18-.2l.04-.11c.03-.08.06-.15.09-.22.12-.3.28-.6.5-.91.22-.3.49-.59.83-.85.17-.12.35-.25.55-.35.1-.06.2-.1.31-.15.32-.04.66-.04.99-.12l.48-.09.17-.07c.12-.05.23-.08.35-.12.24-.07.48-.13.73-.16.5-.07,1-.05,1.49.05.49.11.96.3,1.37.57l.22.15.27.19c.18.13.35.26.53.38.35.26.68.52.99.79.18.31.35.62.4.96l-.67-.22c1.17.98,2.39,1.61,3.61,2.09,1.6,1.4,2.59,2.31,4.26,3.45-.11,1.58,6.04,4.92,8.81,6.84.78-1.67,4.29,1.02,1.68-2.52.37.41-.65-.17-2.56-1.35-.45-.24-.96-.54-1.3-.64.08,0,.18,0,.28,0-1.87-1.18-4.29-2.75-7.04-4.54,2.73.71,5.47,1.6,8.01,4.51,2.09-.01,4.34.04,5.54.16,2.43,4.67,9.08,10.73,9.25,12.71,9.14,4.83,20.6,12.8,27.89,13.49,2.69,1.24,2.27,2.67,2.89,3.71-1.6-.64-3.25-1.79-4.28-1.88,5.37,2.48,14.69,9.21,17.16,7.97,5.58,4.93-4.67-.42,4.03,4.78l-1.54-.13c14.63,14.08,30.48,12.52,46.43,28.55-1.13-1.08-1.69-1.61-1.74-2.11,10.02,7.7,21.19,14.23,32.06,21.13,10.85,6.9,21.41,14.24,30.06,23.16,2.55,2.4,4.18,3.46,5.7,4.13,1.52.66,2.92.93,4.95,1.83l-.08,2.48,7.04,2.99c4.45,2.8,7.08,6.65,9.91,10.69,2.89,4,6.01,8.15,11.78,11.63l-.27-2.14c1.58,1.76,4.35,4.28,6.52,6.41,2.17,2.15,3.7,3.95,2.88,4.19.5.18,2.07.17,2.83,1.99l-.65.81c3.07,2.41,6.11,4.86,9.13,7.35,2.72,3.61,1.71,4.02,1.11,4.77-.61.76-.8,1.82,3.35,6.83,3.45,3.4,11.09,8.75,10.48,6.91-1.19-1.57-2.68-4.3-1.99-5.07l3.25,3.13c2.83-1.27,7.52-.49,2.03-10.47-2.14-1.61-4.28-3.19-6.44-4.75l-.54-2.85,4.35,4.92c-1.36-3.73-3.85-4.73-6.21-6.16.17-.98-.14-2.17-.96-3.52-2.41-1.27-4.84-2.51-7.27-3.73.24-1.48,4.05.94,1.04-3.28-3.42-1.71.4,4.31-4.28.58-1.54-3.64,0-3.63-3.87-5.97.13-.98,1.13-.66,2.58.36-3.35-2.19-7.53-7.08-10.06-7.37-.75-2-3.23-4.17-5.18-6.11-1.95-1.94-3.44-3.6-2.34-4.5-1.39-.33-6.55-3.04-9.3-5.31,3.59.89,1.11-1.36-1.8-4.04-2.89-2.71-6.34-5.69-4.49-6.54-5.63-.86-14.42-10.11-22.31-13.9.53.09,1.58.26,2.09.84-3.71-3.09-4.26-4.7-6.43-6.99-2.01,1.68-8.4-2.26-12.6-3.25-3.41-5.39,4.63-.39,4.48-3.37-.47.93-2.87-.13-5.06-1.09-2.2-.94-4.2-1.78-3.86-.51-2.86-3.78-2.78-2.8-3.53-5.83-2.43,2.2-3.78-1.89-7.96-2.31-4.56-4.86.24-3.41-6.26-6.49-1.16-1.33-.25-1.37.94-1.07,1.19.29,2.68.93,2.68.93ZM309.5,22.68s.02-.02.02-.03c1.23.77,2.28,1.43,2.94,1.84-.62-.38-1.47-.9-2.96-1.81ZM291.89,19.99c1.14-.3,2.45-.55,3.87-.63.35-.03.71-.03,1.07-.04h.55s.35.02.35.02c.1,0,.2,0,.31,0h.37c.38-.02.76-.02,1.14,0,.32.33.28.64-.05.87-.17.12-.4.2-.71.27-.15.03-.33.06-.5.08-.12.02-.25.03-.4.04.16-.12.1-.2-.08-.31-.1-.06-.2-.11-.39-.17-.25-.05-.55-.12-.88-.15-1.32-.2-3.17-.14-4.64.04ZM315.59,41.96c-2.01-1.03-2.43-1.74-2.48-2.22.9.56,1.96,1.2,3.38,1.99.09-.02.25-.01.34-.04-.37.17-.75.31-1.24.27Z"/>
      <path class="cls-2" d="M320.27,42.21c.29.15.48.18.84.4-.29-.39-.58-.74-.89-1.08-.33,0-.67.01-.98.03.34.22.7.44,1.02.65Z"/>
      <path class="cls-2" d="M563.35,503.07l-.04.3c.07-.25.15-.48.26-.62-.09.2-.15.2-.22.33Z"/>
      <polygon class="cls-2" points="125.65 125.67 125.93 126.04 126.72 124.98 125.65 125.67"/>
      <path class="cls-2" d="M570.03,425.18c.16-.15.33-.44.47-1.02-.12.04-.29.48-.47,1.02Z"/>
      <path class="cls-2" d="M570.62,391.52l.67-4.76c-.38,2.06-.56,3.56-.67,4.76Z"/>
      <path class="cls-2" d="M571.67,365.65c-.32-.33-.56-.42-.78-.51,0,.02,0,.03-.01.05l.79.46Z"/>
      <path class="cls-2" d="M346.11,569.83c-.35,0-.69.03-1,.08-2.34.35-.75.21,1-.08Z"/>
      <path class="cls-2" d="M468.56,565.58c-1.3.33-2.58.65-3.94.86,2.18.14,3.87.18,3.94-.86Z"/>
      <path class="cls-2" d="M209.37,572.02s0-.02.01-.03h-.84l.83.03Z"/>
      <path class="cls-2" d="M458.93,566.41c2.18.36,4,.29,5.69.03-1.79-.12-3.89-.31-5.69-.03Z"/>
      <path class="cls-2" d="M573.11,253.48l.08-1.25c-.12.02-.22-.05-.29-.15l.21,1.4Z"/>
      <path class="cls-2" d="M572.9,252.09l-.21-1.39c0,.64,0,1.19.21,1.39Z"/>
      <path class="cls-2" d="M572.25,247.79l.44,2.92c.01-1.01.07-2.25-.44-2.92Z"/>
      <path class="cls-2" d="M572.08,287.74l.66.4c-.13-.21-.35-.35-.66-.4Z"/>
      <path class="cls-2" d="M572.21,298.15c.16-2.48,1.44-6.22,1.05-9.69l-.52-.33c.97,1.63-1.63,7.65-.52,10.02Z"/>
      <path class="cls-2" d="M563.81,341.56l.58-8.72c-.71,1.52-1.67,3.52-1.82-.45-2.16,10.99,1.59-2.26,1.24,9.17Z"/>
      <path class="cls-2" d="M562.64,368.61c-.3-4.69-1.02.05-1.42-.2.62,2.98.78,3.7,1.42.2Z"/>
      <path class="cls-2" d="M557.01,557.69c-.15-.53-.32-1.08-.51-1.61-.85.55-.83.7-.51.85.3.14.93.26,1.03.76Z"/>
      <polygon class="cls-2" points="521.73 567.24 525.24 568.27 526.92 566.75 521.73 567.24"/>
      <polygon class="cls-2" points="499.65 555.44 501.23 555.2 495.2 555.8 499.65 555.44"/>
      <path class="cls-2" d="M171.33,556.03l1.09,2.04c2.44-.37,2.95-2.66-1.09-2.04Z"/>
      <path class="cls-2" d="M39.05,551.94c.23-.28.36-.61.56-.97.04-.09.08-.18.12-.27.02-.05.03-.07.05-.15l.05-.26c.07-.35.12-.72.16-1.09.16-1.5.06-3.11-.45-4.33-.06,1.59-.29,3.19-.46,4.58-.04.35-.08.69-.12,1.01-.02.21-.04.42-.05.61-.05.36.05.65.14.88Z"/>
      <polygon class="cls-2" points="105.7 161.45 103.97 163.75 107.68 159.97 105.7 161.45"/>
    </g>
  </g>
  <g>
    <path class="cls-1" d="M549.45,223.3c-33.47,14.54-69.25,32-106.55,53.06-55.23,31.17-103.03,64.14-143.57,95.65,0,19.43,0,38.87,0,58.3,0,.81.6,1.61,1.72,2.26,38.4,23.66,80.34,47.55,125.8,70.82,42.63,21.82,83.68,40.7,122.6,57.07,5.44,2.15,14.08.47,14.16-2.75l3.95-165.83-3.95-165.83c-.08-3.22-8.72-4.9-14.16-2.75Z"/>
    <g>
      <path class="cls-2" d="M547.86,219.29c-.14.36-.03.8.28,1.06.3.27.93.28,1.72-.07.2-.8.46-1.6.76-2.39-.93.38-1.86.84-2.76,1.4Z"/>
      <path class="cls-2" d="M559.09,222.43c.96-.32,2.12-.69,3.13-1.14.99-.46,1.86-1.06,1.48-2.37-1.66.36-2.34.49-3.11.63-.74.16-1.51.39-2.67,1.46-1.56.03-2.7-.88-2.43-1.67-.3.27-.94.15-1.63.17-.69.02-1.42.18-1.76.92,2.35,1.35,4.43,1.38,7.43.64.46.6-.23,1-.43,1.37Z"/>
      <path class="cls-2" d="M563.82,361.25l.23-.91c-.13.25-.2.56-.23.91Z"/>
      <path class="cls-2" d="M562.02,448.68c-.03-.67-.24-.95-.44-.98.13.62.25,1.13.44.98Z"/>
      <path class="cls-2" d="M559.3,463.58c.08-.32.11-.59.17-.88-.21.33-.32.67-.17.88Z"/>
      <path class="cls-2" d="M563.82,361.25l-.62,2.34c.7.16.49-1.2.62-2.34Z"/>
      <path class="cls-2" d="M569.43,239.39c-.11-.49-.33-.89-.6-1.26.1.4.19.79.26,1.19.12.02.22.04.34.07Z"/>
      <path class="cls-2" d="M561.17,322.72l-.02-.71c-.25-.21-.55-.4-.89-.58l.91,1.29Z"/>
      <path class="cls-2" d="M560.13,293.15c-.06.67,1.76.88,2.56,1.12-.76-.37-1.13-.86-1.28-1.44-.35,0-.76.09-1.28.32Z"/>
      <path class="cls-2" d="M562.21,246.19l-.27-.83c.08.21.16.58.27.83Z"/>
      <path class="cls-2" d="M561.28,343.89c-.27.05-.51.16-.64.27.23,0,.44-.11.64-.27Z"/>
      <path class="cls-2" d="M514.54,229.72c.03.13.1.19.14.29.08-.24.07-.38-.14-.29Z"/>
      <path class="cls-2" d="M549.63,223.73l-.4.28c.09.34.18.67.31.98l.08-1.26Z"/>
      <path class="cls-2" d="M556.32,490.85c.02-.05.02-.07.04-.12-.19-.72-.16-.31-.04.12Z"/>
      <path class="cls-2" d="M400.93,481.3c1.73,2.77-5.05-.34-2.14,3.27-.01-.82,4.76-.68,2.14-3.27Z"/>
      <path class="cls-2" d="M569.21,240.17c.03.4.06.81.05,1.21.05-.55.03-.93-.05-1.21Z"/>
      <path class="cls-2" d="M398.79,484.58h0s.31.37.31.37c-.12-.15-.2-.24-.3-.37Z"/>
      <path class="cls-2" d="M555.91,553.78c.32-.12.57-.37.81-.62-.19.02-.42.16-.81.62Z"/>
      <path class="cls-2" d="M559.62,506.96l-.27,1.16c.18-.46.24-.83.27-1.16Z"/>
      <path class="cls-2" d="M546.97,553.75c-.53-.37-.62-.69-1.51-.8.04.12.08.21.15.31.38-.11.81-.05,1.36.49Z"/>
      <path class="cls-2" d="M523.75,543.73c.07.18.19.35.28.52.24.07.52.16.77.23l-1.05-.76Z"/>
      <path class="cls-2" d="M445.88,265.9c.74.17,1.32.5,1.82.86-.97-.94,2.09-3.16-1.82-.86Z"/>
      <path class="cls-2" d="M568.41,239.43c.46.14.7.35.8.74-.03-.29-.07-.57-.12-.84-.27-.07-.53-.08-.68.1Z"/>
      <path class="cls-2" d="M540.41,566.57l-3.62-1.83c.97.61,2.29,1.27,3.62,1.83Z"/>
      <path class="cls-2" d="M291.92,371.11l-.22-1.67c-.04.6.01,1.19.22,1.67Z"/>
      <path class="cls-2" d="M525.64,560.22c-.41-.88-.96-1.52-1.59-2.06-.21.06-.43.09-.62.24l2.21,1.82Z"/>
      <path class="cls-2" d="M447.72,266.77s-.02-.01-.02-.01c0,0,0,.01.02.01Z"/>
      <path class="cls-2" d="M469.19,250.28c-3.46,1.75-.52,2.92-.61,4.51-3.76,2.75-2.71-.56-4.67-.9-2.25,1.92-3.16,4.89-5.09,5.83-.33-.27-.76-.2-.57-.87-1.78,3.11-7.9,4.4-9.85,8.21-.33-.06-.55-.17-.69-.3,1.08.77,1.75,1.8,2.07,2.61-1.49.86-2.06,2.88-3.39,1.83.95-.48.71-1.07.91-1.74l-1.25,1.48c-2.52-1.17,1.78-1.89.97-3.34-2.73,2.37-5.41,5.98-8.07,6.78-1.58-1.64,5.14-3.76,1.03-3.69l4.07-1.32c-4.49-1.46,2.34-1.03-2.04-2.83-5.14,2.14-4.83,4.02-9.94,6.19-.47,1.68,1.25,1.37.79,3.04-5.68,5.78-8.1-1.69-11.61,3.73-.54,2.02.36,4.69-3.89,5.53l-.07-2.86c-4.72,2.53-.79,4.64-6.44,6.07.35-1.35,3.18-2.86,2.33-2.7-4.12.18-1.48,2.52-3.86,3.96l-1.63-1.58c-4.68,3.26-9.2,7.89-14.31,11.58-.05-.74.5-1.9-1.11-1.68-6.15,5.15-14.46,8.88-21.6,12l-1.4,3.2c-.58.36-1.53-.02-1.12-.73-2.89,1.06.54,1.09-.25,2.51-1.34,1.05-2.47.33-1.89-.74-3.52,4.25-10.52,11.24-16.23,12.73l.57-1.08c-4,1.83-1.8,5.97-6.09,6.81l.43-.72c-8.15,4.72-15.56,12.15-23.01,14.09.51,2.99-8.21,4.54-6.41,7.97-5.43,1.68-4.61.22-11.4,3.77-1.72,1.08-.95,3.71-2.68,5.55l-1.26-1.55c-.24.63-.45,1.23-.72,1.88-.52.84-.99,1.65-1.42,2.42-1.32.01-2.75.11-4.29.29l-1.95,1.96.15,1.26c.03-.38.1-.76.19-1.09,1.23-.57,2.46-.83,2.71-.48-.38.4-.79.8-1.26,1.2.14,2.78-.28,5.64-.85,8.12-.57,1.5-1.29,2.58-1.75,2.62l1.69,8.59c-.8-.19-1.08-1.63-1.59-2.77,2.04,4.59-2.1.83-.24,5.03.45-.56,1.19.3,1.59.4-1.21,2.09-1.22,6.86-.71,10.39l-1.38-.68c-.35,6.37.66,13.43.63,20.58.64-2.57,3.03-1.98,3.26.12l-2.11.84c1.31,1.35.8-2.19,2.39.59-.24,2.67-2.4,1.8-3.09.26l.37,1.62.18.81.18,1.36c-.63.39-.96-.93-1.77-1.31.33.62.36,1.56.26,2.71-.09,1.15-.39,2.57-.33,3.94.04,1.38.31,2.64.98,3.77.65,1.1,1.57,1.85,2.62,2.07l-.27.62c.58.55,1.2,1.06,1.85,1.51.66.45,1.34.82,1.98,1.22.65.38,1.27.75,1.88,1.11.35.2.7.39,1.04.58,1.24.68,2.36,1.26,3.45,1.82,2.19,1.1,4.25,2.11,6.77,3.58,1.04-1.5,2.79.03,5.04-.34,3.38,2.71,6.75,6.38,11.28,8.89,3.6,1.06,1.7-.79,3.66-.9-.61,1.56,3.92,4.05,1.01,3.72,5.5,2.91,7.02,3.72,14.5,6.48-.4-1.01-1.08-1.75-.37-1.99,1.37.47,2.46,2.22,1.89,2.81l-.41-.04c8.86,2.22,15.32,14.27,23.17,14.65l-.43-.04,7.25,1.94c2.8,1.86-2.36.13-.68,2.22,8.21,1.35,10.71,6.3,17.29,7.73,2.1,6.71,15.86,8.02,20.41,13.91l.18-1.2c2.07-.2,1.58,1.55,2.6,2.38.25-.88-1.21-1.79.04-1.85,13.78,5.55,26.46,15.37,39.7,22.94,4.87,2.7,5.42-3.98,10.54,1.52l-2.72,1.07c11.21,2.54,20.68,9.9,31.57,12.48-.8.18-1.08.75-2.06.3,1.46,2.37,7.77,3.63,8.33,2.48,1.5.83-.11,1.21.58,2.23,1.75,1.79,6.13.59,6.63,2.5.09.31-.8.2-1.24.13,1.69-.07,6.37,3.04,5.77.82,3.41,2.46,7.53,2.44,10.1,4.74,2.76-.99,6.08,3.69,7.83,1.36-1.43,2.58,5.7,5.02,8.63,4.77-1.15.48,1.72,1.73.31,2.46,2.75,1.12,5.47,1.68,5.58.09.06.15.37.39.59.56.24.18.5.37.73.52.49.32.97.57,1.47.78.99.42,1.99.64,2.97.73,1.96.19,3.78-.16,5.46-.61,1.69-.46,3.21-1.02,4.8-1.45.8-.21,1.62-.4,2.56-.58.93-.18,1.96-.34,3.24-.68.6-.56,1.29-1.32,1.92-2.26.66-1.03,1.26-2.21,1.59-3.75.17-.69.23-1.58.23-2.22l-.06-.41-.12-.81c-.15-1.08-.3-2.16-.44-3.22-.28-2.13-.53-4.23-.76-6.29-.45-4.13-.79-8.15-1.04-12.11,2.91.35.08,8.75,3.16,8.47-1.02-7.53-3.43-11.91-2.55-19.33.45-1.92,1.24,1.12,1.72,1.78-1.02-7.52.61-14.49-.82-21.18.27.02.55.75.76,1.43-.06-1.32.5-3.05-.83-2.92l.33,1.29c-1.98,2.07-3.9-5.28-4.91-5.53,3.75,2.29,1.11-6.57,5.84-2.96-.23-.87-.83-1.96-1.72-1.78.29-1.28.82-1.68,1.8-.36-.61-4.72-2.06-3.07-1.93-7.33.64.02.87.89,1.62,1.34-1.2-2.18-2.4-4.36-1.77-7.96.38.22.9-.19.86.88-.05-6.19-3.09-10.59-1.72-17.36,2.75,2.03.98-2.3,3.4-2.64l-.63-3.66-1.21,1.45c.12-3.2-1.58-6.04-.72-8.78l.94,2.38-.32-6-1,3.38c-1.17-3.25-3.07.32-2.29-3.93.23.87.11-3.2,1.57-4.85,0,0,0,.01,0,.01-.73-1.59-1.5-3.22-.85-5.58.79-.61,2.66.51,3.19.11-1.98-1.57-.38-7.49-2.49-9.48.49.66,1.76.7,2.02.49l-1.61-1.32c.56-1.48.82-1.69,1.83-1.45.41-4.45-3.1,1.4-1.65-3.88.12.42.37.22.6,1.08.82-5.31-.8-10.26.13-15.14,2.47-1.44.49,4.26,2.59,2.62-.14-3.52-.78-7.16-1.3-10.78-.26-1.81-.48-3.61-.6-5.38-.17-1.77-.28-3.52-.17-5.22l-.24,1.27c-3.46-.94,1.58-5.07-.12-8.51.27.84,1.93,1.1,1.54.88.44-4.67-1.07-9.53-2.32-16.59l.9.87c.72-2.75.28-7.24.61-10.21-.9-.88-.8-2.57-2.06-1.54,4.81-9.19-3.11-17.44.88-25.59.03.97.83,2.31.81,1.53l-.98-6.91c-1.48.56-.88.92-2.02,2.38-.91-.87-1.64-2.81-1.68-4.52,1.07,3.1,2.4-.05,3.21-1.4-.45.23-.97-.22-1.43-.11,2.58-3.64-3.03-.57-1.35-5.52l.79.25c-.45-1.84-1.53-3.53-1.35-5.52,1.71-.85.85,1.95,2.28,2.06-.17-2.8-3.41-5.48-1.75-8.03.51,1.18.56,2.89,1.07,4.07,1.97-2.78,1.44-3.09,1.72-5.15l-.04.2.81-4.75-.52,1.21c-4.6-3.44-.99-7.11-4.06-11.78,2.91,4.54,1.64.73,3.61,1.05.52-1.21,1.08-3.05,1.65-2.54-1.64-2.2,1.16-3.74-1.23-6.85.63-.15,0-2.39,1.6-1.91-.57-2.89-1.08.7-1.88.47-2.26-4.43,2.37-10.54-.75-16.91-1.35-5.52-3.51-6.5-4.69-11.61.97-1.75,2.33,1.37,2.33,1.37.86-2.82.64-4.92-.14-7.54.56.52,1.02-.04,1.71-.86-.22-2.11-2.33-1.36-1.47-4.18.72.46,1.86,1.05,2.59,2.06-.64-2.48-1.88-4.92-2.51-7.49,1.08-.71,1.71,1.52,2.45,2.41-.28-1.45-.58-3.32-1.02-4.94-.22-.81-.48-1.56-.8-2.15-.18-.86-.57-1.53-.96-1.89-.38-.39-.75-.55-1.05-.58.26.52.47,1.12.51,1.78.02.16,0,.33,0,.48l-.02.24-.04.12-.14.47c-.11-1.06,1.48-.58,1.82.19,1.43,2.45-.52,3.6-1.15,3.76l-.45-1.83c-3.66,1.97.77,7.37.64,11.07l-2.73-1.48,2.33,3.75c-.68.82-2.17,1.41-2.62-.41-1.27,2.68,1.01,2.33-.42,4.64-.23.26-.36.15-.47-.09l.86,2.57c-.58-.5-1.89.47-1.54-1.13-1.44,4.68,2.2,7.46.2,9.25l-.18-.39c1.06,6.43,1.99.58,4.43,5.38l-4.8,3.35,1.99.6c-.06.67-.17,1.99-.97,1.76,1.41,2.45.85-.44,2.16.98-1.72,3.24,1.05,8.82-2.08,9.6,1.53,1.13,1.09-3.08,2.21.32-3.37,1.03.67,3.95-.81,6.9-1.77-.87-.91-3.66-2.4-.71,3,1.72-.51,5.71.11,8.17,2.36.08,1.11,5.35,1.99,9.48-.8-.25-1.11,7.81-1.87,11.67l-.4-.11c2.4.72,2.04,4.7,2.6,7.59-1.43-.1-2-.61-2.67-2.17l.08,2.72c.78.63,1.2,1.48,1.51,3.24l-1.79-.67c.18,3.62,2.27,7.27,1.19,11.94,1.67.25,4.53-3.74,5.76,1.18-.89.19-2.42.38-2.82-.9.13.42.78,1.5.42,2.35l-1.56-1.96c-.61,2.13,1.29,1.1,1.19,2.8-1.28-.02-.88,1.26-1.9,1.03-.13-.43.49-1.48-.02-2.13-.18,1.91-.89,4.23-1.84,5,.72-.17,1.72-.01,1.92,1.39.18,3.62-1.51,1.25-2.12,3.36.91.87.04,3.19,1.96,3.24.02,1.06-.87,1.26-1.38,1.67.89,1.87.45,8.75,2.43,6.63l.12-.48c.04.09.05.2.09.31v-.02s0,.02,0,.02c2.05,6.14-.78,12.76.19,18.85h-.64c.82,3.63.63,8.09,2.06,10.68.02,1.08-1.11,2.54-1.88,2.08.44,2.78,1.13,3.09-.01,7.11-1.05-2.8-1.01.96-.75-2.87-.64,3.61-1.68,4.43-.03,8.31-1.61-1.32-2.13,2.72-1.68,4.43l1.23-2.53c.19,1.93,0,3.62-.17,5.33l-2.13-.93c-2.8,7.38,4.14,13.35-.38,18.95,1.46,1.96,1.16-4.01,2.88-2.25-.37,3.4-3.55,6.92-3.58,7.99-1.31,4.65,3.05,4.37,2.11,9.23.78-.62,2.85-1.19,3.49,2.46-.37,3.4-3.32,4.16-3.89,2-.05-.82.21-1.21.47-1.17-.25-1.1-.55-2.55-1.41-1.21l.76.45c-.82,1.68-.85,6.36-2.09,5.25.67,2.58,1.23,1.11,1.68-.79-1.22,4.35-.2,6.82-1.05,11.3.44-.71,1.36-1.36,1.33-.65-1.11,6.58,1.39,2.92,1.62,7.39-1.23,2.52-2.78-.94-1.9,3.56-.86,2.73-2.05.56-2.65-.54,1.38,4.11-1.16,7.64-1.48,9.97l-.57-2.16c.34,1.29.3,2.35.27,3.42l1.57-1.21c-.3,1.26-.33,2.33-.97,2.3.98,1.32,2.58-.96,3.9,1.64-.82,1.68.72,5.15-1.34,5.71.82-5.3-2.06.56-2.29-3.94.22.87.19,1.93-.11,3.19-.23.19-.42-.19-.53-.53-1.94,5.05,2.25,2.37,2.08,7.63-1.13-.69-2.21,1.19-1.99,2.05.07-2.12,1.94-.99,2.78.98-.98,3.36.58,3.68.43,5.45l.47-2.01c1.13.7.94,2.39,1.25,4.75-.9.19-.57-2.15-.98-1.31,1.96,2.65-2.23,5.87-.96,9.54-.82,1.67-2.16.12-2.73,1.6,1.39,4.11-1.68,4.39-.55,8.71,1.57-1.21,1.2-1.43,2.64,1.62l-.92-7.08,2.14,4.57c.07-2.13-.86-4.51-.57-5.78,1.21,2.18.83,1.95,2.14.96-2.39,2.87,1.21,5.81-.43,9.14l-3.82-.18c-1.83,5.03,1.75,9.04.63,15.59l.71-2.1c1.5.92.11,4.06.68,6.21-1.27-.23-1.77,1.09-2.59,1.98.48-.04.43,1.16.57,2.45.07.65.2,1.32.46,1.87l.03.05v.03s.02,0,.02,0h0c-3.57-.08,4.86.12,3.99.1h0s0,0,0,0h0c-.07-.01-.1-.02-.15-.05-.16-.06-.26-.13-.38-.19-.54-.32-1.3-1.09-2.01-2.14-.18-.27-.39-.43-.66-.64-.52.03-1.13.31-1.66.7-.54.38-1.05.89-1.6,1.37-.55.48-1.16.94-1.89,1.2-.72.26-1.61.3-2.49-.1.76-.49.76-1.1.93-1.59.18-.51.44-.87,1.55-1.21-.53-.08-.95-.25-1.25-.29-.3-.04-.46.06-.66.47,0-.11-.15-.22-.33-.31-.18-.09-.41-.15-.66-.2-.51-.1-1.15-.15-1.8-.22-1.3-.14-2.64-.35-3.13-1.22-.88.24-1.62,1.38-3.34.53-.09-.32.25-.58.25-.58-.25.58-3.09-.39-2.11,1.57-3.25-5.72-13.59-5.54-16.39-10.53-3.57-1.1-7.83-2.55-10.94-3.84.35-.26.27-.58.8-.19-3.75-2.99-4.11,2.18-8.4-1.21-1.61-3,3.02.14,1.81-1.27,1.07-4.13-6.05-2.12-8.27-5.84l.89.13c-1.87-2.44-6.7-1.32-10.6-3.48,0,0,.35-.25.29-.57-3.66.67-9.18-1.14-13.31-2.44,1.91-.92,2.13.04,2.11-1.82-1.84-.61-.64,2.67-4.31,1.45-.74-1.35-2.89-3.26-2.45-5.02l3.3,1.47c-.67-2.88-4.25-1.95-5.79-3.13l.66-.8c-5.12-2.11-6.3.15-11.57-2.62l.22.96c-4.03.83-1.82-2.47-5.56-2.22l.25-2.73c-2.19-.4-7.83-1.12-11.49-2.42,2.8-.71,7.26.42,10.25.65-1.89-.96-6.55-3.04-8.1-2.41.88.17,2.12.08,2.7.81-3.23.64-6.74-.03-10.52-1.97,2.91-4.08-9.29-6.12-10.25-10.96-7.5-1.79-12.81-7.54-20.65-11.36.92,4.86-2.3-1.1-3.69,2.64-1.91-.74-2.57-1.16-2.61-1.47l-4.31-5c-.74-1.71,2.11.15,2.37-.72-3.76-2.38-.84-2.37-2.92-4.69-.15,1.53-2.33,1.05-4.29-.63l2.26,3.3c-6.48-1.11-3.12-5.49-9.61-6.66l2.34-.14c-3.18-.89-10.35-5.74-14.65-4.51-.27-.68-.4-1.99.98-1.55-6.46-4.15-16.55-5.47-20.76-10.15l.99-.55c-1.38-.47-3.07.33-4.14-1.42.28-.3.98-.55.44-.93-.82-.09-4.14-.44-5.5-1.89l1.95-.13c-5.83-4.87-11.26-3.52-17.01-6.17,1.47-2.44-3.11-6.26-5.39-8.17l.3-.29c-3.64-2.4-7.11-3.81-10.61-5.04-.88-.3-1.75-.6-2.63-.9l-.33-.11c-.09-.02-.1,0-.15,0l-.27.02c-.18,0-.38,0-.59,0-.41-.03-.9-.04-1.34-.2-.21-.08-.41-.22-.52-.39-.09-.17-.16-.36-.23-.56.39-.4.7-.76.95-1.07.06-.08.12-.15.18-.23l.08-.11.04-.06.04-.17c.1-.45.18-.93.25-1.42.29-1.96.41-4.19.49-6.51.15-4.65.14-9.67,1.01-13.72-.52,1.24-2.22-.2-2.51-1.64.58-1.9-1.98-5.25.64-4.95l-.05.68c2.57-1.43,1.88-5.33,1.95-8.38l-3.42-.5c1.52-2.43,1.94-5.32,1.92-8.29,0-.74-.04-1.49-.09-2.23l-.09-1.12c0-.08-.02-.21-.02-.25l-.03-.09-.05-.18c-.15-.48-.33-1.03-.45-1.6.34-.47.82-.93,1.34-1.1.06.01.43-.19.72-.32.3-.13.6-.24.9-.31.6-.16,1.2-.2,1.8-.12.99-1.85,2.89-3.26,3.88-5.09l1.03,1.52c4.49-2.83,6.75-4.21,11.74-8.47l-.29,1.85c3.02-2.11.61-7.01,3.31-9.13l2.44,1.61c5.19-3.83,11.87-5.67,15.64-11.36.15.39.45,1.14-.34,1.84,2.51-1.71,10.66-5.19,7.62-7.65,1.45,1.97,5.59-3.59,7.88-6.43l.57,1.8c1.14-3.56.86-4.14,3.91-6.97.94-.34,1.52.73.18,1.06,3.23-1.01,1.16-2.82,4.97-4.2l-.58,1.77c2.86-1.73,2.29-2.1,3.08-4.24,1.35-1.77,5.56-3.09,6.86-1.99-.17-1.08.64-3.2,2.55-3.88.56.37.16,1.09-.04,1.44,5.35-1.99,5.86-6.24,10.05-6.82.39.46.76.58,1.12.56-3.76,2.35-6.82,4.19-6.61,3.9.9,1.4,4.07-.28,2.91,3.19,1.73-2.6,4.41-7.55,7.8-8.72.23.05.45.09.7.24l-.21.35c.77-.29,1.3-.8,1.73-1.4,1.09-.36,1.79-.56,2.71-1.1,1.07.94,3.88-1.52,5.43-2.39-1.08-1.47,1.07-2.44-1.59-2.58.31-.04-.17.36-1.15,1.05-.2.19-.46.37-.55.56,0-.06,0-.13.02-.2-.98.64-2.26,1.48-3.71,2.44.7-1.54,1.55-2.98,3.77-3.14.17-1.48.4-3.03.59-3.81,3.42.89,8.14-.4,9.52.62,4.14-3.68,10.66-7.15,11.9-11.82,1.12-1.16,2.04-.05,2.81.12-.6.75-1.55,1.24-1.72,1.91,2.22-2.34,7.77-4.91,7.23-7.34,3.93-1-.82,3,3.66,0l-.27.99c5.52-.97,8.51-4.37,11.72-7.75,3.21-3.36,6.65-6.68,12.97-7.3-.86.12-1.28.19-1.62-.08,12.76-4.42,23.46-14.66,36.82-17.42,3.67-1.03,3.35-2.58,4.91-4.63l1.59,1.41,2.54-3.73c4.3-3.9,10.72.2,15.75-5.6l-1.38-.81c2.39-.84,6.94-4.05,7.18-2.5.13-.33.18-1.59,1.37-1.37l.49.9,4.93-4.15c4.69-1.28.97,4.01,7.45,1.35,2.22-1.4,5.59-5.7,4.42-5.94-.98.38-2.72.49-3.2-.41l1.97-1.45c-.81-2.94-.34-6.52-6.59-6.08l-3.02,3.35-1.8-.8,3.13-1.49c-2.35-.47-3,1.16-3.93,2.49-.62-.58-1.37-.84-2.23-.77l-2.5,4.28c-.93-.87.69-2.88-2.05-2.36-1.17,2,2.74,1.66.25,3.75-2.36-.43-2.3-1.7-3.91.34-.62-.57-.38-1.22.31-1.92-1.48,1.71-4.78,2.63-5.07,4.53-2.57-.67-6.1,3.34-7.13.67-.3.89-2.32,3.58-3.97,4.49,1.64-4.58-6.46,2.86-7.23-.82-.97,3.87-7.71,5.27-11,8.82.12-.33.34-1,.77-1.03-2.39.91-3.47.41-5.19.63.84,2.41-2.43,4.72-3.62,7.08-3.89-.77.34-3.51-1.6-5.17,1.07,1.76-3.91,4.29-2.17,5.34-2.81-.25-2.16.29-4.22-1.02,1.09,3.01-1.73,1.5-2.59,4.14-3.78.22-2.17-2.22-5.08.4-2.05-.02.42-2.59.42-2.59ZM393.7,300.03s-.02-.03-.02-.03c.63-.45,1.18-.83,1.52-1.07-.31.23-.75.55-1.5,1.1ZM387.31,304.1c.81-.44,1.79-1.04,2.8-1.71.56.39.66,1.09,0,1.47.12-.58-1.57.08-2.81.24ZM407.5,306.32c-.88.84-1.4.75-1.73.52.46-.32.98-.72,1.65-1.28,0-.08.01-.18,0-.26.09.36.15.7.08,1.02Z"/>
      <path class="cls-2" d="M408.07,303.18c.12-.12.17-.24.35-.37-.29-.01-.56,0-.82.02-.02.24-.04.49-.06.71.18-.12.36-.25.53-.36Z"/>
      <path class="cls-2" d="M564.09,360.18l-.04.16c.07-.13.14-.25.25-.33-.09.11-.14.11-.21.18Z"/>
      <polygon class="cls-2" points="299.64 361.27 299.93 361.63 300.21 360.91 299.64 361.27"/>
      <path class="cls-2" d="M569.35,318.63c.16-.08.32-.24.45-.55-.12.03-.28.26-.45.55Z"/>
      <path class="cls-2" d="M569.33,300.69l.59-2.55c-.34,1.1-.5,1.9-.59,2.55Z"/>
      <path class="cls-2" d="M569.91,286.89c-.32-.17-.57-.22-.79-.26,0,.01,0,.02-.01.03l.8.23Z"/>
      <path class="cls-2" d="M571.83,506.21c0,.19.03.37.07.53.32,1.25.2.4-.07-.53Z"/>
      <path class="cls-2" d="M569.13,440.9c.31.69.62,1.38.81,2.1.17-1.16.22-2.06-.81-2.1Z"/>
      <path class="cls-2" d="M540.81,566.77s0-.01.02-.03c-.14-.06-.27-.11-.42-.18l.4.2Z"/>
      <path class="cls-2" d="M569.83,446.04c.39-1.16.34-2.13.1-3.03-.14.95-.36,2.07-.1,3.03Z"/>
      <path class="cls-2" d="M569.31,227.09l.06-.67c-.12.01-.22-.02-.29-.07l.24.74Z"/>
      <path class="cls-2" d="M569.07,226.35l-.12-.37s-.05-.31-.09-.54c-.04-.24-.09-.48-.15-.71.06.32.1.65.12.95,0,.1.02.2.02.29,0,.04.01.07.02.1.03.13.09.23.19.28Z"/>
      <path class="cls-2" d="M566,220.91c.49.35.99.77,1.49,1.41.49.59.95,1.46,1.23,2.41-.2-1.02-.66-2.05-1.18-2.7-.26-.35-.52-.57-.79-.79-.25-.17-.51-.28-.74-.33Z"/>
      <path class="cls-2" d="M568.9,245.37l.67.2c-.14-.11-.36-.18-.67-.2Z"/>
      <path class="cls-2" d="M569.23,250.91c.12-1.33,1.33-3.35.87-5.19l-.53-.16c1,.85-1.49,4.12-.34,5.35Z"/>
      <path class="cls-2" d="M561.62,274.21l.42-4.65c-.68.82-1.6,1.91-1.82-.2-1.96,5.89,1.54-1.24,1.41,4.85Z"/>
      <path class="cls-2" d="M560.94,288.62c-.39-2.49-1.02.04-1.42-.08.68,1.57.85,1.95,1.42.08Z"/>
      <path class="cls-2" d="M563.38,392.67l-1.65-.25c.19,1.92.64.02,1.65.25Z"/>
      <polygon class="cls-2" points="571.47 412.58 572.54 410.71 571.05 409.82 571.47 412.58"/>
      <polygon class="cls-2" points="559.38 424.29 559.17 423.45 559.69 426.66 559.38 424.29"/>
      <path class="cls-2" d="M528.51,544.06l-.29,2.1c1.33.19,2.5-1.81.29-2.1Z"/>
      <path class="cls-2" d="M459.34,514.34c-.29-1.28-1.9-2.8-3.51-2.47,1.46.87,2.62,2.33,3.51,2.47Z"/>
      <polygon class="cls-2" points="307.39 385.25 308.07 386.77 307.5 383.9 307.39 385.25"/>
    </g>
  </g>
  <g>
    <path class="cls-1" d="M50.55,223.3c33.47,14.54,69.25,32,106.55,53.06,55.23,31.17,103.03,64.14,143.57,95.65,0,19.43,0,38.87,0,58.3,0,.81-.6,1.61-1.72,2.26-38.4,23.66-80.34,47.55-125.8,70.82-42.63,21.82-83.68,40.7-122.6,57.07-5.44,2.15-14.08.47-14.16-2.75l-3.95-165.83,3.95-165.83c.08-3.22,8.72-4.9,14.16-2.75Z"/>
    <g>
      <path class="cls-2" d="M48.97,227.31c.35-.16.57-.57.52-.96-.06-.4-.23-.75-.83-.79-.45.61-.86,1.25-1.23,1.91.53-.09,1.05-.14,1.54-.15Z"/>
      <path class="cls-2" d="M41.06,223.1c-.7.69-1.28,1.66-1.29,2.58-.03.94.47,1.76,1.06,2.56-.14-1.07.19-1.51.46-1.94.3-.44.61-.93,1.24-2.26,1.31-.44,2.33.53,2.11,1.31.21-.28.7-.16,1.19-.12.5.05,1.02.02,1.45-.59-1.36-1.91-4.13-1.98-5.99-.12-.57-.34-.27-1-.23-1.41Z"/>
      <path class="cls-2" d="M30.17,361.22l.28-.91c-.15.25-.23.56-.28.91Z"/>
      <path class="cls-2" d="M29.62,448.75c-.07-.67-.29-.94-.48-.97.16.62.3,1.12.48.97Z"/>
      <path class="cls-2" d="M27.61,463.71c.06-.32.08-.59.12-.88-.19.34-.29.68-.12.88Z"/>
      <path class="cls-2" d="M30.17,361.22l-.73,2.34c.7.17.55-1.2.73-2.34Z"/>
      <path class="cls-2" d="M41.59,239.63c-.09-.49-.28-.9-.53-1.28.08.4.15.79.2,1.2.11.02.22.04.33.08Z"/>
      <path class="cls-2" d="M29.35,322.62v-.71c-.22-.21-.52-.41-.84-.6l.84,1.31Z"/>
      <path class="cls-2" d="M29.73,293c-.09.67,1.72.93,2.51,1.2-.74-.39-1.09-.89-1.21-1.48-.35-.02-.76.07-1.3.28Z"/>
      <path class="cls-2" d="M34.05,246.11l-.23-.84c.07.22.14.58.23.84Z"/>
      <path class="cls-2" d="M28.45,343.82c-.27.05-.51.15-.66.27.23,0,.45-.1.66-.27Z"/>
      <path class="cls-2" d="M78.17,245.18c.08-.11.08-.2.14-.29-.23.09-.34.19-.14.29Z"/>
      <path class="cls-2" d="M50.74,222.87l.47.1c.18-.3.37-.59.5-.89l-.98.79Z"/>
      <path class="cls-2" d="M25.93,491.11c.02-.05.02-.07.03-.12-.22-.72-.18-.31-.03.12Z"/>
      <path class="cls-2" d="M206.18,494.59c-3.28-.09,3.11-4.03-1.53-3.6.69.44-2.1,4.35,1.53,3.6Z"/>
      <path class="cls-2" d="M41.33,240.4c.01.4.02.81-.01,1.21.07-.55.08-.92.01-1.21Z"/>
      <path class="cls-2" d="M204.65,490.99h0s-.47.05-.47.05c.2-.02.31-.03.48-.05Z"/>
      <path class="cls-2" d="M28.53,554.14c.32-.14.56-.39.78-.66-.19.03-.41.18-.78.66Z"/>
      <path class="cls-2" d="M30,507.13l-.22,1.17c.15-.46.2-.84.22-1.17Z"/>
      <path class="cls-2" d="M57.1,563.34c.64-.12.93.03,1.63-.53-.11-.05-.21-.08-.33-.1-.19.35-.53.62-1.31.63Z"/>
      <path class="cls-2" d="M80.44,553.24c-.18-.07-.38-.1-.58-.15-.22.13-.47.28-.7.41l1.28-.27Z"/>
      <path class="cls-2" d="M146.67,279.31c-.23-.72-.26-1.38-.22-1.99-.29,1.32-3.75-.06.22,1.99Z"/>
      <path class="cls-2" d="M40.56,239.62c.46.16.68.38.77.77-.01-.29-.04-.57-.08-.85-.27-.08-.52-.1-.69.07Z"/>
      <path class="cls-2" d="M52.44,549.72l3.79-1.32c-1.1.28-2.48.77-3.79,1.32Z"/>
      <path class="cls-2" d="M293.26,376.12c-.07-.07-.15-.12-.22-.18-.04.11.01.18.22.18Z"/>
      <path class="cls-2" d="M67.05,543.44c.91.3,1.76.34,2.57.25.09-.2.22-.38.24-.62l-2.81.36Z"/>
      <path class="cls-2" d="M146.45,277.3s0,.02,0,.02c0,0,0-.01,0-.02Z"/>
      <path class="cls-2" d="M121.2,268.59c3.35,1.81,2.67-1.24,4.03-2.08,4.35,1.53,1.04,2.54,1.83,4.35,2.8.78,5.77-.14,7.59.96-.05.42.25.74-.41.95,3.56-.25,7.88,4.18,12.1,3.78.13.31.14.55.11.74.08-1.32.6-2.43,1.12-3.13,1.53.79,3.52.23,3.32,1.91-.9-.55-1.28-.05-1.95.14l1.9.29c.32,2.75-2.52-.52-3.33.93,3.4,1.08,7.89,1.43,9.91,3.33-.59,2.18-5.82-2.45-3.67,1.01l-3.21-2.76c1.07,4.58-2.08-1.44-1.35,3.22,4.44,3.21,5.85,2.02,10.26,5.27,1.67-.45.55-1.77,2.22-2.22,7.83,1.95,2.49,7.84,8.88,8.16,2.01-.52,3.93-2.65,6.66.71l-2.46,1.43c4.4,2.92,4.42-1.52,8.31,2.75-1.35.33-3.99-1.43-3.45-.76,2.06,3.52,2.9.09,5.27,1.51l-.65,2.18c4.97,2.63,11.09,4.5,16.59,7.49-.64.37-1.91.39-1.03,1.73,7.24,3.23,14,9.23,19.61,14.46h3.46c.55.4.57,1.41-.24,1.32,2.06,2.23.79-.92,2.39-.76,1.47.82,1.24,2.14.04,2.03,5.23,1.52,14.28,5.4,17.63,10.21l-1.2-.14c3.07,3.07,6.2-.46,8.44,3.27l-.82-.16c7.12,6.01,16.5,10.57,20.5,17.09,2.72-1.43,6.66,6.43,9.41,3.73,3.12,4.68,1.49,4.33,6.67,9.84,1.48,1.34,3.81-.11,6.01,1.09l-1.17,1.62c.64.06,1.33.14,1.94.17.37-.16.78-.28,1.24-.36-.38.71-.86,1.35-1.45,1.89.2,0,.42.02.65.05l.15.11c.03-.07.1-.17.19-.28.15-.26.48-.69.9-.91.2.04.39.11.55.2.14.71-.28,1.71-.85,2.24-.57,1.5-1.29,2.58-1.75,2.62l1.69,8.59c-.8-.19-1.08-1.63-1.59-2.77,2.04,4.59-2.1.83-.24,5.03.45-.56,1.19.3,1.59.4-1.21,2.09-1.22,6.86-.71,10.39l-1.38-.68c-.35,6.37.66,13.43.63,20.58.64-2.57,3.03-1.98,3.26.12l-2.11.84c1.31,1.35.8-2.19,2.39.59-.24,2.67-2.4,1.8-3.09.26l.37,1.62.18.81c.06.13.12.17.18.26-.63,0-.96-.22-1.77-.23.66.1.13.37-.28.35-.42.03-.66-.19.21.62l-.54-.4c-.06.04-.11.08-.16.13l-.07.08c-.28.19-.54.37-.8.55-1.15.78-2.17,1.52-3.15,2.23-1.97,1.42-3.79,2.77-6.24,4.31.85,1.62-1.31,2.44-2.03,4.59-3.95,1.7-8.75,2.89-13.09,5.64-2.65,2.61-.13,1.86-.98,3.62-1.07-1.29-5.42,1.44-3.72-.94-5.18,3.35-6.62,4.26-12.71,9.32,1.07.17,2.05-.05,1.9.68-1.09.94-3.14,1-3.36.21l.24-.34c-6.37,6.53-19.93,5.77-24.34,12.15l.26-.34-5.46,5.07c-3.05,1.35,1.15-2.05-1.5-1.77-5.5,6.18-11,5.54-15.78,10.2-6.67-1.95-15.41,8.57-22.81,8.89l.87.85c-1.02,1.8-2.17.37-3.42.72.57.71,2.15.06,1.48,1.11-12.41,7.98-27.76,12.25-41.73,17.86-5.08,2.11-.21,6.74-7.66,7.26l.85-2.78c-8.91,7.12-20.54,9.64-29.51,16.14.38-.72.13-1.31,1.1-1.74-2.74-.46-7.75,3.45-7.27,4.62-1.6.56-.83-.88-2.05-1.04-2.47.11-4.46,4.19-6.21,3.27-.29-.15.39-.72.72-1.01-1.06,1.3-6.46,2.66-4.42,3.72-4.07.88-6.82,3.88-10.23,4.22-1.15,2.68-6.79,1.89-6.29,4.77-.89-2.8-7.5.65-9.34,2.93.45-1.15-2.43.03-1.97-1.49-2.69,1.18-4.97,2.74-3.91,3.92-.25-.01-.25-.12-.35-.18-.09-.07-.14-.13-.23-.18-.16-.1-.33-.18-.49-.22-.32-.1-.66-.1-1-.05-.69.11-1.46.43-2.22.65-.74.22-1.48.33-1.84.1-.19-.11-.26-.29-.14-.53-.59,1.16-1.24,2.13-1.78,2.79-.42.49-.77.85-1.14,1.09-.27.23-.62.34-.67.36-.05,0-.06,0-.04,0h0s0,0,0,0h0s0,0,0,0c13.12-.31,3.64-.09,6.56-.16h0s-.08-.41-.08-.41l-.16-.81c-.2-1.07-.4-2.14-.6-3.19-.38-2.11-.73-4.19-1.06-6.24-.65-4.1-1.18-8.09-1.62-12.03,2.93.22.5,8.72,3.56,8.31-1.38-7.46-3.99-11.73-3.46-19.17.35-1.93,1.29,1.07,1.81,1.71-1.38-7.46-.08-14.47-1.83-21.1.27.01.59.73.83,1.4-.13-1.31.36-3.06-.97-2.89l.39,1.27c-1.88,2.13-4.15-5.15-5.17-5.37,3.86,2.17.8-6.59,5.69-3.13-.27-.86-.93-1.93-1.81-1.72.23-1.29.74-1.7,1.78-.41-.83-4.69-2.21-3-2.28-7.26.64,0,.91.86,1.68,1.29-1.3-2.14-2.61-4.29-2.15-7.89.39.21.89-.21.9.86-.34-6.18-3.59-10.49-2.54-17.29,2.84,1.97.87-2.32,3.28-2.7l-.81-3.64-1.14,1.47c-.03-3.19-1.86-6-1.14-8.75l1.05,2.36-.6-5.98-.84,3.39c-1.32-3.22-3.05.37-2.48-3.89.27.86-.05-3.2,1.34-4.87,0,0,0,.01,0,.01-.81-1.57-1.66-3.2-1.11-5.56.76-.62,2.69.48,3.19.07-2.06-1.55-.74-7.48-2.94-9.44.52.66,1.79.68,2.05.47l-1.67-1.3c.49-1.48.74-1.7,1.76-1.46.19-4.45-3.03,1.43-1.84-3.86.14.41.38.21.65,1.08.56-5.31-1.29-10.25-.59-15.12,2.4-1.44.7,4.26,2.71,2.61-.3-3.51-1.12-7.15-1.81-10.76-.34-1.8-.66-3.6-.86-5.37-.15-1.77-.13-3.52.05-5.22l-.3,1.27c-3.41-.95,1.82-5.06.28-8.51.23.84,1.88,1.11,1.5.88.66-4.66-.62-9.52-1.53-16.59l.86.88c.85-2.74.63-7.23,1.1-10.19-.86-.88-.68-2.58-1.98-1.56,5.24-9.11-2.28-17.46,2.1-25.54-.01.97.72,2.32.74,1.55l-.65-6.92c-1.51.53-.93.9-2.13,2.34-.87-.88-1.51-2.84-1.47-4.55.92,3.12,2.4,0,3.27-1.34-.46.22-.96-.25-1.43-.14,2.75-3.58-3-.64-1.09-5.55l.78.27c-.36-1.85-1.36-3.56-1.08-5.55,1.75-.8.76,1.97,2.18,2.12-.03-2.79-3.15-5.55-1.36-8.06.45,1.19.42,2.9.87,4.09,2.1-2.73,1.59-3.05,1.96-5.1l-.05.2,1.03-4.72-.58,1.2c-4.43-3.56-.65-7.13-3.5-11.88,2.69,4.62,1.6.78,3.55,1.16.57-1.19,1.23-3.01,1.77-2.48-1.53-2.25,1.34-3.69-.9-6.87.64-.13.12-2.38,1.69-1.85-.43-2.9-1.12.67-1.9.41-2.05-4.5,2.87-10.44.06-16.91-1.09-5.56-3.19-6.62-4.13-11.78,1.05-1.71,2.27,1.47,2.27,1.47,1-2.78.88-4.88.21-7.53.54.55,1.02,0,1.75-.78-.12-2.12-2.27-1.46-1.27-4.23.69.49,1.8,1.13,2.49,2.17-.52-2.5-1.64-4.99-2.15-7.58,1.12-.66,1.63,1.6,2.33,2.52-.21-1.45-.42-3.34-.79-4.97-.18-.82-.41-1.57-.69-2.19.34,0-2.93-.07-1.55-.04h0s0,0,0,0h0s0,0,0,0h0s0,0,0,0h0s.03,0,.06.01c.03,0,.05.02.08.03.06.02.1.04.15.06.06.04.2.1.29.16.01,0,.06.04.05.03l-.07-.04s-.08-.07-.12-.1c-.05-.01-.11-.03-.15-.05,0,0-.11-.05-.16-.06-.03-.01-.06-.02-.1-.03-.06,0,0,0-.02,0h0s-.01.07-.01.11l-.17.46c-.06-1.06,1.51-.51,1.81.28,1.31,2.52-.69,3.57-1.33,3.69l-.36-1.85c-3.75,1.8.42,7.39.12,11.09l-2.66-1.6,2.15,3.84c-.72.79-2.24,1.31-2.6-.52-1.39,2.62.9,2.37-.64,4.62-.24.25-.36.13-.47-.11l.74,2.61c-.55-.52-1.91.39-1.49-1.19-1.67,4.62,1.84,7.54-.24,9.25l-.16-.39c.76,6.47,1.96.66,4.17,5.55l-4.96,3.17,1.96.67c-.09.66-.27,1.98-1.05,1.72,1.29,2.5.87-.41,2.11,1.05-1.88,3.17.63,8.85-2.54,9.52,1.47,1.17,1.23-3.05,2.2.39-3.41.92.49,3.96-1.14,6.87-1.73-.93-.74-3.69-2.37-.78,2.91,1.81-.78,5.69-.28,8.17,2.35.15.85,5.39,1.54,9.54-.79-.27-1.48,7.78-2.42,11.63l-.39-.12c2.36.77,1.82,4.75,2.24,7.65-1.42-.13-1.97-.65-2.57-2.23l-.05,2.72c.75.65,1.13,1.5,1.36,3.27l-1.76-.7c.01,3.63,1.92,7.32.62,11.97,1.65.27,4.71-3.67,5.7,1.27-.9.18-2.44.35-2.78-.95.11.42.71,1.51.31,2.36l-1.46-1.98c-.71,2.12,1.23,1.12,1.05,2.82-1.28-.04-.94,1.25-1.95,1-.11-.43.56-1.48.08-2.13-.27,1.91-1.09,4.22-2.08,4.98.73-.16,1.72.01,1.85,1.42,0,3.62-1.57,1.23-2.28,3.34.87.88-.11,3.19,1.8,3.26-.04,1.06-.93,1.25-1.46,1.66.8,1.88.03,8.76,2.12,6.66l.15-.48c.04.09.04.2.08.31v-.02s0,.02,0,.02c1.75,6.15-1.39,12.76-.71,18.87h-.64c.64,3.63.24,8.09,1.55,10.69-.03,1.08-1.23,2.54-1.98,2.08.52,2.78,1.27,3.09.3,7.12-1.18-2.8-.97.97-.89-2.87-.47,3.62-1.47,4.44.37,8.32-1.67-1.32-2,2.73-1.47,4.45l1.11-2.54c.29,1.93.18,3.62.08,5.34l-2.18-.92c-2.45,7.42,4.78,13.33.53,18.99,1.55,1.95.97-4.03,2.77-2.28-.21,3.41-3.22,6.97-3.2,8.04-1.08,4.67,3.25,4.33,2.55,9.22.75-.63,2.79-1.23,3.6,2.41-.2,3.41-3.12,4.21-3.79,2.07-.08-.82.15-1.21.41-1.18-.3-1.1-.67-2.54-1.47-1.18l.78.44c-.74,1.7-.55,6.39-1.84,5.29.79,2.57,1.29,1.09,1.64-.82-1.01,4.38.13,6.83-.51,11.34.41-.72,1.29-1.39,1.3-.68-.79,6.61,1.53,2.89,1.97,7.36-1.11,2.55-2.82-.88-1.73,3.61-.73,2.76-2.03.61-2.68-.48,1.58,4.08-.79,7.68-1.01,10.02l-.67-2.15c.4,1.29.41,2.35.44,3.42l1.51-1.25c-.24,1.27-.22,2.35-.86,2.33,1.04,1.29,2.53-1.03,3.97,1.54-.74,1.7.96,5.14-1.06,5.75.57-5.33-2.04.62-2.47-3.88.26.87.28,1.92.04,3.2-.22.19-.43-.17-.55-.52-1.7,5.12,2.36,2.31,2.44,7.58-1.17-.65-2.15,1.26-1.89,2.11-.03-2.13,1.89-1.05,2.82.89-.81,3.4.75,3.66.69,5.44l.37-2.03c1.17.67,1.06,2.36,1.47,4.71-.89.22-.67-2.13-1.04-1.28,2.08,2.58-1.95,5.95-.5,9.57-.74,1.7-2.16.2-2.65,1.7,1.59,4.06-1.47,4.46-.14,8.74,1.52-1.27,1.13-1.48,2.71,1.52l-1.26-7.05,2.35,4.49c-.03-2.13-1.08-4.48-.85-5.76,1.31,2.14.92,1.92,2.18.88-2.25,2.96,1.49,5.76,0,9.16l-3.83-.03c-1.58,5.11,2.18,8.97,1.37,15.58l.61-2.13c1.54.85.31,4.06.98,6.18-1.28-.17-1.72,1.17-2.49,2.1.47-.07.48,1.14.69,2.43.1.64.26,1.31.55,1.85.02.06.03.02.06.15.03.14.06.27.09.41.06.26.14.51.22.74.18.44.4.84.63,1.13.46.57.93.85,1.31.85.52,1.36,1.22,2.3,1.87,3.09.66.78,1.3,1.41,1.95,1.99,1.95.96,3.41,1.07,4.65.96,1.24-.13,2.23-.53,3.17-.98.94-.46,1.81-.96,2.81-1.41,1.01-.45,2.12-.81,3.67-1.21-.71.95-.34,1.43-.24,1.95.09.49-.14,1.17-2.41,2.03,1.16-.15,2.32-.36,3.17-.67.85-.31,1.4-.72,1.24-1.13.24,0,.39,0,.58-.07.19-.07.39-.19.61-.34.43-.3.92-.72,1.42-1.14,1.01-.84,2.11-1.66,3.07-1.41.44-.8.14-2.12,1.94-2.78.29.16.24.58.24.58-.24-.58,2.42-1.97.33-2.61,6.42,1.61,13.38-6.09,18.95-4.8,3.25-1.89,7.18-4.1,10.24-5.57-.04.44.25.59-.39.73,4.75-.83,1.11-4.53,6.5-5.5,3.33.76-2.11,2.18-.25,2.2,2.41,3.53,5.61-3.18,9.88-2.43l-.68.59c3.08.15,5.4-4.24,9.58-5.85,0,0-.04.43.24.59,1.87-3.23,6.8-6.33,10.42-8.71-.5,2.06-1.39,1.62.06,2.78,1.64-1.04-1.66-2.18,1.61-4.26,1.51.28,4.35-.21,5.46,1.24l-3.23,1.65c2.67,1.28,4.21-2.1,6.1-2.56l.22,1.02c4.87-2.72,3.83-5.04,9.28-7.49l-.89-.42c1.82-3.7,3.08.07,5.18-3.05l2.02,1.86c1.66-1.51,5.67-5.56,8.9-7.73-1.1,2.69-4.72,5.55-6.73,7.81,1.92-.94,6.43-3.4,6.86-5.03-.66.61-1.35,1.65-2.29,1.68,1.45-2.96,4.08-5.4,7.9-7.27,1.57,4.77,10.45-3.9,14.95-1.91,5.86-5.07,13.64-6.2,21.27-10.58-4.56-1.94,2.21-1.3-.13-4.55,1.68-1.19,2.4-1.5,2.68-1.36l6.58-.85c1.84.31-1.3,1.7-.71,2.39,4.09-1.87,2.45.58,5.56.09-1.21-.96.4-2.53,2.91-3.27l-4.04.11c4.5-4.83,6.35.32,10.89-4.54l-1.15,2.05c2.49-2.19,10.49-5.77,11.7-10.1.72.12,1.91.69.81,1.64,7.01-3.36,13.33-11.43,19.51-12.73l-.03,1.13c1.11-.96,1.27-2.83,3.32-2.9.12.39-.02,1.13.59.84.49-.67,2.47-3.39,4.4-3.87l-.87,1.76c7.17-2.71,8.66-8.15,13.75-11.95,1.45,2.47,7.02.2,9.8-.93l.12.4c3.86-2.12,6.75-4.57,9.47-7.13l2.01-1.95.25-.25.43-.36.9-.73c.59-.49,1.19-.96,1.76-1.45,1.13-1.01,2.06-2.04,2.79-3.3.36-.63.66-1.34.8-2.07.12-.71.18-1.45.21-2.23.51-.81.78-1.95,1.04-3.28.06-.34.12-.68.18-1.04.03-.18.05-.36.08-.55l.04-.28.04-.17c.1-.45.18-.93.25-1.42.29-1.96.41-4.19.49-6.51.15-4.65.14-9.67,1.01-13.72-.52,1.24-2.22-.2-2.51-1.64.58-1.9-1.98-5.25.64-4.95l-.05.68c2.57-1.43,1.88-5.33,1.95-8.38l-3.42-.5c1.52-2.43,1.94-5.32,1.92-8.29,0-.74-.04-1.49-.09-2.23l-.09-1.12-.02-.3-.03-.47-.05-.93c-.16-2.4-.31-4.75-.45-6.97-2.44-1.68-4.54-3.2-6.23-4.74-.5-.44-.66-.64-.87-.91-.21-.26-.39-.53-.54-.8-.31-.54-.51-1.12-.59-1.72-2.05-.51-3.96-1.95-6-2.43l1.19-1.4c-3.99-3.62-6.01-5.4-11.59-9.01l1.87-.25c-2.94-2.34-6.95,1.46-9.78-.49l.78-2.82c-5.29-3.8-9.27-9.62-15.98-11.29.32-.27.93-.8,1.86-.28-2.45-1.85-8.69-8.34-9.91-4.6,1.33-2.06-5.39-4.04-8.92-5.1l1.47-1.18c-3.76.24-4.18.71-7.97-1.08-.69-.74.09-1.68.92-.57-2.2-2.6-3.07,0-5.84-2.99l1.87-.14c-2.73-1.98-2.85-1.32-5.13-1.22-2.16-.56-5.09-3.87-4.61-5.51-.92.59-3.19.7-4.6-.78.11-.66.92-.59,1.33-.55-4.07-4.09-8.18-2.74-10.48-6.33.25-.55.2-.94.02-1.26,3.75,2.44,6.73,4.47,6.38,4.4.9-1.4-2-3.6,1.67-3.98-3.13-.51-8.77-.89-11.35-3.4-.06-.23-.12-.45-.09-.74l.41.04c-.6-.57-1.3-.83-2.03-.95-.81-.83-1.31-1.38-2.21-1.97.38-1.4-3.14-2.81-4.65-3.81-.83,1.63-2.69.15-1.59,2.58-.18-.26.4,0,1.47.55.26.1.55.24.75.24-.06.02-.12.05-.19.07,1.04.57,2.37,1.34,3.87,2.25-1.69.03-3.36-.09-4.53-1.99-1.4.51-2.9,1.01-3.68,1.19-.77-3.45-4.11-7.11-3.88-8.78-5.25-1.96-11.49-6.09-16.21-4.85-1.57-.41-1.06-1.75-1.29-2.51.95.16,1.85.75,2.52.57-3.13-.84-8.19-4.36-10.03-2.65-2.88-2.89,3.02-.81-1.88-3.16l1-.27c-3.68-4.32-8.23-5.1-12.81-6.06-4.59-.95-9.22-2.06-13.25-7.01.58.65.87.97.83,1.4-10.85-8.3-25.43-11.11-35.8-20.05-3.09-2.28-4.12-1.1-6.7-1.06l.12-2.12-4.53.32c-5.73-.92-6.67-8.51-14.41-8.67l.27,1.58c-2.2-1.29-7.62-2.65-6.61-3.86-.34.11-1.33.9-1.94-.13l.35-.96-6.4-.97c-4.11-2.64,2.35-3.4-4.02-6.46-2.57-.7-8.04-.27-7.41.75.95.47,2.22,1.67,1.88,2.64l-2.4-.47c-1.6,2.59-4.5,4.69,0,8.96l4.46-.05.6,1.87-3.16-1.3c1.22,2.04,2.83,1.43,4.43,1.23-.02.84.28,1.57.9,2.16l4.82-.99c-.05,1.27-2.59,1.4-.42,3.09,2.25-.45-.54-3.15,2.64-2.67,1.21,2.05.23,2.83,2.79,2.72-.03.84-.68,1.09-1.64,1.02,2.23,0,5.04,1.89,6.67.87,1.12,2.39,6.4,2.51,5.01,5.01.87-.35,4.19-.49,5.93.2-4.54,1.61,6.22,3.19,3.81,6.12,3.61-1.68,8.78,2.75,13.53,3.22-.33.11-.99.33-1.27.01,2.14,1.35,2.38,2.51,3.56,3.75,1.43-2.13,5.18-.88,7.78-1.31,1.64,3.58-3.02,1.81-3.22,4.34.79-1.91,5.7.6,5.55-1.4,1.4,2.43,1.47,1.59,1.58,4.01,1.82-2.63,2.2.52,4.83-.3,2.3,2.97-.6,3.04,3.16,3.93,1.12,1.69-2.34,1.14-2.34,1.14ZM201.14,308.25s-.02.03-.02.03c-.67-.37-1.25-.69-1.62-.89.34.18.81.43,1.64.86ZM207.5,312.24c-.73-.55-1.68-1.17-2.71-1.81.11-.67.7-1.07,1.32-.63-.57.13.73,1.39,1.39,2.44ZM200.69,293.06c1.16.41,1.31.93,1.25,1.33-.5-.27-1.09-.57-1.9-.92-.07.04-.17.07-.24.12.28-.24.56-.45.88-.53Z"/>
      <path class="cls-2" d="M197.6,293.97c-.17-.06-.29-.04-.49-.14.12.27.25.5.4.72.23-.09.46-.18.66-.26-.19-.11-.39-.21-.57-.31Z"/>
      <path class="cls-2" d="M30.49,360.15l-.05.16c.07-.13.15-.25.27-.33-.09.11-.15.11-.22.17Z"/>
      <polygon class="cls-2" points="290.24 374.46 290.51 374.08 289.74 374 290.24 374.46"/>
      <path class="cls-2" d="M37.73,318.7c.16-.08.33-.23.48-.54-.12.02-.29.26-.48.54Z"/>
      <path class="cls-2" d="M38.57,300.79l.71-2.52c-.39,1.09-.59,1.89-.71,2.52Z"/>
      <path class="cls-2" d="M39.8,287.03c-.32-.18-.55-.23-.77-.28,0,.01,0,.02-.01.03l.79.25Z"/>
      <path class="cls-2" d="M42.16,505.98c.01.18.04.37.09.53.38,1.24.22.4-.09-.53Z"/>
      <path class="cls-2" d="M36.35,440.86c.35.69.69,1.37.91,2.09.11-1.16.13-2.06-.91-2.09Z"/>
      <path class="cls-2" d="M52.02,549.86s0,.01,0,.03c.14-.06.27-.11.41-.17l-.42.14Z"/>
      <path class="cls-2" d="M37.3,445.98c.34-1.16.23-2.13-.04-3.03-.1.95-.26,2.07.04,3.03Z"/>
      <path class="cls-2" d="M42.05,227.36l.09-.66c-.12,0-.22-.03-.29-.09l.2.75Z"/>
      <path class="cls-2" d="M41.85,226.61l-.1-.37v-.05s-.02-.01-.02-.01h0s0,0,0,0h0s0,0,0,0h0s-3.53-.08-3.53-.08h0s0,0,0,0h0s0,0,0,0c0,0,0,0,0,0h0s0,0,0,0h0s3.45.08,3.45.08h0s0,0,0,0h0s0,0,0,0h0s0,.04,0,.04c0,.04.01.07.01.1.03.13.08.23.18.29Z"/>
      <path class="cls-2" d="M39.8,227.26c-.73-.83-1.43-1.16-1.59-1.16.11.02.31.09.66.32.14.1.37.26.49.4.18.16.34.32.45.45Z"/>
      <path class="cls-2" d="M40.77,245.57l.66.22c-.13-.12-.35-.19-.66-.22Z"/>
      <path class="cls-2" d="M40.83,251.12c.18-1.32,1.49-3.29,1.12-5.14l-.52-.18c.96.89-1.68,4.04-.6,5.32Z"/>
      <path class="cls-2" d="M32.12,274.1l.64-4.64c-.72.8-1.69,1.85-1.81-.26-2.24,5.82,1.6-1.18,1.17,4.9Z"/>
      <path class="cls-2" d="M30.75,288.5c-.27-2.5-1.02.01-1.42-.12.6,1.59.75,1.98,1.42.12Z"/>
      <path class="cls-2" d="M28.3,392.67l-1.66-.25c.28,1.93.64.02,1.66.25Z"/>
      <polygon class="cls-2" points="37.34 412.56 38.32 410.68 36.78 409.79 37.34 412.56"/>
      <polygon class="cls-2" points="25.82 424.36 25.56 423.52 26.24 426.73 25.82 424.36"/>
      <path class="cls-2" d="M76.95,556.54l-1.35-1.63c-1.05.86-.38,3.07,1.35,1.63Z"/>
      <path class="cls-2" d="M144.81,522.84c1.19.55,3.39.2,4.13-1.27-1.59.62-3.46.66-4.13,1.27Z"/>
      <polygon class="cls-2" points="308.73 385.25 309.41 386.77 308.84 383.9 308.73 385.25"/>
    </g>
  </g>
  <g>
    <path class="cls-1" d="M564.45,550.42l-55.82-60.12c-.25-.27-.53-.52-.83-.74l-144.42-105.43c-1.02-.75-2.27-1.15-3.55-1.15-9.38-7.49-18.76-14.97-28.13-22.46-19-15.17-45.72-15.17-64.72,0-9.38,7.49-18.76,14.97-28.13,22.46-1.28,0-2.53.4-3.55,1.15l-144.42,105.43c-.3.22-.58.46-.83.74l-56.08,60.39c-3.38,3.64-.74,9.44,4.33,9.49l261.04,2.65,261.04-2.65c1.94-4.65,2.13-5.12,4.07-9.77Z"/>
    <g>
      <path class="cls-2" d="M568.42,552.08c-.27-.81-1.57-.96-2.02.77l1.5,1.98.53-2.75Z"/>
      <path class="cls-2" d="M559.24,560.54c-.78.53-1.75,1.25-2.38,2.09-.61.84-.9,1.79.33,2.76,1.18-.97,1.86-1.31,2.57-1.64.68-.33,1.39-.66,1.94-1.62-.07-.18-.11-.47-.15-.78.3-1.05.76-1.7,1.22-2.03.46-.32.93-.32,1.17.14-.06-.57.36-1.28.74-2.13.37-.84.69-1.81.29-2.61-2.18,1.62-3.19,3.33-3.76,6.67-.43.15-.87.34-1.33.56-1-.46-.54-1.03-.62-1.42Z"/>
      <path class="cls-2" d="M386.08,558.95l1.12.24c-.3-.14-.69-.21-1.12-.24Z"/>
      <path class="cls-2" d="M278.93,558.45c.82-.04,1.16-.25,1.2-.45-.76.13-1.38.26-1.2.45Z"/>
      <path class="cls-2" d="M260.64,555.9c.39.07.72.11,1.08.16-.41-.2-.82-.32-1.08-.16Z"/>
      <path class="cls-2" d="M386.08,558.95l-2.86-.64c-.2.7,1.47.5,2.86.64Z"/>
      <path class="cls-2" d="M535.25,565.95c.6-.11,1.1-.32,1.55-.58-.49.1-.97.18-1.46.24-.03.12-.05.22-.09.34Z"/>
      <path class="cls-2" d="M433.31,556.74h.87c.25-.26.49-.56.72-.89l-1.59.89Z"/>
      <path class="cls-2" d="M469.55,556.04c-.82-.07-1.09,1.75-1.4,2.55.46-.75,1.06-1.12,1.78-1.27.01-.35-.1-.76-.38-1.29Z"/>
      <path class="cls-2" d="M527.06,558.66l1.02-.26c-.26.08-.71.16-1.02.26Z"/>
      <path class="cls-2" d="M407.36,556.61c-.06-.27-.19-.51-.33-.65,0,.23.13.44.33.65Z"/>
      <path class="cls-2" d="M542.11,513.81c-.11.07-.15.15-.24.22.28.03.42-.01.24-.22Z"/>
      <path class="cls-2" d="M564.1,550.74l-.47-.36c-.29.19-.59.37-.83.6l1.3-.24Z"/>
      <path class="cls-2" d="M227.17,553.23c.06.02.09.02.15.04.88-.2.38-.17-.15-.04Z"/>
      <path class="cls-2" d="M112.91,482.8c-3.77.74,3.35-5.03-1.96-3.4.81.29-2.17,5.1,1.96,3.4Z"/>
      <path class="cls-2" d="M534.31,565.73c-.49.03-.99.05-1.49.03.68.05,1.13.04,1.49-.03Z"/>
      <path class="cls-2" d="M110.96,479.4h0s-.54.17-.54.17c.23-.07.35-.11.55-.17Z"/>
      <path class="cls-2" d="M150.04,553.54c.16.32.46.57.78.8-.03-.19-.2-.42-.78-.8Z"/>
      <path class="cls-2" d="M207.49,556.72l-1.42-.26c.56.17,1.02.23,1.42.26Z"/>
      <path class="cls-2" d="M120.18,555.81c-.77-.15-1.03-.4-2.09-.17.1.09.19.16.32.22.38-.24.89-.36,1.77-.06Z"/>
      <path class="cls-2" d="M89.13,555.5c.16.14.38.25.57.37.31-.03.67-.06.98-.09l-1.55-.28Z"/>
      <path class="cls-2" d="M469.28,451.95c.25.82.26,1.52.19,2.17.38-1.33,4.33.99-.19-2.17Z"/>
      <path class="cls-2" d="M535.23,564.93c-.18.46-.44.69-.92.79.36-.02.7-.06,1.03-.11.09-.27.11-.53-.12-.69Z"/>
      <path class="cls-2" d="M118.82,570.16l-4.93-.32c1.38.19,3.17.3,4.93.32Z"/>
      <path class="cls-2" d="M274.32,347.33c.36-.25.71-.52,1.08-.76-.47.16-.86.43-1.08.76Z"/>
      <path class="cls-2" d="M99.23,569.96c-.88-.65-1.81-1.03-2.77-1.29-.21.14-.44.25-.58.46l3.35.82Z"/>
      <path class="cls-2" d="M469.47,454.14s0-.02,0-.02c0,0,0,0,0,.02Z"/>
      <path class="cls-2" d="M498.28,469.82c-3.77-2.81-3.17.59-4.78,1.11-4.93-2.76-1.06-2.95-1.88-5.07-3.2-1.55-6.67-1.37-8.73-2.98.07-.43-.25-.85.52-.9-4.11-.65-8.94-6.41-13.83-7.03-.13-.36-.15-.62-.1-.81-.14,1.38-.77,2.43-1.4,3.04-1.73-1.21-4.05-1.09-3.77-2.82,1.02.8,1.48.35,2.25.32l-2.18-.75c-.28-2.99,2.89,1.15,3.87-.19-3.91-1.95-9.06-3.41-11.35-5.87.74-2.18,6.67,3.95,4.27-.22l3.63,3.69c-1.11-5.1,2.36,2.02,1.66-3.09-5.05-4.48-6.73-3.53-11.77-8-1.94.1-.66,1.75-2.6,1.85-8.99-3.84-2.8-8.89-10.18-10.66-2.33.11-4.54,1.95-7.7-2.18l2.84-1.01c-5.11-4.04-5.11.7-9.63-4.67,1.55-.08,4.62,2.35,4,1.53-2.41-4.19-3.35-.7-6.1-2.7l.73-2.19c-5.8-3.81-12.9-7.02-19.34-11.22.73-.28,2.2-.06,1.14-1.66-8.46-4.82-16.53-12.4-23.29-18.96l-4-.57c-.66-.51-.74-1.6.21-1.37-2.51-2.73-.86.86-2.72.44-1.75-1.11-1.56-2.49-.17-2.18-1.92-.78-4.28-1.84-6.74-3.12-1.23-.64-2.5-1.33-3.74-2.06l-.49-.29c-.31-.2-.62-.39-.94-.56-.64-.34-1.3-.63-1.98-.85-1.36-.45-2.76-.65-4.15-.63l3.61,1.27c-2.74-2.04-5.16-4.25-6.66-6.43l1.38.38c-3.63-3.89-7.08-.66-9.79-5.1l.94.32c-4.21-3.89-9.05-7.46-13.47-11.02-.52-.44-1.16-.91-1.78-1.38-.61-.47-1.22-.94-1.82-1.4-1.16-.98-2.44-1.74-3.6-2.62-.59-.42-1.14-.88-1.73-1.27-.58-.39-1.16-.79-1.71-1.19-1.11-.8-2.15-1.67-3.18-2.42-.7.46-1.76.33-2.98-.07-1.22-.42-2.7-.9-4.13-1.44-1.43-.57-2.91-.83-4.08-.9-1.18-.03-2.07.24-2.42,1.18-1.69-.69-2.87-1.24-3.82-1.71-.95-.46-1.69-.75-2.52-1.08-.84-.3-1.78-.65-3.18-.91-.7-.11-1.52-.22-2.5-.32-.98-.1-2.13-.23-3.47-.19-1.43.09-2.42.81-3.43,1.63-1,.89-2.01,1.86-3.62,2.4l-.55-1.92c-1.38,1.03-2.66,2.21-3.91,3.3-1.04-.55-2.07-.97-3.13-1.41l-2.86,1.68c1.26-.38,2.9-.19,2.92.42-2.18,1.26-4.97,2.31-7.43,2.94-2.38.74-4.43,1.03-4.77.64-.77.68-1.5,1.42-2.24,2.12l-1.09,1.07c-.36.35-.74.72-1.02,1.03l-3.58,3.94c-.32-.77.89-2.09,1.66-3.36-3.12,5.1-2.11-1.01-4.97,3.66.82-.08.45,1.16.61,1.55-2.76.66-7.33,4.29-10.39,7.39l-.21-1.59c-3.85,2.8-7.64,6.2-11.59,9.68l5.53-1.94c-2.02.04-4.04.49-5.91,1.35-.93.43-1.83.95-2.67,1.57l-1.06.83c-1.33,1.04-2.69,2.07-4.07,3.08,2.92-1.33,3.74,1.02,1.8,2.72l-2.07-1.1c-.57,2.03,2.64-.94.83,2.36-2.79,1.73-3.19-.64-2.08-2.3l-2.78,2.94c-.56-.37,0-1.19-.28-1.98-.54,2.02-6.79,2.34-7.35,5.56l-.55-.37c-7.08,5.15-9.86,8.08-15.56,12.37.96,1.55-1.53,2.87-2.38,5.31-4.58,2.62-10.12,4.89-15.13,8.74-3.05,3.35-.14,2.01-1.11,4.06-1.24-1.15-6.24,2.7-4.31-.2-5.96,4.69-7.62,5.98-14.57,12.72,1.24-.07,2.36-.52,2.2.3-1.24,1.25-3.61,1.77-3.88.98l.27-.41c-7.22,8.35-22.91,10.74-27.79,18.58l.29-.42-6.11,6.69c-3.47,2.18,1.25-2.45-1.8-1.5-6.11,7.89-12.47,8.61-17.75,14.75-3.91-.18-8.24,3.09-12.65,6.69-1.1.9-2.22,1.81-3.32,2.72-.56.44-1.11.88-1.66,1.31-.28.21-.56.42-.83.63l-.44.32c-.25.19-.51.35-.72.59-.47.4-.93.81-1.38,1.2-.22.18-.47.43-.63.6l-.35.34c-.47.45-.95.87-1.42,1.27-.96.79-1.93,1.45-2.91,1.94l1.17.44c-.62,2.33-2.24,1.44-3.5,2.41.81.45,2.33-.99,1.89.41-11.27,14.18-26.59,26.16-39.95,39.02-2.42,2.38-1.98,4.09-1.91,5.77.02.42,0,.83-.07,1.26-.03.11-.03.19-.09.34-.07.15-.16.31-.24.47-.18.32-.38.64-.63.98-1,1.37-2.6,2.88-5.75,5.32.11-1.21.4-2.54.76-3.99-.93,1.26-1.94,2.48-2.8,3.7-.91,1.22-1.5,2.43-2.02,3.59-.92,2.36-1.31,4.08-1.34,6.52.06,2.38.74,4.99,2.12,7.12,1.34,2.16,3.26,3.81,5.13,4.77,1.8.96,4.3,1.81,7.32,1.97,3.04.11,6.17.07,9.23.07h1.03s.64-.03.64-.03l1.28-.05c.85-.04,1.71-.08,2.56-.15,1.7-.12,3.39-.3,5.06-.56-.8.49-.83,1.13-2.14,1.11,2.81,1.58,10.45.18,10.51-1.09,2.08.16.47,1.15,1.75,1.81,2.83.95,7.13-1.91,8.62-.35.25.25-.8.5-1.32.61,1.85-.73,8.6.28,6.85-1.53,5.01.91,9.61-.7,13.61.4,2.63-1.98,8.59,1.05,9.44-1.78-.38,2.93,8.78,2.45,11.97,1.11-1.07.87,2.75.95,1.5,2.16,3.62,0,6.95-.51,6.33-2.03,6.65,3.57,13.43-2.69,17.16,1.85,10.77-1.47,20.74-2.43,30.42-3.02-.36,2.92-10.7.18-10.3,3.25,9.19-1.11,14.5-3.56,23.6-2.77,2.36.42-1.34,1.25-2.14,1.74,9.18-1.11,17.74.45,25.91-1.06-.02.27-.91.56-1.74.77,1.61-.08,3.74.47,3.56-.86l-1.57.34c-2.56-1.95,6.4-3.96,6.69-4.98-2.74,3.78,8.06,1.04,3.71,5.8,1.06-.24,2.39-.85,2.15-1.74,1.57.27,2.07.8.47,1.79,5.77-.66,3.72-2.1,8.94-2.01-.02.64-1.07.88-1.62,1.63,2.65-1.23,5.31-2.45,9.72-1.87-.27.38.24.89-1.07.87,7.58-.12,12.92-3.21,21.23-1.91-2.46,2.77,2.83.95,3.26,3.37l4.47-.68-1.79-1.19c3.92.08,7.38-1.65,10.74-.82l-2.91.97,7.34-.38-4.15-.96c3.96-1.21-.42-3.06,4.79-2.34-1.06.24,3.92.07,5.96,1.52,0,0-.01,0-.01,0,1.94-.75,3.93-1.54,6.83-.91.75.78-.61,2.67-.12,3.19.96-1.01,3.25-1.09,5.6-1.28,2.36-.18,4.78-.38,5.99-1.47-.81.51-.85,1.78-.58,2.04l1.6-1.66c1.81.51,2.08.76,1.79,1.77,5.46.25-1.73-3.05,4.74-1.79-.51.14-.27.38-1.32.64,6.5.62,12.56-1.17,18.54-.42,1.77,2.42-5.22.65-3.2,2.68,8.62-.53,17.84-3.1,26.18-2.61l-1.55-.25c1.15-3.45,6.21,1.64,10.43-.03-1.03.26-1.35,1.92-1.07,1.53,5.71.49,11.67-.96,20.32-2.13l-1.07.89c3.37.75,8.86.36,12.5.73,1.08-.89,3.16-.77,1.89-2.04,11.23,4.91,21.37-2.91,31.33,1.17-1.19.02-2.83.8-1.88.8l8.47-.9c-.68-1.49-1.12-.9-2.9-2.04,1.07-.9,3.45-1.61,5.55-1.63-3.8,1.03.05,2.4,1.7,3.22-.28-.46.28-.97.14-1.43,4.44,2.62.73-3.02,6.78-1.29l-.32.79c2.26-.42,4.34-1.48,6.77-1.28,1.02,1.72-2.4.83-2.55,2.26,3.42-.13,6.74-3.35,9.85-1.65-1.45.5-3.54.53-4.99,1.02,3.39,2,3.78,1.48,6.29,1.78l-.25-.04,5.8.86-1.48-.54c4.26-4.56,8.72-.91,14.47-3.93-5.59,2.86-.92,1.63-1.33,3.59,1.48.53,3.72,1.12,3.09,1.68,2.72-1.61,4.56,1.2,8.4-1.15.18.63,2.92.03,2.32,1.62,3.54-.53-.85-1.09-.55-1.89,5.45-2.21,12.87,2.49,20.72-.55,6.77-1.29,8.01-3.43,14.29-4.56,2.13.99-1.72,2.32-1.72,2.32,3.43.9,6.01.7,9.23-.06-.65.56.03,1.02,1.02,1.72,2.59-.19,1.71-2.32,5.14-1.42-.58.71-1.32,1.84-2.57,2.56,3.05-.61,6.05-1.82,9.21-2.42.85,1.09-1.89,1.69-3,2.42,3.55-.53,9.2-1.09,10.28-2.85l-2.29-.6c1.29-.1.68,1.49-.27,1.82-3.03,1.4-4.4-.56-4.58-1.19l2.25-.43c-2.35-3.68-9.04.69-13.57.52l1.86-2.71-4.63,2.28c-.99-.69-1.68-2.19.55-2.62-3.26-1.3-2.87.99-5.67-.47-.31-.23-.17-.36.11-.47l-3.17.84c.62-.57-.54-1.9,1.41-1.53-5.71-1.5-9.17,2.11-11.33.09l.47-.17c-7.9.99-.75,1.99-6.66,4.37l-4.03-4.84-.76,1.98c-.82-.06-2.43-.19-2.14-.99-3.02,1.38.52.86-1.23,2.15-3.94-1.76-10.82.95-11.73-2.19-1.4,1.52,3.76,1.12-.42,2.21-1.22-3.38-4.84.63-8.44-.89,1.09-1.76,4.49-.87.89-2.39-2.14,2.98-6.99-.58-10.01.02-.13,2.35-6.57,1.05-11.64,1.88.32-.8-9.56-1.2-14.28-2l.14-.4c-.9,2.39-5.77,1.99-9.32,2.52.13-1.42.77-1.99,2.68-2.65l-3.33.04c-.78.77-1.82,1.18-3.98,1.48l.83-1.79c-4.44.14-8.92,2.18-14.64,1.06-.31,1.66,4.56,4.57-1.47,5.74-.23-.89-.46-2.43,1.12-2.81-.52.12-1.84.76-2.89.39l2.4-1.53c-2.6-.64-1.35,1.27-3.43,1.15.04-1.28-1.54-.9-1.25-1.92.53-.13,1.82.51,2.61,0-2.34-.21-5.18-.93-6.12-1.89.21.73,0,1.72-1.71,1.91-4.44.14-1.53-1.52-4.12-2.15-1.07.9-3.9,0-3.97,1.92-1.3,0-1.54-.89-2.05-1.4-2.29.87-10.72.35-8.13,2.36l.59.13c-.11.04-.24.04-.38.09h.02s-.02,0-.02,0c-7.52,1.98-15.64-.92-23.1-.03v-.64c-4.45.78-9.91.53-13.09,1.94-1.32.01-3.11-1.14-2.55-1.9-3.41.52-3.79,1.24-8.71.23,3.42-1.15-1.18-.98,3.51-.85-4.43-.51-5.43-1.52-10.18.28,1.62-1.65-3.34-2.03-5.44-1.52l3.1,1.14c-2.37.26-4.44.14-6.54.02l1.13-2.17c-9.06-2.53-16.34,4.63-23.23.31-2.4,1.53,4.92,1.01,2.78,2.8-2.08-.12-4.21-.95-5.98-1.74-1.77-.83-3.18-1.62-3.83-1.63-5.71-1.25-5.33,3.09-11.3,2.22.76.77,1.48,2.84-2.98,3.51-4.17-.33-5.12-3.28-2.49-3.87,1-.05,1.48.2,1.44.45,1.35-.26,3.12-.58,1.47-1.43l-.54.76c-2.07-.81-7.81-.78-6.46-2.03-3.15.7-1.35,1.25.99,1.67-5.35-1.17-8.36-.12-13.86-.92.87.43,1.68,1.34.81,1.33-8.07-1.03-3.56,1.42-9.03,1.7-3.11-1.2,1.12-2.79-4.39-1.86-3.36-.83-.71-2.05.63-2.66-5.02,1.43-9.37-1.07-12.24-1.37l2.64-.59c-1.58.35-2.88.33-4.19.31l1.51,1.55c-1.55-.28-2.87-.3-2.83-.94-1.6.99,1.22,2.57-1.96,3.91-2.07-.8-6.3.77-7.01-1.27,6.51.76-.71-2.06,4.8-2.33-1.06.23-2.36.21-3.91-.08-.23-.23.22-.42.65-.53-6.22-1.89-2.87,2.28-9.32,2.17.82-1.14-1.49-2.2-2.54-1.96,2.6.05,1.24,1.93-1.15,2.79-4.13-.94-4.5.62-6.67.49l2.47.45c-.84,1.14-2.91.97-5.8,1.3-.24-.9,2.62-.59,1.59-.99-3.21,1.99-7.23-2.17-11.7-.85-2.07-.8-.19-2.16-2.01-2.71-5.01,1.44-5.41-1.63-10.68-.45,1.51,1.56,1.78,1.19-1.94,2.65l8.65-1-5.56,2.19c2.61.05,5.51-.92,7.08-.64-2.65,1.23-2.38.85-1.13,2.15-3.56-2.35-7.09,1.28-11.21-.33l.14-3.82c-6.2-1.77-11.04,1.85-19.09.81l2.59.69c-1.09,1.51-4.98.16-7.59.75.25-1.28-1.38-1.76-2.49-2.57.13.95-5.9-.15-6.65,2.4l-3.59-1.72c-6.5-.76-7.45,3.57-13.71,3.07,1.89-1.37-.94-2.31,3.26-3.26-2.09-.03-3.97-.29-4,.6-1.21-.81-5.8,1.66-7.72.43-.88.55-1.18,1.89-3.53,1.76-.25-.26.01-.63.01-.63-.01.63-3.68.82-1.64,2.26-6.4-4.06-17.99.11-23.56-3.38-4.56.38-10.06.74-14.2.79.27-.38.02-.64.8-.5-5.7-1.25-3.54,3.64-10.03,2.24-3.3-2.1,3.46-1.08,1.4-1.89-.86-4.22-7.85.49-12.19-2.01l1.06-.24c-1.66-.73-3.71-.35-6.01.16-.29.07-.58.13-.88.2-.27.07-.68.13-.76.2-.3.13-.62.26-.98.37-.7.21-1.51.34-2.21.25,0,0,.35-.37.39-.63-.76.53-1.73.97-2.85,1.33-1.11.37-2.43.72-3.67.45-1.24-.22-2.34-.93-2.98-1.88-.67-.94-.81-2.09-.59-3.02,1.01.41,1.3.72,1.62.83.35.11.68-.07,2.06-.65-.04-.61-1.05-.34-2.12-.24-.52.05-1.07.03-1.35-.19-.3-.24-.33-.69.22-1.42,1.08-.5,2.32-1.21,3.5-1.7,1.19-.5,2.29-.74,3.29-.5l-1.49,1.75c1.93-.38,2.2-.7,2.38-1.27.14-.53.21-1.34.78-1.66.24.24.48.47.73.7.1-.14.19-.27.26-.41,0-.03.16-.23.26-.36.1-.15.2-.29.3-.43.38-.56.69-1.07.95-1.57.53-.98.87-1.86,1.24-2.74.74-1.75,1.56-3.51,4.11-6.12l-1.07.03c.87-4.64,3.32-1.49,4.65-5.68l2.69.86c1.34-2.35,4.47-8.44,7.33-12.23-.43,3.25-3.48,7.96-4.98,11.23,1.79-1.9,5.9-6.63,5.9-8.48-.54.94-.98,2.34-1.97,2.83.71-3.71,2.85-7.47,6.42-11.26,3.01,4.05,10.14-9.09,15.53-9.23,1.23-2,2.66-3.8,4.22-5.5.78-.85,1.59-1.68,2.43-2.5l.63-.61c.16-.15.19-.16.31-.23.1-.05.18-.11.28-.16l.07-.03.04-.02.09-.06.38-.23c4.07-2.49,8.4-4.94,12.65-8.21-5.35-.87,2.46-1.93-.4-4.74,1.87-1.68,2.67-2.19,3.01-2.11l7.51-2.55c2.13-.13-1.4,2.11-.69,2.69,4.59-2.98,2.84,0,6.39-1.28-1.43-.71.34-2.76,3.18-4.16l-4.62,1.11c4.93-6.21,7.29-1.21,12.28-7.44l-1.23,2.44c2.76-2.92,11.79-8.58,13.04-13.43.83-.04,2.22.29.98,1.54,7.91-5.18,14.98-15.13,22.07-17.88v1.2c1.25-1.26,1.4-3.28,3.75-3.79.14.39,0,1.2.69.76.56-.82,2.78-4.13,5-5.05l-.97,2.06c8.19-4.41,9.85-10.48,15.7-15.57,1.67,2.31,8.07-1.21,11.26-2.97l.14.4c8.87-6.04,13.32-12.65,20.69-19.41,2.24-.37,4.91-1.72,7.8-3.51,1.45-.9,2.95-1.91,4.49-2.96.38-.27.77-.53,1.16-.8l.29-.2.07-.05h.02s0-.02,0-.02h0c-.53-.73,1.19,1.62-1.19-1.64h0s0,.02,0,.02l.03.06c.04.08.04.12.04.13l.07,3.86,4.92-3.72c3.19-2.41,6.4-4.75,9.43-6.4-1.51.54-1.19-1.89,0-3.21,2.18-1,3.79-5.56,5.13-3.28l-.68.48c2.97.91,6.28-2.61,9.24-4.88l-1.65-3.06c1.34-.28,2.64-.75,3.9-1.38.63-.31,1.25-.66,1.87-1.04.32-.21.6-.37.86-.52.27-.16.54-.33.8-.5,1.06-.69,2.06-1.51,3.15-2.2,1.06-.73,2.08-1.55,3.18-2.18,4.23-2.75,8.76-4.68,11.44-2.84.44-.31.93-.58,1.44-.83.52-.22,1.06-.37,1.61-.55,1.1-.35,2.2-.74,3.2-1.16v1.84c1.38.08,2.57.05,3.69.24.56.06,1.1.11,1.65.17l.81.07c.27.04.54.09.81.13,2.17.32,4.51.57,7.79,1.33l-1.64.87c.87.3,1.67.21,2.47-.07.4-.14.79-.32,1.19-.53.39-.19.78-.39,1.17-.6.79-.41,1.6-.83,2.45-1.05.42-.11.86-.18,1.29-.17.42.04.86.14,1.29.35-.05.99-.12,1.98-.21,2.95.38.19.77.38,1.14.58.37.21.72.48,1.07.72.7.5,1.39,1.01,2.08,1.52.65.57,1.27,1.17,1.9,1.74l.95.86,1.08,1c2.93,2.71,6.05,5.17,9.89,6.65-.35.23-1.03.71-2.1,0,2.88,2.39,10.14,10.47,11.42,6.68-1.34,1.81,5.08,4.77,9.22,6.64l3.61,1.63.06-.34c.02-.1.05-.19.09-.27l-.09.49s0-.03.04-.13c.23-.32.21-.72.99-.48,1.21.23,2.44.74,4.67,1.97.83.9,0,1.79-1.02.48,2.67,3.12,3.52.45,6.86,4.08l-2.14-.13c3.23,2.53,3.34,1.84,5.95,2.09,2.51.94,6.02,4.96,5.55,6.64,1.03-.48,3.63-.23,5.31,1.58-.1.69-1.04.48-1.51.37,4.82,5.04,9.48,4.32,12.25,8.54-.27.54-.2.96,0,1.34-4.38-3.25-7.87-5.92-7.46-5.78-.98,1.34,2.4,4.18-1.78,3.97,3.6,1.07,10.09,2.44,13.09,5.6.07.25.14.5.12.8l-.47-.11c.7.72,1.51,1.12,2.35,1.38.95,1.03,1.53,1.71,2.58,2.5-.4,1.41,3.64,3.58,5.38,4.93.93-1.58,3.08.35,1.79-2.45.2.31-.46-.07-1.69-.87-.3-.15-.63-.36-.87-.4.06-.02.14-.03.22-.04-1.2-.81-2.74-1.88-4.48-3.12,1.95.28,3.87.72,5.24,2.97,1.6-.28,3.31-.52,4.21-.56.93,3.82,4.8,8.35,4.53,10.09,6.02,3.13,13.16,8.77,18.58,8.5,1.8.77,1.19,2.09,1.45,2.94-1.09-.37-2.12-1.19-2.89-1.14,3.6,1.54,9.33,6.39,11.47,4.99,3.25,3.71-3.48.18,2.09,3.76l-1.15.06c8.24,10.75,20.66,7.53,29.4,19.98-.63-.83-.95-1.24-.88-1.68,4.32,4.12,9.23,7.64,14.26,11.05,2.52,1.69,5.05,3.38,7.58,5.07,1.26.85,2.51,1.71,3.75,2.58l1.84,1.32.43.32c.1.08.21.15.3.24.18.18.39.33.55.53l1.11,1.26,1.13,1.33c.75.89,1.47,1.8,2.18,2.72,1.41,1.84,2.72,3.74,3.91,5.73,2.63,3.85,4.09,3.17,6.85,4.44l-.75,2.06,4.92,1.99c5.85,3.87,4.51,11.91,12.67,16.11l.21-1.71c1.93,2.44,7.25,6.66,5.79,7.32.39.07,1.7-.19,2.02,1.17l-.69.77,6.47,4.38c3.47,4.83-3.61,2.09,2.11,8.53,2.47,2.08,8.39,4.65,8.07,3.31-.84-.98-1.78-2.85-1.09-3.62l2.38,1.78c2.57-1.66,6.37-2.12,3.02-8.82l-4.76-2.41-.03-2.18,2.94,3.03c-.62-2.69-2.54-2.97-4.31-3.65.3-.82.22-1.71-.25-2.63l-5.46-1.64c.46-1.24,3.22.02,1.45-2.84-2.55-.78-.44,3.42-3.67,1.22-.63-2.69.67-2.94-2.1-4.2.3-.82,1.07-.72,2.08-.13-2.39-1.2-4.8-4.59-6.85-4.44-.46-2.98-6.07-5.89-3.81-7.66-1.04-.11-4.64-1.71-6.29-3.31,5.36.75-5.71-6.44-2.27-8.12-4.37-.19-8.64-7.3-13.64-10.17.39.06,1.16.17,1.38.63-1.92-2.44-1.86-3.74-2.79-5.59-.66.44-1.47.45-2.36.22-.45-.11-.91-.29-1.39-.49-.23-.11-.48-.22-.72-.33-.27-.14-.43-.18-.82-.45-.44-.26-.9-.49-1.33-.72-.42-.22-.9-.48-1.27-.58-.64-.16-1.26-.29-1.83-.34-1.62-4.22,3.62-1.05,4.04-3.65-1.06,1.77-6.54-2.23-6.51-.09-1.45-2.94-1.59-2.07-1.56-4.65-2.28,2.26-2.5-1.16-5.6-1.01-2.47-3.74.88-3.04-3.42-4.98-1.2-2.08,2.78-.57,2.78-.57ZM406.33,409.48s.02-.02.02-.03c.79.52,1.46.97,1.89,1.25-.4-.26-.95-.61-1.91-1.22ZM398.85,404.06c.87.72,1.99,1.56,3.19,2.42-.11.7-.77,1.02-1.5.44.66-.04-.89-1.62-1.69-2.86ZM407.18,425.77c-1.33-.65-1.52-1.23-1.46-1.65.58.38,1.26.81,2.19,1.33.07-.03.19-.04.27-.08-.32.2-.64.37-1.01.4Z"/>
      <path class="cls-2" d="M410.71,425.39c.19.09.33.1.56.25-.15-.31-.3-.58-.46-.84-.26.05-.52.1-.75.16.22.15.45.3.65.44Z"/>
      <path class="cls-2" d="M387.39,559.24l-.2-.04c.16.07.31.14.41.26-.13-.09-.13-.14-.21-.22Z"/>
      <polygon class="cls-2" points="285.18 342.55 285.3 343 286.12 342.41 285.18 342.55"/>
      <path class="cls-2" d="M438.25,564.97c.1.16.29.32.67.46-.03-.12-.32-.28-.67-.46Z"/>
      <path class="cls-2" d="M460.22,565.16l3.11.62c-1.35-.35-2.33-.52-3.11-.62Z"/>
      <path class="cls-2" d="M477.11,565.89c.21-.32.27-.56.32-.78-.01,0-.02,0-.03-.01l-.29.8Z"/>
      <path class="cls-2" d="M208.6,568.91c-.23,0-.45.03-.65.08-1.53.34-.49.21.65-.08Z"/>
      <path class="cls-2" d="M288.52,565.47c-.85.32-1.68.64-2.57.83,1.42.15,2.53.2,2.57-.83Z"/>
      <path class="cls-2" d="M119.36,570.2s0-.02,0-.03c-.19,0-.36,0-.55,0l.54.04Z"/>
      <path class="cls-2" d="M282.23,566.23c1.42.38,2.61.31,3.72.07-1.17-.13-2.54-.33-3.72-.07Z"/>
      <path class="cls-2" d="M550.31,565.97l.81.07c-.01-.12.03-.22.09-.29l-.91.23Z"/>
      <path class="cls-2" d="M551.22,565.74l.9-.22c-.42,0-.77.02-.9.22Z"/>
      <path class="cls-2" d="M554.25,565.04l-.69.12-.49.12-.95.24c.69,0,1.37.05,2.13-.48Z"/>
      <path class="cls-2" d="M527.95,565.35l-.25.66c.14-.14.23-.35.25-.66Z"/>
      <path class="cls-2" d="M521.15,565.62c1.62.13,4.08,1.37,6.34.93l.21-.53c-1.05.99-5.01-1.53-6.54-.4Z"/>
      <path class="cls-2" d="M492.74,557.74l5.69.47c-1-.69-2.32-1.63.27-1.82-7.19-2.03,1.49,1.56-5.97,1.35Z"/>
      <path class="cls-2" d="M475.09,556.9c3.06-.36-.04-1.02.12-1.42-1.93.66-2.4.83-.12,1.42Z"/>
      <path class="cls-2" d="M347.57,558.19l.3-1.66c-2.36.26-.02.64-.3,1.66Z"/>
      <polygon class="cls-2" points="323.21 567 325.5 568.01 326.59 566.48 323.21 567"/>
      <polygon class="cls-2" points="308.8 555.34 309.83 555.1 305.9 555.74 308.8 555.34"/>
      <path class="cls-2" d="M94.66,553.95l.7,2.05c1.6-.35,1.95-2.64-.7-2.05Z"/>
      <path class="cls-2" d="M53.02,537.12c1.43-.04,3.68-1.5,4.04-3.36-1.52,1.43-3.51,2.41-4.04,3.36Z"/>
      <polygon class="cls-2" points="270.53 367.99 269.5 369.69 271.88 367.06 270.53 367.99"/>
    </g>
  </g>
  <g>
    <path class="cls-2" d="M564.91,226.88c.28-.59.12-1.92-.65-1.66l-.55,2.26,1.19-.6Z"/>
    <path class="cls-2" d="M559.74,222.7c-.9,1.09-1.95,3.02-1.36,5.09.9-2.17,1.11-1.26,2.08-3.85.77-.26,1.34.72,1.21,1.56.27-.58,1.19.5,1.61-.92-1-1.75-2.27-1.82-3.59-.37-.28-.5,0-1.09.06-1.5Z"/>
    <path class="cls-2" d="M484.6,219.17l.48.27c-.13-.15-.3-.23-.48-.27Z"/>
    <path class="cls-2" d="M438.04,217.94c.35-.05.5-.28.52-.48-.33.15-.6.29-.52.48Z"/>
    <path class="cls-2" d="M430.09,215.45c.17.07.31.1.47.15-.18-.21-.36-.32-.47-.15Z"/>
    <path class="cls-2" d="M484.6,219.17l-1.24-.71c-.09.74.64.55,1.24.71Z"/>
    <path class="cls-2" d="M549.37,228.14c.26-.11.48-.32.68-.59-.21.1-.42.18-.63.24-.01.12-.02.23-.04.35Z"/>
    <path class="cls-2" d="M505.12,217.34h.38c.11-.26.22-.57.31-.92l-.69.92Z"/>
    <path class="cls-2" d="M520.87,217c-.36-.08-.48,1.83-.62,2.67.2-.79.46-1.17.78-1.31,0-.37-.04-.8-.16-1.36Z"/>
    <path class="cls-2" d="M545.84,220.37l.44-.26c-.12.08-.31.16-.44.26Z"/>
    <path class="cls-2" d="M493.85,216.93c-.03-.28-.08-.54-.14-.68,0,.24.06.47.14.68Z"/>
    <path class="cls-2" d="M53.31,231.34c.01-.14,0-.22,0-.34-.09.19-.12.33,0,.34Z"/>
    <path class="cls-2" d="M35.05,221.84l.25-.1c.03-.36.05-.72.05-1.07l-.31,1.18Z"/>
    <path class="cls-2" d="M415.54,212.99s.04.02.06.04c.38-.22.17-.18-.06-.04Z"/>
    <path class="cls-2" d="M282,214.4c1.51,1.71-2.46,2.2-.18,4.11-.21-.75,2.07-2.99.18-4.11Z"/>
    <path class="cls-2" d="M548.97,227.89c-.21.02-.43.04-.65.02.29.06.49.06.65-.02Z"/>
    <path class="cls-2" d="M281.81,218.51h0s.24.2.24.2c-.1-.08-.15-.13-.24-.2Z"/>
    <path class="cls-2" d="M382.03,214.14c.07.34.2.59.34.84-.01-.2-.09-.44-.34-.84Z"/>
    <path class="cls-2" d="M407,216.87l-.62-.26c.24.17.44.23.62.26Z"/>
    <path class="cls-2" d="M369.06,216.85c-.34-.15-.45-.41-.91-.15.04.1.08.17.14.23.17-.26.39-.38.77-.08Z"/>
    <path class="cls-2" d="M355.57,216.86c.07.15.17.26.25.39.13-.04.29-.07.43-.1l-.68-.28Z"/>
    <path class="cls-2" d="M94.32,230.42c-.3-.54-.48-1.13-.62-1.72.21,1.36-1.77,1.85.62,1.72Z"/>
    <path class="cls-2" d="M549.37,227.06c-.08.48-.19.72-.4.83.16-.02.3-.06.45-.1.04-.29.05-.55-.05-.72Z"/>
    <path class="cls-2" d="M368.51,231.98l-2.14-.28c.6.19,1.38.28,2.14.28Z"/>
    <path class="cls-2" d="M191.13,230.14l-.49.23c.19.04.36-.01.49-.23Z"/>
    <path class="cls-2" d="M360,231.98c-.38-.68-.79-1.07-1.21-1.33-.09.15-.19.27-.25.49l1.46.83Z"/>
    <path class="cls-2" d="M93.69,228.68s0,.02,0,.02c0,0,0-.01,0-.02Z"/>
    <path class="cls-2" d="M79.57,233.23c2.04.05.96-2.47,1.39-3.91,2.44-.72,1.13,1.85,1.96,3.14,1.52-.67,2.69-2.98,3.83-2.88.08.41.31.57.05,1.09,1.61-2,4.78-.1,6.65-2.62.14.22.21.43.24.63-.3-1.26-.35-2.55-.29-3.46.92-.04,1.7-1.59,2.04.06-.56-.05-.61.62-.87,1.13l.96-.71c.86,2.37-1.31.82-1.31,2.57,1.87-.77,4.05-2.73,5.49-2.06.3,2.32-3.35.78-1.44,2.84l-2.22-.88c1.7,3.65-1.35-.25.21,3.65,2.92.67,3.27-1.18,6.18-.5.66-1.29-.22-1.9.44-3.19,4.14-2.31,3.26,5.83,6.3,2.74.79-1.54,1.09-4.48,3.26-2.92l-.74,2.62c2.83.26,1.61-3.77,4.57-2-.53,1.03-2.22.87-1.79,1.18,1.92,2.07,1.36-1.49,2.83-1.49l.31,2.32c3.01-.37,6.32-2.04,9.66-2.46-.18.69-.76,1.42.02,2.13,4.2-1.16,8.97.28,13.03,1.66l1.55-2c.36.02.67.9.28,1.29,1.58.76.08-1.27.84-2.06.9-.14,1.19,1.15.62,1.75,2.79-1.7,7.94-3.66,10.88-1.51l-.57.59c2.29.81,2.58-4.1,4.7-2.24l-.41.35c4.97.87,10.45-.97,14.24,2.06.72-2.88,4.91,1.29,5.23-2.74,2.84,1.99,2.02,2.71,6.02,4.05,1.07.18,1.59-2.51,2.91-2.93l.03,2.1,1.79-2.21.95,2.51,1.24-.54c-.49-.12-1.05-.94-.97-1.55,1.93-.95,4.71,1.46,4.76,2.54l4.57-1.78c-.1.85-.87,1.14-1.47,1.68,2.44-2.15.44,2.22,2.68.25-.3-.48.16-1.25.21-1.68,1.11,1.27,3.65,1.28,5.53.75l-.36,1.45c3.39.37,7.15-.69,10.95-.67-1.36-.67-1.05-3.19.06-3.43l.45,2.22c.72-1.38-1.17-.84.31-2.52,1.42.26.96,2.53.14,3.25l1.73-.77c.1.66-.3,1.01-.41,1.86.71-1.38,2.98,2.23,4.01-.17l.1.66c3.8.02,5.53-.75,8.63-.86.06-1.92,1.27-1.49,2.2-3.04,2.28.61,4.8,2.12,7.55,1.96,1.93-.95.56-1.62,1.43-2.77.14,1.75,2.88,1.58,1.46,2.84,3.29-.29,4.21-.35,8.37-1.77-.45-.71-.96-1.03-.7-1.62.76-.29,1.72.73,1.61,1.57l-.2.18c4.67-2.62,10.79,5.09,14.51,1.45l-.21.18,3.86-1.9c1.78.3-1.07,1.31.25,2.4,4.16-2.92,6.58.42,10.01-1.52,2.65,5.16,9.42-.36,13,2.93l-.21-1.21c.93-1.19,1.12.69,1.8.97-.1-.94-1-1.09-.43-1.75,7.84-1.46,16.19,1.77,24.23,2.87,2.94.33,1.67-6.28,5.38-3.38l-1.05,2.25c5.93-2.7,12.14.09,17.95-2.2-.35.52-.36,1.2-.92,1.19,1.23,1.64,4.54.08,4.56-1.26.9.15.21,1.21.77,1.89,1.23.97,3.09-2.09,3.74-.46.11.26-.35.53-.57.66.8-.79,3.74.2,2.97-1.69,2.18.9,4.17-.84,5.91.28,1.13-2.11,3.73,1.02,4.09-1.97-.16,3.09,3.82,2.49,5.2,1.04-.46.93,1.2.97.66,2.26,1.57-.04,3.02-.62,2.74-2.2,2.9,3.69,5.83-2.97,7.46,1.76,4.67-1.66,9-2.78,13.2-3.5-.15,3.08-4.65.31-4.47,3.54,3.99-1.27,6.29-3.91,10.24-3.17,1.02.42-.58,1.34-.93,1.86,3.98-1.27,7.7.28,11.25-1.4,0,.29-.39.6-.75.83.7-.1,1.63.45,1.55-.95l-.68.38c-1.12-2.03,2.77-4.24,2.9-5.31-1.19,4.01,3.5,1.01,1.62,6.07.46-.26,1.04-.93.93-1.86.68.27.9.82.21,1.88,2.5-.76,1.61-2.25,3.88-2.22,0,.68-.47.94-.7,1.74,1.15-1.32,2.3-2.64,4.22-2.07-.12.41.11.94-.46.93,3.29-.2,5.61-3.52,9.22-2.24-1.07,2.94,1.23.97,1.42,3.52l1.94-.76-.78-1.24c1.7.04,3.2-1.81,4.67-.98l-1.26,1.05,3.19-.48-1.8-.97c1.72-1.31-.18-3.22,2.08-2.51-.46.26,1.7.03,2.59,1.53,0,0,0,0,0,0,.84-.81,1.71-1.66,2.96-1.03.33.81-.26,2.82-.05,3.36.83-2.13,3.98-.59,5.03-2.86-.35.53-.37,1.87-.25,2.14l.7-1.73c.79.55.9.82.78,1.89,2.37.32-.75-3.23,2.06-1.84-.22.14-.12.4-.58.66,2.83.73,5.46-1.1,8.05-.25.77,2.56-2.27.63-1.39,2.79,3.74-.46,7.75-3.07,11.37-2.47l-.67-.28c.5-3.62,2.7,1.79,4.53.08-.45.27-.59,2.01-.47,1.6,2.48.58,5.07-.89,8.83-2.03l-.47.93c1.46.83,3.85.48,5.43.9.47-.93,1.37-.78.82-2.13,4.87,5.29,9.29-2.84,13.61,1.57-.52.01-1.23.81-.82.82l3.68-.86c-.29-1.58-.48-.95-1.26-2.18.47-.93,1.5-1.66,2.42-1.66-1.65,1.04.01,2.53.73,3.41-.12-.48.13-1.02.06-1.51,1.92,2.8.32-3.17,2.95-1.28l-.14.83c.98-.42,1.89-1.52,2.95-1.28.44,1.82-1.05.85-1.11,2.35,1.49-.11,2.94-3.45,4.28-1.64-.63.51-1.54.52-2.17,1.02,1.47,2.14,1.64,1.6,2.73,1.94l-.11-.05,2.52.97-.64-.58c1.86-4.75,3.79-.87,6.3-3.98-2.44,2.95-.4,1.71-.59,3.77.64.57,1.61,1.22,1.34,1.8,1.18-1.67,1.98,1.31,3.65-1.12.07.67,1.27.06,1,1.74,1.54-.52-.36-1.16-.23-1.99,2.38-2.27,5.58,2.76,9-.36,2.95-1.28,3.49-3.53,6.22-4.65.92,1.06-.76,2.42-.76,2.42,1.49.98,2.61.8,4.01.04-.28.58,0,1.07.44,1.82,1.13-.17.75-2.42,2.24-1.44-.25.74-.58,1.93-1.12,2.67,1.33-.61,2.64-1.85,4.01-2.45.36,1.16-.83,1.76-1.31,2.52,1.54-.52,4-1.05,4.48-2.89l-.99-.65c.56-.09.29,1.58-.13,1.91-1.32,1.44-1.91-.64-1.98-1.3l.98-.43c-1-3.9-3.93.63-5.9.4l.82-2.84-2.02,2.36c-.43-.74-.72-2.32.25-2.75-1.41-1.4-1.25,1.01-2.46-.55-.13-.24-.07-.38.05-.49l-1.38.85c.27-.6-.23-2,.62-1.59-2.48-1.64-3.99,2.13-4.92-.02l.21-.17c-3.43.96-.33,2.08-2.91,4.53l-1.73-5.14-.34,2.08c-.35-.08-1.06-.23-.93-1.06-1.32,1.43.22.91-.54,2.25-1.71-1.9-4.7.89-5.09-2.43-.61,1.58,1.63,1.22-.19,2.32-.52-3.57-2.1.61-3.66-1.03.48-1.84,1.95-.87.4-2.51-.94,3.11-3.03-.68-4.35-.09-.06,2.48-2.86,1.03-5.06,1.86.14-.83-4.15-1.36-6.2-2.26l.06-.42c-.4,2.51-2.51,2.03-4.05,2.55.06-1.5.34-2.09,1.17-2.76h-1.45c-.34.81-.79,1.24-1.73,1.52l.36-1.87c-1.93.1-3.88,2.21-6.36.95-.14,1.75,1.97,4.87-.65,6.03-.1-.94-.19-2.56.49-2.95-.22.12-.8.78-1.25.38l1.05-1.59c-1.13-.7-.59,1.33-1.49,1.18.02-1.35-.67-.96-.54-2.03.23-.13.79.56,1.13.03-1.02-.24-2.25-1.04-2.66-2.06.09.77,0,1.81-.75,1.99-1.93.1-.66-1.62-1.78-2.31-.47.94-1.7-.03-1.73,1.98-.56-.01-.67-.95-.89-1.49-1,.89-4.66.25-3.54,2.4l.26.14s-.1.04-.16.09h0,0c-3.27,2-6.79-1.14-10.04-.28v-.67c-1.93.77-4.31.46-5.69,1.9-.57,0-1.35-1.23-1.11-2.03-1.48.51-1.65,1.26-3.79.15,1.49-1.18-.51-1.04,1.53-.86-1.92-.58-2.36-1.66-4.43.18.7-1.73-1.45-2.17-2.36-1.66l1.35,1.23c-1.03.25-1.93.1-2.84-.05l.49-2.27c-3.94-2.76-7.1,4.7-10.1.08-1.04,1.59,2.14,1.12,1.21,2.97-1.81-.31-3.7-3.56-4.26-3.57-2.48-1.26-2.31,3.32-4.91,2.46.33.81.65,2.97-1.29,3.73-1.81-.3-2.23-3.4-1.08-4.05.43-.07.64.19.63.46.59-.29,1.35-.64.64-1.52l-.24.81c-.9-.83-3.39-.74-2.81-2.07-1.37.77-.59,1.33.43,1.75-2.32-1.17-3.63-.03-6.02-.82.38.45.73,1.4.35,1.39-3.51-1-1.55,1.54-3.92,1.89-1.35-1.23.48-2.95-1.91-1.91-1.46-.84-.31-2.15.27-2.81-2.18,1.56-4.07-1.03-5.32-1.31l1.15-.65c-.69.39-1.25.38-1.82.37l.66,1.62c-.67-.28-1.25-.29-1.23-.96-.7,1.06.53,2.69-.85,4.14-.9-.82-2.74.88-3.05-1.27,2.83.73-.31-2.16,2.08-2.51-.46.26-1.02.25-1.7-.04-.1-.24.1-.44.28-.57-2.71-1.92-1.24,2.43-4.05,2.38.36-1.21-.65-2.3-1.11-2.04,1.13.02.54,2.02-.5,2.95-1.8-.94-1.95.7-2.9.59l1.07.44c-.36,1.21-1.26,1.05-2.52,1.43-.11-.94,1.14-.65.69-1.06-1.39,2.13-3.14-2.2-5.09-.77-.9-.82-.09-2.28-.88-2.83-2.18,1.57-2.36-1.66-4.64-.36.66,1.63.77,1.23-.84,2.82l3.76-1.15-2.41,2.37c1.13.02,2.39-1.02,3.07-.75-1.15,1.33-1.03.92-.49,2.27-1.55-2.44-3.08,1.42-4.87-.23l.05-4.03c-2.7-1.8-4.79,2.07-8.29,1.05l1.13.7c-.47,1.6-2.16.22-3.3.87.11-1.35-.6-1.84-1.09-2.68.06,1-2.56-.09-2.88,2.6l-1.56-1.77c-2.83-.73-3.23,3.84-5.95,3.38.82-1.46-.42-2.42,1.4-3.47-.91-.01-1.72-.26-1.74.67-.53-.84-2.52,1.82-3.35.54-.38.59-.51,2-1.53,1.89-.11-.27,0-.66,0-.66,0,.66-1.6.9-.7,2.4-2.8-4.2-7.81.31-10.25-3.3-1.98.45-4.37.88-6.17.98.12-.4,0-.67.35-.53-2.48-1.25-1.52,3.87-4.35,2.47-1.44-2.18,1.5-1.18.6-2-.39-4.43-3.41.6-5.31-1.98l.46-.26c-1.45-1.51-3.54,1.68-5.91,1.36,0,0,.12-.39.01-.67-1.62,2.26-4.69,3.01-6.98,3.64.71-1.73,1.04-.92.6-2.68-1.02.25.3,2.83-1.74,3.32-.66-.95-2.14-1.78-2.33-3.66l1.93-.1c-.99-2.43-2.49.08-3.51-.34l.13-1.06c-2.95.35-2.99,3.03-6.17,2.83l.33.81c-1.73,2.65-1.45-1.49-3.18.48l-.52-2.69c-1.14.65-4.01,2.6-6.06,3.11,1.16-2,3.56-3.02,5.05-4.2-1.13-.02-3.85.2-4.44,1.53.46-.26,1.03-.92,1.48-.5-1.39,2.12-3.22,3.16-5.48,3.11.4-5.22-5.89-1.32-7.53-5.37-4,1.93-7.93-.82-12.59-.52,1.65,4.06-1.36.12-1.07,4.29-1.08.27-1.5.2-1.6-.07l-3.29-2.49c-.78-1.21,1.03-.92.93-1.86-2.38-.32-1-1.77-2.57-2.88.32,1.49-.83,2.14-2.18,1.57l1.91,1.92c-3.32,2.22-2.87-3.5-6.21-1.3l1.06-1.31c-1.72.77-6.33-.03-8.02,3.32-.3-.48-.7-1.62.05-1.92-4.1-.5-9.13,3.57-12.32,1.5l.31-1.02c-.77.29-1.33,1.92-2.29.89.05-.42.31-1.02-.05-1.08-.41.35-2.03,1.79-3.05,1.19l.87-1.15c-4-1.34-6.14,2.8-9.5,3.49,0-3-3.14-3.98-4.71-4.47l.05-.43c-4.66-.37-7.92,2.49-12.23,3.67-2.68-3.26-9.07-1.36-13.38-3.19.66.55-.11,2.34-.87,2.64-1.01-.61-2.79,2.08-2.63-.67l.36.05c-.76-2.7-2.84-1.98-4.46-2.06l-.27,3.6c-4.24-5.24-11.11,1.93-13.43-2.77-1.02.9-2.29.89-3.31,1.79l.05-1.93c-2.84-.49-4.25-.73-7.76-.27l.71-1.38c-1.98-.12-2.5,5.57-4.32,5.68l-.55-2.88c-3.45.05-6.94-2.49-10.35.13.06-.42.16-1.26.72-1.37-1.62-.08-6.28-1.95-5.69,2.01-.04-2.58-3.56-.25-5.42.88l.29-1.9c-1.57,2.43-1.62,3.09-3.82,3.77-.52-.25-.46-1.52.24-1.04-1.73-1-1.35,1.8-3.45.79l.78-1.21c-1.78-.15-1.64.5-2.62,1.92-1.12.76-3.38-.48-3.65-2.2-.24,1.05-1.22,2.45-2.27,1.95-.14-.65.24-1.05.43-1.25-2.98-1.29-4.43,2.21-6.49.34-.04-.63-.18-.94-.35-1.13,2.37.05,4.28.15,4.1.29,0-1.75-1.91-2.06-.39-4.48-1.54,1.32-4.16,4.19-6.03,3.37-.09-.17-.18-.34-.25-.61l.19-.2c-.43-.17-.82-.01-1.18.28-.6-.29-.97-.5-1.55-.53-.22-1.45-2.19-.78-3.15-.85.08,1.92-1.17,1.61,0,3.19-.15-.14.18-.23.81-.31.14-.06.31-.09.41-.2-.02.05-.04.11-.07.17.63-.06,1.44-.1,2.37-.13-.75.97-1.54,1.79-2.6.73-.49,1.23-1.03,2.5-1.33,3.09-1.31-2.68-3.82-4.12-4.17-5.77-2.91,1.08-6.86.71-8.7,4.31-.83.46-.95-1.03-1.26-1.6.48-.36,1.05-.31,1.31-.82-1.66.92-4.91.36-5.3,2.88-2.09-1.14,1.17-2.32-1.7-1.91l.39-.77c-5.64-4.02-9.18,6.42-15.43,1.26.43.32.65.46.74.88-7.13-2.28-14.7,2.14-21.74-1.47-2-.73-2.22.88-3.44,2.1l-.43-2.06-2.09,2.38c-2.96,1.74-5.13-5.06-8.88-1.76l.48,1.39c-1.35-.26-4.26.82-4.04-.78-.14.25-.44,1.44-.97.72l-.04-1.08-3.31,1.85c-2.56-.78.4-4.28-3.34-4.49-1.39.41-3.96,3.14-3.44,3.86.56.05,1.43.67,1.48,1.75l-1.27.56c-.23,3.18-1.21,6.43,1.91,8.65l2.18-1.94.7,1.54-1.83.1c1.04,1.45,1.7.17,2.43-.71.17.82.48,1.39.91,1.7l2.14-3.03c.26,1.24-.96,2.46.48,3.15,1-1.41-.96-2.79.7-3.71,1.04,1.44.74,2.62,1.96,1.39.17.82-.09,1.34-.57,1.7,1.09-.98,2.88-.41,3.44-2.1,1.08,1.78,3.67-.46,3.56,2.54.34-.72,1.92-2.36,2.91-2.49-1.82,3.6,3.74.21,3.26,4.07,1.35-3.24,4.88-1.44,7.27-3.23-.13.26-.4.78-.61.61,1.35.27,1.74,1.24,2.6,1.86.17-2.67,2.27-3.28,3.4-4.93,1.65,2.58-1,3.14-.48,5.62-.08-2.17,2.87-2.16,2.31-3.97,1.26,1.6,1.09.77,1.74,2.99.22-3.34,1.18-.57,2.22-2.62,1.83,1.65.47,3.13,2.48,2.12.95,1.02-.83,2.21-.83,2.21ZM127.29,227.45v.04c-.41.04-.76.08-.98.11.21-.03.49-.06.98-.15ZM131.3,227.42c-.49-.08-1.1-.09-1.74-.08-.14-.66.01-1.34.41-1.31-.22.44.73.82,1.32,1.38ZM122.81,214.13c.63-.27.85.11.93.5-.3.03-.65.1-1.11.23-.02.07-.06.15-.07.23.06-.37.13-.71.25-.96Z"/>
    <path class="cls-2" d="M121.67,216.64c-.09.04-.14.12-.26.14.13.17.25.31.38.43.08-.2.16-.4.22-.6-.12.01-.23.02-.34.03Z"/>
    <path class="cls-2" d="M485.16,219.49l-.08-.04c.07.08.13.15.18.27-.06-.09-.06-.15-.09-.23Z"/>
    <polygon class="cls-2" points="186.67 231.09 186.66 230.6 186.31 231.03 186.67 231.09"/>
    <path class="cls-2" d="M507.25,226.07c.04.17.13.34.29.49-.01-.12-.14-.3-.29-.49Z"/>
    <path class="cls-2" d="M516.79,226.5l1.35.68c-.58-.39-1.01-.57-1.35-.68Z"/>
    <path class="cls-2" d="M524.12,227.45c.09-.34.12-.59.14-.82,0,0,0,0-.01-.01l-.13.83Z"/>
    <path class="cls-2" d="M407.5,229.7c-.1.01-.2.04-.28.09-.66.37-.21.23.28-.09Z"/>
    <path class="cls-2" d="M442.21,225.22c-.37.35-.73.69-1.12.91.62.15,1.1.18,1.12-.91Z"/>
    <path class="cls-2" d="M368.75,232.01s0-.02,0-.03c-.08,0-.16,0-.24,0l.24.03Z"/>
    <path class="cls-2" d="M439.48,226.09c.62.38,1.13.3,1.61.03-.51-.13-1.1-.32-1.61-.03Z"/>
    <path class="cls-2" d="M555.91,228.32l.35.08c0-.13.02-.23.04-.31l-.4.23Z"/>
    <path class="cls-2" d="M556.31,228.09l.39-.23c-.18,0-.34.02-.39.23Z"/>
    <path class="cls-2" d="M557.53,227.38l-.83.48c.29,0,.64.06.83-.48Z"/>
    <path class="cls-2" d="M546.2,227.43l-.11.7c.06-.14.1-.37.11-.7Z"/>
    <path class="cls-2" d="M543.25,227.63c.7.16,1.77,1.48,2.75,1.05l.09-.55c-.46,1.03-2.17-1.67-2.84-.49Z"/>
    <path class="cls-2" d="M530.94,219.04l2.47.56c-.43-.74-1-1.74.12-1.92-3.12-2.21.64,1.66-2.6,1.36Z"/>
    <path class="cls-2" d="M523.27,217.96c1.33-.34-.02-1.08.05-1.49-.84.67-1.05.84-.05,1.49Z"/>
    <path class="cls-2" d="M467.87,217.96l.13-1.75c-1.02.25,0,.68-.13,1.75Z"/>
    <polygon class="cls-2" points="457.27 226.98 458.27 228.06 458.75 226.46 457.27 226.98"/>
    <polygon class="cls-2" points="451.02 214.54 451.47 214.3 449.76 214.93 451.02 214.54"/>
    <path class="cls-2" d="M357.97,215.17l.31,2.15c.69-.38.84-2.8-.31-2.15Z"/>
    <path class="cls-2" d="M317.79,217.35c-.44-1.07-1.57-1.77-2.26-.71.9.15,1.8.99,2.26.71Z"/>
    <polygon class="cls-2" points="197.32 213.85 198.13 213.13 196.61 213.73 197.32 213.85"/>
  </g>
</svg>