<?xml version="1.0" encoding="UTF-8"?>
<svg id="Layer_1" data-name="Layer 1" xmlns="http://www.w3.org/2000/svg" viewBox="0 0 176.65 351.18">
  <defs>
    <style>
      .cls-1 {
        fill: #ccba8b;
      }

      .cls-2 {
        fill: #c5bbab;
      }

      .cls-3 {
        fill: #a48b53;
      }

      .cls-4 {
        fill: #beb297;
      }

      .cls-5 {
        fill: #927f6e;
      }

      .cls-6 {
        fill: #cfbea5;
      }

      .cls-7 {
        fill: #b9a91d;
      }

      .cls-8 {
        fill: #858006;
      }

      .cls-9 {
        fill: #8d7eb3;
      }

      .cls-10 {
        fill: #6e5000;
      }

      .cls-11 {
        fill: #9c8d77;
      }

      .cls-12 {
        fill: #a99db9;
      }

      .cls-13 {
        fill: #a28b07;
      }

      .cls-14 {
        fill: #967a00;
      }

      .cls-15 {
        fill: #87757c;
      }

      .cls-16 {
        fill: #c0a87d;
      }

      .cls-17 {
        fill: #afa0a4;
      }

      .cls-18 {
        fill: #868306;
      }

      .cls-19 {
        fill: #d8ca6b;
      }

      .cls-20 {
        fill: #8e8016;
      }

      .cls-21 {
        fill: #8d780c;
      }

      .cls-22 {
        fill: #b3a154;
      }

      .cls-23 {
        fill: #9292ad;
      }

      .cls-24 {
        fill: #7a6824;
      }

      .cls-25 {
        fill: #937a07;
      }

      .cls-26 {
        fill: #9b872e;
      }

      .cls-27 {
        fill: #d0bd73;
      }

      .cls-28 {
        fill: #aaa102;
      }

      .cls-29 {
        fill: #ccbc7e;
      }

      .cls-30 {
        fill: #b2a2ba;
      }

      .cls-31 {
        fill: #9883ab;
      }

      .cls-32 {
        fill: #7e6800;
      }

      .cls-33 {
        fill: #9c8e36;
      }

      .cls-34 {
        fill: #b19f4e;
      }

      .cls-35 {
        fill: #d6c9aa;
      }

      .cls-36 {
        fill: #aa9826;
      }

      .cls-37 {
        fill: #695400;
      }

      .cls-38 {
        fill: #7a7010;
      }

      .cls-39 {
        fill: #a79300;
      }

      .cls-40 {
        fill: #b4a7b7;
      }

      .cls-41 {
        fill: #9f9335;
      }

      .cls-42 {
        fill: #938300;
      }

      .cls-43 {
        fill: #9e8986;
      }

      .cls-44 {
        fill: #a89302;
      }

      .cls-45 {
        fill: #b9a884;
      }

      .cls-46 {
        fill: #bcb000;
      }

      .cls-47 {
        fill: #aa9a5d;
      }

      .cls-48 {
        fill: #9e8f4c;
      }

      .cls-49 {
        fill: #aea9d6;
      }

      .cls-50 {
        fill: #bbad90;
      }

      .cls-51 {
        fill: #796c8d;
      }

      .cls-52 {
        fill: #8b7b26;
      }

      .cls-53 {
        fill: #937e2b;
      }

      .cls-54 {
        fill: #a2935c;
      }

      .cls-55 {
        fill: #c4ba8f;
      }

      .cls-56 {
        fill: #baa668;
      }

      .cls-57 {
        fill: #8c7c13;
      }

      .cls-58 {
        fill: #846e04;
      }

      .cls-59 {
        fill: #938f07;
      }

      .cls-60 {
        fill: #816d88;
      }

      .cls-61 {
        fill: #e7da9d;
      }

      .cls-62 {
        fill: #cbbb86;
      }

      .cls-63 {
        fill: #958d45;
      }

      .cls-64 {
        fill: #9a8d6b;
      }

      .cls-65 {
        fill: #a39471;
      }

      .cls-66 {
        fill: #856f06;
      }

      .cls-67 {
        fill: #a89a5c;
      }

      .cls-68 {
        fill: #ba9d02;
      }

      .cls-69 {
        fill: #a09089;
      }

      .cls-70 {
        fill: #88710a;
      }

      .cls-71 {
        fill: #c1a55a;
      }

      .cls-72 {
        fill: #b79e6c;
      }

      .cls-73 {
        fill: #aa9c6c;
      }

      .cls-74 {
        fill: #8f799a;
      }

      .cls-75 {
        fill: #b8a34f;
      }

      .cls-76 {
        fill: #b1a993;
      }

      .cls-77 {
        fill: #d8c896;
      }

      .cls-78 {
        fill: #786314;
      }

      .cls-79 {
        fill: #877b5d;
      }

      .cls-80 {
        fill: #9b8ba4;
      }

      .cls-81 {
        fill: #cbbea8;
      }

      .cls-82 {
        fill: #8b6e92;
      }

      .cls-83 {
        fill: #938537;
      }

      .cls-84 {
        fill: #998e14;
      }

      .cls-85 {
        fill: #9e9c0c;
      }

      .cls-86 {
        fill: #d8c993;
      }

      .cls-87 {
        fill: #a29921;
      }

      .cls-88 {
        fill: #9c8c5a;
      }

      .cls-89 {
        fill: #a2892d;
      }

      .cls-90 {
        fill: #ad9c4a;
      }

      .cls-91 {
        fill: #9d9b00;
      }

      .cls-92 {
        fill: #90800b;
      }

      .cls-93 {
        fill: #938103;
      }

      .cls-94 {
        fill: #9c8c6d;
      }

      .cls-95 {
        fill: #aea724;
      }

      .cls-96 {
        fill: #a191a1;
      }

      .cls-97 {
        fill: #86730b;
      }

      .cls-98 {
        fill: #c9bcac;
      }

      .cls-99 {
        fill: #989305;
      }

      .cls-100 {
        fill: #836d4b;
      }

      .cls-101 {
        fill: #c7b28d;
      }

      .cls-102 {
        fill: #9c810c;
      }

      .cls-103 {
        fill: #685a35;
      }

      .cls-104 {
        fill: #c4ba9c;
      }

      .cls-105 {
        fill: #a59407;
      }

      .cls-106 {
        fill: #b5aa63;
      }

      .cls-107 {
        fill: #9d8c2d;
      }

      .cls-108 {
        fill: #c1ab77;
      }

      .cls-109 {
        fill: #ada292;
      }

      .cls-110 {
        fill: #767305;
      }

      .cls-111 {
        fill: #ab9e5f;
      }

      .cls-112 {
        fill: #8a795d;
      }

      .cls-113 {
        fill: #907c18;
      }

      .cls-114 {
        fill: #8c850b;
      }

      .cls-115 {
        fill: #806e40;
      }

      .cls-116 {
        fill: #c8b586;
      }

      .cls-117 {
        fill: #aa9964;
      }

      .cls-118 {
        fill: #847141;
      }

      .cls-119 {
        fill: #9b8f30;
      }

      .cls-120 {
        fill: #9a8109;
      }

      .cls-121 {
        fill: #ab9d54;
      }

      .cls-122 {
        fill: #afa487;
      }

      .cls-123 {
        fill: #8d7a00;
      }

      .cls-124 {
        fill: #8e7934;
      }

      .cls-125 {
        fill: #aeaa00;
      }

      .cls-126 {
        fill: #887c0e;
      }

      .cls-127 {
        fill: #73631a;
      }

      .cls-128 {
        fill: #7c6b07;
      }

      .cls-129 {
        fill: #a89c72;
      }

      .cls-130 {
        fill: #8b780a;
      }

      .cls-131 {
        fill: #9a9706;
      }

      .cls-132 {
        fill: #918f04;
      }

      .cls-133 {
        fill: #958a18;
      }

      .cls-134 {
        fill: #968b27;
      }

      .cls-135 {
        fill: #90760f;
      }

      .cls-136 {
        fill: #8e800f;
      }

      .cls-137 {
        fill: #aa9e78;
      }

      .cls-138 {
        fill: #c6b369;
      }

      .cls-139 {
        fill: #b3a8b5;
      }

      .cls-140 {
        fill: #b59d85;
      }

      .cls-141 {
        fill: #83703f;
      }

      .cls-142 {
        fill: #b0a439;
      }

      .cls-143 {
        fill: #b8a574;
      }

      .cls-144 {
        fill: #baa881;
      }

      .cls-145 {
        fill: #91862a;
      }

      .cls-146 {
        fill: #9d8931;
      }

      .cls-147 {
        fill: #b0a56b;
      }

      .cls-148 {
        fill: #d6cf9d;
      }

      .cls-149 {
        fill: #a59746;
      }

      .cls-150 {
        fill: #9d9249;
      }

      .cls-151 {
        fill: #907e1d;
      }

      .cls-152 {
        fill: #a38dac;
      }

      .cls-153 {
        fill: #af9db3;
      }

      .cls-154 {
        fill: #775e28;
      }

      .cls-155 {
        fill: #9f8c58;
      }

      .cls-156 {
        fill: #99831d;
      }

      .cls-157 {
        fill: #7e6d02;
      }

      .cls-158 {
        fill: #827088;
      }

      .cls-159 {
        fill: #968087;
      }

      .cls-160 {
        fill: #a5903f;
      }

      .cls-161 {
        fill: #9d8925;
      }

      .cls-162 {
        fill: #908f0a;
      }

      .cls-163 {
        fill: #dfd0a6;
      }

      .cls-164 {
        fill: #afa6bb;
      }

      .cls-165 {
        fill: #a99a5b;
      }

      .cls-166 {
        fill: #755f2b;
      }

      .cls-167 {
        fill: #807d00;
      }

      .cls-168 {
        fill: #9f8912;
      }

      .cls-169 {
        fill: #a89a00;
      }

      .cls-170 {
        fill: #6b5f1f;
      }

      .cls-171 {
        fill: #b8ab91;
      }

      .cls-172 {
        fill: #978b90;
      }

      .cls-173 {
        fill: #a39266;
      }

      .cls-174 {
        fill: #987f6b;
      }

      .cls-175 {
        fill: #cabb9c;
      }

      .cls-176 {
        fill: #8a784d;
      }

      .cls-177 {
        fill: #bbaa62;
      }

      .cls-178 {
        fill: #9c8d7d;
      }

      .cls-179 {
        fill: #745e10;
      }

      .cls-180 {
        fill: #78630a;
      }

      .cls-181 {
        fill: #867c17;
      }

      .cls-182 {
        fill: #96853d;
      }

      .cls-183 {
        fill: #9f8a05;
      }

      .cls-184 {
        fill: #635703;
      }

      .cls-185 {
        fill: #8e8a0e;
      }

      .cls-186 {
        fill: #bfaf8d;
      }

      .cls-187 {
        fill: #bca8be;
      }

      .cls-188 {
        fill: #a08f67;
      }

      .cls-189 {
        fill: #8e7a06;
      }

      .cls-190 {
        fill: #867050;
      }

      .cls-191 {
        fill: #958e0b;
      }

      .cls-192 {
        fill: #a38f01;
      }

      .cls-193 {
        fill: #745c00;
      }

      .cls-194 {
        fill: #b5a47e;
      }

      .cls-195 {
        fill: #c1b69b;
      }

      .cls-196 {
        fill: #968225;
      }

      .cls-197 {
        fill: #9d8a0e;
      }

      .cls-198 {
        fill: #ad954b;
      }

      .cls-199 {
        fill: #bcb19b;
      }

      .cls-200 {
        fill: #968229;
      }

      .cls-201 {
        fill: #a7997c;
      }

      .cls-202 {
        fill: #887306;
      }

      .cls-203 {
        fill: #8f8207;
      }

      .cls-204 {
        fill: #91814a;
      }

      .cls-205 {
        fill: #91840d;
      }

      .cls-206 {
        fill: #b7a4c7;
      }

      .cls-207 {
        fill: #706600;
      }

      .cls-208 {
        fill: #9e9593;
      }

      .cls-209 {
        fill: #a39568;
      }

      .cls-210 {
        fill: #9c8b60;
      }

      .cls-211 {
        fill: #b7a252;
      }

      .cls-212 {
        fill: #a28d24;
      }

      .cls-213 {
        fill: #8c880d;
      }

      .cls-214 {
        fill: #b7a8ae;
      }

      .cls-215 {
        fill: #bbada1;
      }

      .cls-216 {
        fill: #9f924b;
      }

      .cls-217 {
        fill: #97804c;
      }

      .cls-218 {
        fill: #7d7149;
      }

      .cls-219 {
        fill: #8c7b36;
      }

      .cls-220 {
        fill: #aa9e3d;
      }

      .cls-221 {
        fill: #a28a00;
      }

      .cls-222 {
        fill: #746308;
      }

      .cls-223 {
        fill: #cbb98a;
      }

      .cls-224 {
        fill: #88762f;
      }

      .cls-225 {
        fill: #816e01;
      }

      .cls-226 {
        fill: #88732c;
      }

      .cls-227 {
        fill: #867633;
      }

      .cls-228 {
        fill: #876e11;
      }

      .cls-229 {
        fill: #887970;
      }

      .cls-230 {
        fill: #92885c;
      }

      .cls-231 {
        fill: #b59fb0;
      }

      .cls-232 {
        fill: #b5ae8f;
      }

      .cls-233 {
        fill: #9b8c37;
      }

      .cls-234 {
        fill: #8c8817;
      }

      .cls-235 {
        fill: #7d681f;
      }

      .cls-236 {
        fill: #6a5b00;
      }

      .cls-237 {
        fill: #897704;
      }

      .cls-238 {
        fill: #b6a58e;
      }

      .cls-239 {
        fill: #816a90;
      }

      .cls-240 {
        fill: #cdbca4;
      }

      .cls-241 {
        fill: #a5926a;
      }

      .cls-242 {
        fill: #6d5b37;
      }

      .cls-243 {
        fill: #bdaba9;
      }

      .cls-244 {
        fill: #b0a376;
      }

      .cls-245 {
        fill: #7f74ac;
      }

      .cls-246 {
        fill: #b9a78f;
      }

      .cls-247 {
        fill: #aaa193;
      }

      .cls-248 {
        fill: #b8abbc;
      }

      .cls-249 {
        fill: #cab999;
      }

      .cls-250 {
        fill: #9a8724;
      }

      .cls-251 {
        fill: #7f6402;
      }

      .cls-252 {
        fill: #a29230;
      }

      .cls-253 {
        fill: #c8be95;
      }

      .cls-254 {
        fill: #aa9509;
      }

      .cls-255 {
        fill: #837c31;
      }

      .cls-256 {
        fill: #ac9f69;
      }

      .cls-257 {
        fill: #918750;
      }

      .cls-258 {
        fill: #9f8d2c;
      }

      .cls-259 {
        fill: #503b22;
      }

      .cls-260 {
        fill: #a28b4b;
      }

      .cls-261 {
        fill: #af915c;
      }

      .cls-262 {
        fill: #8e8b0e;
      }

      .cls-263 {
        fill: #9f945e;
      }

      .cls-264 {
        fill: #8d88a8;
      }

      .cls-265 {
        fill: #6e6000;
      }

      .cls-266 {
        fill: #b2a261;
      }

      .cls-267 {
        fill: #7d6801;
      }

      .cls-268 {
        fill: #bba9a2;
      }

      .cls-269 {
        fill: #887fa5;
      }

      .cls-270 {
        fill: #806c03;
      }

      .cls-271 {
        fill: #a28219;
      }

      .cls-272 {
        fill: #bca99f;
      }

      .cls-273 {
        fill: #b9ab9e;
      }

      .cls-274 {
        fill: #877b0d;
      }

      .cls-275 {
        fill: #968140;
      }

      .cls-276 {
        fill: #7c7600;
      }

      .cls-277 {
        fill: #9e8544;
      }

      .cls-278 {
        fill: #a59314;
      }

      .cls-279 {
        fill: #b29f4f;
      }

      .cls-280 {
        fill: #b99d11;
      }

      .cls-281 {
        fill: #bdac9d;
      }

      .cls-282 {
        fill: #b09a2a;
      }

      .cls-283 {
        fill: #b3a30b;
      }

      .cls-284 {
        fill: #8c7b08;
      }

      .cls-285 {
        fill: #8e810e;
      }

      .cls-286 {
        fill: #74720f;
      }

      .cls-287 {
        fill: #a89221;
      }

      .cls-288 {
        fill: #87794d;
      }

      .cls-289 {
        fill: #7e6913;
      }

      .cls-290 {
        fill: #907f34;
      }

      .cls-291 {
        fill: #b5a89d;
      }

      .cls-292 {
        fill: #7d7205;
      }

      .cls-293 {
        fill: #7d6940;
      }

      .cls-294 {
        fill: #887118;
      }

      .cls-295 {
        fill: #918226;
      }

      .cls-296 {
        fill: #c7b58f;
      }

      .cls-297 {
        fill: #99840c;
      }

      .cls-298 {
        fill: #c8b585;
      }

      .cls-299 {
        fill: #b78f4b;
      }

      .cls-300 {
        fill: #a99d56;
      }

      .cls-301 {
        fill: #c9b158;
      }

      .cls-302 {
        fill: #978289;
      }

      .cls-303 {
        fill: #cbbd99;
      }

      .cls-304 {
        fill: #818000;
      }

      .cls-305 {
        fill: #b9aeaa;
      }

      .cls-306 {
        fill: #705900;
      }

      .cls-307 {
        fill: #8a7744;
      }

      .cls-308 {
        fill: #72633a;
      }

      .cls-309 {
        fill: #cdbb84;
      }

      .cls-310 {
        fill: #a59522;
      }

      .cls-311 {
        fill: #c8b684;
      }

      .cls-312 {
        fill: #84733f;
      }

      .cls-313 {
        fill: #b4a3bd;
      }

      .cls-314 {
        fill: #9e8b03;
      }

      .cls-315 {
        fill: #a99d34;
      }

      .cls-316 {
        fill: #836f02;
      }

      .cls-317 {
        fill: #968335;
      }

      .cls-318 {
        fill: #a391a9;
      }

      .cls-319 {
        fill: #827000;
      }

      .cls-320 {
        fill: #b7ac8e;
      }

      .cls-321 {
        fill: #ac9d5d;
      }

      .cls-322 {
        fill: #9d9c00;
      }

      .cls-323 {
        fill: #bfab84;
      }

      .cls-324 {
        fill: #af9e7b;
      }

      .cls-325 {
        fill: #a28c2f;
      }

      .cls-326 {
        fill: #9e8c57;
      }

      .cls-327 {
        fill: #b7a778;
      }

      .cls-328 {
        fill: #b1a966;
      }

      .cls-329 {
        fill: #b0a062;
      }

      .cls-330 {
        fill: #c9b77c;
      }

      .cls-331 {
        fill: #726111;
      }

      .cls-332 {
        fill: #cbb881;
      }

      .cls-333 {
        fill: #bfaa6c;
      }

      .cls-334 {
        fill: #82722f;
      }

      .cls-335 {
        fill: #afa275;
      }

      .cls-336 {
        fill: #968145;
      }

      .cls-337 {
        fill: #816d04;
      }

      .cls-338 {
        fill: #887d0a;
      }

      .cls-339 {
        fill: #a99459;
      }

      .cls-340 {
        fill: #726c01;
      }

      .cls-341 {
        fill: #8a7b18;
      }

      .cls-342 {
        fill: #9c8c2a;
      }

      .cls-343 {
        fill: #9e8f5b;
      }

      .cls-344 {
        fill: #ab9fcf;
      }

      .cls-345 {
        fill: #c1a600;
      }

      .cls-346 {
        fill: #d0bba1;
      }

      .cls-347 {
        fill: #8e820d;
      }

      .cls-348 {
        fill: #8c790a;
      }

      .cls-349 {
        fill: #8a8330;
      }

      .cls-350 {
        fill: #8e8318;
      }

      .cls-351 {
        fill: #afa084;
      }

      .cls-352 {
        fill: #8b8706;
      }

      .cls-353 {
        fill: #c2baa7;
      }

      .cls-354 {
        fill: #968746;
      }

      .cls-355 {
        fill: #b59c00;
      }

      .cls-356 {
        fill: #99827e;
      }

      .cls-357 {
        fill: #c8bb94;
      }

      .cls-358 {
        fill: #95824e;
      }

      .cls-359 {
        fill: #a89d90;
      }

      .cls-360 {
        fill: #c2b7ac;
      }

      .cls-361 {
        fill: #b8ac6d;
      }

      .cls-362 {
        fill: #7d6b09;
      }

      .cls-363 {
        fill: #999715;
      }

      .cls-364 {
        fill: #7c5d3d;
      }

      .cls-365 {
        fill: #857821;
      }

      .cls-366 {
        fill: #958356;
      }

      .cls-367 {
        fill: #978115;
      }

      .cls-368 {
        fill: #988409;
      }

      .cls-369 {
        fill: #a29113;
      }

      .cls-370 {
        fill: #755e03;
      }

      .cls-371 {
        fill: #a59c12;
      }

      .cls-372 {
        fill: #a0991e;
      }

      .cls-373 {
        fill: #c3b080;
      }

      .cls-374 {
        fill: #917e25;
      }

      .cls-375 {
        fill: #b7a365;
      }

      .cls-376 {
        fill: #b6a67b;
      }

      .cls-377 {
        fill: #938749;
      }

      .cls-378 {
        fill: #978209;
      }

      .cls-379 {
        fill: #a48f1c;
      }

      .cls-380 {
        fill: #86764c;
      }

      .cls-381 {
        fill: #8c6f04;
      }

      .cls-382 {
        fill: #a79b74;
      }

      .cls-383 {
        fill: #ac9b8d;
      }

      .cls-384 {
        fill: #978345;
      }

      .cls-385 {
        fill: #8f7d1f;
      }

      .cls-386 {
        fill: #b5ac62;
      }

      .cls-387 {
        fill: #c0b6a8;
      }

      .cls-388 {
        fill: #b09b1b;
      }

      .cls-389 {
        fill: #7d6a38;
      }

      .cls-390 {
        fill: #d0c0a6;
      }

      .cls-391 {
        fill: #7c6a2d;
      }

      .cls-392 {
        fill: #ac943a;
      }

      .cls-393 {
        fill: #a18e5b;
      }

      .cls-394 {
        fill: #c4b595;
      }

      .cls-395 {
        fill: #a49976;
      }

      .cls-396 {
        fill: #7e6a25;
      }

      .cls-397 {
        fill: #ceb98f;
      }

      .cls-398 {
        fill: #7f7c14;
      }

      .cls-399 {
        fill: #a7a0b0;
      }

      .cls-400 {
        fill: #897601;
      }

      .cls-401 {
        fill: #9b9053;
      }

      .cls-402 {
        fill: #d6bf42;
      }

      .cls-403 {
        fill: #c7b895;
      }

      .cls-404 {
        fill: #897793;
      }

      .cls-405 {
        fill: #8b7000;
      }

      .cls-406 {
        fill: #7d7400;
      }

      .cls-407 {
        fill: #d8c8ac;
      }

      .cls-408 {
        fill: #d4c177;
      }

      .cls-409 {
        fill: #938849;
      }

      .cls-410 {
        fill: #bbac8e;
      }
    </style>
  </defs>
  <path class="cls-97" d="M46.89,297.41c-1.55,11.86-1.86,24.18-3.99,35.93l-1,6.99c-.45,2.34-.84,7.78-2,8.98-1.81,1.68-1.94-.06-2-2,1.58-12.86,2.74-26.02,3.99-38.92,1.55-3.23,2.55-6.89,2.99-10.98-.84-1.22-.38-1.7,1-1,.67-.86,1-.52,1,1Z"/>
  <path class="cls-131" d="M10.96,253.5C9.49,252.04.04,242.81,0,242.02c-.11-2.15,6.71-.12,7.77.19,3.28.97,5.27,2.98,8.18,4.3,1.22,1.49,2.82,2.65,4.78,3.47-1.73,2.25-1.26,3.95,1.4,5.13l-.2,2.39c3.82,1.51-1.28,4.62-3.99,2-2.58-.76-4.91-2.76-6.99-5.99Z"/>
  <path class="cls-133" d="M74.83,160.68c-.11.62.12,1.38,0,2-1.63,6.58-2.96,13.23-3.99,19.96-.87,6.62-1.4,13.47-2.99,19.96-.75-1.64-1.41-3.3-2-4.99-2.47-4.42-1.77-13.57,2-16.97-1.62-1.28-.65-4.02,1-4.99-.76-2.62-.43-4.61,1-5.99.69-2.91,2.06-6.97,2.99-9.98,1.28-2.42,2.45-1.49,2,1Z"/>
  <path class="cls-99" d="M50.88,141.72c1.56-1.98,2.49-1.18,2.99,1,2.62.11,3.96,3.1,2,4.99,1.1,2.14,1.1,3.47,0,3.99-.83,1.02-1.73,1.61-2.99,1-1.54,1.34-2.72-.28-2-2-1.19-.36-2.52-1.35-3.99-2.99,1.22-3.78-3.45-6.86-3.99-10.97,3.38.04,5.35,3.23,7.98,4.98Z"/>
  <path class="cls-203" d="M53.87,256.49c2.42-1.49,3.08-.16,2,3.99-.47,1.85-.63,3.5-1,4.99l-4.65,17.31-1.33.65c-2.37.59-3.03-.41-2-2.99-.77-2.61-.44-4.28,1-4.99-1.41-6.07,1.5-14.58,5.99-18.96Z"/>
  <path class="cls-338" d="M60.86,231.54c1.61-1.79,2.6-1.79,2.99,0-2.14,7.05-4.12,14.8-5.99,21.96-1.12,4.27-3.57,4.22-2.99,0l-1.3-2.74,4.85-17.54,2.44-1.68Z"/>
  <path class="cls-4" d="M33.91,79.84c.28-.87.62-.86,1,0-1.17,7.58,1.2,16.32,1,23.95,1.46.47,1.78-.92,1.99-.99.98-1.51,1.68-1.89,2,0-.76,2.63-1.92,3.76-2,3.99l-2-1c.56,1.22.48,2.35-1,2-4.6-3.91-6.81-15.73-3.99-20.96.69-1.92,1.02-3.92,1-5.99-.89-.27-.87-.6,0-1-.25-1.94.98-1.33,2,0Z"/>
  <path class="cls-126" d="M105.77,162.68c-.93,2.65-3.37,5.96-3.99,8.98-1.43.42-1.77-.91-1-3.99-.45-2.09-1.38-4.79-2-6.99-.51-3.11.15-4.1,2-2.99,3.14,2.05,3.72-2.46,4.99-3.99,5.1-1.64,1.77,6.27,0,8.98Z"/>
  <path class="cls-274" d="M46.89,148.71c1.54-.9,3.83,2.05,2,2.99.14.86.14,1.86,0,2.99,1.48,4.25-2.86,12.25-6.99,13.97-1.39,1.02-1.88.48-1-1-1.55.02-1.53-1.66,0-2,.95-4.9,2.34-9.85,3.94-14.57.54-1.6,1.98-2.23,2.05-2.4Z"/>
  <path class="cls-297" d="M58.86,111.78c.66.75,1.33.75,2,0,.3-.87.63-.86,1,0,.7,1.88,1.37,2.22,2,1,1.46-1.34,2.02-.76,1,1,3.12-1.26,2.08,3.45,0,4.99-1.21,3.22-4.75,5.41-6.99,1-.28.87-.62.86-1,0-.52-1.7-2.51-1.53-2-6.99-.78-1.72-.91-2.92,1-2,1-2.43,3.45-1.81,2.99,1Z"/>
  <path class="cls-18" d="M21.94,249.5c1.67,1.4,3.67,2.4,5.99,2.99.43.31.42.64,0,1-1.59,1.58-3.58,2.92-5.99,3.99l-6.98-5.49,4.98-1.48c-2.12-1.4-8.56.43-9.97-1.02-3.59-3.69,7.54.84,5.99-2.98,2.65,1.2,3.7,1.81,5.99,2.99Z"/>
  <path class="cls-114" d="M94.79,196.61c.25-.15.63-1.15,1.7-1.75,3.26-1.82,12.46-6.21,15.79-7.21,5.3-1.59-3.18,5.6-3.51,5.97l-7.82,5.55-2.16-.56c-1.45,2.58-4.65.74-3.99-2Z"/>
  <path class="cls-377" d="M40.9,243.52c2.97.97,2.86,4.95,0,5.99l1,5.99c3.48,3.7,4.92,12.8,2,16.97-.19.7-1.19.7-2.99,0-1.3-.38-1.33-.67-2-1l-.35-2.09c2.32-.03,2.77-2.33,1.34-6.89.03-1.66.01-3.33,0-4.99l-1-7.98c-.02-2.33,0-4.66,0-6.99-.79-1.99-.8-4.02,0-5.99.28-.87.62-.86,1,0,.59,2.19.92,4.52,1,6.99Z"/>
  <path class="cls-57" d="M67.85,202.6c.02,1-.01,2,0,2.99l-1,6.99c-.1,3.77,0,7.28-1,10.98-.28.87-.62.86-1,0-.8-1.49-1.46-2.16-2-2-2.33-4.44-1.68-13.45,2-16.97.72-1.55,1.05-3.21,1-4.99-2.64-.35-2.49-1.14,0-2l1.01-1.99h.97c-.44,2.38-.03,4.76.01,6.98Z"/>
  <path class="cls-168" d="M51.88,65.87c2.54-1.1,2.18.97,0,2,2.6-.58,2.84.07,1,2,1.24.9.52,2.79-1,2.99.63.68.63,2.01,0,3.99-.64,1.01-1.38,1.97-2,2.99-2.31,2.24-3.64,2.24-3.99,0,.44-2.73-.43-5.37-.99-7.98.65-.07,1.35.08,1.99,0,.82-2.09,1.82-3.75,2.99-4.99-.86-.27-.84-.6,0-1,.58-1.32,1.78-1.63,2,0Z"/>
  <path class="cls-196" d="M91.8,104.79c.61,3.6-1.29,7.68-2.99,10.98.31,3.1-.36,4.76-2,4.99-.46,2.78-2.71,2.41-2,0,1.44-5.55,2.05-12.69,3.99-17.96-.72-2.23-.92-4.71,2-3.99.11-.2,1.48-.64,2-1,2.46,1.08.9,5.96-1,6.99Z"/>
  <path class="cls-102" d="M62.86,99.8c2.08,2.07,2.02,5.26,2.01,7.98,1.18-.01,1.49-1.24,1.99-2,1.49-1.08,1.82-.42,1,2,1.73,1.29-.56,8.28-2.99,5.99-.27-.39-.65-.69-1-1-1.39-.44-1.21-1.21,0-2-1.64-.52-3.15-1.48-3.99-2.99-1.3,2.24-1.67,2.24-2.99,0-1.52-.41-1.35-2.35,0-2.99,2.39.65,1.79-1.56,2.99-2.99.58-.49,1.58-.82,2.99-1-.86-.32-.85-.66,0-1Z"/>
  <path class="cls-59" d="M97.79,202.6c-.95,1.28-.95,1.94,0,2-2.67,2.45-5.51,5.85-7.98,7.98-3.51,1.98-10.91,4.93-6.99-1-.28-.94.05-1.27,1-1-.79-2.97,5.11-5.57,7.98-5.99-.99-2.61.14-3.05,2-1,.1-3.16,1.1-3.82,2.99-2,1.4-1.32,1.92-.76,1,1Z"/>
  <path class="cls-394" d="M80.82,35.93c2.79-.67,3.8,1.58,2,3.99,2.66-.16,1.31,2.3,0,2.99-.8,1.49-1.67.53-2-1-.83-.24-1.5-.9-2-2-.54,1.41-.54,3.07,0,4.99l1.69,1.5c-1.77.15-2,1.32-.69,3.49.8.46.45,1.18,0,2,2.49.34,2.49,1.34,0,2.99-.28.87-.62.86-1,0-.69-.31-.68-.64,0-1-1.72-.44-3.38-1.77-4.99-3.99-.03-.07-1.17.09-1.01-.99,4.84.8,2.41-1.94,3-5-.68-3.73-.02-6.06,2-6.99-1.16-1.5-.62-2.08,1-1,.25-.9.59-.88,1,0,.23-.91.57-.88,1,0Z"/>
  <path class="cls-110" d="M81.82,204.59c2.27-.19,2.47,3.75,2,5.99-.37.27-.64.74-1,1-.17,3.64-3.66,5.41-6.99,4.99-2.1,1.98-3.38.43-2-2,1.86-2.65,3.87-6.83,5.99-9.98,1.38-1.71,2.04-1.71,2,0Z"/>
  <path class="cls-164" d="M150.68,22.96c.86-3.34,7.13-.71,7.98,2,0,4.18-1.22,5.26-2,7.98-.28.87-.62.86-1,0-1.14-1-2.47-1.66-3.99-2-2.88-.1-2.8-3.33,0-3.99-.83-.55-1.5-1.21-2-2,.39-.63.62-1.36,1-2Z"/>
  <path class="cls-401" d="M38.9,198.61c.75,6.63.77,13.33,0,19.96.74,5.97.66,11.98,0,17.96,0,2,0,3.99,0,5.99-1.65-1.04-.99-3.79-1.02-5.47-.19-15.13.2-30.3.02-45.42.28-.87.62-.86,1,0,.75,2.3.73,4.66,0,6.99Z"/>
  <path class="cls-84" d="M103.77,114.77c-3.88,4.51-8.28,7.89-11.98,11.98-1.46,1.76-2.46,1.76-2.99,0-.32.62-.65.62-1,0-.66-1.61,0-4.06,2-2.99l-.14-1.42c3.87-2.89,7.91-5.75,12.12-8.56,1.84-2.06,2.35-1.71,2,1Z"/>
  <path class="cls-352" d="M82.82,211.58c-.21,4.04,5.48,2.36,4.05-.96l2.93,1.96c-5.92,5.11-7.44,3.45-12.97,5.99-2.06.63-2.73.3-2-1-.28-.94.05-1.27,1-1,2.26-1.7,4.69-3.31,6.99-4.99Z"/>
  <path class="cls-205" d="M47.89,292.42c-.87-.25-.85-.58,0-1-1.7-2.39-1.7-3.72,0-3.99-2.41-.79-1.67-4.32,1-3.99,1.36-5.57,3.76-12.62,5.99-17.96-2.18,8.83-2.64,18.75-6.99,26.95Z"/>
  <path class="cls-379" d="M117.75,20.96c1.13,1.99,1.8,4.32,2,6.99,1.27.66,1.34,1.43,0,2,.08,1.28-.91,2.61-2.99,3.99-3.28,3.03-3.68-6.97-2-8.98.16-2.72.88-5.27,1.01-7.98h.98s1.01,3.99,1.01,3.99Z"/>
  <path class="cls-162" d="M25.93,262.48c1.14-.24,2.48.09,3.99,1,.28-.87.62-.86,1,0,1.4.21,1.61,2.47,1.05,3.38-.08.14-1.04-2.33.95-.39.3-.88.63-.87,1,0,1.51-.77,4.14,2.64,2.99,3.99-2.66.17-4.68-1.13-6.99-2-2.47-.08-4.8-.88-6.99-2-1.72-1.48-2.38-2.81-2-3.99,1.43-.44,3.09-.44,4.99,0Z"/>
  <path class="cls-304" d="M83.81,203.6l1.34-.16c5.31-1.93,7.53-1.55,6.65,1.16-2.2,1.65-5.1,3.86-7.98,5.99l-.58-.79-3.4.79c-.62-2.09,1.8-2.59,2.47-3.99.45-.94-.51-1.81-.48-2-.99-1.4-.52-1.91,1-1,.33.07.9-.12,1,0Z"/>
  <path class="cls-200" d="M85.81,129.74c-.6.72-.66,1.44-1,2l-2.81,9.78-1.18.2c1.53,1.33-.58,8.13-2.99,6.99.61-5.87,1.64-11.81,3.99-17.96.86-3.54,5.45-5.53,3.99-1Z"/>
  <path class="cls-81" d="M22.94,66.87c.87.28.86.62,0,1l-1,4.99c.69,1.41-.75,1.66-2,1-.32.89-.65.89-1,0l-1.06-.41c.92,3.64.27,4.77-1.93,3.4-1.9-.31-1.79-1.09,0-2-1.57-.42-2.24-1.42-2-2.99-2.08-1.27-3.46-2.43-1-3.99.32.06.67-.05,1,0,.92-.82,1.92-.82,2.99,0,.45-2.35,4.79-3.2,5.99-1Z"/>
  <path class="cls-350" d="M94.79,114.77l14.46-7.99c-.28,2.94-3.49,5.69-5.48,7.99-.56-.18-1.63-1.05-2-1-3.89,3.67-6.22,4.33-6.99,2-.66-.29-.65-.63,0-1Z"/>
  <path class="cls-302" d="M125.73,68.87c1.42,2.41,2.75,3.74,3.99,3.99,2.15,3.97-1.13,4.57-4.99,4.99-1.55-.91-2.75-2.17-2.99-3.99,1.35-1.4,2.38-3.79,3.99-4.99Z"/>
  <path class="cls-197" d="M25.93,83.84c2.3-1.3,1.14,1.42,1.06,1.29-1.66-2.88,4.51-3.65,2.93-.29.41,1.71.29,4.85-2,4.99h-2.99c-.53.89-1.19,1.56-2,2-.82-.95-1.8-1.34-2.99-2.99-.2-1.49.47-1.83,2-1,.24-2.56.9-4.22,2-4.99,1.26-2.37,1.92-2.04,2,1Z"/>
  <path class="cls-362" d="M64.85,223.56c1.73.34,2.06,1.67,1,3.99-1.06,1.75-1.29,1.67-2,3.99-2.41-.75-2.64,4.78-2.99,0-2.36-2.93-1.32-8.19,2-9.98l1.99-1c.14.96-.17,2.12,0,2.99Z"/>
  <path class="cls-384" d="M36.91,111.78c.06,4.31,0,8.66,0,12.97-.28.87-.62.86-1,0-.46-2.94-.79-3.28-1-1,0-2.61-.18-5.85,0-8.98-2.21-.89-3.02-6.36,0-6.99.02-.11.93-1.91,1-2,2.24-.69,1.79,4.23,1,5.99Z"/>
  <path class="cls-191" d="M108.76,193.62c-3.06,3.42-4.96,5.05-7.98,7.98-1.07.93-2.07,1.26-2.99,1l-1-1c-2.18-1.77-.62-4.01,2-2.99,2.5-1.83,6.9-4.16,9.98-4.99Z"/>
  <path class="cls-238" d="M109.76,9.98c.85.32,1.51.99,2,2,.01.33-.02.67,0,1,.06,3.8-1.77,5.84-4.99,2.99-.42,1.11-1.09,1.45-2,1-2.08,2.49-3.93-1.41-2-2.99,1.88-.75,2.55-1.42,2-2-.96-2.72.73-3.17,2.99-2-.04-1.73,1.77-1.9,2,0Z"/>
  <path class="cls-110" d="M93.79,203.6c-.19.14-1.03.28-2,1-2.46-2.67-5.94,1.97-6.49,1.98-1.2,0-1.39-2.84-1.5-2.97,1.63-.94,3.19-2.42,4.99-2.99,4.17-3.24,9.21-1.87,4.99,2.99Z"/>
  <path class="cls-371" d="M106.77,58.89l-1,4.99c-.08.65.02,1.34,0,2-.28.87-.62.86-1,0-.68-.93-.68-2.26,0-3.99-1.46-.05-3.23-.87-3.99-2,.18-1.46,1.53-2.84,2-3.99,1.48-1.09,2.48-3.09,2.99-5.99l.99.5c-.05,2.82.12,5.67,0,8.48Z"/>
  <path class="cls-125" d="M58.86,153.7c2.09,2.1,3.76,4.43,4.99,6.99.85-1.91,1.58-.86,2,1-.01.33.04.68,0,1,1.72,1.02.95,2.54-1,2-3.63.12-12.49-8.51-8.98-11.98.9-2.33,3.29-1.17,2.99,1Z"/>
  <path class="cls-397" d="M30.92,60.88c-.09,2.67-.75,5.33-2,7.98l-1,1c-3.15.77-3.88-.56-1-2-2.73.3-3.12-1.46-1-2.99-3.07-.78-3.11-2.92-1-4.99,3.5-2.13,3.8-.93,5.99,1Z"/>
  <path class="cls-204" d="M150.68,122.76c.11,2.69-.96,4.6-1,5.99,1.63,4.4-5.53,5.72-4.99,1-1.66-3.74-1-5.73,2-5.99-.84-1.28-.37-1.8,1-1,.47-2.12,2.55-2.12,2.99,0Z"/>
  <path class="cls-19" d="M35.91,62.88c2.69.03,2.56,1.13,0,2,2.08,1.75.36,4.52-2,4.99,2.54,1.05,2.43,2.87,0,3.99-.24,1.24-1.24.9-2.99-1l-1-1c-2.02-.23-1.93-1.22,0-2-1.23-2.15-.27-7.12,2.99-5.99.47.01.29,2.04,1.64-1h1.36Z"/>
  <path class="cls-30" d="M22.94,57.89c-.18,1.26-.84,2.59-2,3.99,1.97.5,1.93,1.4,0,2-1.64,5.06-5.2,1.17-3.99-2.99-2.18-.31-1.78-2.28,0-2.99.5-.34.58-1.98,2.45-2s2.42,1.17,3.53,2Z"/>
  <path class="cls-221" d="M121.74,86.83c-.47,1.02-1.14,2.02-2,2.99-.26.13-.73-.13-1,0-1.51.27-2.98.77-3.99,2-1.29.57-1.77,1.28-3.99,2-.87-.28-.86-.62,0-1-1.15-1.32-.75-2.13,1-2-2.77-1.77.29-6.07,2.99-3.99,1.07-1.44,1.63-.5,2,1,.82-2.76,2.15-3.43,3.99-2,.32-.63.65-.63,1,0,.87.28.86.62,0,1Z"/>
  <path class="cls-278" d="M111.76,24.95c.96.63.47,2.75,0,3.99-.33,2.19-3.4,3.64-4.99,2h-1c-.13-.63-.13-2.37,0-2.99-.71-1.19-.49-2.32,1-2-.64-1.75.33-3.22,2-2,.23-.92.56-.89,1,0,.85-1.59,1.51-1.26,2,1Z"/>
  <path class="cls-266" d="M111.76,47.91c.14,2.38.93,4.85,1,5.99.9.18.86.52,0,1-.87,2.95-2.2,4.95-3.99,5.99v-3.99c-.77-1.83-.77-3.83,0-5.99.18-1.02.98-2.51,1-2.99.32-2.65,1.24-2.54,2,0Z"/>
  <path class="cls-56" d="M150.68,130.74c2.72-.81,3.06,2.92,0,2.99-2.22,1.41-3.89,1.74-4.99,1-1.56,2.33-3.69,2.05-2.99-1-1.64-1.66-1.31-1.92,1-2-1.7-1.17-1.11-2.07,1-2,2.03,1.65,4.03,1.45,4.99-1-.04,1.42.97,1.86,1,2Z"/>
  <path class="cls-130" d="M117.75,20.96c.43-1.93.51-4.47,2.48-4,1.24.3.07,3.27.51,4,1.63,1.1,1.56,3.87,0,4.99-.03,1.11-.36,1.78-1,2-3.47-1.91-2.68-3.92-2-6.99Z"/>
  <path class="cls-54" d="M38.9,154.69c-.82,3.98-.5,8.01.98,12.08l-.98.89c2.2.7,1.55,3.7,0,4.99-.28.87-.62.86-1,0-.12-6.38-.95-13.13-1-19.96-.45-.76-.72-1.42,0-2,.13-.64.24-1.08,1-1,.28-.87.62-.86,1,0,.02,1.66-.06,3.33,0,4.99Z"/>
  <path class="cls-8" d="M98.78,198.61c-.64.47-1.29,2.45-2,2.99-.94.73-2.04,1.28-2.99,2,.39-4.22-1.7-4.04-4.99-2.99,1.58-1.95,3.94-2.75,5.99-3.99l3.99,2Z"/>
  <path class="cls-299" d="M124.73,77.85c-.07.35.11.76,0,1-1.17,1.25-1.84,1.25-2,0-1.14,2.4-1.84,2.29-2.99,0-.31,1.44-1.8,1.77-2.99,1-.75-3.58,2.34-3.23,4.99-5.99,3.57.77,3.57,1.2,2.99,3.99Z"/>
  <path class="cls-376" d="M37.91,70.86c-.58,1.46-2.82,7.86-2.99,8.98h-1c-1.77-.35-3.87-4.72-1-3.99-.66-1.05-.27-2.09,1-2,.11-1.29-.19-2.78,0-3.99.91-2.82,3.97-1.86,3.99,1Z"/>
  <path class="cls-310" d="M110.76,62.88c-.07.5-.11,1.6,0,2,.55,1.33-.65,2.77-2,2-1.37.98-1.94.66-2-1,.64-1.72,1.25-3.3,2-4.99,1.42-3.22,1.3-3.73,3.99-5.99,1.67,1.72,1,4.38-2,7.98Z"/>
  <path class="cls-372" d="M83.81,79.84c2.65-1.41,3.78,4.62,2,5.99,1.85,1.1,1.1,2.37-1,2-3.11-4.1-2.84-3.82-3.99-8.98-.48-1.49-.45-1.76,1-1,.65.89,1.91,1.85,2,2Z"/>
  <path class="cls-348" d="M44.89,297.41c1.31,3.85-1.35,8.5-1,12.47l-1.99-1.49c.42-4.31,1.73-9.38,2-12.97.97.14,1.42,1.11,1,2Z"/>
  <path class="cls-300" d="M88.8,92.82c.29,1.66,1.01,4.63,2,5.99-.14.25-1.91,3.77-2,3.99-1.32-1.22-1.8-3.28-2-4.99-1.19-2.56-1.19-4.56,0-5.99.36-1.67,1.02-1.34,2,1Z"/>
  <path class="cls-21" d="M161.66,141.72c1.55-.82,2.06-.44,1,1,.41.77-.26,1.44-2,2-.1.91-.45.86-1,0-1.5,1.38-3.5,2.38-5.99,2.99-.65,1.02-1.98,1.02-3.99,0-.33.04-.68-.06-1,0-1.71.3-1.71-.37,0-2,.23-.17,1.48-1.49,2-2,2.73,1.29,5.65-.48,7.98-2,.21-2.89,2.26-2.68,2.99,0Z"/>
  <path class="cls-89" d="M67.85,118.77c-.28.87-.62.86-1,0-.84,1.12-1.57,1.36-2,0-2.52-3.1,2.91-.79,0-4.99,2.99-1.08,2.3-4.05,2.99-5.99-.39-1.71.17-3.76,2-2.99-.25,1.42-.18,3.28-.44,5.01-.5,3.27-3.28,6.27-1.55,8.96Z"/>
  <path class="cls-314" d="M57.87,127.75c1.78,2.08,1.56,6.37-1,7.98.22,2.04-4.07,5.52-4.99,2,1.12-3.94,4.37-6.34,4.99-10.98,1.4-1.32,1.92-.76,1,1Z"/>
  <path class="cls-388" d="M38.9,66.87c.94-.28,1.27.05,1,1-.76,1.79-1.93,2.83-2,2.99l-3.99-1c.65-4.21,1.47-3.57,2-4.99,2.56-1.67,3.3-.95,2.99,2Z"/>
  <path class="cls-100" d="M32.92,63.88c-.37,0-2.35,4.91-2.99,5.99-.28.87-.62.86-1,0-.53-.3-.51-.64,0-1-2.12-3.12-.47-5.79,2-7.98,1.02.9,2.15,1.06,2,2.99Z"/>
  <path class="cls-111" d="M118.74,61.88c1.16-.9,1.85-.49,2,1,1.45-.28,1.45.39,0,2-.61.41-1.38.6-2,1,1.04,2.03-2.1,2.59-2.99,1-1.68,1.04-2.99,1.32-2.99-1,.68-3.53,5.21-3.41,5.99-3.99Z"/>
  <path class="cls-11" d="M98.78,69.86c1.92.73,4.06,5.53,2,6.99.56,1.81-.4,4.08-2,4.99-.3,1.91-1.09,1.8-2,0,.8-4.85.85-9.34,2-13.97,1.73,1.28,1.73,1.94,0,2Z"/>
  <path class="cls-88" d="M137.71,125.75c1.1.02,2.1.69,2.99,2,1.94-.97,2.62,2.06,1,2.99.16,1.4-.84,2.4-2.99,2.99-.25.87-.58.85-1,0-1.52,2.43-2.68,1.66-2.99-1,.11-.61-.08-1.35,0-1.99l2.98.99c-1.63-2.91-.13-4.56,0-5.99Z"/>
  <path class="cls-251" d="M119.74,78.85c1.94-.1,1.78,1.5,0,2-.9,1.29-1.9,2.29-2.99,2.99,2.27,1.07,2.14,2.68,0,3.99-.55-.3-1.03.04-2-1-2.68,1.44-4.36-2.28-2-3.99,1.56-.79,2.45-2.18,3.99-2.99,1-.52,1.91-.75,2.99-1Z"/>
  <path class="cls-296" d="M159.66,135.73c.79,1.54,1.87,1.74,3.23.6l.76,1.4c1.43-1.15,1.99-.6,1,1,2.1.19,2.05,1.65,0,2-.27,1.73-1.73,1.83-2.99,1-.85-.11-2.13-.09-2.99,0-.33.86-.67.86-1,0-1.14.02-1.47-.31-1-1-2-.59.55-4,2-4.99.35.04.9-.1,1,0Z"/>
  <path class="cls-202" d="M134.71,29.94c.7.97,1.03,2.63,1,4.99.33-.84.66-.84,1,0,1.1,1.79-2.32,4.83-3.99,3.99-2.47,1.25-3.13-.41-2-4.99-1.48-1.29-.79-1.6,1-2,.31-.68.69-1.32,1-2,.89-1.66,1.6-1.91,2,0Z"/>
  <path class="cls-390" d="M88.8,41.92c-.01.46.05,1,0,2-.36,1.62-1.02,2.62-2,2.99.54,1.54.5,4.08-1,4.99-.44,2.18-1.11,2.52-2,1-.87-.32-.87-.66,0-1-.37-2.98.23-5.44.82-7.68-2.15-2-1.42-5.18,1.18-3.3,1.33-1.37,2.46-.67,2.99,1Z"/>
  <path class="cls-245" d="M102.78,3.99c.93-1.59,2.37-.91,2,1,1.04.03,1.7.37,2,1,.48,1.32-1.19,1.99-4.99,2,5.63,2.21-3.46,8.79-2,2,.13-3-.59-3.66,1-6.99,1.44-1.44,2.28-1.02,2,1Z"/>
  <path class="cls-235" d="M58.86,136.73c1.11,2.52-2.4,6.3-4.99,5.99-1.5.34-1.99-.33-2.99-1,1-1.18.66-2.8,1-3.99,1.92.29,3.86-1.69,4.99-2,.26-.93.59-.91,1,0,1.47-1.28,2.01-.69,1,1Z"/>
  <path class="cls-244" d="M67.85,121.76c-1.83,2.28-3.27,6.19-3.99,8.98-.28.87-.62.86-1,0-1.91-.56-1.91-1.43,0-2-2.52-.46-1.68-3.71.66-3.73.48,0-.1,1.63-.66-.27-3.48-2.51.97-5.41,3.99-4.99,1.45-.43,2.54,1.03,1,2Z"/>
  <path class="cls-109" d="M31.92,112.78c-1.86,1.06-3.85-.27-5.99-3.99-.04-.29-.05-.72,0-1,.13-.7,1.93-2.72,2-3.99.28-.87.62-.86,1,0,3.16.35,5.28,6.66,2.99,8.98Z"/>
  <path class="cls-363" d="M17.95,259.48c3.58.22,4.57,1.22,2.99,2.99,1.14,1.2,1.8,3.88,2,3.99-3.94-2.51-9.88-8.77-11.98-12.97,1.99,1.98,4.97,4.01,6.99,5.99Z"/>
  <path class="cls-276" d="M100.78,59.88h4c.05.66-.04,1.34,0,2-.11,4.02-1.11,6.35-2.99,6.99-2.59,1.91-3.07-1.5-2-3.99.01-.33-.05-.68,0-1,2.53-1.6,2.87-2.27,1-2-.07-.07-.05-1.6,0-2Z"/>
  <path class="cls-263" d="M39.9,262.48c1.7,2.09,2.09,7.76-1,8.98-.62-.31-1.54-.62-2-1-.92-.76-2.06-2.97-2.99-3.99-.15-2.27.57-2.95,2-1,.68,1.22,2.64,3.36,3.98,3.99.05-2.32-.04-4.66,0-6.99Z"/>
  <path class="cls-234" d="M35.91,265.47c-.93-.09-1.44.71-2,1-.25.13-.7-.12-1,0-.94-2.25-1.13-5.78-1-7.98-2.57-1.11-3.9-2.78-3.99-4.99v-1c7.69,5.05,4.31,6.36,7.98,12.97Z"/>
  <path class="cls-13" d="M39.9,58.89c1.58,1.47,1.58,3.13,0,4.99,1.08.88.18,2.3-1,2.99-.96-.72-2.01-1.32-2.99-2,.13-.36.02-1.42,0-2-.01-.33.03-.67,0-1-.11-2.69-.14-4.44,2.99-3.99.38.31.65.69,1,1Z"/>
  <path class="cls-122" d="M87.81,85.83c-.32,2.65-1.24,2.54-2,0,.29-3.14-.64-3.69-2-5.99v-1c.54-2.12,1.2-3.79,2-4.99.28-.87.62-.86,1,0,.2,3.94.51,8.07,1,11.98Z"/>
  <path class="cls-320" d="M85.81,68.87c.65,1.53.96,3.71,0,4.99-.32,2.65-1.24,2.54-2,0,.07-1,.78-2.13.8-3.44.03-1.73-1.62-6.28-.8-7.53.51-.65,1.17-1.31,2-2,.28-.87.62-.86,1,0-.19,2.71-.77,5.27-1,7.98Z"/>
  <path class="cls-208" d="M155.67,109.78c-2.08,4.05-3.25,4.97-6.99,6.99-1.58-.84-1.24-1.51,1-2-.71-.35-.72-.69,0-1-2.23-1.58-1.7-2.33,1-2-2.77-1.47-.7-3.26,2-2,.4.04,2.64-1.81,2.99,0Z"/>
  <path class="cls-217" d="M15.95,77.85c1.4-2.47,3.35,0,3.99,2,.81.23.67,1.45,0,2,2.32,2.81-.43,4.57-2,2-1.44-3.04-5.23-3.93-5.99-5.99.88-1.77,3.66-2.31,3.99,0Z"/>
  <path class="cls-206" d="M111.76,4.99c-.05,3.37-3.53,1.56-4.99,0-2.37-.36-2.32-1.3,0-2,.18-.32,3.74-3.15,4.48-2.99,2.89.65.55,4.17.51,4.99Z"/>
  <path class="cls-76" d="M111.76,47.91h-2c.05-1.25-1-3.23-1-4.99.28-.87.62-.86,1,0,.86-1.56.75-3.42,0-4.99-.46-.27-.46-.94,0-2,.22-.38.68-.68,1-1,1.61,2.16.82,9.91,1,12.97Z"/>
  <path class="cls-9" d="M106.77,4.99h4.99c-.09,2.3-.07,4.68,0,6.99-2.86.32-1.7-.24-2-2-1.03-.03-1.69-.69-2-2-1.78.17-2.27-.7-1-2-.19-.16-1.36-.61-2-1-.06-2,1.58-1.93,2,0Z"/>
  <path class="cls-119" d="M105.77,162.68c1.03-2.92,3.29-6.75,0-8.98,1.2-1.44,2.8-4.53,5-4.48-1,4.6-1.69,9.86-5,13.46Z"/>
  <path class="cls-229" d="M103.77,18.96c.84.24.82.58,0,1,1.73.57,2.07,2.37,2,3.99.29,1.43-.04,2.43-1,2.99-2.92-3.07-2.88-5.49-3.99-8.98.28-.87.62-.86,1,0,.44-1.25,2.31-.21,2,1Z"/>
  <path class="cls-382" d="M127.73,151.7c.99-.32,1.32.01,1,1,2.02-.3,2.43.55,1,2-7.01,2.51-12.1,5.52-3.6-2.62.46-.47,1.48-.25,1.6-.37Z"/>
  <path class="cls-214" d="M176.63,134.73c-.02.33.06.68,0,1s-.93.7-1,1c-.58,1.93-1.47,1.96-2,0-1.02,1.75-2.4.72-2.99-1-2.02.68-5.62.13-5.99-2,4.59-1.92,7.41,1.64,11.98,1Z"/>
  <path class="cls-233" d="M82.82,142.72l-2-1c1.5-4.98,1.17-5.39,3.99-9.98-.31,3.66-1.13,7.43-2,10.98Z"/>
  <path class="cls-186" d="M49.88,79.84c-1.34,2.25-3.82,4.67-4.99,6.99-1.03,1.01-1.37.35-1-2,.43-1.53,1.94-4.62,2-4.99h3.99Z"/>
  <path class="cls-275" d="M55.87,103.8c.77,1.35.36,1.84-1,1-.8,1.21-1.63-.69-1.51-1.22.03-.14,1.14,2.31-.49,2.22l-1.99-8.98,4.41,5.05c.44.56.33,1.41.57,1.94Z"/>
  <path class="cls-318" d="M144.69,23.95c-.04.66.06,1.34,0,2-.05,1.91-4.45.36-4.99-1-.45-.94-1.12-1.61-2-2,2.47-2.93,4.95-2.11,6.99,1Z"/>
  <path class="cls-39" d="M123.73,30.94c.65.64.98,1.97,1,3.99,2.08.22,1.78,1.08,0,2-.33,3.02-2.73,4.24-4.99,2-.54-.92-.2-1.91,1-2.99-2.9-.66-2.43-1.57,0-2.99-1.55-1.39-1.03-2.22,1-2,.1-.91.45-.86,1,0,.32.04.67,0,1,0Z"/>
  <path class="cls-386" d="M99.78,155.69c-.43,1.96-1.42,1.63-2.99-1-.74-2.59-3.25-5.22-1.5-7.98,2.2,2.52,3.62,5.77,4.5,8.98Z"/>
  <path class="cls-366" d="M153.67,147.71c.72-.81,1.29-1,2,0,1.89.82,4.08.82,5.99,0,.3-.52.64-.51,1,0,2.34-1.99,3.65-.57,2,2-1.32.02-2.67.04-3.99,0-3.68-.12-8.02.73-10.98-2,1.26-.16,2.69.06,3.99,0Z"/>
  <path class="cls-194" d="M139.7,121.76c1.02.82,1.69,2.15,2,3.99.85.24.83.58,0,1,1.45,1.42.82,2-1,1-.12-.14-2.73-.35-2.99-2,.22-2.23-.64-6.89,2-7.98,2.51,1.47,2.51,2.52,0,3.99Z"/>
  <path class="cls-313" d="M24.93,59.88c.68,1.55.59,3.49,1,4.99-.28.87-.62.86-1,0-1.74,1.32-4.09,1.76-3.99-1-.11-.62.16-1.48,0-2,.56-1.69,1.56-2.69,2.99-2.99.26.34.83.62,1,1Z"/>
  <path class="cls-406" d="M31.92,112.78c2.13-.09,2.05,1.53,0,2,1.53,3.92.53,3.92-2.99,0-.69-1.19-2.88-5.08-2.99-5.99l5.99,3.99Z"/>
  <path class="cls-150" d="M70.84,182.64c.88-6.66.63-13.76,3.99-19.96-1.22,6.33-1.46,13.71-3.99,19.96Z"/>
  <path class="cls-348" d="M44.89,289.42c1.67-1.94,2.74-.35,2.99,2-.05.32.05.67,0,1-.27,1.83-.84,3.8-1,4.99-.24-.38-.83-.67-1-1-1.59-.17-1.73-1.68-1-2.99-.76-1.18-.67-2.73,0-3.99Z"/>
  <path class="cls-228" d="M113.75,77.85c-.37,1.28-.98,3.76-1,4.99.61,3.3-2.97,3.46-2.99,0,.93-2.77,1.81-4.45,2.99-6.99.91-.85,1.24-.18,1,2Z"/>
  <path class="cls-311" d="M57.87,64.87c.92,0,.92.66,0,2-.57.72-1.34,2.05-2,2.99-1.47,1.33-2.52,2.25-2.99,0-.16-.64-.96-1.5-1-2,1.14-2.25,2.47-3.25,3.99-2.99.19-1.6,1.8-1.68,2,0Z"/>
  <path class="cls-71" d="M122.74,78.85c.63.89.29,1.89-1,2.99-.75,2.45-1.98,3.39,1,2.99,1.33,1.39.77,1.94-1,1-.32.1-.74-.12-1,0-2.72,1.78-3.37.57-2-2-1.15-1.17-.43-2.39,1-2.99.1-.62-.07-1.35,0-2,1.96-.44,1.25-.29,2.99,0Z"/>
  <path class="cls-184" d="M75.83,216.57c-.37.28-.64.73-1,1-.68,2.76-7.91,7.05-4.99,2,1.14-1.42,3.12-3.75,3.99-4.99l2,2Z"/>
  <path class="cls-146" d="M87.81,126.75c.21.09.64-.03,1,0,.87.28.86.62,0,1-1.82-.38-2.08.91-2.99,2-1.3-2.36-3.31-.79-3.99,1,.36-.94.07-1.33,1-2.99.6-2.18,1.6-3.51,2.99-3.99.28-.87.62-.86,1,0,1.12.35,1.45,1.35,1,2.99Z"/>
  <path class="cls-317" d="M38.9,155.69c.6,2.6.93,5.26,1,7.98.24.95.86,1.56,1,2,.16.52-.11,1.37,0,2-.69,2.56-1.16,2.53-2,0-.16-3.63-2.72-9.44,0-12.97.01.33-.02.67,0,1Z"/>
  <path class="cls-369" d="M108.76,66.87c1.9-.75,1.61.49,1,2,2.02.07,1.35.8,0,2-.75.55-2.68,1.54-2.99,2-1.22,1.34-1.31.76-1-1-.5-1.57-.63-3.47,1-3.99.19-.5-.19-1.49,0-2,1.1-.15,1.4.22,2,1Z"/>
  <path class="cls-395" d="M63.85,147.71c-.04.8-.11,1.2-1,1-2.99,0-5.28-6.88-2-7.98.17-2.37.83-3.37,2-2.99-.1,3.79.54,6.41,1,9.98Z"/>
  <path class="cls-308" d="M59.86,124.75c2.72.37,2.46.93,0,2-.17,2.28-.84,2.61-2,1l-1-1c.17-1.24.27-6.1,0-6.99h1c3.6,1.28,4.27,2.94,2,4.99Z"/>
  <path class="cls-65" d="M150.68,130.74l.53-.96c4.57-1.15,3.94,6.37.46,5.95-1.31.86-1.58.39-1-1-.86-.31-.85-.65,0-1,.94-3.04.23-1.67,0-2.99Z"/>
  <path class="cls-5" d="M47.89,61.88c.89.31.88.64,0,1,.88,1.49,1.97,3.47,0,3.99,1.71,1.55.07,4.96-2,2.99-.32-2.48-.13-6.36,0-8.98h1c1.66-1.11,2.14-.78,1,1Z"/>
  <path class="cls-201" d="M148.68,147.71c-3.69.67-6.71,3.3-9.98,3.99-2.5-.95-1.49-2.73,1-2.99,3-.48,6.5-1.18,8.98-2.99v2Z"/>
  <path class="cls-151" d="M99.78,84.83c1.6,1.49-1.04,7.35-2.99,7.98-1.31,1.12-1.65.46-1-2,.73-1.54,1.22-4.68,2-5.99-.68-1.94.64-2.45,2-1,.48.29.46.62,0,1Z"/>
  <path class="cls-385" d="M79.82,55.89c.85.27,1.51,1.27,2,2.99,1.31-1.28,1.59-.72,1,1,1.83.33,1.5,1,0,2-.5.55-1.17.55-2,0-1.34-1.05-2.06-2.63-2.99-3.99-.13-1.44.2-2.44,1-2.99h1v1Z"/>
  <path class="cls-335" d="M35.91,136.73c1.14,1.56,1.14,3.56,0,5.99-1.87-4.48-.95-10.88-1-15.97.28-.87.62-.86,1,0,.84,3.23.79,6.79,0,9.98Z"/>
  <path class="cls-357" d="M142.7,106.79c.86.25.84.59,0,1,2.08-.11,2.06,1.55,0,2,1.2,1.69,1.1,2.57-1,2,.63,2.35-.38,2.84-2,1,.04-1.84-.31-4.38,0-5.99.14-.73.05-1.04,1-1,.88-1.73,2.1-.75,2,1Z"/>
  <path class="cls-343" d="M110.76,166.67c1.49-2.34,3.59-5.39,6.98-5.98-.03,3.7-4.57,4.68-6.98,5.98Z"/>
  <path class="cls-404" d="M106.77,8.98c.99-.33,1.33,0,1,1-.92.35-2.01,1.53-2.99,2,.06,1.39-1.77,1.32-2.99,1,.63,2.36.63,4.02,0,4.99h-1c-.43-1.34-1.72-2.21-1.94-4.6-.15-1.62.92-2.76.95-3.38l1.01,1.99h.97c.24-1.16-.31-3.07.01-3.98,2.05-.67,5.24-1.39,4.99,1Z"/>
  <path class="cls-222" d="M43.89,272.46c1.52-1.27,2.06-.7,1,1,.34,1.61.69,3.53,0,4.99.74.2.7.54,0,1-.32,2.65-1.24,2.54-2,0-.04-.33.06-.68,0-1-.08-2.35-.75-4.34-2-5.99.16.05.47-1.2,2.99,0Z"/>
  <path class="cls-107" d="M44.89,279.44c1.24.81,1.24,2.14,0,3.99,2.36,1.22,2.24,3.7,0,4.99.89.18.86.52,0,1,.06,1.31-.15,2.7,0,3.99-.28.87-.62.86-1,0,.3-5.26-.35-9-1-13.97h2Z"/>
  <path class="cls-241" d="M120.74,20.96c.05.09,1.73-.4,2.01.66.64,2.41-.45,6.59-.01,9.32-.32-.04-.67.01-1,0-1.36-1.16-1.65-3.45-1-4.99-.22-1.57.15-3.38,0-4.99Z"/>
  <path class="cls-43" d="M137.71,22.96c3.13-.45,1.54.74,2,2,.72.85,2.11,1.5,4.18,1.95l-.19,2.04c-.2.64-.73,1.31-1,2-.28.87-.62.86-1,0-1.12-1.3-2.45-2.3-3.99-2.99.03-1.85-.3-3.18-1-3.99.18-.39.72-.67,1-1Z"/>
  <path class="cls-181" d="M137.71,133.74c2.95.49,1.88,5.8-1,5.99-1.43,1.41-2.27,1-2-1,.15-.76-.32-4.16,0-5.99,1.04-.07,2.24.9,2.99,1Z"/>
  <path class="cls-342" d="M96.79,92.82c1.07,2.12-2.46,9.45-3.99,4.99.84-4.43,1.27-3.39,2.99-6.99l1,2Z"/>
  <path class="cls-101" d="M111.76,12.98c.06.99-.05,2.01,0,3l1.98-1.01c.05.66-.03,1.34,0,2h-1c-.43,2.27-3.75,3.12-4.99,1-1.94.65-2.32-.36-1-2,3.41-.33,3.51,1.06,4.99-2.99Z"/>
  <path class="cls-95" d="M99.78,155.69c.17.61,1.04,1.67,1,2-.02.18-1.81,2.13-2,2.99-.49-1.72-1.36-3.79-2-5.99l2.99,1Z"/>
  <path class="cls-3" d="M135.71,26.95c1.56-1.15,2.06-.62,1,1,2.56.2,3.56.86,2.99,2-.41,1.07-1,1.8-2,1-1.54,2.75-3.29,1.88-2.99-1-.56-.14-1.36.09-2,0,.37-.8.55-1.97,1-2.99.87-1.68,1.52-1.94,2,0Z"/>
  <path class="cls-209" d="M87.81,85.83c.27,2.13.63,4.91,1,6.99l-2-1c-.5-.44-.5-1.11,0-2-1.5.9-1.78-.53-2-2,.07-.55.94-1.4,1-2h2Z"/>
  <path class="cls-257" d="M65.85,161.68c-.56-.4-1.55-.59-2-1-1.12-1.64-1.45-2.97-1-3.99.1-1.35.43-2.35,1-2.99.28-.87.62-.86,1,0,.42,2.92,1.16,4.45,1,7.98Z"/>
  <path class="cls-134" d="M101.78,171.66c.26,2.63-.14,2.89-1,4.99-1.01.34-1.34,0-1-1-.95-1.62-.3-6.67,1-7.98.22,1.02.97,3.74,1,3.99Z"/>
  <path class="cls-394" d="M35.91,61.88c-.11-1.32-2.97-4.54.98-5.98-.48,2.45,1.7,1.73,2.01,1.99l-2.99,3.99Z"/>
  <path class="cls-87" d="M28.92,114.77c2.41-.75,2.64,4.78,2.99,0,1.52-.77,2.19.22,2,2.99-.08.92.5,2.74-.49,2.99-2.28-1.63-3.18-3.7-4.5-5.98Z"/>
  <path class="cls-354" d="M38.9,183.64c.48.77.77,1.43,0,2-.28.87-.62.86-1,0-.05-4.31.08-8.66,0-12.97h1c1.06,3.36.67,7.48,0,10.98Z"/>
  <path class="cls-359" d="M25.93,96.81c.58-.33,1.25.34,2,2,2.87-.44,3.7,3.99,1,4.99h-1c-1.8-1.74-2.03-4.57-2-6.99Z"/>
  <path class="cls-243" d="M77.83,36.93c-.67,1.19-1.69,5.4-2,6.99-1.12-2.21-.61-4.9-1-6.99.24-.86.57-.84,1,0,.74-2.09,1.23-2.18,2,0Z"/>
  <path class="cls-79" d="M148.68,119.76c1.77.71.7,2.81-1,2.99-.16.07-.81.75-1,1-1.52,1.56-2.15.94-1-1v-1c-2.02-.23-1.93-1.22,0-2-.9-.18-.86-.52,0-1,.67-2.86,1.67-3.52,2.99-2-.21.84.18,2.1,0,2.99Z"/>
  <path class="cls-224" d="M158.66,135.73l-2,4.99c-.82,1.03-2.59,1.39-2.99,0v-1c2.76-.88,2.09-4.35,4.99-3.99Z"/>
  <path class="cls-106" d="M132.72,148.71c-.15.25.16.79,0,1,1.24.87.58,1.53-2,2,.62,1.55-.83,2.25-2,1-.24-.39-.66-.69-1-1,.17-.18,2.77-3.65,2.99-3.99,1.05-1.85,2.63-1.27,2,1Z"/>
  <path class="cls-115" d="M151.68,135.73c.15.25-.15.77,0,1-.37,3.18-1.68,3.84-3.99,2-.35-1.53.65-2.86,2.99-3.99.92.07.67.45,1,1Z"/>
  <path class="cls-368" d="M133.71,43.91c1.44-.04,2.1.62,2,2,2.23-1.88,3.38-.54,2,2,.7.31.36.64-1,1,1.38-.72,3.36-1.63,3.99,0,2.65.32,2.54,1.24,0,2-.67.15-1.39.86-2,1-4.19,1.93-5.13-1.28-2-2.99l-1.37.63c.22,3.22-1.03,4.45-2.62,1.37-1.07-.27-1.74-1.27-2-2.99,1.67-3.25-.62-2.19,2.99-3.99Z"/>
  <path class="cls-47" d="M37.91,138.73c-.39,2.4-.72,4.73-1,6.99.68.21.64.55,0,1-.28.87-.62.86-1,0-.02-1.33,0-2.66,0-3.99-.01-2,.01-3.99,0-5.99.13-.64.24-1.08,1-1,.28-.87.62-.86,1,0,.02,1,0,2,0,2.99Z"/>
  <path class="cls-393" d="M21.94,85.83c-.79.51-1.46.84-2,1-.11-.12-1.32.24-1.75-.23-.74-.82-.03-2.31-.24-2.76,1.75.37,2.24-.29,2-2,.28-.87.62-.86,1,0,2.21-.21,2.44,2.65,1,3.99Z"/>
  <path class="cls-283" d="M105.77,49.9c-.3,3.67,1.64,6.92-2.99,5.99.55-1.38,1.47-6.01,2.99-5.99Z"/>
  <path class="cls-312" d="M36.91,130.74c.68,1.49.94,3.72,0,4.99l-1,1c-.02-3.32.09-6.67,0-9.98-.81-.5-.59-1.22,0-2h1v5.99Z"/>
  <path class="cls-410" d="M44.89,86.83c-.27.53-1.6,3.97-2,4.99-.78.59-1.11-.08-1-2,.52-1.66,1.61-3.62,2-4.99l1,2Z"/>
  <path class="cls-53" d="M73.83,49.9c1.15-.44,4.74,3.25,4.99,3.99-.39,1.72-.81,2.68-2,1-1.05-1.81-1.74-1.75-2.99-4.99Z"/>
  <path class="cls-187" d="M76.83,30.94c1.83.44,2.53.67,1,2-.27.86-.6.85-1,0-.93,1.16-1.59,2.49-2,3.99-.26-1.39-.7-3.81-1-4.99,1.17-3.38,2.79-1,2.99-1Z"/>
  <path class="cls-205" d="M54.87,253.5c-.39,3.27,1.86,2.64,2.99,0-.62,2.38-1.46,4.85-2,6.99-.12-2.51,1-4.62-2-3.99-2.33-1.54-1.75-2.69,1-2.99Z"/>
  <path class="cls-307" d="M142.7,48.91c1.6.04,4.15-.6,4.99,1-2.54.63-4.96.55-6.99,1v-2c.33-1.2,1.01-.75,2,0Z"/>
  <path class="cls-297" d="M56.87,104.79c.15.72.07,2.17,0,2.99,1.95,1.17,1.05,2.82-1,2-1.57,2.53-3.56-2.28-1-2.99-1.53,0-1.41-1.4,0-2,.1-.45.55-.85,1-1,.17.38.95.75,1,1Z"/>
  <path class="cls-295" d="M76.83,218.57c-2.16.99-7.27,4.32-8.98,5.99-1.44,1.33-1.98.73-1-1-.32-2.51,2.19-2.99,2.99-3.99l.49,1.99c1.32-1.58,2.86-2.77,4.5-3.99l2,1Z"/>
  <path class="cls-225" d="M130.72,47.91c2.86-.46,1.87.7,2,2.99-.57.03-2.19,1.53-2.99,2-1.44,1-1.95.58-1-1,.76-1.13,1.34-2.72,2-3.99Z"/>
  <path class="cls-64" d="M118.74,68.87c-1.17,1.08-3.31,4.46-3.99,5.99-.95.82-1.28.16-1-2,.44-.85.88-2.86,1-2.99.75-.83,2.84-.99,3.99-1Z"/>
  <path class="cls-88" d="M136.71,139.72c.99-.32,1.32.01,1,1-.17.13-1.92,1.88-2,2-1.05,1.85-2.63,1.27-2-1,.25-.81.93-2.64,1-2.99.64.37,1.38.6,2,1Z"/>
  <path class="cls-149" d="M142.7,114.77c.82,1.05.21,1.59-1,2,.87.28.86.62,0,1-.68,2.53-1.01,2.4-2,0-.02-1.66-.04-3.33,0-4.99.5-.39,1.72-.64,2-1,2.18-.73,2.02,1.46,1,2.99Z"/>
  <path class="cls-327" d="M69.84,102.8c.34-2.25.35-5,2.98-5.99-.06,1.14-.68,5.43-1.12,5.88s-1.44-.04-1.86.11Z"/>
  <path class="cls-387" d="M98.78,81.84c.31-.76.65-.75,1,0,1.19.52,1.03,1.24,0,2-.47.37-1.81.68-2,1-3.97.44-1.19-1.8-1-2.99.66-.02,1.33.03,2,0Z"/>
  <path class="cls-127" d="M85.81,196.61c1.04-1.8,1.57-5.66,4.48-6-.19,2.1-2.33,4.29-3.48,6-.3.56-.63.55-1,0Z"/>
  <path class="cls-301" d="M49.88,66.87c-1.07,3.24.29,4.53-2.99,4.99-.2-.64-.93-1.44-1-2,1.67-.49,1.75-1.51,2-2.99.06-2.17,1.46-2.08,2,0Z"/>
  <path class="cls-290" d="M97.79,180.64c-.93,1.44-2,2.63-2.99,3.99-.29.68-.63.66-1,0,1.2-2.26,1.9-3.18,2.99-4.99,1.4-1.32,1.92-.76,1,1Z"/>
  <path class="cls-52" d="M99.78,175.65c.24.41.63.71,1,1-.99,2.43-2.21,2.77-2.99,3.99l-1-1c1.13-1.88.19-4.72,2.99-3.99Z"/>
  <path class="cls-277" d="M39.9,67.87c-.37-.28-.64-.73-1-1,.13-1.07.43-2.07,1-2.99.33-2.24.99-2.91,2-2-.45,4-.86,3.31-2,5.99Z"/>
  <path class="cls-398" d="M27.93,252.5c-2.61.26-4.44-2.46-4,.99h-.98s-1.01-3.98-1.01-3.98c2.37,1.23,3.15,1.13,5.99,2.99Z"/>
  <path class="cls-190" d="M107.77,91.82c2.08.85,1.88,1.9,0,2.99-.42,1.44-1.27,1.98-2,2.99-1.4,1.32-1.92.76-1-1,1.09-2.36,1.32-5.04,2.99-6.99,1.43-.06.97,1.1,0,2Z"/>
  <path class="cls-212" d="M136.71,48.91c-1.67.72-1.63,4.32,2,2.99-1.51.34-3.48,1.87-5.99,1-.05-.66.04-1.33,0-1.99.32-.02,1.74,1.42,1.99,1.01.23-.37-.36-2.08.19-2.79.46-.61,1.62-.07,1.81-.21Z"/>
  <path class="cls-400" d="M125.73,30.94c2.14-.02,2.01,1.43,0,2,1.66,1.18.93,2.77-1,2-3.35.56-1.57-1.52-1-3.99h2Z"/>
  <path class="cls-271" d="M122.74,84.83c.84-.15,4.97-.3,5,.5-1.14,1.4-3.61,1.72-5,2.49-1.55.8-1.94.58-1-1v-1c.35-.11.74-.95,1-1Z"/>
  <path class="cls-46" d="M86.81,58.89c-.05.66.05,1.34,0,2h-1c-.21,1.24-1.94,1.62-2.99,1,.11-.63-.16-1.47,0-2-1.11-4.67,2.99-5.51,3.99-1Z"/>
  <path class="cls-236" d="M67.85,166.67c.06.98.04,2.01,0,2.99-.02.66.06,1.34,0,2-1.19,2.21-1.52,1.03-2-1-2.85-.06-2.73-2.32,0-2.99-1.45-1.03-1.95-1.74,0-2,1.12-1.83,1.64-.94,2,1Z"/>
  <path class="cls-41" d="M132.72,148.71l-2-1c.39-.61.65-1.35,1-2,1.49-1.98,2.49-2.32,2.99-1-.46.77-.93,2.24-2,3.99Z"/>
  <path class="cls-118" d="M135.71,142.72c-.28.45-.55,1.25-1,2l-2.99,1c.47-.88,1.79-3.34,2-3.99l2,1Z"/>
  <path class="cls-68" d="M62.86,100.8c-.56,2.32,1.34,3.65-2.5,4.98-1.91-1.31,2.06-3.41,1.51-3.98-.25-.26-1.62.21-2,0-.06-.04.01-.67,0-1,.67-1.98,2.59-2.17,2.99,0Z"/>
  <path class="cls-176" d="M62.86,137.73l-2,2.99c-3.12-.04-2.65-3.17,0-3.99-1.66-1.3.09-2.81,2-2.99-.33-.99,0-1.32,1-1-.24,1.54-.97,3.79-1,4.99Z"/>
  <path class="cls-344" d="M106.77,3c-.2.35.13,1.41,0,2h-2c-.49-.3-1.34-.65-2-1-1.6-.57-.55-2.26,1-2,.2.18,2.42-.2,2.99,1Z"/>
  <path class="cls-198" d="M55.87,69.86c-.68.98-1.3,2-2,2.99-1.12,1.39-1.72,1.97-2,0,.22-.79,0-2.58,1-2.99.61-.26,2.14.17,2.99,0Z"/>
  <path class="cls-31" d="M23.93,58.89c-.72,1.7-.74,3.54-2.99,2.99-.1-.35-1.35-.57-.57-1.95.52-.92,1.65-1.54,2.57-2.05.31.23.77.69,1,1Z"/>
  <path class="cls-262" d="M29.92,268.47c-3.45.64-4.55-.45-6.99-2,.33.19,4.81,1.17,6.99,2Z"/>
  <path class="cls-178" d="M27.93,98.81l-.93,1-1.07-2.99c0-.33-.02-.67,0-1-.92-2.29-.59-3.28,1-2.99-1.1-.94-1.5-1.58,0-2,3.58-2.12,4.47,7.14,1,7.98Z"/>
  <path class="cls-349" d="M139.7,148.71l-1,2.99c-.32.07-.67-.05-1,0h-1c-.73-.1-1.16-.21-1-1-.63-3.24,1.64-1.62,3.99-2Z"/>
  <path class="cls-356" d="M129.72,72.86l-.51.99c-1.94.5-2.74-3.13-3.48-4.98.05-.03,0-1.64,1-.52.71,1.56,2.26,3.17,2.99,4.51Z"/>
  <path class="cls-22" d="M128.72,31.94c1.35,1.23.75,1.66-1,1,.09,2.27-1.4,2.18-2,0,.2-1.28-.03-1.9,0-2,.33-1.26.19-2.71,1.99-2.99l1.01,3.99Z"/>
  <path class="cls-399" d="M175.63,136.73c-.31,1.26-.07,2.78-1,3.99-1.02.84-2.27.33-2-1-1.87-2.18-1.54-3.17,1-2.99.57.13,1.36-.09,2,0Z"/>
  <path class="cls-265" d="M50.88,150.7c1.27,1.58,1.07,2.48-1,2-1.18,1.33-1.72.69-1-1-.45-1.27-.02-2.22-2-2.99.11-.27-.1-.69,0-1,2.03-.06,2.85,1.61,3.99,2.99Z"/>
  <path class="cls-92" d="M76.83,153.7c-.07.32.08.68,0,1-.26,1.07-.87,2.3-1,2.99-1.29,1.13-1.62.46-1-2,.35-.98.64-1.99,1-2.99.84-1.18,1.18-.85,1,1Z"/>
  <path class="cls-93" d="M131.72,31.94c-.31.67-.65,1.34-1,2-.99,1.13-1.99,1.79-2.99,2-2.32.28-1.71-2.45,0-2.99.32-.11.68-.92,1-1,.81-.21,2.07.14,2.99,0Z"/>
  <path class="cls-402" d="M63.85,97.81c-.07.58-.9,1.4-1,2-.05.33.07.7,0,1h-2.99c-.04-1.14.57-2.01,1-2.99,1.31-1.49,2.52-2.3,2.99,0Z"/>
  <path class="cls-166" d="M54.87,106.79c-.05.93-1.88,2.09,1,2.99.86.33.86.67,0,1-.03.18-.89.84-1,2-1.69-1.56-1.81-3.87-2-5.99.32-2.65,1.24-2.53,2,0Z"/>
  <path class="cls-353" d="M85.81,73.86c-.14,2,.52,4.21-2,4.99.08-1.65-.12-3.34,0-4.99h2Z"/>
  <path class="cls-173" d="M87.81,50.9c-.8-.46-1.13-1.79-1-3.99.42-1.17.96-2.24,2-2.99-.14,3.02-.72,4.75-1,6.99Z"/>
  <path class="cls-216" d="M65.85,162.68c3.02-.62,1.85,1.49,2,3.99-.63-.37-1.41-.58-2-1-.96.31-1.29-.02-1-1,.2-.64.92-1.43,1-2Z"/>
  <path class="cls-147" d="M25.93,107.79c-.52.51-5.73-1.29-3.99-2.99.53-.52,5.72,1.3,3.99,2.99Z"/>
  <path class="cls-54" d="M39.9,163.68c-.85-3.4-.81-4.42-1-7.98,2,1.72.68,5.49,1,7.98Z"/>
  <path class="cls-160" d="M53.87,72.86c-.14.2-1,2.42-2,3.99-.96-1.34-.37-2.63,0-3.99h2Z"/>
  <path class="cls-219" d="M86.81,58.89c-1.69-1.36-1.69-3.69,0-6.99-.73-1.21-.28-1.73,1-1-.29,2.35.24,5.06,0,7.48l-.99.5Z"/>
  <path class="cls-50" d="M129.72,52.9c-1.68.98-2.78,2.9-4.99,2.99.49-2.08,3.36-3.05,3.99-3.99l1,1Z"/>
  <path class="cls-117" d="M35.91,105.79c1.49-1.85,2.33-1.36,2,1-.3.95.39,3.04-.19,4.29l-.8.7c-.03-1.88.68-4.9-1-5.99Z"/>
  <path class="cls-189" d="M85.81,123.76c0,1.93-2.6,3.28-2.99,3.99.06-1.72.56-3.35,1-4.99.66-1.24,2.76-.66,2,1Z"/>
  <path class="cls-315" d="M131.72,151.7c.65.12,1.08.23,1,1-.18.06-.68,1.17-2.99,2-.36-.64-.61-1.37-1-2,.64-.2,1.44-.92,2-1h1Z"/>
  <path class="cls-409" d="M39.9,257.49c-1.78-1.66-.97-5.48-1-7.98,1.78,1.66.98,5.49,1,7.98Z"/>
  <path class="cls-67" d="M42.9,91.82c-.3.78-.64,1.98-1,2.99-.28.84-.62.83-1,0,.43-1.47.47-3.31,1-4.99l1,2Z"/>
  <path class="cls-159" d="M61.86,62.88c-.37.3-.65.69-1,1-1.08.81-1.74.81-2,0-1.9-.42-1.44-.88,0-2-1.95-1.76-1.4-2.2,1-2,.28-.87.62-.86,1,0,.05.61.98,2.12,1,2.99Z"/>
  <path class="cls-140" d="M136.71,23.95c3.06-.62,2.26,1.74,1,3.99h-1c-.4-.24-.71-.87-1-1-.88-1.05-.43-2,1-2,.09-.33-.11-.75,0-1Z"/>
  <path class="cls-107" d="M42.9,278.45l-2-5.99c2.88.81,1.64,4.02,2,5.99Z"/>
  <path class="cls-230" d="M64.85,153.7h-1c-1,.91-1.32.35-1-1-2.42-.7-2.59-3,0-3.99l1-1c.26,2.02.71,3.98,1,5.99Z"/>
  <path class="cls-148" d="M106.77,67.87c-.48,1.25-.53,2.73-1,3.99-1.48,1.16-1.81.5-1-2-2.2-.26-1.65-2.83,0-3.99h1c-.03.82.1,1.73,1,2Z"/>
  <path class="cls-324" d="M124.73,60.88c-.91,1.89-2.32,2.88-3.99,3.99v-2c.68-.23,2.18-2.44,3.99-2Z"/>
  <path class="cls-252" d="M39.9,102.8c-.62.12-1.52-.17-2,0,.61-1.66,1.45-3.31,2-4.99.28-.85.62-.84,1,0-.44,1.36-.53,3.35-1,4.99Z"/>
  <path class="cls-51" d="M16.95,67.87c-.18.02-.63.92-1.5.95-.82.03-1.29-.92-1.5-.95v-1l.49-1.99,2.5,2.99Z"/>
  <path class="cls-23" d="M151.68,101.8c.52,1.46-.71,2.24-1,2.99-1.02,2.52-3.31-.55-2.99-2,1.02-.45,2.29.06,2.99-2,.25.56.5.71,1,1Z"/>
  <path class="cls-113" d="M41.9,340.32c-1.65-2.75.66-5.15,1-6.99.85,2.77-.64,5.11-1,6.99Z"/>
  <path class="cls-287" d="M69.84,102.8c-.1.63.11,1.38,0,2-.58.9-1.66,2.05-2,2.99l-1-2c.49-.75.7-2.47,1.18-2.82.64-.47,1.43-.04,1.82-.17Z"/>
  <path class="cls-73" d="M38.9,149.7h-1c-.88-.55-.74-3.04,0-3.99-.75-1.01-.8-2.05,0-2.99,1.74,1.36.97,4.8,1,6.99Z"/>
  <path class="cls-364" d="M105.77,97.81c-1.11,1.55-2.45,2.27-2.99,2.99-.34-1.94,1.54-3.01,2-3.99l1,1Z"/>
  <path class="cls-347" d="M99.78,64.87c-.24,6.13,1.31,3.25,2,3.99.87.31.87.64,0,1-.06,2.85-2.32,2.73-2.99,0,.01-.66,0-1.33,0-2,.24-.96-.32-2.3,1-2.99Z"/>
  <path class="cls-108" d="M60.86,97.81c1.7-3.85,3.61-4.75,2.99,0h-2.99Z"/>
  <path class="cls-156" d="M39.9,349.3c-4.46,4.65-2.16-.64-2-2l2,2Z"/>
  <path class="cls-367" d="M37.91,142.72c0,1,0,2,0,2.99-.28.87-.62.86-1,0,.03-2.19-.74-5.62,1-6.99.01,1.33,0,2.66,0,3.99Z"/>
  <path class="cls-36" d="M85.81,60.88c.78,2.43-1.9,1.85-2,2-1.53.32-1.96-.18-2.99-1,.64-.09,1.41.13,2,0,.87-.19,1.91-1.03,2.99-1Z"/>
  <path class="cls-94" d="M26.93,92.82c-.26,1.11-.99,2.84-1,2.99-.73-.92-1.21-2.13-2-2.99-.71-1.31-.31-1.78,1-1,1.55-2.45,1.92-1.63,2,1Z"/>
  <path class="cls-174" d="M136.71,24.95c-.21.76.05,1.68-1,2-.42-.19-1.39.12-2,0,.8-1.85.36-4.02,2.99-2Z"/>
  <path class="cls-180" d="M24.93,89.82c1.87-.32,1.47,1.21,0,2-.09.45-.55.86-1,1-.31-.35-.69-.64-1-1v-2.99s2,1,2,1Z"/>
  <path class="cls-161" d="M86.81,120.76c.86.24.84.58,0,1,1.63.67,1.72,1.5,0,2h-1l-2-1c.23-.88.89-1.59,1-2l.49.97,1.5-.97Z"/>
  <path class="cls-279" d="M39.9,58.89c.93.83,2.79,2.01,2.91,2.15.36.4-.91.79-.92.85-.59.66-1.55,1.28-2,2v-4.99Z"/>
  <path class="cls-329" d="M66.85,223.56c.25.07.61.8,1,1-.13.13-1.7,2.5-2,2.99-.3-1.34-.73-2.65-1-3.99h1c.32.07.69-.09,1,0Z"/>
  <path class="cls-233" d="M77.83,149.7c-.21,2.2-.73,2.78-1,3.99l-1-1c.5-1.4-1.26-3.63,2-2.99Z"/>
  <path class="cls-223" d="M21.94,85.83c.69.33.69.99,0,2-.54.52-.48,1.37-2,1-.24-.33.24-1.73,0-2-.17-2.66-.04-2.27,2-1Z"/>
  <path class="cls-37" d="M78.82,53.9c.08.25-.03.65,0,1,.09,1.08.21,2.52-1,2.99-.66-.96-.62-2.34-1-2.99l2-1Z"/>
  <path class="cls-20" d="M66.85,212.58c.06-2.2-.76-5.61,1-6.99.03,2.16.7,5.65-1,6.99Z"/>
  <path class="cls-8" d="M100.78,201.6c-1.01.98-1.8,1.9-2.99,2.99-3.32.29-2.12-.97,0-2,.97-.47,1.91-.87,2.99-1Z"/>
  <path class="cls-141" d="M110.76,166.67c-.34.53-1.22,4.76-2.99,2.99s2.35-2.64,2.99-2.99Z"/>
  <path class="cls-90" d="M63.85,130.74c-.02.1.19.8,0,2-.34.31-.76.61-1,1-1.94,2.13-2.93,1.8-2-1-.11-1.98.11-2.95,2-2h1Z"/>
  <path class="cls-33" d="M75.83,157.69c-.14.76-.79,1.8-1,2.99l-2-1c.49-1.57,1.6-2.87,2-3.99l1,2Z"/>
  <path class="cls-226" d="M114.75,74.85c-.18.4-.82,2.37-1,2.99l-1-2c.38-.82.45-1.94,1-2.99l1,2Z"/>
  <path class="cls-391" d="M94.79,184.63c-.49.67-1.32,4.94-2.99,2.99-1.25-1.47,1.78-2.59,1.99-2.99h1Z"/>
  <path class="cls-112" d="M98.78,106.79c-.67,1.15.04,3.26-2.99,2.99.7-1.71.76-3.54,2.99-2.99Z"/>
  <path class="cls-154" d="M54.87,104.79c-.12.56.03,1.34,0,2h-2c-.03-.32,0-.67,0-1,.01-1-.02-2,.01-2.99h.97s1.01,1.99,1.01,1.99Z"/>
  <path class="cls-270" d="M45.89,296.41l-1,1c-.06-.19-1.38-.96-1-2,.05-.66-.04-1.34,0-2h1c.14,1.15.46,1.99,1,2.99Z"/>
  <path class="cls-358" d="M65.85,131.73c-1.54-1.53,2.82-3.19,2.98-2.99.99,1.23-2.03,3.93-2.98,2.99Z"/>
  <path class="cls-35" d="M60.86,63.88c-.45.41-2.77,2.71-2.99,2.99.13-.59-.19-1.64,0-2-1.46-1.4-.86-1.91,1-1,.53-.15,1.37.1,2,0Z"/>
  <path class="cls-220" d="M41.9,94.81c-.33.93-.69,2.04-1,2.99h-1c.31-.98.72-2.06,1-2.99h1Z"/>
  <path class="cls-63" d="M38.9,191.62h-1c-.02-1.99.02-3.99,0-5.99h1c.76,1.91.76,4.08,0,5.99Z"/>
  <path class="cls-268" d="M88.8,40.92c0,.33,0,.67,0,1l-2.99-1c-1.87-1.54.16-3,2-2,0,.16,1.01,1.13,1,2Z"/>
  <path class="cls-170" d="M86.81,196.61c-.96,1.42-1.93,6.19-2.99,1.5.26-.74,1.79-1.15,1.99-1.5h1Z"/>
  <path class="cls-259" d="M110.76,92.82v1c-1,.32-2.1.35-2.99,1,.04-.14-.28-1.52,0-2.99.28-.87.62-.86,1,0,.56-1.6,2.51-.49,2,1Z"/>
  <path class="cls-83" d="M79.82,204.59c1.15-1.71,2.19-6.59,2.99-1-.8.09-.86.28-1,1h-2Z"/>
  <path class="cls-41" d="M136.71,151.7c.32-.05.67.05,1,0l-.7.8c-1.25.59-3.35-.12-4.29.19l-1-1c1.08-1.13,2.74-1.13,4.99,0Z"/>
  <path class="cls-258" d="M106.77,25.95c-.14.23-.98,1.89-1,2-.36-.31-.67-.66-1-1-.59-1.43.82-2.4,1-2.99,1.93-.28,1.88.46,1,2Z"/>
  <path class="cls-73" d="M36.91,150.7c0,.67,0,1.33,0,2-1.68-1.09-.97-4.1-1-5.99h1c.74,1.33.73,2.69,0,3.99Z"/>
  <path class="cls-80" d="M149.68,24.95l3.99,1.01c.49,1.76-1.71.64-1.99.99h-2.99c.41-.6.61-1.37,1-2Z"/>
  <path class="cls-199" d="M86.81,73.86h-1c.12-1.65-.14-3.35,0-4.99,1.63.85.92,3.39,1,4.99Z"/>
  <path class="cls-26" d="M35.91,124.75c.03.66-.02,1.33,0,2h-1c0-1,0-2,0-2.99.25-3.79.84-2.21,1,1Z"/>
  <path class="cls-14" d="M122.74,87.83c-.9.5-1.7,1.33-2.99,2-.32-1.61.82-2.21,2-2.99l1,1Z"/>
  <path class="cls-139" d="M6.97,75.85c-.33-.26-.76-.66-1-1-.06-1-.25-1.66,1-2l.91,2.4-.91.59Z"/>
  <path class="cls-179" d="M118.74,89.82c-1.39.68-2.31,1.26-3.99,2,.54-1.85,2.19-2.14,3.99-2Z"/>
  <path class="cls-261" d="M124.73,78.85c-.64,1.38-1.61,2.36-2.99,2.99.31-1.01.37-2.09,1-2.99.62.1,1.35-.07,2,0Z"/>
  <path class="cls-273" d="M11.96,75.85c1.87.52,1.84,1.39,0,2-.91-.17-2.19.21-2.99,0,.19-.61.98-1.5,1-2,.04-1.51,1.37-1.33,2,0Z"/>
  <path class="cls-285" d="M100.78,61.88c.29.26,2.05-.54,1.99.49l-2.99,1.5c.11-.76.48-1.43,1-2Z"/>
  <path class="cls-361" d="M81.82,77.85l-1,1c-.18-.81-1.81-2.23-.99-3.99,1.47-.37,1.11,1.79,1.99,2.99Z"/>
  <path class="cls-335" d="M37.91,135.73h-1v-4.99c1.6.84.96,3.39,1,4.99Z"/>
  <path class="cls-104" d="M94.79,114.77c-.29.65-.63.64-1,0,.11-.45.56-.83,1-1-.04.33.03.67,0,1Z"/>
  <path class="cls-247" d="M93.79,104.79c-.95,1.59-1.68,1.94-2,0,.56-2.26.58-4.78,1-6.99.2-.14,1.2.29,1.76-.2s1.66-3.63,2.24-4.79c1.16-2.33,2.55-5.42,2.99-7.98.31-1.87.97-2.87,2-2.99-.38-1.43.62-3.24,2-3.99-.19-1.36.79-2.95,2-2-3.59,9.85-8.11,19.03-11.98,28.94Z"/>
  <path class="cls-120" d="M112.76,82.84c0,.33,1.84,3.83,2,3.99-1.54.76-2.23,2.57-2.99,3.99-1.05,1.29-2.4.63-2-1-1.02.75-1.69.09-2-2,.51-2.38,1.46-3.4,2-4.99,1.07.65,1.92.54,2.99,0Z"/>
  <path class="cls-328" d="M115.75,66.87c-.71.45-1.31,1.56-2,2-1.2.76-2.93,1.22-3.99,2,.12-.61-.18-1.54,0-2-.72-1.32.69-2.82,2-2.99.25.12.67-.1,1,0,1.01.3,2.11.29,2.99,1Z"/>
  <path class="cls-237" d="M106.77,72.86c-.09.13-.74,2.3-1,2.99-1.06.36-1.53,1.04-2,2-.3.63-.63.61-1,0-2.87-2.45.7-4.95,2.99-5.99.28.32.82.52,1,1Z"/>
  <path class="cls-253" d="M88.8,117.77c.11.49.51.86,1,1,.86.26.84.59,0,1,1.44,1.44,1.01,2.27-1,2-.23,2.64-1,2.42-2,0,.03-.33-.05-.68,0-1,.27-1.65,1.73-3.9,2-4.99.09.64-.13,1.43,0,2Z"/>
  <path class="cls-136" d="M93.79,115.77c3.67,2.4-1.77,6.96-3.99,3.99.12-.31-.14-.77,0-1,1.11-1.87,1.97-2.51,3.99-2.99Z"/>
  <path class="cls-70" d="M109.76,89.82c1.6.59.53,2.45-1,2h-1c.12-.62-.13-1.4,0-2s-.13-1.39,0-2c.7.6,1.26,1.45,2,2Z"/>
  <path class="cls-256" d="M118.74,47.91c1.29-1.84,2.23-1.24,2,1,.8-1.64,1.47-1.82,2,0-1.48,1.08-3.35.96-4.49,2-2.24,2.05-3.59,10.15-7.49,11.97.39-2.87,2.11-4.3,2-7.98,1.37-1.08,2.04-2.41,2-3.99.02-.66-.05-1.34,0-2,.55-1.55,1.22-2.88,2-3.99,3.09-1.51,2.78.47,2,2.99Z"/>
  <path class="cls-331" d="M124.73,36.93c2.52-.2,3.52.47,2.99,2,2.01-2.07,2.99-1.5,3.99,1,1.9-.25,1.64,1.31,0,2-.36.05-.79-.11-1,0-1.29,1.09-3.46.35-4.21-.84l-2.77.84c.74,1.99-1.9,2.66-2.99,1-.32.87-.66.87-1,0-.75-1.16-.94-2.94,0-3.99,1.69-.56,3.36-1.29,4.99-2Z"/>
  <path class="cls-380" d="M140.7,35.93c1.34,1.62-.59,3.17-2,3.99,1.01,1.15.47,1.28-1,1,.7,1.45-2.7,4.76-3.99,2.99-.08-.52-.1-1.52,0-2-.81-.5-1.22-1.16-.72-1.68,1.81-1.88,3.87-3.78,5.71-5.31-.86-.32-.85-.65,0-1,.28-.84.62-.83,1,0,1.88-1.14,1.9.38,1,2Z"/>
  <path class="cls-103" d="M138.7,34.93c-1.82,4.51-4.34,3.82-4.99,6.99-.65.06-1.36-.09-2,0,.11-.62-.16-1.48,0-2-1.54-1.38-.88-2.02,1-1,1.07-1.17,3.37-1.95,3.99-3.99.56-1.91,1.43-1.91,2,0Z"/>
  <path class="cls-288" d="M123.73,41.92c1.76-1.28,3.75-.95,5.99,1-.32.22-1.05,1.3-2,2-2.47.98-4.47,1.31-5.99,1-1.48,1.29-2.05.72-1-1-1.25-.53-1.25-1.19,0-2,1.13-.45,2.28-.7,2.99-1Z"/>
  <path class="cls-218" d="M127.73,44.91c-1.73,1.28-3.25,2.73-4.99,3.99-.63-.09-1.42.13-2,0-1.67-.86-.64-2.72,1-2.99,1.71-.72,4.63-3.33,5.99-1Z"/>
  <path class="cls-227" d="M123.73,41.92c.34-.14.77-2.42,3.46-2.04.31.04.9,3.28,3.53,2.04-.24.12-.57.71-1,1l-5.99-1Z"/>
  <path class="cls-339" d="M142.7,133.74c.21.01,1.18,1.03,2.99,1,2.02-.06,1.73,1.21,0,2-2.19.94-6.26,2.65-7.98,3.99-.31-.34-.61-.74-1-1l1-5.99c.33.04.67-.05,1,0,.31-2,3.26-1.97,3.99,0Z"/>
  <path class="cls-105" d="M158.66,141.72c.85,2.46-9.57,6.05-7.98,2,.17-.16-.16-.81,0-1,2.02-.93,4.86-1.81,6.99-1,.33-.03.67.03,1,0Z"/>
  <path class="cls-177" d="M153.67,140.72c.77-.12,2.19-.1,2.99,0,.46.06.88.53,1,1-1.85.19-4.49,1.83-6.99,1,1.2-1.36.54-1.6,2.99-2Z"/>
  <path class="cls-157" d="M150.68,133.74c-.1.32.12.74,0,1-1.45,1.48-2.78,2.15-3.99,2-.29.11-.72-.12-1,0v-2c.95-.02,3.31-1.68,4.99-1Z"/>
  <path class="cls-340" d="M135.71,150.7c.4.16.74.64,1,1-1.47.24-3.39-.11-4.99,0-.33.02-.67-.04-1,0,.61-.7,1.43-1.26,2-2,.88.64,2.08.64,2.99,1Z"/>
  <path class="cls-321" d="M150.68,134.73c-.68,1.51-2.27,2.5-2.99,3.99-.75-.6-1.03-.99-1-2,1.25-.49,2.19-2.13,3.99-2Z"/>
  <path class="cls-132" d="M31.92,258.49c-.41.82-1.4.82-2.99,0-.91.46-1.9.79-2.99,1-.12,1.09-1.45,1.76-3.99,2,.44.46.1.79-1,1-.91-.96-2.04-2.06-2.99-2.99,4.83.46,3.15.03,3.99-2,1.05-2.54,2.91-4.24,5.99-3.99,2.19.18,3.3,3.43,3.99,4.99Z"/>
  <path class="cls-85" d="M55.87,151.7c.87.25.85.58,0,1,.78,4.81,5.13,8.22,8.98,11.98.33.32.66.76,1,1v2c-4.96-1.65-9.56-7.02-12.97-10.98-.89-1.98-.89-3.31,0-3.99,1.35-1.87.74-2.67,2.99-1Z"/>
  <path class="cls-213" d="M61.86,153.7c1.59-.07,1.73,1.77,1,2.99-1.07.89-4.31-1.59-3.99-2.99-.94-.53-1.93-.86-2.99-1-.05-.32.02-.67,0-1-.08-1.27-1.16-2.59,0-3.99,1.24,1.92,4.96,4.45,5.99,5.99Z"/>
  <path class="cls-185" d="M52.88,152.7c.44.86.66,2.36.79,3.37l-.79.62c-.93-1.07-1.7-2.3-2.99-2.99-.86-.33-.86-.66,0-1,.3-.68.69-1.32,1-2,.54.65,1.71,1.43,2,2Z"/>
  <path class="cls-348" d="M48.88,283.44c-.35,1.41-.77,2.22-1,3.99.08,2.03-.92,2.37-2.99,1-.06-1.66.03-3.33,0-4.99.28-1.8.94-2.8,2-2.99.51,1.05,1.36,2.01,2,2.99Z"/>
  <path class="cls-61" d="M47.89,275.45c-.49,1.66-.56,3.58-1,4.99-1.47.47-1.77-.86-1-2-.92-1-1.14-3.18,0-3.99.58.42,1.38.62,2,1Z"/>
  <path class="cls-326" d="M31.92,79.84c.09.31-.09.69,0,1-.28.87-.62.86-1,0-.97.78-2.28.4-2-1-.79-1.66-1.13-3.32-1-4.99-.29.56-.62.54-1,0-2.76-2.07.99-5.36,2.99-2.99,1.24,2.51,2.7,5.72,2,7.98Z"/>
  <path class="cls-55" d="M30.92,72.86c1.82.85,2.48,1.85,2,2.99.14.27-2.18,1.67.98,2.65l.02,1.35h-2c-.87-3.1-1.77-4.25-2-7.98.96.03.69.47,1,1Z"/>
  <path class="cls-169" d="M31.92,80.84c.32,1.03,2.23,5.77,1.99,5.98h-2.99c-.01-.32.01-.66,0-.99-2.11-2.36-2.11-3.69,0-3.99-.87-.28-.86-.62,0-1h1Z"/>
  <path class="cls-129" d="M120.74,35.93c-1.3,1.96-1.96,4.29-2,6.99.72,1.79-.4,3.16-2,2-.07,1.34-.58,3.59-2,3.99.38-5.28,2.59-9.67,2-13.97-.05-.33.07-.69,0-1,.5-1.92,2.64-2.46,3.99-1-.09.97.16,2.1,0,2.99Z"/>
  <path class="cls-258" d="M111.76,29.94c1.27.14,1.31,1.69,0,2-1.28.15-3.4,2.77-4.99-1l4.99-2v1Z"/>
  <path class="cls-374" d="M114.75,50.9c0,.1.76.56.72,1.33-.19,3.41-2.42,2.41-2.72,2.66-.01-.33.02-.67,0-1l2-2.99Z"/>
  <path class="cls-145" d="M40.9,167.67c.48.11.86.52,1,1-.31.74-.76,2.16-1,2.99l-1,6.99c-.04,2,.03,4.27,0,5.99-.46.56-.79.22-1-1-.05-3.65.1-7.33,0-10.98-.05-1.66.07-3.33,0-4.99.64.09,1.43-.13,2,0Z"/>
  <path class="cls-38" d="M49.88,152.7c-.12.28.13.73,0,1-.18.38-.86.68-1,1-1.5-.14-1.5-2.85,0-2.99.15.43.6.78,1,1Z"/>
  <path class="cls-289" d="M64.85,118.77c.54-.15,1.37.1,2,0v1c-1.92,1.09-3.85,2.61-3.99,4.99-.92,1.93-2.08,1.93-2.99,0-.29-1.5-1.54-3.41-2-4.99,3,1.72,4.32-.27,6.99-1Z"/>
  <path class="cls-405" d="M63.85,110.78c-.26,1.34-.91,1.98-2,1-.17.15-.94-.15-1,0l-2-1c-2.23-.55-.92-2.85,1-2.99,2.53.22,3.69.22,3.99,2.99Z"/>
  <path class="cls-355" d="M60.86,111.78c-.49,1.27,1.08,3.64-1.49,3-1.17-.29-.16-2.26-.51-3-.5-.3-.49-.64,0-1,2.05-1.29,2.18-1.66,2,1Z"/>
  <path class="cls-193" d="M59.86,107.79l-1,2.99v1c-.21-.44-2.27-.9-2.99-1,.06-.32-.06-.68,0-1,.03-.18.9-.84,1-2,.99.06,2.01-.09,2.99,0Z"/>
  <path class="cls-345" d="M63.85,110.78c.06.55.11,1.52,0,2-.09.4-1.26,1.09-1.01,1.99-1.63.37-.87-1.46-.99-2.99.63-.55,1.1-.96,2-1Z"/>
  <path class="cls-401" d="M40.9,243.52c-.11-1.68-.9-4.13-1-6.99-.91-5.85-.8-12.1,0-17.96-.73-.96-.74-2,0-2.99,2.29,8.81.38,18.84,1,27.94Z"/>
  <path class="cls-365" d="M39.9,236.53h-1c0-5.98,0-11.99,0-17.96.28-.87.62-.86,1,0,.06,5.97-.2,12.01,0,17.96Z"/>
  <path class="cls-409" d="M41.9,255.49c-1.6-1.75-.93-3.94-1-5.99,1.78,1.12.83,4.11,1,5.99Z"/>
  <path class="cls-171" d="M145.69,41.92l3.99,2c.19.29,1.54.1.99,1.99-2.97-1.23-6.27,1.8-7.98,2-1.3.81-2.74.56-2-1-2.27-3.11,2.1-5.47,4.99-4.99Z"/>
  <path class="cls-264" d="M155.67,43.91c1.39.31,1.25,2.24,0,2.99-.11,0-1.16.77-2,1-.01-1.33.02-2.66,0-3.99h2Z"/>
  <path class="cls-210" d="M140.7,46.91c.11,0,.79,1.14,2,1v1c-.66-.02-1.34-.04-2,0-1.09.07-3.38-.26-3.99,0,.36-.26.7-.89,1-1-.81-2.84,1.57-3.61,2.99-1Z"/>
  <path class="cls-133" d="M64.85,204.59c.27-1.72.79-3.69,1-4.99-.06,1.6.62,4.14-1,4.99Z"/>
  <path class="cls-260" d="M54.87,63.88c1.43-1,1.97-.54,1,1-1.29.79-1.77,3.31-3.99,2.99-.02-.3,1.41-1.86,0-2-1.62-1.26,1.52-3.12,2.99-2Z"/>
  <path class="cls-330" d="M53.87,62.88c.32-.88.65-.87,1,0,.85.25.82.58,0,1-1.83-.44-2.52,1.75-2.99,2-.36.19-1.41-.13-2,0-.86-.24-.84-.57,0-1-1.28-1.5-.7-2.06,1-1,.94-1.66,2.01-3.08,2.99-1Z"/>
  <path class="cls-332" d="M49.88,64.87c-.12.25.1.68,0,1-.1.3.1.7,0,1h-2c.16-.98.12-2.95,0-3.99,1.8-1.79,3.25-.39,2,2Z"/>
  <path class="cls-42" d="M81.82,44.91c2.23.82,2.89,3.15,2,6.99.11.3-.12.73,0,1,.89.23,1.54-.14,2-1,.28-.87.62-.86,1,0-.21,2.29.18,4.69,0,6.99l-2.98-2c.41,1.36-.79,2.25-1.01,2.99-.32-.33-.62-.72-1-1-.53-1.41-1.2-2.41-2-2.99-.07-.31.04-.67,0-1-.11-.93,0-2.03,0-2.99.51-1.13,1.03-3.49,0-2-3.05-1.57-.92-4.03-1-4.99-.2-1.5.13-1.83,1-1,.28-.87.62-.86,1,0,1.14-.93,1.65-.38,1,1Z"/>
  <path class="cls-346" d="M86.81,37.93c.28-.87.62-.86,1,0-.01.33,0,.67,0,1-1.14.25-1.43,1.46-2,2-.51.48-1.26,1.03-1.99,1.01l2.99.99-3,8.97c-.91-2.52-1.29-5.11-2-6.99.28-.57.61-1.23,1-2-.13-.94.2-2.18,0-2.99-.77-4.32,1.09-4.02,3.99-2Z"/>
  <path class="cls-74" d="M78.82,35.93c-.12.08-.96.92-1,1-.65-.07-1.37.1-2,0-.84-1.03-.59-3.93,1-3.99.31.09.69-.08,1,0,1,.73,1.77,1.77,1,2.99Z"/>
  <path class="cls-323" d="M78.82,39.92c2.48-1.17,1.83,1.79,2,2,1.17.98,1.61,1.62,0,2h-1c-1.57-.28-2.22-2.77-1-3.99Z"/>
  <path class="cls-407" d="M82.82,42.92c.22,1.58,2.85,4.33-1,2-.08-.2-.88-.51-1-1v-2c.29.37,1.49.61,2,1Z"/>
  <path class="cls-243" d="M83.81,33.93c.86.28.85.62,0,1-1.45-.63-2.55.91-2.99,1-.35.07-.75-.1-1,0-1.01-.37-1.17-1.67,0-2,.3-1.81,1.74-2.21,2.99-1,1.08-.47,1.52-.06,1,1Z"/>
  <path class="cls-32" d="M79.82,51.9c0-.66-.04-1.34,0-2,.05-.99-.05-2,.01-2.99h.98c-.09,1.55.68,4.09-.99,4.98Z"/>
  <path class="cls-153" d="M79.82,33.93v2c-.3.13-.78-.14-1,0-.63-.89-.65-2.03-1-2.99,1.33-1.58,2.69-.96,2,1Z"/>
  <path class="cls-269" d="M151.68,30.94c3.2-1.67,4.56-1.92,3.99,2l-4.99-1c.35-.24.62-.8,1-1Z"/>
  <path class="cls-255" d="M39.9,215.57c0,1,0,2,0,2.99h-1c0-6.64.04-13.32,0-19.96.03-1.09.36-1.76,1-2-.08,5.77-.04,12.72,0,18.96Z"/>
  <path class="cls-292" d="M39.9,184.63c-.06,3.98.05,7.99,0,11.98l-1,2c-.01-2.33.02-4.66,0-6.99-.02-1.99.02-3.99,0-5.99,0-.67,0-1.33,0-2l1,1Z"/>
  <path class="cls-207" d="M101.78,113.78c-1.46,1.22-5.37,6.32-6.4,7.03-2.12,1.45-3.07.45-5.57,2.95-2.04.77-2.59-.73-1-2,.29-.68.73-1.31,1-2,3.22-.16,3.11-1.87,3.99-3.99.32-.08.7.09,1,0,2.86.75,4.59-1.66,6.99-2Z"/>
  <path class="cls-136" d="M88.8,121.76c.13.09.3,1.66,1,2-.75.75-1.27,2.13-2,2.99-1.56-.69-.84-1.63-1-2.99-.07-.61-.05-1.38,0-2,.58.13,1.7-.2,2,0Z"/>
  <path class="cls-128" d="M47.89,287.43c-.16,1.27.2,2.76,0,3.99-.77-1.24-1.34-2.34-2.99-2-.02-.33.01-.67,0-1l2.99-1Z"/>
  <path class="cls-337" d="M121.74,30.94c-.02.93-.98,1.76-1,2-1.22.79-2.56.99-3.99,1-.12-.54-1.22-1.64-.98-1.92.14-.17,3.75-2.05,3.97-2.07.74-1.09,1.41-.76,2,1Z"/>
  <path class="cls-121" d="M121.74,30.94c-1-.03-1.88-1.01-2-1,.05-.66-.07-1.34,0-2,.09-.84,0-1.71,1-2,.22,1.57,1.05,2.58,1,4.99Z"/>
  <path class="cls-262" d="M31.92,258.49c1.12,2.51,2.34,5.34,1,7.98-.2.08-.15,1.55-1.99.99-.02-1.32,0-2.66,0-3.99-1.6-1.5-2.26-3.16-2-4.99l.59-.91,2.4.91Z"/>
  <path class="cls-91" d="M28.92,258.49c.58.69,2.28,2.58,2.45,2.99.47,1.17-.46,1.69-.45,2h-1c-1.76.42-4.95-2.11-3.99-3.99-.13-.23-1.06-3.95.5-3.99.5,1.42,1.67,2.01,2.49,2.99Z"/>
  <path class="cls-167" d="M25.93,259.48c1.1,1.9,2.48,2.59,3.99,3.99l-1.98,2c0-1.69-.72-2.15-2.02-3-1.38.06-3.02-.06-3.99-1,1.27-1.22,2.08-1.96,3.99-2Z"/>
  <path class="cls-322" d="M25.93,262.48c-1.66,1.28-3.19.31-4.99,0-.17-1.11.92-.92,1-1,1.83-.38,2.51.03,3.99,1Z"/>
  <path class="cls-195" d="M149.68,108.79c1.73-.03,2.68.97,2.99,1-2.89-.3-1.23.21-2,2-1.74,1.91-4.75.21-2.99-2-1.4-1.36-.81-1.93,1-1,.28-.06.66,0,1,0Z"/>
  <path class="cls-77" d="M15.95,76.85l.8-.68c.6-2.57-.96-5.02,2.18-4.31.14.61-.19,1.63,0,1.99.91.64,1.69,1.96,1,2.99,1.15.89,1.23,2.14,0,2.99-1.67.49-3.54-1.89-3.99-2-.87-.28-.86-.62,0-1Z"/>
  <path class="cls-305" d="M13.95,71.86c.37.57,1.74-1.79,2,2.99.05,1.85-3.07,2.49-3.99,1-1.85-.61-1.89-1.47,0-2,.14-.04,2.3-1.63,2-2Z"/>
  <path class="cls-98" d="M15.95,74.85c.04.66-.02,1.33,0,2v1c-1.12-.26-2.79.22-3.99,0-.15-.4.02-1.38,0-2,1.18-.27,2.47-1.3,3.99-1Z"/>
  <path class="cls-215" d="M22.94,68.87c2.65-.26,2.85-.02,1,2,.73.88.05,1.79-1,2-.28.87-.62.86-1,0-.74-2.09-1.68-4.15,1-4.99.06.32-.08.69,0,1Z"/>
  <path class="cls-138" d="M20.94,74.85c1.99-.04,1.79,1.31,0,2-.28.87-.62.86-1,0-.07-.43-1.5-1.78-1-2.99.02.04.69.02,1,0,1.43-.37,1.81-.33,1,1Z"/>
  <path class="cls-373" d="M22.94,72.86c1.57.23,1.34,1.11,0,2-.34,2.66-1.16,2.52-2,0-.46-.07-.86-.54-1-1,.48-.02,1.37-.83,2-1h1Z"/>
  <path class="cls-60" d="M144.69,25.95c-.19,1.97-.7,2.05-1,2.99-.24-2.06-3.22-1.58-3.84-2.17-.53-.5,0-1.42-.15-1.82l4.99,1Z"/>
  <path class="cls-12" d="M149.68,32.94c-.55.56-1.79.79-2,2-2.12.24-2.24.12-2-2,.95-.11,3.23-2.17,3.99,0Z"/>
  <path class="cls-172" d="M142.7,32.94c-.27.62-.68,1.37-1,2,1.25,1.53.68,2.07-1,1l-1-2c-.33-1.4.62-2.64,2-2.99h1c-.2.5.2,1.54,0,2Z"/>
  <path class="cls-49" d="M163.65,46.91c-4.48.76-5.18-.9-3.98-4.98l3.98,4.98Z"/>
  <path class="cls-246" d="M57.87,55.89c1.74-.02,2.03,2.54,2,3.99.2.89-.89,1.64-1,2-.38,2.05-2.81,2.7-3.99,1-.96-1.82-1.29-3.82-1-5.99-.33-1,0-1.34,1-1-.58-2.61.09-2.94,2-1,.27-.11.68.1,1,0,.87.28.86.62,0,1Z"/>
  <path class="cls-248" d="M55.87,51.9c.06.7,1.08,1.98,1,2.99-.53.23-1.47.71-2,1l-3.99-2c-.25-.36-.74-.63-1-1l1.01-2.99,4.98,1.99Z"/>
  <path class="cls-158" d="M60.86,55.89c.06,1.32-.11,2.68,0,3.99h-1c-1.84-.53-2.16-2.22-2-3.99.56-1.27,2.7-1.69,2.99,0Z"/>
  <path class="cls-40" d="M57.87,54.89c.52-.17,1.29-1.71,2.99-.99.04.66-.03,1.33,0,1.99h-2.99v-1Z"/>
  <path class="cls-175" d="M165.65,144.71c1.24-.73,2.57.27,3.99,2.99,1.4.69,3.32.73,2.99,1.99-2.65.06-5.33-.04-7.98.01-.2-1.07-1.65-1.52-2-2-1.99-.54-3.59-1.02-2-2.99,1.25-1.35,4.62-1.23,4.99,0Z"/>
  <path class="cls-383" d="M168.64,143.72l1,2.99v1s-.46.9-.98.51c-1.08-.83-1.31-3.03-3.02-3.5-.87-.28-.86-.62,0-1,2.17-1.49,3.17-1.49,2.99,0Z"/>
  <path class="cls-316" d="M30.92,81.84c.04,1.33-.06,2.67,0,3.99-.37-.27-.64-.74-1-1-.27-.2-.11-1.61-1.97-.96l-.52,1.95c-.76-.42-1.01-1.54-1.5-1.99-1.05-.94-1.52-1.42,0-2,1.09-1.91,2.75-1.91,4.99,0Z"/>
  <path class="cls-58" d="M22.94,79.84c2.56-.45,2.93,1.56,1,2.99.13,1.79-.84,3.88-2,4.99-.03-.66.04-1.33,0-2-.1-1.8-.84-2.88-1-3.99-1.04-1.23-.76-4.15,1-2.99.48-.53.81-.2,1,1Z"/>
  <path class="cls-27" d="M25.93,78.85c.46-.19.79.15,1,1,2,.98.97,1.49-1,2-.13.58.09,1.36,0,2-.45-.41-1.43-.61-2-1-.09-1.34-.59-1.94-1-2.99-.74-.95-.74-1.62,0-2,1.64-2.81,2.48-1.84,2.99,1Z"/>
  <path class="cls-123" d="M27.93,89.82c-.09.26-.88.61-1,1-.16.54.14,1.4,0,2l-2-1c.12-.62-.16-1.48,0-2,.24-.75.98-3,1.5-3l1.5,3Z"/>
  <path class="cls-341" d="M106.77,15.97c.31.68.7,1.32,1,2,1.32.76,1.65,1.43,1,2,1.36.73,1.17,3.03,0,3.99-.13.05-1.81,1.7-2,2-.92-.42-.72-1.37-1-2-.14-1.99-.28-2.93-2-3.99-.04-.29-.04-.7,0-1-1.79-1.03-1.11-1.84,1-2,1.93-2.94,1.65-.96,2-1Z"/>
  <path class="cls-360" d="M102.78,13.97c.3,1.91-1.03,3.52,2,2.99-.14.21-.98,1.89-1,2l-2-1c0-2.27-1.55-3.4,0-4.99,1.28-.66,1.76-.28,1,1Z"/>
  <path class="cls-15" d="M104.77,11.98l1.99,1.01v.97s-3.98.01-3.98.01c-.03-.2-.81-.62-1-1,1.4-1.44,2.3-.67,2.99-1Z"/>
  <path class="cls-239" d="M109.76,9.98c-.61.12-1.53-.18-2,0-.3-.35-.6-.77-1-1-1.33-1.35-.74-1.8,1-1,.61-.42,1.3-.74,1.99-1,.12.97-.15,2.08,0,3Z"/>
  <path class="cls-291" d="M147.69,35.93c.42-.03,1.18.41,1,1-1.7.77-3.55.72-2.99,2.99-1.25.89-2.63.67-2-1-1.91-.59-1.9-1.48,0-2,1.33-.25,2.64-.91,3.99-1Z"/>
  <path class="cls-28" d="M104.77,65.87c-.05,1.29.18,2.81,0,3.99.69,6.29-6.39,4.88-2.99,0-.15-.25.16-.82,0-1l2.99-6.99c.07,1.3.05,2.69,0,3.99Z"/>
  <path class="cls-286" d="M62.86,156.69c.42,1.3,1.22,2.44,1,3.99-1.96-1.78-2.89-4.81-5.99-5.01l1-1.97c1.17.66,3.2,3.01,3.99,2.99Z"/>
  <path class="cls-6" d="M26.93,67.87c.16.43-.18,1.07.01,1.48.2.47.51.59.99.52.25,1.93-1.94,2.75-2.99,1-.33.87-.66.87-1,0-.25-.67-.83-1.35-1-2l3.99-1Z"/>
  <path class="cls-381" d="M28.92,69.86c-.27.87-.61.86-1,0,.07-.01.2-.98,1-1v1Z"/>
  <path class="cls-188" d="M146.69,123.76c-.27.37-1.39,4.56-2,5.99-1.55.66-2.55-.34-2.99-2.99.06-.35-.1-.74,0-1-2.55-1.53,2.33-5.83,3.99-2.99.08.49.45.98,1,1Z"/>
  <path class="cls-72" d="M29.92,69.86c.03.66-.04,1.33,0,2-1.26-.04-3.75,1.38-2.99,2.99-.28.87-.62.86-1,0-1.29,1.28-1.84.65-1-1-1.45-.56-1.4-2.32,0-2.99.55-.22,2.37-.82,2.99-1,.3-.09.68.06,1,0h1Z"/>
  <path class="cls-155" d="M33.91,73.86c-.07.84-.02,1.73-1,2-.15-.29-1.37-1.92-2-2.99l2.99,1Z"/>
  <path class="cls-14" d="M118.74,83.84c.28.14.98,1.88,2,2-1.63.72-2.74,1.29-3.49,3.01-.42-.09-.38-.94-.5-1.01.14-1.27-.21-2.8,0-3.99.75-1.64,1.68-1.96,2,0Z"/>
  <path class="cls-306" d="M111.76,90.82c-.35.65-.68,1.32-1,2l-2-1,1-2c.56.41,1.39.61,2,1Z"/>
  <path class="cls-182" d="M112.76,26.95l-1,2.99v-4.99c-1.24-.99-.99-3.04,0-3.99.28-.87.62-.86,1,0,0,1.97-.16,4.04,0,5.99Z"/>
  <path class="cls-392" d="M111.76,20.96v3.99c-.58-.19-1.57-1.03-2-1-.31-1.22-.31-2.55,0-3.99.94-2.65,3.83-2.09,2,1Z"/>
  <path class="cls-62" d="M109.76,23.95c-.35.02-.76-.08-1,0-.15-1.26.23-2.82,0-3.99.28-.87.62-.86,1,0,1,1.31,1.02,2.66,0,3.99Z"/>
  <path class="cls-284" d="M141.7,130.74c1.06-1.91,2.37-1.09,2,1-.27.63-.08,1.57-1,2-1.3-.08-2.78.18-3.99,0v-3c1.11.99,2.48-.04,2.99,0Z"/>
  <path class="cls-309" d="M141.7,126.75c2.31-.5,1.9,2.11,2.99,2.99-.29.68-.71,1.32-1,2-.63-.2-1.46-.95-2-1-.7-.66-.71-2.66-1-2.99.27-.31.95-.71,1-1Z"/>
  <path class="cls-317" d="M37.91,149.7l-1,1c0-1.33-.01-2.66,0-3.99,0-.33,0-.67,0-1h1v3.99Z"/>
  <path class="cls-82" d="M81.82,30.94c1-.04,1.33.29,1,1,.87.28.86.62,0,1-.82.84-1.85,1.12-2.99,1-.13-.01-1.19-.78-2-1-.25-.69-.72-1.32-1-2,.33,0,.67.01,1,0,1.31-.05,2.68-.06,3.99,0Z"/>
  <path class="cls-211" d="M159.66,144.71c1.69,1.45,1.48,2.83-1,2.99-.14,1.13-1.98.47-2.99,0-.66,0-1.33-.03-2,0,1.2-2.63,3.53-2.68,5.99-2.99Z"/>
  <path class="cls-144" d="M167.65,141.72c1.63.74.96,1.41-2,2v1c-.97-.26-3.71-.06-4.99,0-.01-.85,1.2-1.92,2-2,.79-1.09,1.71-1.63,2.99-1,.54-2.63,1.32-2.57,2,0Z"/>
  <path class="cls-1" d="M160.66,144.71c0,.18,1.73,2.63,2,2.99h-1c-1.04.49-2.35,1.03-2.99,0l1-2.99c.32-.04.67.01,1,0Z"/>
  <path class="cls-116" d="M164.65,140.72c1.5-1.58,2.13-.96,1,1-.54.34-.91,1.99-1.66,2.01-.59.01-1.17-1.02-1.34-1.01-.12-.46-.54-.94-1-1,.37-1.29,1.94-1.04,2.99-1Z"/>
  <path class="cls-389" d="M59.86,128.75c2.36.17,1.94,2.31,1,3.99,1.29,1.5-1.06,3.96-2.99,2.99-.24-.05-.77-.06-1,0,.4-2.11.38-6.23,1-7.98.08-.23,1.56-.65,2-1,1.93.55,1.91,1.44,0,2Z"/>
  <path class="cls-142" d="M101.78,69.86c.62,1.01.96,3.01,1.5,3,.36-.48,1.47-2.84,1.5-3-.1.99.43,1.37,1,2-.28.74-2.54,5.23-2.99,5.99.37.96-.07,1.37-1,1-.98.26-1.31-.4-1-2-1.37-3.24-2.08-2.08-2-6.99h2.99Z"/>
  <path class="cls-10" d="M119.74,80.84c-.18,1.06-.42,2.07-1,2.99-.38-.19-1.4.13-2,0,.36-2.04.49-2.99,2.99-2.99Z"/>
  <path class="cls-240" d="M167.65,138.73c.91.24.88.57,0,1,1.24.71,1.48,1.63,0,2-.58.13-1.68-.2-2,0-.06-.52-.51-.98-1-1-.13-.58.2-1.67,0-2-1.05-1.83.7-2.36,2-1,1.23-.76,1.73-.29,1,1Z"/>
  <path class="cls-192" d="M130.72,33.93c5.43-.11-2.7,3.61,2,4.99-.27.3-.84.5-1,1-1.52.16-2.67-.43-3.99-1-.61-1.63.39-3.3,2.99-4.99Z"/>
  <path class="cls-124" d="M139.7,29.94c.92.29.91.62,0,1,1.38.48.03,2.2-1,2.99-.09.32.11.73,0,1-.67,0-1.33,0-2,0-.32,0-.68.05-1,0-1.34-1.69-.38-4.63,2-3.99.59-.69,1.02-1.06,2-1Z"/>
  <path class="cls-267" d="M137.71,30.94c-.97,1.13-1.78,2.47-2,3.99-.63-.09-1.35.07-1.99,0l1-4.98c.9.22,1.9,1,2.99,1Z"/>
  <path class="cls-249" d="M51.88,55.89c1.29-1.72,2.4-1.11,2,1,3.3,1.93,1.31,2.39,1,5.99-.34.06-.71-.08-1,0-.76.03-1.43-.64-2-2-2.69.14-3.35-.86-2-2.99-1.65-.13-1.18-1.03,0-2,.54-.08,1.48-.09,2,0Z"/>
  <path class="cls-96" d="M54.87,55.89c-.4.22-.71.65-1,1-.29-.17-1.89-.98-2-1-.37-.62-.59-1.41-1-2l.52-.98c2.24-.45,3.46.69,3.47,2.98Z"/>
  <path class="cls-69" d="M47.89,56.89l2,1c.41,1.01,1.93,2.19,2,2.99-1.21,1.82-2.32,2.91-3.99,1-.17-.57-.33-.95-1-1-.16-1.75-.33-2.64,1-3.99Z"/>
  <path class="cls-135" d="M87.81,50.9c-.04.26-.97.72-1,1h-1c.24-2.51.11-2.52,1-4.99,1.37.56,1.17,2.8,1,3.99Z"/>
  <path class="cls-86" d="M85.81,51.9c-.12,1.31.1,2.68,0,3.99-1.82-.19-1.53-1.93-1.99-2.99l2-1Z"/>
  <path class="cls-152" d="M107.77,7.99c-.39.26-.69.65-1,1-1.57-.92-3.2-1.13-4.99-1,.65-1.88,4.11-.19,4.99-2,.58.48.92,1.25,1,2Z"/>
  <path class="cls-78" d="M62.86,133.74c-.46.75-1.95,2.82-2,2.99-.57.13-1.72-.2-2,0-.4-.18-.79-.95-1-1,1.35-.64,2-2,2.99-2.99.5.91.98,1.09,2,1Z"/>
  <path class="cls-183" d="M62.86,124.75c4.13.08.06.01,0,3.99-.42,2.17-2.5,2.63-2.99,0-.13-.6.13-1.39,0-2s.12-1.38,0-2c1,.01,2-.02,2.99,0Z"/>
  <path class="cls-250" d="M62.86,128.75c-.01.67,0,1.33,0,2-.74.59-1.33,1.33-2,2-.39-.72-.78-2.95-1-3.99h2.99Z"/>
  <path class="cls-375" d="M145.69,110.78c1.21.3,3.23,1.82,3.99,2.99-.02.05.29-.05,0,1-1.5,1.51-3.48,2.5-3.99,0-.75,1.29-1.08.96-1-1v-1c-.86-.22-.83-.56,0-1-1.5-1.43-.84-2.07,1-1Z"/>
  <path class="cls-298" d="M150.68,111.78c-.29.67-.77,1.3-1,2-3.04-.54-2.95.34-3.99-2.99.27-1.8.91-2.72,2-1,.43,1.43,1.54,1.98,2.99,2Z"/>
  <path class="cls-325" d="M149.68,114.77c-.18.64-.83,1.33-1,2-1.05.56-1.96,1.4-2.99,2-2.24-.62-2.24-1.95,0-3.99h3.99Z"/>
  <path class="cls-294" d="M21.94,78.85c-1.2.21-1.13,2.07-1,2.99h-1v-2c0-.96.13-2.12,0-2.99h1c1.7-.72,1.57.48,1,2Z"/>
  <path class="cls-336" d="M112.76,16.97v3.99h-1c.24-2.52-.07-2.31-2-1h-1c-.02-.12-.75-1.42-1-2,3.99,2.16,2.02-1.11,4.99-1Z"/>
  <path class="cls-137" d="M109.76,42.92v-4.99c1.5.64,1.69,4.48,0,4.99Z"/>
  <path class="cls-336" d="M103.77,19.96c3.34-.17,2.58,2.03,2,3.99-.51-1.16-1.85-3.03-2-3.99Z"/>
  <path class="cls-17" d="M173.63,136.73l-1,2.99c-.61-.54-1.27-1.76-2-2-.25.83-.58.81-1,0-.87-.28-.86-.62,0-1,.46-.06.88-.53,1-1,1.12.25,2.09.78,2.99,1Z"/>
  <path class="cls-44" d="M127.73,32.94v2.99c.12,2.12-1.34,1.91-2.99,1-.11-.29-.07-1.54,0-2,.04-.27.85-1.08,1-2,.62-.11,1.51.17,2,0Z"/>
  <path class="cls-282" d="M119.74,38.92c-.19,1.23.13,2.71,0,3.99-.27.89-.6.87-1,0,.05-2.51-.87-5.99,2-6.99-.2,1.15-.88,2.24-1,2.99Z"/>
  <path class="cls-272" d="M169.64,136.73v1c.73,1.87-.56,2.34-2,1-.02-.09-.93-.48-1-1v-1c.95.03,2.08.11,2.99,0Z"/>
  <path class="cls-370" d="M158.66,147.71h2.99c-1.01,1.63-5.04,1.6-5.99,0h2.99Z"/>
  <path class="cls-25" d="M145.69,119.76c.03.66-.04,1.34,0,2v1c-3.35,1.61-2.76-.29-3.99,2.99l-1.99,1c-.06-1.66.04-3.33,0-4.99,1.42-2.53,2.75-3.19,3.99-2,.4-2.69,1.24-2.57,2,0Z"/>
  <path class="cls-254" d="M141.7,117.77c2.6-1.66,3.82-.36,2,2-2.4,1-1.36,4.38-3.99,2-.04-1.33.01-2.66,0-3.99.24-.1,1.62-.09,2,0Z"/>
  <path class="cls-303" d="M51.88,60.88c1.42.61,1.09,1.6-1,2.99-.14.1-.97.93-1,1l-2-2c-.04-.35.08-.73,0-1,1.22-1.09,2.8-.71,3.99-1Z"/>
  <path class="cls-24" d="M101.78,81.84c-.62,1-.8,2.31-2,2.99.05-.31,0-.68,0-1,0-.67,0-1.33,0-2,.6-.25.69-.7,1-1,1.3-1.32,1.63-.76,1,1Z"/>
  <path class="cls-7" d="M81.82,58.89c-.44-.33-1.15-.44-1.49-1.02-.43-.72-.36-1.29-.5-1.98l1.01-1.99h.97s.01,4.98.01,4.98Z"/>
  <path class="cls-351" d="M148.68,108.79c-.35.08-.69.86-1,1-.54.25-1.73.71-2,1-1.22-.57-2.22-1.57-2.99-2.99.08-.33-.1-.72,0-1,.2-.56-.09-1.04,1-1s1.5,1.61,3.98-1l1.01,3.99Z"/>
  <path class="cls-29" d="M144.69,111.78c-.12.27.11.7,0,1-.38,1.62-1.04,2.28-2,2l-1-2.99c.33-.42.81-1.46,1-2,1.52-2.04,2.59.16,2,2Z"/>
  <path class="cls-143" d="M142.7,107.79c4.61-.62,2.35.94,2.99,2.99-.28.3-.74.4-1,1l-2-2c.17-.51-.15-1.41,0-2Z"/>
  <path class="cls-280" d="M46.89,280.44c-.37,1.18-.99,2.24-2,2.99-.02-1.33.04-2.66,0-3.99,0-.33.02-.67,0-1,.28-.87.62-.86,1,0,.27,1.23.69,1.36,1,2Z"/>
  <path class="cls-107" d="M45.89,274.45c.17,1.24-.25,2.87,0,3.99h-1c-.07-1.5-1.06-4.08,0-4.99.37.26.64.74,1,1Z"/>
  <path class="cls-16" d="M137.71,27.95h4c-.12.96.18,2.13,0,2.99-1.06,1.03-1.73,1.65-2,0,.03-.29.07-.83,0-1-.35-.8-2.1-1.46-2.99-2h1Z"/>
  <path class="cls-153" d="M76.83,32.94l-1,3.99c-.34-.06-.95.1-1,0-.14-.28-.12-4.78,0-4.99.77-.04,1.26.79,1.99,1Z"/>
  <path class="cls-34" d="M145.69,114.77c.19,1.17-.05,2.71,0,3.99.01.33-.02.67,0,1-.61.12-1.56-.18-2,0-.35-.9-1.03-1.77-2-2v-1l2.99-2.99c.42.17.93.56,1,1Z"/>
  <path class="cls-242" d="M145.69,122.76c-.05-.32.02-.67,0-1,.31.26.35.83,0,1Z"/>
  <path class="cls-232" d="M67.85,171.66c-.06.65.1,1.37,0,2-.17,1.11-1.51,3.7-2,4.99-.24-2.48,0-5.41,0-7.98l2,1Z"/>
  <path class="cls-319" d="M130.72,33.93c-.92,1.73-1.8,3.43-2.99,4.99-1.03-.44-2.57-.89-2.99-2,.85-.36,1.94-.55,2.99-1,.67-.28.32-1.94,2.99-2Z"/>
  <path class="cls-334" d="M101.78,81.84l-1-1c.35-.35.65-1.41,1-2,.21-.34.77-.61,1-1h1c-.77,1.59-.89,2.21-2,3.99Z"/>
  <path class="cls-48" d="M119.74,42.92c.31-.1.72.11,1,0,1.48,1.79.29,1.53,0,2,.7,1-.72,3.17-2,2.99-.76-.54-1.24-2.24-2-2.99,0-.07-1.09-.41-1.01-.93,1.12-.02,2.01-.74,3-1.07.3-.1.7.1,1,0Z"/>
  <path class="cls-165" d="M121.74,45.91c-.02.55-1.17,2-1,2.99-.42-.1-1.59-.71-2-1,.19-1.33,1.45-2.11,2-2.99.18.38,1,.87,1,1Z"/>
  <path class="cls-66" d="M145.69,40.92c.47,0,1,.46,1,1-.34,0-.78-.08-1,0-1.87.69-3.87,3.31-4.99,4.99-1.33.1-1.95.61-2.99,1-.65-.6-1.28-1.56-2-2-1.74-1.43,2.04-4.47,3.99-3.99,1.38-2.05,4.05-2.65,5.99-1Z"/>
  <path class="cls-45" d="M139.7,41.92c-1.12.48-3.33,2.75-3.99,3.99-1.11-.67-1.48,1.4-2-2,2.64-1.32,2.1-1.37,3.99-2.99.73-.8,1.95.03,2,1Z"/>
  <path class="cls-2" d="M143.69,36.93c.15.54-.1,1.37,0,2-.85,1.27-4.46,3.81-4.99,1-.15-2,1.18-2.76,2-3.99.23-.35.81-.62,1-1,.93.35,1.72,1.01,2,2Z"/>
  <path class="cls-403" d="M143.69,38.92c.34.06,1.23,1.08,2,1v1c-1.16.01-5.1.62-5.99,1l-2-1c.21-.18.18-.89,1-1,.28-.04,1.01.91,1.52.91.58,0-.22-2.55,3.47-1.91Z"/>
  <path class="cls-293" d="M141.7,30.94c-.17.81-1.6,2.07-2,2.99h-1c.25-.88.95-2.5,1-2.99h2Z"/>
  <path class="cls-354" d="M39.9,178.65c.07-3.36.13-3.95,1-6.99-.24,2.18.9,5.57-1,6.99Z"/>
  <path class="cls-378" d="M28.92,79.84c.6.41,1.37.61,2,1v1h-4.99c.14-.63.87-1.37,1-2-.59-.63-.72-1.42,0-2,.83-1.18,1.49-.51,2,2Z"/>
  <path class="cls-396" d="M28.92,79.84c-.71-.49-1.3-1.42-2-2-.67-1.33-.62-2.92,1-2.99.07-.02.13-1.24.99-1v5.99Z"/>
  <path class="cls-75" d="M27.93,74.85c-.6.92-.79,1.94-1,2.99-.12.61.13,1.39,0,2-.66,0-.82-.9-1-1-1.97-1.01-1.85-3.06,0-3.99h1c.31-.07.7.1,1,0Z"/>
  <path class="cls-163" d="M24.93,70.86c-.16.89.24,2.29,0,2.99.92,1.29.44,1.83-1,1-.29.73-.62.72-1,0,.04-.66-.05-1.34,0-2,.09-1.08-.28-1.5,1-2,.29-.11.71.11,1,0Z"/>
  <path class="cls-408" d="M22.94,74.85h1c1.67.78.9,3.11-1,2.99-.08.65.05,1.34,0,2-.12-.31-.81-.62-1-1-.3-.61-.88-1.44-1-2-.13-.58.09-1.36,0-2,.63.1,1.35-.07,2,0Z"/>
  <path class="cls-231" d="M87.81,31.94v1c-1.6-.19-3.52-.39-4.99-1-.41-.17-.74-.63-1-1,1.44.07,3.5-1.57,5.99,1Z"/>
  <path class="cls-281" d="M169.64,140.72l.99,3.99c-.25.36-1.38-.87-1.99-1-.86-.18-2.05.12-2.99,0,.53-.6,1.74-1.34,2-2,.04-.09,0-1.65,0-2,.9-.09,1.47.76,2,1Z"/>
  <path class="cls-333" d="M25.93,74.85c.2,1.22-.13,2.71,0,3.99-.94-.53-1.93-.86-2.99-1,.15-1.28.68-1.99,1-2.99.09-.3.88-.65,1-1,.41.18.93.55,1,1Z"/>
</svg>