<?xml version="1.0" encoding="UTF-8"?>
<svg id="Layer_1" data-name="Layer 1" xmlns="http://www.w3.org/2000/svg" viewBox="0 0 700 600">
  <defs>
    <style>
      .cls-1 {
        fill: #c21927;
      }

      .cls-2 {
        fill: #ca3642;
      }
    </style>
  </defs>
  <path class="cls-1" d="M421.08,459.68l-3.4-2.72c-5.07-3.35-10.79-6.49-16.19-9.16-5.98-2.96-13.54-4.99-19.14-9.06-4.37-3.18-4.75-10.06-1.69-14.52,10.37-15.13,38.87-8.48,53.82-10.13,4.47-.49,7.77-1.84,10.79-5.63,4.01-5.05,3.26-8.29.22-13.5-3.95-6.77-7.63-8.84-12.82-13.77-3.95-3.75-10.18-12.11-13.39-16.88-5.55-8.24-6.18-24.02,1.72-30.67,2.86-2.41,9.44-7.17,12.69-8.43,6.17-2.38,13.38-4.7,19.3-7.73,2.13-1.09,6.49-3.86,6.83-6.57.5-4.06-.22-8.85.32-13.21.26-2.11.44-4.12,2.22-5.33.46-.31,2.4-1.17,2.95-1.35,2.19-.71,4.68-.43,6.57-1.08.54-.18.88-.47,1.23-.94-3.08-.09-4.67-1.24-6.89-3.33-.24-.23-.75-.2-.85-.34-.13-.17-1.31-3.86-1.34-4.15-.1-1.02-.04-2.44,1.16-2.29,1.15.15,1.05,1.97,1.57,3.03.98,1.98,5.76,4.52,7.65,3.62.22-.1,3.35-3.09,3.64-3.46,1.16-1.42,1.09-4.34,2.88-3.77.84,2.32,1.23,5.87-.52,7.82-1.54,1.71-4.21,1.4-4.95,3.88l4.68.29-.23-1.32c.83-.2.31-.93.62-1.57l.65,2.6.77-.58c.85,4.03-.42,3.29-2.96,3.78-.71.14-1.38.47-2.11.54-2.1.22-3.8-.6-5.85-.57l.52.86c-1.3.26-2.43,1.01-3.77,1.15-3.51.38-4.71-1.44-5.07,3.61-.31,4.29.24,8.65-.29,12.95-.83,6.7-10.41,9.43-15.12,11.5-4.36,1.91-7.9,3.39-12.36,5.04-3,1.11-10.9,6.51-13.33,8.87-3.73,3.63-4.28,11.31-3.61,16.42,1.18,8.96,9.07,14.38,13.23,21.68,6.68,6.7,14.46,11.93,18.36,21.48,4.04,9.89-4.94,19.19-13.31,20.46-9.06,1.38-19.54-.4-28.85.03-3.93.18-10.8.63-14.43,1.89-3.77,1.3-11.65,6.32-11.7,11.25-.06,5.7,5.03,6.51,8.76,8.46,7.2,3.77,14.63,6.88,21.85,10.68,4.88,2.57,9.38,6.01,13.6,9.73,17.59-.88,33.43,3.95,46.58,17,6.11,6.06,8.84,16.87,2.08,23.67-5.88,5.91-13.52,8.43-21.24,9.62-13.71,2.13-27.17.46-40.67-2.27-.43.47,3.96,10.7,4.13,12.58.44,4.78-2.32,8.27-6.08,9.93-4,1.77-11.14,4.43-15.35,4.34-1.88-.04-3.96-1.04-5.8-1.38-2.7-.5-5.52-.63-8.16-1.33-12.21-3.23-6.03-22.15,2.47-26.22,6.15-2.94,17.77-1.48,24.69-1.29,1.06.03.79-.55.47-1.42-7.42-19.89-36.67-21.32-52.96-20.63-21.59.93-35.9,8.51-55.99,14.36-8.35,2.43-14.66,3.07-23.3,1.77-10.96-1.65-16.91-4.49-22.06-15.63-4.37-9.44.09-22.47,6.8-29.2,9.66-9.69,17.4-11.02,30.27-9.04,10.38,1.59,17.43,8.78,27.87,9.48,10.09.67,16.38-2.43,25.35-6.49,7.46-3.38,13.64-6.14,19.78-12.11,10.11-9.83,8.46-32.51,4.81-45.45-2.01-7.14-5.95-12.12-9.6-18.2-1.21-2.02-2.06-4.3-3.42-6.3-5.38-7.93-14.6-16.5-21.58-22.81-9.92-8.96-23.12-17.2-34.28-24.3-13.9-8.83-29.31-18.27-44.72-23.4-6.3-2.1-12.78-1.98-19.25-4.9-2.7-1.22-4.74-3.36-7.03-4.61-1.67-.91-3.27-.72-4.87-2.38-2.12-2.2-2.34-5.42-3.67-7.75-1.5-2.62-5.07-4.38-1.26-7.98-.11,1.51.03,3.18,1.3,4.04l.12-1.74h.8c-.23,5.29,5.76,10.56,10.28,9.69,4.33-.83,2.22-6.74,3.41-8.91.34-.63.92-.72,1.39-.2.9,1,.02,6.28-.38,7.67-1.31,4.49-5.04,5.33-8.86,4.46l7.28,2.31-.68.55-2.44.6c4.84,3.04,10.33,4.39,15.77,5.44,3.15.61,5.95.62,9.14,1.7,9.57,3.23,20.87,8.55,29.63,13.88,20.98,12.77,42.41,25.53,60.31,43.32,5.98,5.94,10.46,12.57,14.84,19.89,3.36,5.63,7.06,10.44,9.22,16.9,4.49,13.45,5.19,29.84.19,43.22-1.73,4.62-3.85,6.55-7.25,9.56-7.07,6.27-19.48,11.54-28.19,14.89-8.78,3.38-19.43,2.84-28.03-.94-6.08-2.68-9.28-5.26-16.23-6.24-12.51-1.76-19.66-.45-28.97,9.05-4.68,4.77-8.98,15.83-6.7,22.73,1.92,5.83,6.35,11.49,11.58,13.7,26.33,11.12,51.92-9.81,77.97-12.62,16.53-1.78,38.83-2.09,53.63,7.16,4.74,2.96,7.15,5.69,10.08,10.75.4.69.86,2.27,1.17,2.67.24.32.75.2.95.47.1.13-.33,2.7.55,3.19,6.67.6,13.27,2.51,19.96,2.9,12.92.74,29.41.19,40.02-8.72,6.45-5.42,4.81-13.67-.6-19.14-5.89-5.96-12.01-9.96-19.52-12.98-7.18-2.89-15.29-3.56-22.89-3.32,3.76,7.09-3.07,11.03-8.07,13.12-4.78,2-9.4,1.86-14.3.3-5.01-1.6-9.72-5.33-5.46-11.24,1.85-2.57,6.53-5.34,9.49-5.34h11.05ZM410.37,463.23c-2.72.31-5.75,1.69-7.63,3.94-1.89,2.26-1.12,3.05,1.01,4.39,4.49,2.81,11.19,3.19,15.96,1.16,3.72-1.58,10.61-5.16,4.89-9.57-4.62.28-9.65-.44-14.22.08ZM389.56,506.51c-5.68.56-8.84,3.16-11.44,8.66-1.6,3.4-2.52,6.6-.84,10.26,1.74,3.79,7.91,3.54,11.34,4.16,3.39.61,5.49,1.72,9.18,1.35,2.13-.21,12.33-3.55,13.9-4.77,1.51-1.18,2.88-3.58,2.81-5.68-.05-1.47-2.87-10.88-3.56-12.5-.13-.31-.22-.68-.53-.86-1.1-.5-2.47.11-3.47.04-5.7-.39-11.63-1.24-17.39-.67Z"/>
  <polygon class="cls-2" points="389.67 507.62 389.72 507.68 389.83 507.5 389.67 507.62"/>
  <path class="cls-2" d="M390.45,507.17l-.05-.11-.44.53c.24.26.33-.6.48-.42Z"/>
  <path class="cls-2" d="M390.59,507.21c.19.1.26-.13.3-.22-.05.18-.35-.03-.3.22Z"/>
  <path class="cls-2" d="M407.35,507.85l-.07.02.07-.02Z"/>
  <path class="cls-2" d="M411.14,508.13l.19-.02c-.16-.18-.26-.32-.37-.55-.11-.22-.24-.44-.46-.57-.46-.24-.96-.31-1.4-.21l.06-.07c-.58.01-1.11.14-1.62.22-.49.09-1.01.04-1.55.05-1.06,0-2.11.03-3.2,0l.09-.09c-.11.06-.24.16-.35.14l.08-.1c-.43-.35-1.36.08-1.63-.18-.13.02-.2.14-.14.25-1.7-.06-3.52-.14-5.25.05-.08-.04-.09-.13-.07-.23-1.49.45-3,.26-4.5.26-.05.13.16.13.02.27.48.13.86-.37,1.3-.14l-.05.13c.32.07.06-.32.39-.17.13.1-.03.16.03.17.67-.06,1.37.05,2.01-.24.15.27.73.03.97.3.18-.1.35-.07.43-.25,2.36.24,4.81.19,7.25.43.6-.22,1.22-.13,1.88-.01.33.06.66.13,1,.18.34.04.66.1,1.1.03v.05c.51-.16,1.13-.36,1.62-.34.13-.09.26-.17.4-.25.18.03.36.07.52.12.14.06.25.1.34.19.09.09.12.22.15.33l.18.56c.24.76.48,1.52.72,2.28.49,1.54.98,3.08,1.34,4.66.22.89.41,1.76.58,2.61.16.83.36,1.74.44,2.41.05,1.37-.48,2.91-1.26,4.43l-.04-.11c-.26.41-.6.73-.96.98-.33.21-.75.4-1.16.65l-.02-.05c-2,1.37-4.66,1.76-6.72,2.92-2.72.77-5.75,2-8.78,1.64l.02-.1c-2.42-.08-4.48-1.48-6.95-1.62-1.22-.28-2.5-.24-3.77-.28-1.26-.05-2.58-.18-3.68-.81-.6-.53-1.42-.78-2.14-1.32-.73-.52-1.27-1.34-1.26-2.11-.13-1.54-.19-2.89-.11-4.31.09-1.41.31-2.88.7-4.35.68-1.2,1.2-2.48,1.88-3.68.67-1.2,1.55-2.33,2.77-2.99.36-.55.98-.89,1.65-1.09.66-.23,1.36-.33,1.97-.62l-.09-.1c.58.21.9-.88,1.36-.38l-.04.04c.32.23.44-.84.68-.51v-.15c.33-.1.08.16.34.17.09-.03-.01-.27.2-.22.13.57.77-.24.88.43-.17.02.3.23-.06.41.12.06.63-.04.55-.32.02-.31.2-.59-.15-.79l-.04.23c-.13-.21-.1-.1-.15-.26-.44.03-.54-.29-.88-.38v.02c-.17.3-.49.2-.67.19l-.09-.11c-.16-.24-.4.6-.36.13-.87.3-1.88.62-2.83,1.06-.06.22-.72.34-.37.53-.4-.22-1.13.1-1.36.29l.02-.09c-.75-.05-.29.73-1.05.61.2.35-.83.54-.69,1.11-.11-.02-.19-.06-.22-.13-.66.68-1.44,1.4-1.89,2.06-.08.75-1.01,1.3-.84,2.05-.32.36-.85.95-.94,1.63l-.03-.08c-.28.68-.62,1.55-.49,2.14-.53.04-.54.39-.79.66.06.55-.26,1.55-.15,2.36-.23.1.02.65-.29.67.25,1.15.47,2.34.81,3.53.09.29.16.6.27.89.09.29.19.59.34.91.25.64.65,1.21,1.08,1.73h-.04c.37.1.92-.05,1.28-.06l-.07.05c.39.15.6.64,1.02.73l-.11.07c.42.03.69.55,1.22.44v.09c.11,0,.21-.02.32-.03-.03.1-.09.25-.23.18,1.75.54,3.55.61,5.28.68,1.74.04,3.4.3,5.1.79l-.15.07h.71s-.09.07-.09.07c.81.38,1.78.29,2.64.43,0,.05-.16.14-.04.21.67-.22,1.04.47,1.39-.13l-.02.21c.91-.09,1.83-.17,2.75-.4.87-.21,1.74-.41,2.61-.62,1.25-.93,2.95-.96,4.25-1.87l.03.11c1.73-1.01,3.83-1.3,5.65-2.32.81-.42,1.11-.96,1.64-1.63l.12.07c.24-.73.7-1.31,1.1-1.99.39-.66.7-1.48.44-2.27l.18.11c-.26-.24.05-.98-.43-.81l.1-.28c-.83-.85-.12-1.87-.85-2.97l.13.05c-.17-.29-.34-.65-.31-.91l.11.07c.17-1.12-.65-2.09-.94-3.14l.24.06c-.39-.43-.45-1.43-.77-2.05h.11s-.24-.28-.24-.28l.19-.07c-.26-.87-.69-1.62-1.02-2.44Z"/>
  <path class="cls-2" d="M402.61,506.94h0s0,0,0,0Z"/>
  <path class="cls-2" d="M388.25,505.73l.12.02-.12-.02Z"/>
  <polygon class="cls-2" points="410.49 464.34 410.52 464.4 410.57 464.22 410.49 464.34"/>
  <path class="cls-2" d="M410.91,463.91l-.03-.11-.22.52c.15.27.15-.58.25-.41Z"/>
  <path class="cls-2" d="M410.99,463.95c.12.11.14-.13.16-.21-.02.18-.2-.04-.16.21Z"/>
  <path class="cls-2" d="M420.46,463.86h-.03s.03,0,.03,0Z"/>
  <path class="cls-2" d="M422.97,463.08l.02-.19c-.46.34-.99,0-1.48.14l.03-.06c-1.24-.08-2.4.18-3.65.28l.05-.09-.2.16.04-.1c-.25-.32-.77.17-.93-.07-.07.03-.11.16-.07.26-.97.05-2.01.09-2.98.34-.05-.04-.06-.12-.04-.23-.83.51-1.69.34-2.54.33-.02.13.1.13.03.27.28.14.47-.35.73-.13l-.02.13c.18.07.02-.32.21-.17.08.1-.01.16.02.17.38-.06.77.03,1.13-.28.09.27.41,0,.56.26.1-.11.2-.08.23-.26,1.34.14,2.73-.08,4.13-.01.67-.51,1.43.15,2.22,0v.05c.26-.13.63-.18.93-.11l.26-.22c.46.12.92.18,1.38.21.23.01.47.02.7.02l.55-.02c.13-.04.18.1.3.18l.49.43c.14.16.26.32.39.49.14.16.24.33.29.52.4.82.24,1.52-.11,2.17-.36.66-.9,1.34-1.47,2.21l-.03-.1c-.39.42-.92.56-1.33.93l-.03-.05c-.94,1.07-2.5,1.27-3.52,2.18-1.5.55-3.26.97-4.96,1.21v-.1c-1.37.31-2.67-.29-4-.3-1.3-.41-2.95.04-4.19-.79-.31-.39-.82-.46-1.33-.56-.51-.1-1.02-.24-1.23-.68-.49-.8-1.15-1.3-1.47-1.83-.35-.52-.12-1.48.21-2.29.6-.54,1.07-1.17,1.64-1.73.57-.55,1.23-1.03,2.05-1.12.49-.68,1.56-.22,2.25-.54l-.07-.12c.37.29.46-.71.78-.18l-.02.03c.21.26.19-.76.35-.44v-.15c.17-.08.05.16.2.19.05-.03-.03-.27.1-.2.12.58.43-.2.54.47-.09.01.18.24,0,.41.07.06.35-.01.29-.29,0-.31.08-.58-.13-.79v.23c-.1-.21-.07-.1-.12-.27-.25,0-.34-.31-.54-.41v.02c-.08.29-.27.16-.38.14l-.06-.11c-.12-.24-.18.56-.2.11-.5.22-1.07.38-1.62.59-.02.19-.43.14-.19.4-.27-.3-.71-.21-.86-.13v-.07c-.48-.3-.14.56-.67.17.15.39-.55.14-.46.65l-.16-.2c-.47.26-1.05.48-1.44.75-.08.52-.86.5-.76,1.11-.27.11-.75.32-.85.75l-.02-.07c-.26.36-.59.84-.47,1.3-.49-.13-.51.14-.75.3.03.23-.04.51-.04.88-.01.36.09.8.31,1.06-.08.09,0,.21.06.31.07.1.13.19,0,.29.77.53,1.37.76,1.93,1.19.54.39,1.07.91,1.57,1.4h-.03c.23-.07.58-.34.82-.48l-.05.06c.24.04.32.41.56.44l-.08.08c.26-.05.33.42.67.26v.09s.18-.06.18-.06c-.04.1-.1.25-.17.19,1.93.78,4.11.57,6.13.69l-.08.1c.13-.05.27-.12.4-.18l-.04.1c.51.18,1.03-.13,1.52-.13v.21c.35-.31.64.33.76-.29v.21c1.01-.3,2.03-.5,3.05-.69.66-.75,1.71-.65,2.33-1.4l.04.1c.86-.81,2.1-.98,3.05-1.68.43-.24.63-.52,1.01-.83l.09.1c.17-.45.55-.64.94-.89.2-.11.38-.26.52-.44.15-.17.25-.38.22-.66l.13.15c-.18-.26.35-.44-.12-.6l.2-.08c-.24-.4-.05-.57.05-.84.11-.25.28-.6-.04-.9l.12.02c-.14-.17-.23-.35-.21-.51l.1.02c.07-.35-.09-.68-.33-.91-.27-.22-.56-.39-.76-.63l.2-.1c-.4-.04-.65-.56-1.07-.78l.06-.08-.25.08.05-.21c-.16,0-.33.02-.47.04l-.37.08c-.24.05-.49.11-.74.13Z"/>
  <path class="cls-2" d="M417.8,463.22h0s0,0,0,0Z"/>
  <path class="cls-2" d="M409.55,462.39l.07.03-.07-.03Z"/>
  <polygon class="cls-2" points="421.08 458.56 420 458.5 417.18 458.67 421.08 458.56"/>
  <path class="cls-2" d="M402.8,461.87c.48-.3.28-.11.78-.4,1.53-1.08,3.17-2.02,5.11-2.51.25-.05.5-.1.75-.14.25-.02.55-.06.76-.06l1.36-.06,2.72-.12c-1.21-.07-2.35-.07-3.43-.03-.27.01-.53.02-.79.03-.3.03-.63.04-.91.11-.58.11-1.1.27-1.58.47-1.93.79-3.36,1.82-4.77,2.72Z"/>
  <path class="cls-2" d="M400.27,464.11c-1.45,1.75-2.02,3.37-2.09,4.61-.06,1.24.22,2.01.45,2.5-.11-.18-.19-.46-.27-.81-.11-.34-.11-.76-.12-1.21.03-.89.28-1.88.68-2.68.36-.83.84-1.46,1.11-1.92.32-.43.45-.65.24-.49Z"/>
  <path class="cls-2" d="M257.95,463.88c-.14.36-.33.83-.47,1.19.25-.6.4-.98.47-1.19Z"/>
  <path class="cls-2" d="M344.32,450.4l.85-.58c-2.04.96-4.14,1.88-6.28,2.77-2.15.87-4.31,1.81-6.59,2.44-4.56,1.26-9.46,1.55-14.27.95-2.41-.3-4.79-.82-7.11-1.57-2.32-.73-4.53-1.77-6.71-2.85-2.18-1.08-4.34-2.23-6.62-3.1-2.28-.87-4.67-1.41-7.04-1.68.43.03.86.07,1.29.12-3.01-.45-6.02-.78-9.04-.78-3.02,0-6.05.44-8.89,1.45-2.84,1.02-5.41,2.64-7.72,4.5-.59.45-1.15.94-1.7,1.45-.56.49-1.1,1-1.62,1.52-1.08,1-2.07,2.15-2.9,3.37-1.69,2.44-2.94,5.14-3.89,7.93-.9,2.79-1.51,5.72-1.42,8.67.02,2.98,1.23,5.78,2.64,8.32,1.44,2.55,3.31,4.86,5.56,6.72,1.13.93,2.36,1.73,3.69,2.34.66.32,1.36.54,2.03.81.67.28,1.37.49,2.07.7,2.78.86,5.65,1.44,8.56,1.69,5.82.5,11.68-.2,17.38-1.52,11.43-2.69,22.23-7.62,33.74-11.17-.7.26-.94.35-1.67.62,2.19-.77,4.64-1.59,7.17-2.21.67-.11-.69.24-1.49.49,9.84-2.77,29.65-3.58,35.97-2.72,2.85.15,4.12.23,2.54-.06,7.24.71,14.63,2.11,21.49,5.3,3.4,1.61,6.74,3.53,9.53,6.23,1.39,1.35,2.59,2.89,3.65,4.5.53.81,1.03,1.63,1.52,2.47.27.47.43.93.61,1.38l.26.67.14.32.11.21c.06.11.18.16.29.19.07.03.33.02.64.28.04.05.05.04.11.14.07.11.08.27.07.26v.18s0,.29,0,.29l-.02.54c0,.35,0,.71.05,1.03.05.3.1.5.29.66.09.07.23.04.34.06l.52.05,1.11.13c.74.09,1.48.19,2.21.31,2.94.45,5.86,1.03,8.79,1.5,2.93.49,5.85.81,8.84.89,2.97.12,5.95.15,8.92.04,5.93-.2,11.86-1,17.45-2.81,2.78-.94,5.45-2.15,7.9-3.71,1.24-.75,2.38-1.66,3.48-2.57,1.07-.92,1.92-2.04,2.57-3.25.42-.75.6-1.23.71-1.45.11-.21.15-.16.12.08.61-1.86.64-3.89.16-5.8-.46-1.92-1.35-3.74-2.52-5.36-.3-.4-.62-.78-.93-1.18l-1.03-1.1c-.73-.72-1.48-1.43-2.24-2.12-1.53-1.38-3.13-2.67-4.8-3.88-3.34-2.41-6.98-4.42-10.8-6.04-3.79-1.67-7.82-2.7-11.94-3.27-2.06-.29-4.14-.46-6.23-.55-1.04-.04-2.09-.06-3.14-.06h-1.15s-.26.01-.26.01l-.1.02.05.12.11.24.04.12.12.42c.19.54.26,1.13.32,1.72.05,1.17-.11,2.4-.64,3.46-1.02,2.15-2.83,3.63-4.67,4.78-.93.58-1.89,1.09-2.87,1.53-.97.45-1.97.88-3.02,1.21-2.08.67-4.29,1-6.47.93-2.19-.07-4.34-.48-6.39-1.12-2.06-.64-4.11-1.56-5.78-3.1-.54-.45.08.26.58.67.24.23.45.37.4.37-.05,0-.36-.18-1.07-.75,2.22,2.02,4.91,2.91,7.4,3.52,2.53.6,5.13.79,7.63.46,2.5-.31,4.89-1.2,7.06-2.26,2.18-1.07,4.39-2.33,6.15-4.35-.24.41-.55.72-.83,1.09,1.4-1.34,1.92-2.4,2.16-3.02.24-.63.27-.84.28-1.08,0-.23.08-.46.13-1.15-.01-.35.09-.82-.02-1.44-.05-.31-.04-.68-.16-1.06-.08-.28-.16-.6-.26-.95-.1-.35,0-.2.07-.14l.08.07-.02-.07h.09s.64-.01.64-.01c.94,0,1.88,0,2.82.03,1.88.05,3.76.18,5.63.4,3.74.43,7.43,1.22,10.91,2.51,3.49,1.32,6.86,2.95,9.97,4.85,3.12,1.9,5.97,4.11,8.58,6.47.58.64,1.63,1.67,2.69,2.96,1.06,1.31,2.11,3.03,2.75,4.95.67,1.91.8,4.03.37,5.84-.4,1.82-1.35,3.27-2.23,4.19-1.1,1.38-2.67,2.54-3.97,3.45-.68.43-1.26.88-1.8,1.18-.54.31-.97.58-1.27.79-2.15,1.07-4.4,1.96-6.73,2.61-2.32.69-4.71,1.17-7.12,1.53-4.82.72-9.74.9-14.67.8-2.46-.07-4.95-.14-7.37-.39-2.44-.25-4.87-.67-7.32-1.11-2.45-.44-4.91-.91-7.42-1.25-.62-.09-1.25-.16-1.88-.24l-.68-.07c-.1,0-.15-.11-.18-.19l-.02-.06-.03-.16c-.02-.12-.03-.26-.04-.39-.01-.27,0-.56,0-.86l.02-.48v-.16s0-.11,0-.11v-.03s-.02-.12-.02-.12c-.02-.09-.06-.18-.1-.27-.21-.32-.38-.38-.55-.47-.15-.07-.3-.1-.34-.11l-.07-.02-.11-.08-.06-.13-.14-.33-.28-.72c-.1-.25-.2-.5-.31-.76-.11-.26-.29-.57-.41-.77-.53-.92-1.1-1.83-1.7-2.72-1.2-1.78-2.61-3.47-4.25-4.91-1.64-1.44-3.41-2.67-5.29-3.71-.94-.52-1.86-1.09-2.84-1.51-.98-.44-1.93-.95-2.94-1.3-7.98-3.2-16.58-4.36-25.08-4.7-4.26-.16-8.53-.09-12.79.14-2.13.12-4.26.28-6.38.48-2.12.21-4.25.41-6.38.78-8.5,1.4-16.58,4.36-24.58,7.23-5.92,2.27-12.14,4.64-18.79,6.32-6.62,1.68-13.76,2.61-20.89,1.59-3.55-.5-7.07-1.51-10.39-2.98-3.24-1.5-5.89-4.17-7.92-7.19-1.01-1.52-1.86-3.15-2.53-4.85-.16-.43-.32-.86-.45-1.29-.1-.43-.24-.85-.32-1.29-.06-.44-.14-.88-.18-1.33l-.06-1.35c.03-3.64,1.02-7.29,2.45-10.68.1-.18.1-.14.04.05.94-2.2,2.21-4.62,4.03-6.76,1.91-2.08,4.17-4.2,6.69-5.95,2.51-1.79,5.41-3.07,8.42-3.72,3.01-.63,6.09-.64,8.98-.43,3.27.2,6.58.44,9.72,1.36,4.16,1.32,7.89,3.78,12,5.49,4.11,1.75,8.54,2.74,13.01,2.98,4.47.24,9.01-.27,13.3-1.66,4.23-1.5,8.32-3.21,12.4-5.03,4.06-1.86,8.06-3.87,11.85-6.29,1.89-1.21,3.74-2.51,5.45-4.01,1.67-1.47,3.39-2.96,4.81-4.8,1.42-1.83,2.4-3.96,3.1-6.1l.55-1.6.46-1.63c.33-1.08.55-2.19.81-3.29.95-4.41,1.33-8.93,1.33-13.44,0-4.51-.46-9.02-1.3-13.45-.88-4.42-1.99-8.81-3.88-12.97-1.89-4.14-4.46-7.87-6.81-11.66-2.31-3.82-4.65-7.69-7.28-11.34-2.62-3.67-5.5-7.17-8.71-10.35-3.21-3.15-6.52-6.2-9.94-9.11-6.86-5.81-14.1-11.15-21.53-16.17-6.67-4.52-13.43-8.72-20.13-12.85-3.36-2.05-6.7-4.09-10.02-6.12-3.37-1.99-6.8-3.84-10.27-5.56-3.47-1.72-6.99-3.31-10.54-4.78-1.78-.72-3.57-1.43-5.37-2.08-.91-.33-1.79-.64-2.74-.95-.95-.29-1.91-.51-2.87-.68-1.92-.34-3.81-.5-5.62-.85-1.84-.36-3.68-.75-5.49-1.22-3.61-.93-7.09-2.24-10.19-4.18l-.24,1.52c.88-.22,1.75-.43,2.63-.64.28-.22.55-.44.82-.66l1.22-.98-1.49-.47c-2.44-.78-4.86-1.55-7.28-2.32l-.45,1.64c2,.45,4.27.55,6.31-.46,1-.5,1.88-1.29,2.49-2.22.62-.93.99-1.95,1.23-2.98.41-2,.72-3.91.63-6.06-.02-.27-.06-.56-.12-.86-.04-.16-.11-.34-.17-.5-.11-.19-.25-.44-.39-.56-.27-.27-.74-.58-1.34-.52-.59.06-1,.43-1.22.75-.4.64-.52,1.23-.59,1.76-.08.55-.09,1.05-.11,1.55-.03.99-.03,1.94-.16,2.81-.12.87-.42,1.62-.94,2.05-.5.44-1.32.62-2.15.6-.83,0-1.69-.24-2.49-.6-1.62-.7-3.06-1.93-4.12-3.37-.54-.72-.94-1.53-1.26-2.35-.29-.83-.42-1.7-.41-2.55v-.89s-.85,0-.85,0h-.8s-.79,0-.79,0l-.06.79c-.04.58-.08,1.16-.12,1.74l1.32-.64c-.85-.53-1.05-1.9-.94-3.27l.2-2.35-1.61,1.68c-.57.59-1.17,1.19-1.57,2.04-.42.82-.52,1.98-.15,2.86.34.89.88,1.54,1.36,2.15.49.6.97,1.16,1.33,1.73.73,1.14,1.12,2.59,1.65,4.06.52,1.46,1.23,3.03,2.48,4.23.61.61,1.41,1.08,2.2,1.37.79.29,1.53.46,2.16.72,1.24.53,2.46,1.49,3.69,2.4,1.24.92,2.56,1.85,4.06,2.5,1.45.64,2.95,1.14,4.46,1.56,3.04.83,6.13,1.28,9.16,1.85,1.52.29,3.02.61,4.49,1.02,1.46.42,2.93.97,4.4,1.47,5.84,2.13,11.56,4.76,17.18,7.67-.12,0,.44.31-1.38-.61,10.15,5.22,19.36,11.11,28.42,16.89,9.06,5.79,17.97,11.52,26.38,18.19h-.09c2.62,2.05,5.12,4.25,7.62,6.52,2.5,2.26,4.97,4.56,7.39,6.94,2.41,2.38,4.76,4.84,6.99,7.41,1.1,1.3,2.19,2.6,3.2,3.97.52.67,1,1.38,1.49,2.07.47.69.88,1.43,1.27,2.18.78,1.5,1.5,3.1,2.44,4.57.9,1.47,1.83,2.92,2.76,4.38,1.85,2.9,3.65,5.83,4.99,8.98,1.36,3.13,2.14,6.49,2.82,9.86.67,3.37,1.08,6.79,1.31,10.21.45,6.82.06,13.78-2.02,20.23-1.04,3.21-2.68,6.24-5,8.63-2.34,2.41-5.02,4.49-7.85,6.27-2.83,1.79-5.84,3.27-8.87,4.68-3.03,1.39-6.05,2.8-9.07,4.13-3.02,1.32-6.09,2.48-9.26,3.21-1.58.35-3.18.59-4.79.74-1.61.11-3.22.16-4.82.07-1.94-.13-3.89-.4-5.78-.95-1.89-.54-3.74-1.24-5.55-2.04-3.63-1.6-7.16-3.54-10.98-4.92-1.91-.68-3.87-1.25-5.89-1.57-2.01-.3-4.04-.58-6.08-.7-4.08-.31-8.29-.01-12.23,1.37-1.96.71-3.82,1.68-5.57,2.81-1.76,1.13-3.35,2.48-4.92,3.86-1.52,1.43-3.02,2.91-4.26,4.62-1.24,1.7-2.29,3.53-3.19,5.44-1.75,3.82-2.87,8-2.91,12.25-.04,1.06.07,2.12.15,3.18.18,1.05.34,2.1.66,3.12.61,2.05,1.56,3.97,2.61,5.81,1.06,1.84,2.27,3.62,3.73,5.18,1.45,1.57,3.17,2.89,5.06,3.89,3.8,2.02,8.07,2.8,12.26,3.43,4.21.6,8.51.78,12.75.27,4.24-.49,8.37-1.6,12.41-2.86,8.13-2.46,16.04-5.46,24.05-8.03,8-2.56,16.17-4.59,24.44-5.34l-.14.12c6.6-.66,13.23-.7,19.8-.27,6.56.47,13.1,1.52,19.28,3.68,3.07,1.11,6.07,2.47,8.78,4.28,2.71,1.8,5.17,4,7.07,6.65.98,1.3,1.76,2.73,2.45,4.19.29.72.66,1.52.85,2.15.04.16.09.36-.02.5-.12.14-.32.14-.49.15l-1.12-.04c-3.22-.15-6.5-.4-9.76-.49-3.26-.08-6.55-.04-9.8.52-1.62.31-3.23.77-4.7,1.56-1.47.81-2.7,1.97-3.78,3.21-2.14,2.53-3.65,5.56-4.51,8.75-.43,1.6-.67,3.26-.63,4.93.03,1.66.33,3.36,1.1,4.88.73,1.53,1.97,2.82,3.45,3.65,1.48.86,3.16,1.23,4.78,1.51,1.63.28,3.27.44,4.88.69,1.63.18,3.11.76,4.74,1.21.8.21,1.67.38,2.53.34.85,0,1.68-.12,2.51-.25,1.65-.28,3.26-.71,4.84-1.2,1.59-.49,3.15-1.05,4.69-1.66,1.54-.63,3.09-1.19,4.56-2.08,1.49-.91,2.78-2.19,3.65-3.73.86-1.55,1.27-3.35,1.19-5.11-.01-.22-.02-.44-.04-.67-.03-.25-.09-.46-.14-.68-.11-.43-.24-.84-.38-1.25-.27-.82-.56-1.63-.86-2.44-.6-1.61-1.19-3.23-1.79-4.84l-.43-1.21-.17-.51-.13-.43c-.04-.15-.08-.29-.1-.44v-.22s.24.04.24.04l.89.17c1.59.31,3.38.64,5.06.92,3.42.58,6.87,1.06,10.35,1.4,6.94.68,13.99.76,20.97-.11,3.48-.43,6.95-1.08,10.32-2.13,3.36-1.04,6.61-2.52,9.51-4.52,1.45-1,2.82-2.12,4.06-3.38,1.23-1.27,2.27-2.73,2.97-4.36,1.34-3.28,1.38-7,.39-10.36-.94-3.39-2.8-6.5-5.24-9-2.5-2.45-5.17-4.72-8.02-6.75-5.73-3.99-12.15-6.97-18.9-8.61-3.37-.83-6.8-1.37-10.24-1.67-1.72-.11-3.44-.22-5.17-.22-.86-.03-1.72,0-2.58.02l-1.29.03h-.32c-.1,0-.22.04-.29-.06l-.48-.42c-3.16-2.84-6.63-5.62-10.53-7.97-3.93-2.31-8.16-4.27-12.44-6.29-4.3-1.99-8.63-4.06-12.96-6.23-2.18-1-4.61-1.74-6.24-3.57-.81-.9-1.28-2.07-1.41-3.28-.16-1.21.04-2.45.6-3.53,1.09-2.18,2.93-3.88,4.84-5.35,1.94-1.43,4.02-2.7,6.29-3.52,2.29-.74,4.66-1.07,7-1.35,2.34-.26,4.67-.43,6.97-.55,4.62-.23,9.12.05,13.46.28,4.34.24,8.53.41,12.51.19,1.85-.13,3.72-.3,5.5-.84,1.78-.54,3.48-1.36,5-2.44,1.52-1.07,2.92-2.33,4.06-3.81,1.13-1.48,2.04-3.14,2.62-4.93.57-1.79.69-3.71.47-5.57l-.24-1.39-.43-1.34c-.13-.46-.31-.88-.51-1.31-.19-.42-.36-.86-.58-1.27-1.63-3.35-3.88-6.36-6.41-9.06-2.52-2.71-5.3-5.15-7.97-7.65l-1.99-1.89-.97-.96c-.1-.09-.2-.3-.33-.51l-.36-.6c-.99-1.57-2.12-3.04-3.27-4.48-2.31-2.86-4.75-5.61-6.6-8.72-.93-1.55-1.66-3.21-2.14-4.93-.49-1.72-.68-3.53-.73-5.34-.06-3.6.33-7.32,1.9-10.54.76-1.63,2.03-2.88,3.47-4,1.42-1.14,2.91-2.2,4.41-3.24,1.51-1.03,3.04-2.03,4.62-2.93.79-.45,1.59-.89,2.42-1.22l2.54-1.05c3.39-1.41,6.78-2.81,10.18-4.22,3.36-1.43,6.88-2.66,9.96-4.74,1.52-1.04,2.95-2.31,3.88-3.93.26-.39.42-.83.58-1.27.2-.42.24-.9.34-1.35.15-.91.19-1.84.24-2.76.14-3.69-.25-7.38.07-11.07.04-.46.09-.92.19-1.37.1-.45.22-.92.55-1.27.32-.37.85-.42,1.3-.42.47,0,.93.05,1.39.06.92.02,1.85-.01,2.72-.32.87-.29,1.7-.72,2.63-.91l-.06.13c-.17-.28-.35-.57-.53-.86l-.09-.14h.17c1.2-.03,2.37.25,3.53.43,1.16.17,2.35.24,3.46-.2.56-.2,1.18-.33,1.77-.4.59-.09,1.22-.11,1.69-.33.5-.22.57-.82.54-1.39-.03-.58-.15-1.16-.27-1.74l.32.12c-.25.19-.51.39-.77.58l-.25.19-.08-.3c-.17-.64-.34-1.3-.51-1.95l-.16-.64.41.04c-.11.21-.09.48-.1.81,0,.16-.02.37-.16.56-.14.18-.34.26-.51.3l.16-.24.22,1.32.04.26-.26-.02-2.67-.17c-.5-.04-1.04-.05-1.47-.12l-.68-.08h-.08s.02-.09.02-.09l.06-.17c.04-.11.08-.23.14-.33.35-.87,1.23-1.53,2.08-1.9.8-.38,1.63-.67,2.29-1.19.68-.5,1.11-1.27,1.37-2.07.24-.82.31-1.68.28-2.54-.04-.85-.2-1.76-.38-2.47-.06-.18-.1-.37-.16-.54l-.1-.25c-.09-.02-.18-.05-.28-.05-.39-.04-.73.24-.91.56-.36.62-.57,1.51-.97,2.32-.19.4-.46.81-.78,1.11l-.94.92c-.63.61-1.26,1.21-1.91,1.8-.16.15-.32.3-.53.44-.23.09-.46.17-.69.19-.46.06-.91,0-1.35-.08-1.74-.4-3.34-1.26-4.69-2.4-.34-.29-.64-.62-.92-.98-.27-.38-.43-.82-.53-1.25-.12-.45-.19-.83-.32-1.17-.12-.34-.35-.72-.74-.78-.21-.04-.45-.03-.64.09-.19.12-.3.33-.36.53-.12.44-.11.84-.07,1.34.2.82.5,1.71.77,2.55l.43,1.27.11.27s.1.04.2.06c.22.05.51.11.68.3.74.69,1.47,1.34,2.28,1.88.79.51,1.68,1.02,3.28,1.18.21.13.45.19.69.24.13.02.25.05.38.06l.19.02h.1s.04.05.04.05c-.4.55-.92.93-1.52,1.11-.59.21-1.3.34-2.02.42l-1.97.2c-1.25.13-2.44.37-3.57.93-.57.25-1.15.51-1.67.81-.5.31-.93.74-1.23,1.25-.62,1.03-.78,2.28-.93,3.52-.16,1.24-.23,2.48-.25,3.73-.03,2.5.14,5,.08,7.52-.02.63-.05,1.26-.11,1.89-.03.61-.19,1.33-.51,1.9-.63,1.17-1.58,2.06-2.55,2.87-1.96,1.62-4.24,2.78-6.52,3.81-4.56,2.09-9.28,3.74-13.94,5.47-1.15.44-2.35.86-3.46,1.33-1.1.52-2.17,1.14-3.22,1.79-2.1,1.31-4.12,2.74-6.1,4.22-1.98,1.49-3.94,2.99-5.25,5.05-1.35,2.02-2.18,4.37-2.68,6.75-.96,4.79-.68,9.82.72,14.49,1.27,4.76,4.49,8.62,7.29,12.6,2.12,2.74,4.31,5.5,6.69,8.13,2.35,2.65,5.17,4.9,7.86,7.35,2.72,2.42,5.12,5.29,6.96,8.51.92,1.6,1.82,3.26,2.31,5.07.24.9.36,1.85.28,2.79-.08.94-.36,1.85-.74,2.7-1.67,3.32-4.41,6.3-7.96,7.63-1.76.67-3.65.98-5.54,1.12-1.89.16-3.8.19-5.71.18-7.64-.08-15.36-.73-23.1-.29l1.11.08c-5.53.03-11.84.89-17,3.35-5.19,2.39-8.72,6.5-10.01,9.76.11-.38.26-.75.39-1.12-1.35,2.68-1.41,6.51.08,9.29,1.39,2.91,4.17,4.04,5.56,5.12.3.11.59.23.89.33,3.15,1.61,3.37,1.65,3.34,1.73,0,.03-.06.04.19.18.26.14.83.43,2.09.97,1.92.77.82.05,4.79,1.75.16.23,1.25.74,2.79,1.44,1.54.69,3.47,1.66,5.39,2.64,3.84,1.95,7.51,4.08,7.55,4.5-3.35-1.95,5.11,3.29-2.48-.96,1.06.63,4.17,2.43,6.81,4.11.17.11.33.21.49.31l.24.15.08.05.1.08c.3.23.59.45.86.66.55.41,1.05.79,1.45,1.09.81.59,1.27.89,1.11.67.99.4,4.79,3.09-.72-1.61l-1.28-.73c-.45-.42-.76-.72-.98-.93-.25-.19-.39-.3-.5-.38-.21-.16-.27-.22-.59-.52-4-2.56-6.32-3.92-8.33-5.15-2.02-1.22-3.75-2.26-6.79-3.84.06.04.12.07.02.03-4.36-1.83-10.35-4.06-13.56-5.75-.42-.25-.83-.5-1.23-.76-.45-.31-1.27-.75-2.17-1.27-.9-.51-1.9-1.13-2.59-1.69-.69-.61-1.19-1.25-1.38-1.59-.21-.34-.17-.35.26.16-1.2-1.82-1.63-4.19-1.37-6.48.13-1.15.44-2.29.92-3.36.24-.53.54-1.04.86-1.53.37-.48.71-.99,1.12-1.44,1.59-1.86,3.6-3.38,5.84-4.54,2.24-1.17,4.71-1.95,7.25-2.53,5.09-1.12,10.45-1.35,15.81-1.34,5.37.01,10.77.33,16.17.36,1.51-.08,5.66-.06,8.87-.66,1.6-.29,2.92-.78,3.53-1.08.6-.32.55-.3-.61.07,2.69-.68,7.7-4.09,9.34-9.89.32-1.48.15-3.04-.26-4.39-.41-1.36-1.01-2.56-1.6-3.65-1.19-2.16-2.41-3.96-3.36-5.16.16.16.38.33.91,1.12-1.63-2.49-3.31-4.21-4.8-5.58-1.5-1.36-2.82-2.41-4.08-3.47-1.26-1.07-2.5-2.11-3.75-3.47-1.26-1.37-2.61-3.04-4.17-5.23-.68-.52-3.69-4.38-6.75-8.86-3.21-4.28-4.41-10.1-4.84-13.04-.03-1.3.05-1.74.14-1.27-.1-2.35.06-4.74.56-7.07.5-2.32,1.36-4.58,2.68-6.51.36-.45.71-.93,1.08-1.37l1.25-1.2c.94-.78,1.92-1.53,2.91-2.27,1.98-1.47,4.02-2.87,6.08-4.13,1.03-.62,2.08-1.22,3.1-1.65,1.06-.43,2.24-.85,3.35-1.26,2.26-.83,4.49-1.64,6.67-2.44,2.18-.82,4.31-1.66,6.35-2.56,1.02-.45,2.02-.91,2.99-1.4.99-.48,1.95-1.05,2.85-1.64,1.25-.9,2.54-1.89,3.65-3.31.54-.71,1.06-1.56,1.23-2.68.1-.87.15-1.72.17-2.58.08-3.42-.25-6.87.09-10.18.2-1.69.34-3.43,1.13-4.41.19-.25.42-.47.69-.65.19-.13.63-.34.98-.5.75-.33,1.51-.7,2.17-.85.72-.18,1.49-.28,2.29-.35.52-.05,1.03-.1,1.55-.15.75-.09,1.49-.22,2.07-.41,1.18-.42,1.55-.87,2.14-1.64l.23-.29.11-.15v-.02s0-.12,0-.12c.02-.07.02-.1.09-.25l.08-.18.16-.28c-.5-.03-.99-.06-1.48-.08l-.69-.04-.34-.02-.25-.04c-.31-.05-.65-.09-.93-.16l-.73-.23c-.56-.22-.61-.27-.84-.39-.2-.1-.39-.22-.58-.34-.77-.51-1.42-1.06-2.17-1.7-.24-.23-.61-.35-.89-.4l-.13-.03h-.04s-.01-.01-.01-.01h0s0,0,0,0l-.02.07c-.14.39-.2.51-.27.58h-.01s0,.01,0,.01l-.04.03h.02s.06-.06.06-.06l.26-.18c.09-.06.18-.11.28-.15.1-.05.04,0,.06,0h0c-.05-.15-.11-.31-.17-.47-.11-.35-.23-.71-.35-1.08-.11-.37-.23-.76-.36-1.17-.06-.2-.12-.41-.18-.62l-.09-.31c-.03-.11-.05-.2-.05-.21l-.02-.26v-.09s.03-.17.03-.17c.02-.12.15-.21.28-.16.13.04.18.19.2.31.06.24.11.48.17.72.09.32.19.7.4,1.07.85,1.42,2,2.15,3.21,2.9,1.25.67,2.54,1.3,4.27,1.36.46-.01.88-.03,1.5-.34.13-.08.25-.19.35-.26l.21-.18.39-.36c.51-.48,1.02-.96,1.53-1.44l.76-.74c.24-.25.52-.47.83-.91.53-.77.75-1.51,1-2.15l.09-.25.03-.06.09-.09c.11-.05.12.08.15.16.02.09.08.34.13.68.05.32.09.64.1.95.04.63.02,1.26-.09,1.84-.11.58-.3,1.12-.59,1.56-.28.45-.66.76-1.18,1.06.33-.21.61-.43.82-.68-.43.47-1.12.79-1.96,1.16-.21.1-.43.19-.66.31-.08.03-.32.17-.48.27-.18.11-.36.21-.51.34-.64.49-1.07,1.08-1.3,1.67-.14.52-.85,1.5.05,1.46l.83.28,1.28.08c1.07.06,2.15.13,3.24.19l1.26.07-.22-1.23c-.08-.44-.16-.87-.23-1.31l-.74,1.13c.25-.07.64-.19.95-.6.3-.42.3-.8.31-1-.02-.43.04-.51-.02-.52l-1.81-.17c.22.87.44,1.74.66,2.59l.36,1.41,1.16-.87c.26-.2.52-.39.77-.58l-1.53-.58c.11.57.23,1.16.25,1.66,0,.57-.03.56-.16.64-.22.1-.94.16-1.54.25-.6.07-1.39.26-1.91.46-.96.36-1.96.27-3.07.1-1.09-.17-2.29-.45-3.55-.42l-1.54.04.8,1.3c.18.29.36.58.53.85l.58-1.3c-1.46.33-2.51,1-3.49,1.16-.49.07-1.06.11-1.6.1-.55,0-1.09-.06-1.75-.04-.32,0-.74.09-1.13.3-.37.24-.67.59-.8.91-.3.64-.38,1.19-.45,1.72-.13,1.06-.15,2.02-.16,2.92-.33,2.36-.26,5.27-.39,8.33-.09,1.51-.16,3.19-.66,4.45-.51,1.33-1.52,2.51-2.76,3.47-1.82,1.62-4.71,3.08-8.13,4.46-3.44,1.43-7.27,3.01-11.26,4.67-.99.41-2,.83-3.01,1.24-.96.4-2.14.85-3.13,1.41-2,1.09-3.88,2.32-5.72,3.59-1.83,1.28-3.61,2.57-5.28,4.03-.85.71-1.64,1.66-2.2,2.61-.6.96-.99,1.97-1.33,2.97-.25.59-.62,1.73-.87,3.13-.25,1.4-.39,3.06-.41,4.66-.02,1.6.09,3.14.23,4.34.18,1.21.31,2.08.32,2.31.37,1.45.98,2.82,1.65,4.15.71,1.3,1.49,2.58,2.38,3.76,1.74,2.4,3.72,4.58,5.57,6.86.92,1.14,1.81,2.3,2.63,3.51.21.3.39.62.58.92l.33.54c.23.29.35.36.48.5.54.53,1.09,1.06,1.65,1.57,2.22,2.08,4.53,4.08,6.73,6.19,2.21,2.11,4.3,4.35,6.09,6.83.86,1.26,1.71,2.54,2.39,3.92.38.67.66,1.39.98,2.08.27.71.51,1.41.71,2.14.67,2.91.28,6.07-1.19,8.74-1.38,2.72-3.66,4.95-6.25,6.61-1.33.77-2.72,1.46-4.2,1.86-1.46.39-3.03.6-4.61.71-3.15.26-6.33.2-9.52.08-6.36-.27-12.8-.84-19.2-.36-3.19.2-6.36.46-9.53,1.08-.79.17-1.59.36-2.38.62-.79.28-1.55.6-2.27.97-1.45.72-2.82,1.56-4.12,2.51-1.3.95-2.53,2.01-3.61,3.25-1.05,1.25-2.06,2.69-2.34,4.53-.06.46-.11.92-.07,1.34l.03.64.11.65c.15.86.47,1.73.97,2.49.98,1.55,2.5,2.5,3.89,3.21-.22-.1-.45-.22-.67-.33,1.5.77,3.06,1.27,4.51,1.91,1.46.66,3.03,1.41,4.57,2.07,3.11,1.32,6.23,2.65,9.16,3.9.55.29.46.31-.74-.26,3.97,1.85,7.81,3.72,11.43,5.85,3.6,2.18,6.94,4.76,10.27,7.58-.09,0-.09-.01-1.2-.88.39.32.79.65,1.19.98.44.38.89.77,1.34,1.15l.12.1h.15s.31,0,.31,0l.5-.02.78-.02c.52-.01,1.05-.03,1.58-.04,1.06,0,2.12.04,3.2.06,1.07.07,2.16.14,3.25.21,4.37.39,8.87,1.22,13.49,2.54l.49.24c.98.27,1.93.62,2.89.96.97.32,1.9.72,2.83,1.12-.09.02-.2.04-.67-.11-.23-.08-.55-.2-.99-.38-.45-.17-1.03-.39-1.79-.68,4.34,1.63,8.47,3.82,12.28,6.49.95.67,1.86,1.39,2.8,2.09l2.67,2.26c.84.8,1.72,1.6,2.54,2.41.78.81,1.52,1.68,2.15,2.62,2.56,3.72,3.98,8.38,3.27,12.81-.38,2.2-1.33,4.27-2.77,5.97-1.45,1.7-3.3,3.21-5.21,4.49-3.88,2.55-8.36,4.15-12.96,5.13-4.62.96-9.37,1.44-14.12,1.56-4.76.12-9.53-.15-14.28-.67-2.38-.28-4.75-.59-7.12-.97l-3.55-.6-1.77-.32-2.25-.43c-.28-.08-.39,0-.57,0l-.5.07c-.21-.04-.24.23-.27.36-.03.16-.09.3-.07.51,0,.39.16.89.3,1.34l.35,1.04c.41,1.15.83,2.28,1.26,3.41l1.26,3.38c.2.56.4,1.13.58,1.69.17.56.37,1.14.4,1.59.2,2.25-.43,4.53-1.87,6.27-.71.87-1.58,1.61-2.55,2.2-.96.58-2.08,1.01-3.19,1.48-2.22.91-4.47,1.73-6.77,2.39-1.15.33-2.3.61-3.46.82-1.15.2-2.34.34-3.43.24-1.1-.13-2.23-.52-3.4-.87-.59-.17-1.19-.35-1.83-.46-.61-.11-1.21-.2-1.82-.28-2.4-.34-4.83-.52-7.02-1.26-2.17-.72-3.98-2.3-4.84-4.42-.89-2.1-.95-4.52-.6-6.83.77-4.61,3.05-9.13,6.57-12.19,1.76-1.52,4.01-2.28,6.34-2.68,2.34-.41,4.74-.52,7.14-.53,2.4,0,4.81.1,7.22.23l3.63.2.91.05,1.12.02c.37,0,.78.05,1.12-.13.16-.08.33-.21.4-.4.07-.18.08-.37.07-.56.04.29,0,.62-.24.84-.23.19-.53.29-.83.3l-1.77.03c.31.01.78,0,1.16,0,.39-.01.82.05,1.19-.13.9-.36.49-1.55.19-2.22-.27-.62-.53-1.26-.81-1.85l-.91-1.69c-1.3-2.21-2.94-4.2-4.83-5.92.11,0,.63.51,1.17,1.02-3.35-3.58-7.69-6.16-12.24-7.95-4.57-1.8-9.38-2.89-14.2-3.58-4.83-.69-9.68-.95-14.48-.98-4.8-.02-9.55.17-14.21.7.08-.06,2.89-.45.27-.24-6.89.89-12.33,2.15-16.89,3.32-4.55,1.21-8.19,2.4-11.37,3.79-.62.18-1.08.19.24-.3-4.55,1.56-9.07,3.19-13.64,4.71-2.29.76-4.58,1.49-6.89,2.18-2.31.7-4.62,1.33-6.98,1.79-4.7.96-9.53,1.15-14.32.61-4.76-.59-9.64-1.34-13.88-3.5-4.3-2.12-7.31-6.08-9.49-10.34-1.14-2.14-1.97-4.34-2.3-6.7-.35-2.34-.3-4.75.06-7.1.71-4.72,2.58-9.27,5.29-13.16,1.35-1.97,3.01-3.65,4.79-5.27,1.77-1.61,3.68-3.05,5.71-4.26,3.32-2.13,7.25-3.29,11.31-3.58,4.06-.24,8.25.18,12.35.93,4.08.85,7.94,2.64,11.78,4.49,3.84,1.82,7.82,3.69,12.15,4.36,4.31.63,8.72.47,12.96-.49,4.25-.96,8.24-2.71,12.14-4.48,3.89-1.8,7.82-3.5,11.58-5.53,3.76-2.02,7.26-4.48,10.28-7.39l-.05.19.74-.71c.24-.25.45-.51.68-.77.44-.53.94-1.01,1.32-1.58l1.13-1.72c.38-.57.63-1.22.95-1.82l.46-.92c.14-.31.24-.64.37-.96.23-.64.49-1.28.71-1.93.34-1.33.78-2.64,1-4,1.09-5.4,1.2-10.98.8-16.52-.19-2.77-.54-5.54-1.02-8.28-.46-2.75-1.11-5.48-1.9-8.16-1.64-5.4-4.83-10.14-7.82-14.87-.74-1.2-1.51-2.38-2.15-3.62-.65-1.24-1.23-2.53-1.92-3.77-1.45-2.44-3.21-4.66-5.02-6.83-3.64-4.33-7.65-8.33-11.75-12.21-4.12-3.86-8.27-7.71-12.77-11.13-4.46-3.46-9.1-6.66-13.78-9.76-3.88-2.58-7.5-4.88-10.96-7.07-3.46-2.19-6.76-4.28-10.1-6.32-6.68-4.07-13.43-8.06-21.84-12.19l-.36-.33c-4.92-2.28-10.02-4.41-15.34-6.13-5.35-1.68-11.09-1.93-16.46-3.85-1.33-.49-2.66-1.02-3.86-1.77-1.21-.75-2.31-1.65-3.47-2.5-.58-.43-1.17-.84-1.8-1.2-.63-.38-1.34-.62-2.02-.83-.68-.21-1.35-.43-1.94-.81-.59-.36-1.08-.87-1.51-1.42-.85-1.12-1.34-2.47-1.79-3.83-.46-1.35-.88-2.79-1.76-4.01-.83-1.2-1.97-2.2-2.36-3.48-.4-1.29.52-2.54,1.52-3.48l-.51-.24c-.06.76-.06,1.54.12,2.31.17.77.6,1.55,1.31,2.01l.45.3.04-.53.13-1.74-.31.29h.8s-.31-.33-.31-.33c-.02,1.07.17,2.12.52,3.11.37.99.91,1.89,1.53,2.73.65.82,1.39,1.56,2.2,2.2.83.62,1.74,1.14,2.71,1.52.98.35,2.03.54,3.09.45,1.03-.07,2.14-.52,2.76-1.43.63-.89.78-1.96.85-2.96.07-1.01.02-2.02.07-3.01,0,.75.08,1.5.11,2.27,0-.65-.04-1.44,0-2.31.02-.44.08-.89.21-1.32.12-.43.42-.86.79-.78.4.08.63.54.69,1.05.07.51.07,1.05.06,1.58-.05,1.07-.18,2.14-.35,3.14-.16,1.01-.36,1.94-.66,2.73-.31.78-.7,1.41-1.05,1.88-.74.9-1.24,1.19-.75,1.03-1.62,1.17-3.71,1.29-5.58.97-.35-.03-.69-.1-1.02-.16l-.02.09c2.49.74,4.93,1.46,7.33,2.17l.19.06-.15.13c-.23.19-.46.38-.69.57-.83.21-1.65.42-2.46.63l.04-.25c3.69,2.28,7.79,3.64,11.97,4.64,2.1.49,4.22.97,6.39,1.26,2.17.3,4.39.6,6.53,1.36,8.51,3.03,17.34,6.98,27.11,12.36l-1.62-.79c3.2,1.73,6.56,3.81,9.74,5.7,3.17,1.91,6.13,3.74,8.39,5.21-.72-.43-.41-.19-1.9-1.08,9.58,6.18,19.73,12.67,29.47,20,4.87,3.66,9.63,7.54,14.15,11.66,1.15,1.01,2.23,2.09,3.34,3.13,1.11,1.04,2.18,2.12,3.22,3.23,2.07,2.23,3.98,4.58,5.76,7-.59-.69-1.2-1.37-1.81-2.04,1.83,2.25,3.89,5.09,5.98,8.35,1.05,1.63,2.1,3.36,3.18,5.15,1.08,1.79,2.26,3.59,3.4,5.43,2.31,3.67,4.45,7.61,5.67,11.76,1.3,4.12,2.18,8.23,2.71,12.01l-.24-.9c.43,2.53.72,5.09.86,7.66l-.2.21c.2,4.95-.14,9.84-1.03,14.59-.45,2.37-1.03,4.71-1.8,6.98-.71,2.29-1.66,4.49-3.1,6.38-1.43,1.88-3.25,3.46-5.05,5.03-1.81,1.55-3.77,2.92-5.79,4.19-4.07,2.53-8.39,4.66-12.82,6.63Z"/>
  <path class="cls-2" d="M334.33,481.82l-.21.05c-.57.17-.29.09.21-.05Z"/>
  <path class="cls-2" d="M399.38,445.78c.84.38,1.54.72,2.23,1.07-.15-.13-1.51-.76-2.23-1.07Z"/>
</svg>