<?xml version="1.0" encoding="UTF-8"?>
<svg id="Layer_11" data-name="Layer 11" xmlns="http://www.w3.org/2000/svg" viewBox="0 0 500 460">
  <defs>
    <style>
      .cls-1 {
        fill: #898680;
      }

      .cls-2 {
        fill: #999;
      }
    </style>
  </defs>
  <path d="M342.44,292.85v9.54l-.73.26.02,3.46h-.92l-.02,1.89-.65.03-.05,1.4-.69.15.02,2.02h-.93l.02,2.02-.68.15-.06,1.41-.64.02-.02,1.77-.68.15-.06,1.4-.64.03-.05,1.4-.65.03-.07,1.39c-1.02-.16-.29.93-1.31.76l-.04,1.42-.9.02-.07.64-.62.07-.07,1.16-.61.07-.07.63-.91.03-.02,1.43-.65.02-.05,1.41-.64.02-.06,1.41-.64.02-.02,1.43h-.93c.23,1.64-.11,1.11-.6,1.52-.7.6-.57.84-.59,1.8l-.61.07-.07.64-.87.07c.06.89-1.5,1.18-1.44,2.08l-.87.07c-.21,1.14-1.91,1.67-2.12,2.8l-.88.07c.17,1.09-1.95,1.63-2.3,1.93-.05.04-.42,1.14-.56,1.31-.07.08-1.2.77-1.27.84-.11.11-.02.44-.07.62l-1.57.07c.16,1.07-.9.3-.74,1.36l-1.58.07c.16,1.07-.9.3-.74,1.36l-1.59.07-.02.66-1.36.06-.02.66h-1.94s-.15.71-.15.71l-1.59.06-.14.7c-.56.06-1.27-.14-1.8,0-.19.04-.07.43-.49.49-.56.07-1.27-.08-1.86-.04l-.25.75-7.61-.03-.25.75h-2.98l-.25-.75h-5.75l-.25.75h-55.93l-.25-.75-4.14.03-.25-.75c-.74-.08-1.81.18-2.48.02-.19-.05-.07-.43-.49-.49-.83-.11-1.91.11-2.78.03l-.25-.75-2.75.03-.14-.71h-2.63s-.25-.76-.25-.76l-2.75.03-.25-.75-2.75.03-.25-.75-4.14.03-.25-.75-3.45.03-.25-.75-3.68.03-.25-.75-3.21.03-.25-.75h-2.87s-.14-.71-.14-.71l-3.21.03-.25-.75-2.75.03-.25-.75c-.59-.05-1.29.11-1.86.03-.42-.06-.3-.44-.49-.49-.57-.14-1.41.07-2.03,0l-.25-.75-1.94-.02-.14-.7h-2.17s-.02-.67-.02-.67l-1.36-.05-.14-.71-2.06.03-.14-.7-1.59-.06-.02-.66-1.36-.05-.03-.66-1.36-.06-.14-.7h-2.17s-.02-.67-.02-.67l-1.36-.06-.02-.66h-1.48s-.14-.71-.14-.71l-1.36-.06-.03-.66c-1.32.29-1.6-.62-2.75-.52l-.02-.66-1.59-.06-.14-.7-1.47-.02c.16-1.07-.9-.3-.74-1.36l-1.36-.07-.02-.66-1.59-.07c.16-1.06-.89-.3-.74-1.35l-1.34-.08c.07-.89-1.5-1.18-1.43-2.07l-.89-.07-.03-.66-1.24-.02c-.05-.48-.58-.98-1.01-1.2-.82-.41-1.83-1.16-2.14-2.13l-.87-.07c.15-1.07-.9-.3-.74-1.36l-1.01-.02-.14-.71-.89-.06c.07-.9-1.5-1.19-1.43-2.09l-.91-.03-.03-1.41c-.88.16-.55-.49-.73-.67-.1-.1-1.22-.56-1.26-.61-.25-.31.29-.88-.98-.66v1.2h-1.39l.02-1.9.67-.13c.11-.75-.08-.58-.67-.61l-.02-1.42-.91-.03c-.08-.79-1.32-1.67-1.81-2.18-.22-.23.33-.85-.96-.7.17-.68-1.09-1.19-1.35-1.46-.38-.39-.6-1.18-.8-1.56-.1-.19-1.89-1.38-2.15-1.97-.47-1.07.56-2.14-1.02-1.94-.24-.76-1.33-1.88-2.07-2.14l-.07-1.38c-.88.15-.55-.49-.73-.67-.68-.68-1.69-.11-1.36-1.96l-.61-.07-.17-.69-2.06.03-.14-.7-1.59-.05-.02-.66-1.36-.06-.14-.7c-.35-.06-1.28.16-1.47-.02-.34-.35-.25-1.81-1.39-1.43-.22-.52-1.08-1.66-1.47-2.06-.76-.79-2.7-1.3-2.97-2.66l-.88-.07-.07-.64-.61-.07-.06-1.4-.65-.02-.05-1.41-.69-.14.04-5.36.65-.02v-1.29s.69-.14.69-.14l.06-1.4.61-.07.07-.64.88-.07c-.06-.2.7-1.27.78-1.34.18-.18.8.19.65-.74l1.59-.07.02-.66,1.36-.06.04-.66c.72.25.96-.48,1.06-.5.44-.11,1.76.12,1.9-.03l.03-.66,1.36-.06.14-.7,2.06.03.25-.75,2.19.02v-.71s-.65-.04-.65-.04l-.17-.7h-3.68l-.25.75h-2.86s-.03.67-.03.67l-1.36.06-.14.7-1.96-.02v-.71s.66-.05.66-.05l.16-.69h1.25s.14-.72.14-.72l1.82.03.15-.7,1.59-.05.14-.71,2.75.03.17-.69.61-.07.05-2-.72-.26v-3.8l.72-.26-.02-2.74h.93l.02-2.85.64-.03.05-1.16.65-.03v-1.29s.69-.15.69-.15l.05-1.4.65-.03.06-1.39c1.03.16.29-.93,1.32-.76l.02-1.29.66-.17.07-.64c1.28.13.72-.37.96-.69.45-.57,1.86-.15,1.32-1.97l.92-.02.14-.71,2.75.03.14-.7,1.14-.02h1.62v4.06h-.92v4.3l.91.02.02.69h.69s0-2.15,0-2.15h3.69v-1.43l.91.03.15.7h1.26v-1.45h.92v2.88s-.92,0-.92,0v2.16l-1.26.02-.15-.7-.91-.04v1.44l-1.37.02v.69h-.7l-.02-.68-.9-.04c.29,1.49-.33,1.49-1.41,2.06l.02,2.73h-.92v-1.43l-1.14-.03c.16-1.07-.9-.3-.74-1.37-1.1.15-1.43-.23-2.25-.54.06-.61-.51-2.39.53-2.12l.16.67c.63.03.69.07.67.73l.89.06.02.7h.69v-7.89c0-.08.81.12.47-1.2-1.05-.3-1.12.61-2.05.52l-.07.63-.61.07-.07,1.39c-1.01-.11-.29.8-1.36.88l.02,1.3-.91.02-.07.64-.61.07-.02,2-.69.14-.02,1.43h-.93s.02,1.78.02,1.78l-.73.26.03,2.61-.73.26.03,2.61-.73.26.02,4.65h5.32l.12.73,2.75-.03.25.75,2.52-.03.25.75,2.06-.03.14.71,1.36.05.14.7,2.06-.03.14.71,1.59.05.02.66h1.01s.17.7.17.7l.61.07.04,1.17-2.65.02-.25-.75c-.6-.04-1.29.11-1.86.04-.29-.04-.76-.9-1.71-.52l-.14-.71-2.06.03-.25-.75h-2.17s-.15-.72-.15-.72l-2.52.03-.25-.75-4.37.03-.25-.75-1.95.02v1.44l1.95-.02.25.75,2.06-.03.14.7,1.59.06.02.66c1.1-.26,1.14.26,1.56.49.16.08.56-.08.71.05.09.09-.04.5.08.62.17.18.81-.2.66.74l1.12.06.14.71h1.48s.14.71.14.71l5.07-.03.14.71,1.61.02v1.43l-.92.02-.03.66-2.99.03v.71s.65.04.65.04l.07.64h1.59s.14-.7.14-.7l2.65.02-.04,1.42-.61.07-.07.63c-.25.28-1.6-.42-1.36.52l.92.02.14.71,1.01.02c-.16,1.07.9.3.74,1.36l1.47.02.14.7h1.48s.14.71.14.71l1.36.07c-.16,1.07.89.3.74,1.36l1.59.07.02.66,1.13.05.14.71,3.68-.03.25.75,2.75-.03.14.7.81.02.8.02v.71l-.93.36.93.12v.71h-1.63v.71s.65.05.65.05l.07.64.89.06.02.7h.69c.09-.09-.06-2.06,0-2.52.06-.43-.07-.39.47-.35-.32.95.66.61.71.84l-.02,3.46,1.49-.02.17.68c.12.14.46.06.65.05.11,1.29.73.23.71,1.4l.89.06.03.66,1.36.03.02-2.02-.7-.13v-.71s1.6-.02,1.6-.02l.14-.71,1.95.02.02,2.02-.73.26.02,2.74c.94-.43,1.46.45,1.54.48.87.23,1.9-.37,2.05-1.21h1.36c.04.62,1.04,1.37,1.59,1.21.09-.02.57-.91,1.54-.48v1.92l2.65-.02.16.7.9.03v-6.22h2.08v4.65s-.67.15-.67.15l-.04,1.29.66.17.07.64,2.17.02.25.75,2.75-.03.25.75,1.82-.03.25.75,2.75-.03.15.7.9.04v-1.44s-.92,0-.92,0l-.03-2.13-.61-.07-.17-.69-1.5.02v-.71h.93v-.72c-.37.14-1.27-.3-1.55-.55-.11-.09-.02-.46-.13-.58-.11-.11-.47-.02-.56-.13-.47-.59-.34-1.75-1.45-1.36v-2.16l1.95-.02.25.75,4.37-.03.25.75h2.75c.1-.99.51-.58.75-.8.06-.05.63-1.16.53-1.37h-8.09l-.04-.67-.65-.05v-.71h12.02c-.27-1.1.89-.33.71-1.39l1.35-.07.04-.65c.13-.12.53.03.71-.05.47-.24,1.62-1.42,1.6-1.87l.91-.03v-.71l-.92-.02-.03-.66-1.36-.06-.14-.7-1.47-.02-.07-.63-.66-.18v-1.3c1.44.36.5-.74,1.4-.71l.13.73h1.48s.02.67.02.67l1.48.02c.07,1.11.95.38.84,1.41l1.01.06.14-.71.89-.06c-.14-.93.48-.56.66-.74.18-.19-.19-.89.74-.67v-.7s-1.36-.03-1.36-.03l-.02-.69h-5.09l-.02-1.78.67-.18.17-.69,1.48.05.14.7c.94.07,2.11-.16,3.01-.04.42.06.3.45.49.49.33.08,1.46.08,1.82.02.05,0,.92-.52.96-.57.2-.24-.16-.8.73-.67l.03-1.41h-9.48v-.69s-.92-.02-.92-.02v-1.43h10.4l.02-.69,2.17-.02.17-.69.62-.07.06-1.4.69-.14v-1.29s.65-.02.65-.02l.05-1.17.69-.14-.02-2.02h.93v-12.67l-.92-.02-.02-.7h-.69l-.72-.02v-1.76s.69-.15.69-.15l.05-1.29-.69-.15-.05-1.41-.65-.02-.05-1.41-.65-.02-.02-1.43h.69v.72h.69l.04-.67.67-.18-.04-1.29-.67-.02v-.71h3.01v.71l.65.05.09.62.65.05v.71l-.67.02-.03,1.29.68.14.02,1.43h.93s-.02,2.02-.02,2.02l.7.13v9.09h1.63l-.02.69-1.56.53-.02,1.99-.72.26.02,2.02h.69l.02-.74.68.02v.72l1.6.02.15.7,3.91-.03.25.75,4.37-.03.25.75,4.83-.03.25.75,5.75-.03.25.75,6.46-.03.25.75c1.65.15,3.73-.25,5.32-.03.42.06.3.44.49.49.49.11,2.73-.11,2.84,0v1.44h-5.65s-.25-.74-.25-.74l-6.46.03-.25-.75h-12.23l-.15.7c-.1.11-.66.02-.91.03,0-.2.11-.69-.14-.72h-2.87c-.02.24.02.48,0,.72-.96,0-1.92,0-2.88.02l-.25-.75-8.66.02.02,1.31-.69.14-.02,1.42h5.31l.13-.73,3.21.03.25-.75,3.57.02c.02-.23-.02-.48,0-.71.99,0,2.03.06,3.01,0,0,.24,0,.48,0,.71l-1.95-.02-.14.71-1.59.05-.14.7-2.06-.03-.25.75-2.06-.03-.25.75h-1.71s-.14.71-.14.71l-3.68-.03-.25.75-2.17.02-.07.64-.66.17-.02,2.01-.64.02-.05,1.17-.65.02-.02,1.43,1.26-.02.14.7h1.48s.14.71.14.71l1.36.07c-.16,1.07.88.3.74,1.37l.88.07c-.14.93.48.56.65.74.18.19-.18.84.72.69l.03,1.41h-.69s-.05-.67-.05-.67c-.78,0-.55-.2-.78-.78l-1.36.03-.14-.7-1.36-.06-.02-.66h-1.48s-.14-.71-.14-.71l-1.94-.02-.15-.7h-2.17s-.13-.75-.13-.75h-.69l-.04.68-.67.17-.02,1.28-.61.07-.07.64-.88.07-.07.64-.66.18v1.17l.68.15.02,1.18h.93v1.43h5.08v.71h-3.7l.04,2.13.61.07.07.63.91.03.02,2.14.64.03.05,1.4.65.03.05,1.16.69.15-.02,2.74h-.69l.02-1.3-.69-.15v-1.29s-.69-.15-.69-.15l-.02-1.18-.91-.03-.07-.64-.61-.07-.07-1.39c-1.01.12-.29-.79-1.36-.87l.02-1.3-.91-.03c.11-1.04-.77-.31-.84-1.42h-4.83l-.25.75-2.75-.03c-.07,1.11-.95.38-.84,1.42l-.91.03-.02,1.43-.68.14.05,1.29.61.07.17.69c.67-.16,1.6.07,2.12.53.07.06.85,1.12.78,1.33l.91.03-.02,1.31.69.14.02,1.43h-.69s-.02-.7-.02-.7l-.92-.02v-1.43l-1.36-.04c.16-1.06-.88-.3-.74-1.36l-.89-.06-.02-.66-2.3-.03v4.31l.9.03c-.06.2.7,1.26.78,1.34.18.19.8-.18.65.74l1.59.07.02.66,1.25.02.14.7,1.59.05.02.66c1.32-.28,1.6.63,2.75.53l.14.71h1.48s.02.67.02.67l1.36.05.14.71,2.75-.03.25.75,2.06-.03.25.75h1.94s.02.7.02.7h.69v-1.43h.93l.68.13v2.02h3.02v.71l.65.04.07.65,2.17.02.25.75,1.94.02.14.7,2.75-.03.25.75c.8.1,1.99-.19,2.72,0,.19.05.06.43.49.49.9.12,2.07-.11,3.01-.03l.25.75,4.37-.03.25.75,5.52-.03.25.75,5.19-.02v-1.43h.92l-.02-5.37.73-.26v-2.93s.39,0,.39,0c0,1.85.28,3.92.07,5.59-.06.45-.44.22-.5.68-.14,1.13.14,2.56.02,3.72l7.97.02.7-.73.24.73h4.84l.25-.75,5.52.03.25-.74v-.02s4.38.03,4.38.03l.25-.75c1.29-.11,2.92.2,4.17.03.42-.06.3-.44.49-.49.68-.16,1.74.1,2.48,0l.14-.7h2.17s.14-.71.14-.71l1.36-.06.03-.66h1.48s.14-.71.14-.71l1.36-.06.03-.66,1.35-.07c-.11-1.03.77-.3.84-1.41l2.18.02.02,1.3-.66.17-.07.64-1.47.02c-.07,1.11-.96.38-.84,1.42l-1.35.07-.14.7h-1.25s-.14.71-.14.71c-1.32-.36-1.58.73-2.87.49l-.14.7-1.48.02-.14.7-2.75-.03-.25.75-3.21-.03-.25.75-4.37-.03-.25.75-4.14-.03-.25.75-7.85-.03-.25.75h-10.85l-.25-.75-7.84.03-.25-.75-5.07.03-.25-.75-3.21.03-.25-.75-3.68.03-.25-.75-2.75.03-.25-.75-2.06.03-.25-.75c-.49-.04-1.1.12-1.56,0-.19-.04-.07-.43-.49-.49-.56-.07-1.27.08-1.86.03l-.25-.75-2.06.03-.14-.7-2.17-.02-.14-.7h-1.94s-.25-.76-.25-.76l-2.06.03-.25-.75-1.83.03-.25-.75-2.98.03-.14-.7h-1.71s-.25-.76-.25-.76l-2.06.03-.25-.75-2.06.03-.25-.75h-2.17s-.14-.71-.14-.71l-2.52.03-.25-.75-2.19.02v5.02l-.66.02-.02,2-.68.15-.03,1.42h-.92v-2.15s.92,0,.92,0l-.02-3.46.72-.26v-3.21s-1.62-.03-1.62-.03l-.14-.7-2.75.03-.25-.75-2.52.03-.25-.75-2.06.03-.25-.75-2.17-.02-.14-.7-3.34.02.02,2.74-.73.26.02,2.5h-.93l.02,2.02-.73.26.03,1.88-.73.26v2.01s-.65.03-.65.03l-.02,1.18h-.93l.02,2.02-.68.15-.06,1.41-.64.02-.02,1.43h-.93s-.03,1.41-.03,1.41l-.61.07-.07.63c-.1.13-.47.02-.66.04,0-.48-.05-.95.02-1.42l.64-.03.06-1.4.68-.15-.02-1.3h.93l.02-2.14.65-.02.05-1.17.64-.02.02-2.14h.93l-.02-2.02.68-.15v-2s.74-.26.74-.26l-.03-2.37.73-.26-.02-2.02h.93v-2.16s-1.61-.02-1.61-.02l-.14-.7-2.75.03-.25-.75-3.45.03-.14-.7-1.37-.02.02,2.74-.73.26.03,2.61-.72.26.02,1.79h-.93s.02,2.74.02,2.74l-.72.26.02,2.61-.72.26.02,2.02h-.93s.02,2.49.02,2.49l-.72.26.03,1.89-.69.15v2s-.69.15-.69.15l-.02,1.43h-.93s0,1.91,0,1.91h.92l.69,1.01c-.38.32-.73.8-.71,1.11l-.9.03-.02,1.43-.67.02v.71l.65.04.16.68.78-.03c-.03-.93.08-.62.72-.69.02.2-.08.59.03.69l.61.07.17.69,2.75-.03.14.7,2.17.02.25.75,2.52-.03.25.75c.59.04,1.29-.11,1.86-.04.42.06.3.45.49.49.47.11,1.98-.13,2.14.03l.14.71,2.75-.03.14.7h1.94s.25.76.25.76l2.06-.03.25.75,2.06-.03.25.75,2.75-.03.25.75,2.52-.03.25.75h2.17s.14.71.14.71l2.75-.03.25.75,2.52-.03.25.75,3.45-.03.25.75h2.86s.15.71.15.71c1.01.09,2.26-.16,3.24-.03.44.06.22.46.66.52.98.13,2.23-.12,3.24-.03l.25.75,4.14-.03.25.75,4.14-.03.25.75,4.37-.03.25.75,5.52-.03.25.75,5.52-.03.25.75,8.07-.03.25.75,9.92-.03.25.75,13.16-.03.25.75,15.93-.03.25.75,14.08-.03.25.75h2.06l.25-.75,3.21.03.25-.75,2.06.03.25-.75h2.17s.03-.67.03-.67l1.36-.06.03-.66,1.36-.05.02-.66,1.36-.06.02-.66,1.59-.07c-.16-1.06.89-.3.74-1.36l1.58-.07c-.15-.93.47-.55.65-.74.11-.12.29-.79.95-1.11,1.14-.57.8-.7,1.48-1.39.18-.19.8.18.65-.75l1.35-.07c-.07-.89,1.5-1.18,1.43-2.08l.88-.07c.25-.76,1.32-1.88,2.07-2.14l.03-1.42.9-.03c.13-1.34,1.98-.64,1.41-2.6l.91-.02.07-.64.61-.07c-.21-1.31.74-1.52.51-2.84l.69-.15-.02-1.3.91-.03.07-.64.61-.07c.19-.19-.12-1.16.08-1.38.05-.06,1.32-.51,1.36-.65.07-.28-.11-1.21-.02-1.29l.91-.03.07-.64.61-.07.06-1.4.69-.14-.02-1.31.91-.03.07-.64.61-.07.06-2.11.65-.02.05-1.17.65-.02.05-1.41.69-.15v-2s.69-.15.69-.15l.02-2.01.64-.03.06-1.4.68-.15-.02-2.5h.93l.02-1.42.68-.15-.03-4.04.73-.26v-3.8l-.73-.26.03-4.04-.71-.13v-3.35h-.92s.02-2.74.02-2.74l-.73-.26.03-1.88-.68-.15-.02-1.29-.68-.14v-1.29s-.69-.14-.69-.14l-.05-1.17-.65-.02-.05-1.41-.65-.02-.05-1.41-.69-.14.02-1.31-.9-.02-.07-.64-.62-.07-.06-1.39-.69-.15.02-1.3h-.93l-.02-1.18-.64-.03-.02-2.01-.68-.14-.07-1.4-.61-.07-.07-.64-.91-.03-.03-1.41c-.8.23-.85-1.02-1.19-1.39-.11-.12-.47-.02-.57-.12-.13-.13,0-.55-.08-.63-.16-.16-.71.09-.87-.07-.08-.08.04-.45-.08-.61-.05-.06-1.23-.56-1.27-.61-.25-.32.31-.82-.96-.69.02-.49-.9-1.46-1.37-1.43l-.07-1.39-.61-.07-.07-.64-.91-.03-.03-1.41c-.9.15-.54-.5-.72-.68-.17-.19-.8.19-.65-.74l-1.35-.07c.15-.93-.46-.56-.65-.75-.11-.11,0-.48-.12-.59-.27-.24-1.21-.67-1.55-.54v5.5l-.66.02-.02,2-.68.15-.02,1.77-.73.26.02,2.02h-.93v1.43l.81.02.16-.69.61-.07.06-1.4.65-.02.05-1.41.69-.14-.02-1.79h.92l.02-1.42.65-.03.05-1.4.65-.03.02-1.42c.28-.39.42,0,.47.35.06.5.07,1.69.02,2.17-.05.34-.89.69-.47,1.65l-.69.15v1.29s-.69.14-.69.14l-.02,1.18h-.92l-.02,1.42-.65.03-.06,1.4c-1.03-.17-.29.93-1.32.76l-.03,1.41h-.93l-.03,1.41c-1.03-.16-.29.93-1.32.76l-.03,1.18-.91.02c.21.66-1.14,1.24-1.34,1.48-.48.6-.33,1.69-1.43,1.4.05.2-.7,1.26-.78,1.34-.18.19-.8-.18-.66.74l-1.57.08c.15.93-.47.55-.66.74-.07.07-.83,1.14-.77,1.34l-.91.03c.53,1.84-.87,1.41-1.32,1.98-.13.16,0,.54-.08.61-.16.16-.72-.08-.88.07-.08.08.06.49-.07.62-.11.11-.47,0-.57.12-.1.11-.54,1.26-.59,1.31-.42.34-.89-.3-.64,1.49l-.91.02-.15.71c-.42,0-.84-.04-1.26-.02.02-.2-.08-.59.04-.69.64.02.66-.07.7-.7l.65-.17c.23-.96-.69-.52-1.26-.61-.07,1.11-.96.38-.84,1.42l-1.59.07-.02.66-1.59.07c.16,1.07-.9.3-.74,1.36l-1.36.07-.14.7-1.23.02c.16,1.07-.9.3-.74,1.36-1.08-.07-2.17.15-2.42,1.25l-1.48.02-.02.66-1.36.06-.02.66h-1.48s-.14.72-.14.72l-1.13.05-.03.66h-1.48s-.14.72-.14.72l-1.36.06-.02.66-.92.02v.72l2.19.02.14-.7,1.94-.02.14-.7h1.48s.14-.71.14-.71l1.36-.06.02-.66h1.48s.14-.71.14-.71c.45-.09.92,0,1.37-.03-.02.2.08.59-.03.69l-.61.07-.17.69-1.48.02-.02.66-1.36.05-.14.7-1.48.02-.14.7h-1.94s-.15.71-.15.71l-1.94.02-.14.7-2.06-.03-.25.75h-2.19s.04-1.43.04-1.43c.9.16.54-.49.71-.68.18-.18.8.19.66-.74l.89-.07.02-.66,1.36-.06.15-.71h1.47s.03-.67.03-.67l1.36-.05.03-.66,1.36-.06.02-.66,1.59-.06.02-.66,1.36-.05.14-.7c.51.2,1.84-.19,2.12-.52.36-.43-.24-.95,1.55-.64.07-1.11.96-.38.84-1.42l1.24-.02.14-.71,1.35-.06c-.16-1.07.9-.3.74-1.36l1.59-.07.02-.66,1.36-.06.03-.66.9-.05.02-.66,1.35-.07c-.16-1.07.9-.3.74-1.36.18-.2,1.35.14,1.57-.07.04-.05,0-.42.19-.67.31-.4.89-.49.93-.55.25-.32-.32-.81.96-.69-.06-.9,1.49-1.19,1.43-2.08l.88-.07c.21-1.13,1.91-1.66,2.12-2.79l.87-.07c-.02-.49.9-1.45,1.37-1.42l.04-1.41c1.22.15,1.54-.77,1.41-1.91l.68-.14.02-1.29.68-.15-.02-1.3h.93l.02-1.42.64-.03.06-1.41.68-.14-.02-1.79h.93s-.02-2.02-.02-2.02l.73-.26-.03-2.61.73-.26-.05-4.63c-.9.15-.54-.5-.72-.68-.18-.19-.79.19-.66-.75l-.87-.07c.06-.2-.7-1.27-.78-1.34-.18-.18-.8.19-.65-.74l-1.58-.07c.15-.91-.47-.57-.65-.75-.74-.79-.04-1.76-2.13-1.39l-.14-.71-1.36.04c-.08-.99-.56-.6-.77-.8-.11-.11,0-.48-.12-.58-.6-.53-1.47-.61-2.22-.58.16-1.07-.9-.3-.74-1.36l-1.59-.07-.02-.67-1.14-.05-.13-.7h-1.48s-.03-.67-.03-.67l-1.36-.06-.03-.66h-1.47c-.07-1.11-.96-.39-.84-1.43l-1.47-.02-.14-.7-1.36-.07c.16-1.07-.9-.3-.74-1.36l-1.35-.07-.02-.66c-1.29.19-1.61-.8-2.98-.53l-.14-.7-1.36.03c-.07-1.11-.96-.38-.84-1.42l-1.36-.07-.14-.7h-1.48s-.14-.71-.14-.71l-1.94-.02-.14-.7-2.06.03-.25-.75-2.06.03-.25-.75-1.83.03-.25-.75-1.94-.02-.14-.7h-2.17s-.14-.71-.14-.71l.25-1.16c.59.04,1.28-.11,1.86-.04.42.06.3.45.49.49.51.13,1.23-.06,1.79,0l.14.7,1.95.02.25.75,2.06-.03.25.75,2.75-.03.15.7,1.36.05.02.66,2.17.02.14.7,1.36.05.02.66,1.48.02.14.7,1.59.07c-.16,1.06.89.3.74,1.36l1.35.07.14.7h1.25s.02.67.02.67c1.17-.26,1.31.56,2.28.54l.15.7h1.25s.02.67.02.67l1.59.06.03.66,1.36.06.03.66,1.59.06.02.66,1.14.05.02.67,1.59.06c-.16,1.07.89.3.74,1.36l1.47.02c.07,1.11.96.38.84,1.41l1.47.02c.07.99.56.6.76.79.11.11,0,.49.12.59.51.43,1.31.63,1.99.58-.15.93.47.56.65.74.11.11,0,.48.12.6.18.19.8-.19.65.74l1.58.08c-.16,1.06.88.3.74,1.36l.87.07c.13.95,1.5,1.62,2.06,2.17.11.11.02.44.07.62l1.57.08c-.15.91.47.56.65.75.15.16.51,1.27.56,1.32.17.17,1.02-.04,1.42.06.05,0,.77.49.8.53.25.3-.32.82.96.69l.07.63.61.07.07,1.38c.47-.02,1.4.93,1.37,1.43l.9.03.04,1.41c.47-.02,1.39.93,1.37,1.43,1.27-.16.73.47.96.7.13.13,1.66,1.22,1.73,1.31.25.31-.32.82.96.69l.07.64.61.07.07,1.39c1-.12.29.79,1.36.87l-.02,1.31h.93s.02,1.42.02,1.42l.68.14v2.01s.65.03.65.03l.02,1.18.91.03.07.64.61.07.06,1.4.65.02.05,1.41.69.14v1.29s.65.02.65.02l.06,1.41.64.02.06,1.41.64.02.05,1.17.65.02.02,1.43h.93s-.02,2.02-.02,2.02l.69.15v2.01s.74.26.74.26l-.02,2.5h.92l-.02,4.17.73.26ZM258.04,351.53v-.71l-8.65.02-.25-.75-10.85.03-.25-.75-7.84.03-.25-.75-6.69.03-.25-.75-5.52.03-.25-.75-5.07.03-.25-.75-4.27.02v.72l2.88-.02.25.75,3.45-.03.25.75,2.75-.03.25.75,2.75-.03.14.71h2.63s.25.76.25.76l4.37-.03.12.73h30.29ZM234.23,269.77v-.71h-4.04s-.25-.74-.25-.74l-5.07.03-.25-.75-3.68.03-.25-.75h-2.63s-.02-.7-.02-.7h-.69l.02,1.3-.66.18-.07.64-1.6.03v1.43h.69l.13-.73h2.06s.25.75.25.75l16.06-.02ZM206.95,346.51v-.71h-2.32v.71h2.32ZM203.25,289.85v-.72l-.92-.02-.03-.66h-1.11c.16,1.07-.89.3-.74,1.37l-.91.03v.71l1.6-.02.15-.7,1.95.02ZM190.76,303.96v-.71l-.7-.13v-5.96l.7-.13v-.71l-1.49-.02c-.2.97-1.24,1.38-2.21,1.21v2.02s.67.15.67.15l.02,2.01.72.26-.02,2.02h2.31ZM188.45,342.93c.89-.7-2.19-.4-2.3-.51l-.14-.7-2.75.03-.25-.75-1.82.03-.25-.75-2.75.03-.25-.75-2.06.03-.25-.75-1.94-.02-.03-.66-2.99-.03v.72l1.95-.02.25.75,2.06-.03.25.75,2.06-.03.25.75,2.06-.03.25.75,2.52-.03.25.75c.8.07,1.78-.14,2.55-.03.42.06.3.45.49.49.77.19,2-.12,2.84,0ZM188.45,296.3v-.71l-1.37-.02-.02-.66-3.1-.02-.14-.7-1.37-.02v.71s.65.05.65.05l.16.69,1.47.02.07.64.67.18-.02,1.06c.78.14.67-.7,1.59-.51l.15-.7,1.26.02ZM159.55,300.37v-.71l-.65-.04-.04-.68h-10.4l-.05.67-.6.1-.16.67c-.96.25-.48-.85-.57-1.44h-3.24c-.07.58.08,1.26.02,1.81-.04.34-.88.69-.47,1.65l-.73.26.03,1.89-.68.14-.02,1.43h-.93s-.02,1.18-.02,1.18l-.69.14v1.29s-.65.02-.65.02v2.01s-.69.15-.69.15l-.02,1.42-.91.03-.07.64-.61.07-.02,1.29-.69.15-.02,1.18h-.93v.71s1.61.03,1.61.03l.02.66,1.59.07c-.16,1.07.9.3.74,1.36l1.35.07.03.66.92.02v.72l-1.61-.02-.02-.66-1.36-.06-.14-.7-1.48-.02-.14-.7-1.49.02v.72s.9.03.9.03c-.07.9,1.5,1.19,1.43,2.08l.88.07c-.06.2.7,1.26.78,1.34.18.19.8-.18.65.74l1.58.08c-.15.92.47.55.65.74.11.11.02.49.12.59.51.43,1.31.63,2,.58-.12,1.04.77.3.83,1.42l1.47.02c-.16,1.07.9.3.74,1.36l1.36.07.14.7h1.48s.13.7.13.7c.96.25.47-.85.57-1.44h.93s-.02-1.3-.02-1.3l.73-.25c.04-.52-.11-1.14,0-1.62.04-.19.42-.07.47-.51.07-.52-.07-1.14-.03-1.68l.68-.14.03-1.43-.69.02c-.03.81-.79.93-.46,2.01l-.66.17-.17.7-2.19-.02v-1.3s.65-.18.65-.18l.05-.67h.69l.02.69.9.03-.02-1.31.69-.14c-.23-1.32.74-1.53.51-2.84l.69-.15-.02-2.02h.93l.02-1.18.69-.15-.03-1.89.73-.26-.03-2.61.72-.26-.02-2.02h.93s0-3.34,0-3.34l.7-.13v-3.44s.68-.02.68-.02ZM156.55,296.3v-.71l-1.37-.02-.15-.71h-1.36l-.25.75-1.95-.02v.71h5.09ZM151.46,294.15v-1.43l-1.36-.03-.03-.66-.9-.05-.03-.66h-2.04l-.03.66-.92.02v.72l2.19-.02.14.7h2.17s.12.75.12.75h.69ZM150.76,295.58v-.7s-2.18,0-2.18,0l-.14-.7h-2.17s-.12-.75-.12-.75h-.69v3.59h3.69l.02-.69.89-.06.07-.65.65-.05ZM146.15,290.56v-.71l-.65-.04c.2-1.28-1.27-.37-1.63-.72-.04-.04,0-.41-.19-.66-.45-.59-1.14-.31-1.01-1.16l-1.47-.02-.14-.7-1.25-.05-.25.75-5.07-.03-.25.75-1.95-.02.02,1.79-.7.13v.71h8.09l.12.74,3.45-.03.14.7c1.7.4,1.19-.4,1.42-.64.18-.17.77.2.69-.72l.65-.05ZM142.64,294.13l.03-1.41h-8.79v2.16s-.9.03-.9.03c.07.89-1.5,1.18-1.43,2.08l-.91.03-.03,1.17c-.86-.07-1.14,1.56-2.01,1.48l-.03,1.41h-.93l-.03,1.41c-1.02-.16-.29.93-1.32.76l-.03,1.42-.91.03-.07.63-.66.18.05,1.04.61.07.07.63.88.07.07.63.61.07.07,1.39.61.07.17.69c1.78.38,1.32-.46,1.54-.68.27-.27,1.52-.76,1.36-1.46l.88-.07c-.11-.36,1.27-1.75,1.59-1.87.21-.07.51,0,.74,0,.04-.42-.07-.86.02-1.26.13-.61,1.99-1.59,1.86-2.29l.91-.03.03-1.41c.48.02,1.39-.93,1.37-1.43l.88-.07.07-.64.61-.07.07-1.4.64-.02.05-1.17.69-.14-.02-1.31.91-.03.07-.63.61-.07ZM142.65,301.79l.02-2.14h-.69l-.02.7-.92.02-.02,1.43-.64.02-.07,1.4c-1.03-.16-.29.93-1.32.76l-.03,1.41-.91.03-.07.64-.66.18-.02,1.04-.62.07-.07.64-.88.07-.07.64-.61.07-.02,1.29-.69.14c.08.99-.3,2.45-1.41,2.14v2.16l.92.02.02.66,1.84.03v-1.44s.92,0,.92,0l-.02-1.3.69-.14.05-1.41.64-.03.02-1.42h.93l-.02-1.3.68-.15.06-1.4.64-.02.05-1.17.65-.03.02-2.14h.93s.02-1.42.02-1.42l.64-.02ZM138.98,285.79v-.72l-1.5.02-.14-.7h-1.48c-.07-1.12-.96-.39-.84-1.43l-1.12-.06-.03-.66-.91-.03v4.3l1.95.02.13-.73h3.93ZM132.28,293.43v-.71l-2.3.02-.02.66-1.36.06-.03.66-.9.05-.02.66-1.36.06-.03.66-1.59.05-.03.66h-1.01s-.14.72-.14.72l-.92.02.02,1.78-.73.26v2.61l.73.26-.02,2.02c1.29.25.75-.42.98-.66.1-.11.46,0,.57-.12.11-.11.48-1.17.6-1.29s.47-.02.57-.12c.22-.23-.32-.85.96-.7l.07-.64.61-.07.02-1.29.66-.17.07-.64c1.27.13.72-.37.96-.69.45-.57,1.81-.13,1.36-1.95l.61-.07.07-.64.91-.03v-.71h-.93v-.71h1.63ZM131.58,281.49v-.72l-1.6.04c.15.93-.47.55-.65.74-.07.07-.83,1.14-.78,1.34l-.88.07-.07.64-.61.07-.02,1.28-.67.18-.07.64c-1.27-.16-.74.46-.96.69-.11.11-.46,0-.57.13-.5.53-.78,2.17-2.15,1.84v-1.2l.91-.03.07-.64.61-.07c-.08-.86.25-2.19,1.15-2.16l.04-1.41.9-.03c-.07-.9,1.5-1.19,1.43-2.09l.91-.03-.02-1.3.71-.13-.65-.52-.07-.64-.88-.07c.07-.9-1.49-1.19-1.43-2.08l-.88-.06-.03-.66-4.72-.05-.25.75-3.68-.03-.25.75-2.52-.03-.25.75h-2.17s-.02.67-.02.67l-1.36.06-.04.66c-.75,0-1.59.45-1.72,1.25l-2.18-.02-.02,1.43-.65.02c.37.98-.46,1.5-.48,1.59-.11.48-.1,4.14,0,4.68.07.39,1.05.66,1.09.71.25.31-.32.82.96.69-.15,1.07.9.3.74,1.37l1.24.02.15.7.91.03v-5.5l.66-.02.07-1.4.61-.07.07-.64.88-.07c-.15-1.07.89-.3.74-1.36l1.36-.07.14-.7h1.94s.02-.7.02-.7h.69v.7s.92.02.92.02v2.16l-2.19-.02-.14.7-1.35.07c.15.93-.48.56-.66.74-.17.19.19.84-.71.68l-.02,1.29-.68.15-.02,1.18h-.93v4.3l2.19-.02.14.7h1.94s.25.76.25.76h2.17s.14.71.14.71l5.17-.05c-.16-1.07.9-.3.74-1.36l1.12-.07.02-.66.9-.05.03-.66,1.36-.06.02-.66.89-.06c-.14-.93.48-.56.66-.75.17-.18-.19-.83.71-.68l.03-1.41h-.69l-.02.69-1.59.06-.02.66-1.36.06-.15.7-1.47.02-.15.7-1.03-.02v-.71s.65-.05.65-.05l.17-.69h1.01s.02-.67.02-.67l1.48-.02.14-.7c1.36.31,1.66-.74,2.87-.48l.17-.7.61-.07.03-5.72h.93ZM121.87,273.11v-.71l-1.38-.02-.14-.71-1.48.05-.14.7-1.47-.06c.03-.66-.05-.69-.66-.73l-.05-.66h-.69v.71h-.69s0-1.43,0-1.43h-4.39l-.02.69-1.59.06-.02.66h-1.95s-.14.72-.14.72h-1.48s-.14.71-.14.71l-1.35.07c.16,1.07-.9.3-.74,1.36l-1.24.02-.14.71-.89.06-.07.64-.66.17-.02,1.29-.64.02-.04,4.64c1.07.07.36.99,1.36.87l.03,1.42.91.03c-.02.66.05.7.67.73l.05.66h.69s0-3.58,0-3.58h-1.39v-.71s.66-.05.66-.05l.16-.69,1.26.02v-1.43c1.12.43,1.19-.9,1.45-1.13.26-.22.65.19.75-.79l2.75.03.14-.71,1.59-.05.14-.7,1.48-.02.02-.66,1.36-.05.14-.7,1.94-.02.14-.7,2.75.03.25-.75,2.88.02ZM120.48,297.5c.02-.56.07-.42-.34-.48-.9-.11-1.97.08-2.89,0,0-.24-.02-.48,0-.72h1.63v-.71h-3.01v.71s.65.05.65.05l.07.64c.1.11.47.02.67.03-.02.4,0,.8,0,1.2l.92.02.02.69h.69l.04-.66c.63-.04.7-.07.67-.73l.91-.04Z"/>
  <path class="cls-1" d="M340.82,295.72v3.8l-.73.26.03,4.04-.68.15-.02,1.42h-.93l.02,2.5-.68.15-.06,1.4-.64.03-.02,2.01-.68.15v2s-.69.15-.69.15l-.05,1.41-.65.02-.05,1.17-.65.02-.06,2.11-.61.07-.07.64-.91.03.02,1.31-.69.14-.06,1.4-.61.07-.07.64-.91.03c-.09.08.09,1.02.02,1.29-.04.14-1.31.59-1.36.65-.2.22.11,1.2-.08,1.38l-.61.07-.07.64-.91.03.02,1.3-.69.15c.23,1.31-.73,1.52-.51,2.84l-.61.07-.07.64-.91.02c.56,1.96-1.28,1.25-1.41,2.6l-.9.03-.03,1.42c-.74.25-1.82,1.38-2.07,2.14l-.88.07c.07.9-1.5,1.19-1.43,2.08l-1.35.07c.15.93-.47.56-.65.75-.68.7-.34.83-1.48,1.39-.66.32-.83.99-.95,1.11-.19.19-.8-.19-.65.74l-1.58.07c.16,1.07-.9.3-.74,1.36l-1.59.07-.02.66-1.36.06-.02.66-1.36.05-.03.66-1.36.06-.03.66h-2.17s-.25.75-.25.75l-2.06-.03-.25.75-3.21-.03-.25.75h-2.06l-.25-.75-14.08.03-.25-.75-15.93.03-.25-.75-13.16.03-.25-.75-9.92.03-.25-.75-8.07.03-.25-.75-5.52.03-.25-.75-5.52.03-.25-.75-4.37.03-.25-.75-4.14.03-.25-.75-4.14.03-.25-.75c-1.01-.09-2.26.16-3.24.03-.44-.06-.22-.46-.66-.52-.97-.12-2.22.12-3.24.03l-.15-.7h-2.86s-.25-.76-.25-.76l-3.45.03-.25-.75-2.52.03-.25-.75-2.75.03-.14-.7h-2.17s-.25-.76-.25-.76l-2.52.03-.25-.75-2.75.03-.25-.75-2.06.03-.25-.75-2.06.03-.25-.75h-1.94s-.14-.71-.14-.71l-2.75.03-.14-.71c-.16-.16-1.68.08-2.14-.03-.19-.04-.07-.43-.49-.49-.56-.07-1.27.08-1.86.04l-.25-.75-2.52.03-.25-.75-2.17-.02-.14-.7-2.75.03-.17-.69-.61-.07c-.11-.1-.02-.48-.03-.69.2-.02.56.09.66-.04-.14-1.06.9-.3.74-1.36l.91-.03-.02-1.3c1.07-.07.36-.99,1.36-.87-.06-1.99.09-1.09.78-1.43.2-.1.2-.32.29-.38.19-.11.5-.07.55-.11.19-.2-.07-1.05.07-1.39l.69-.15v-1.29s.69-.15.69-.15v-1.29s.65-.03.65-.03l.05-1.4.69-.15v-2.01s.65-.02.65-.02l.05-1.17.64-.02.02-1.43h.93l-.02-1.3.68-.14.06-1.41.64-.03.02-1.42h.93v-.59s.67,0,.67,0v2s-.69.15-.69.15l.02,2.02h-.93l-.02,2.14-.64.02-.05,1.17-.65.02-.02,2.14h-.93l.02,1.3-.68.15-.06,1.4-.64.03c-.07.47-.02.94-.02,1.42-.2.02-.57-.09-.67.04l-.07.63-.61.07-.03,1.17c1.47-.34,1.35-.57,1.39-1.91.2-.02.56.09.66-.04l.07-.63.61-.07.03-1.42h.93s.02-1.42.02-1.42l.64-.02.06-1.41.68-.15-.02-2.02h.93l.02-1.18.64-.03v-2.01s.74-.26.74-.26l-.03-1.88.73-.26-.02-2.02h.93l-.02-2.5.73-.26-.02-2.74,3.34-.02.14.7,2.17.02.25.75,2.06-.03.25.75,2.52-.03.25.75,2.75-.03.14.7,1.61.03v3.21s-.71.26-.71.26l.02,3.46h-.93v2.15h.92l.03-1.42.68-.15.02-2,.66-.02v-5.02l2.19-.02.25.75,2.52-.03.14.7h2.17s.25.76.25.76l2.06-.03.25.75,2.06-.03.25.75h1.71s.14.71.14.71l2.98-.03.25.75,1.83-.03.25.75,2.06-.03.25.75h1.94s.14.71.14.71l2.17.02.14.7,2.06-.03.25.75c.59.05,1.29-.11,1.86-.03.42.06.3.45.49.49.47.11,1.07-.05,1.56,0l.25.75,2.06-.03.25.75,2.75-.03.25.75,3.68-.03.25.75,3.21-.03.25.75,5.07-.03.25.75,7.84-.03.25.75h10.85l.25-.75,7.85.03.25-.75,4.14.03.25-.75,4.37.03.25-.75,3.21.03.25-.75,2.75.03.14-.7,1.48-.02.14-.7c1.29.24,1.54-.85,2.87-.49l.14-.7h1.25s.14-.71.14-.71l1.35-.07c-.11-1.04.77-.3.84-1.42l1.47-.02.07-.64.66-.17-.02-1.3-2.18-.02c-.07,1.11-.96.38-.84,1.41l-1.35.07-.03.66-1.36.06-.14.7h-1.48s-.03.67-.03.67l-1.36.06-.14.7h-2.17s-.14.71-.14.71c-.74.09-1.81-.17-2.48,0-.19.05-.07.43-.49.49-1.25.17-2.88-.15-4.17-.03l-.25.75-4.37-.03v.02s-.14-.04-.14-.04l.02-.64.92-.02c.02-.23-.02-.47,0-.7.32,0,1.25.08,1.36-.03-.16-1.03.88-.3.74-1.32l.88-.07c-.15-1.03.89-.29.74-1.32l1.58-.07c-.16-1.02.89-.29.74-1.31l1.35-.07.14-.69h1.25s.02-.65.02-.65l1.48-.02.14-.68,1.36-.05.02-.65c1.37.26,1.69-.7,2.98-.52l.14-.68,2.17-.02.03-.64,1.36-.06.14-.68,2.75.03.25-.73,2.06.03.25-.73h1.94s.03-.65.03-.65c1.34.14,1.83-.07,2.07-1.42h-5.09l-.12.7-2.75-.02-.25.72-2.53-.03-.25.73-2.05-.03-.25.73-2.06-.03-.25.73-1.83-.03-.25.73-1.82-.03-.15.68-1.59.06-.14.68c-.62.07-1.46-.15-2.03,0-.09.02-.59.85-1.54.48l-.14.69-1.36-.03c-.07,1.07-.96.36-.84,1.37l-1.47.02-.14.69-1.12.06c.16,1.03-.9.3-.74,1.32l-1.58.07c.16,1.03-.9.29-.74,1.32l-1.58.07c.16,1.02-.9.29-.74,1.32l-1.58.07c.15.89-.47.53-.65.71-.18.16.17.88-.75.64.04.41.22.54.47.54v.92h-1.73l-.24-.73-.7.73-7.97-.02c.12-1.16-.16-2.59-.02-3.72.06-.46.44-.23.5-.68.2-1.67-.07-3.74-.07-5.59,0-.38,0-.75.04-1.11l.72-.26v-8.83l-.69-.14c.32-.93-.46-1.18-.5-1.52-.07-.55-.11-1.71-.11-2.88s.04-2.34.11-2.88c.06-.46.44-.23.5-.69.21-1.78-.2-4.04-.02-5.88l-1.14-.02-.02-.66-.92-.02v-.72l.91-.03.07-.64.61-.07.03-1.42-1.49-.02-.17.7-.61.07-.02,2-.73.26.03,2.61-.72.26.02,2.5h-.93v4.3l-.66.02-.02,3.44-.7.12v4.06h-.93v2.88h1.49l.17-1.42.61-.07.07-.64.88-.07.07-.64.61-.07.02-3.2.73-.26-.03-3.33.71-.13v-3.58h.92v5.02h-.92v4.79l-.66.02-.02,2.72-.73.26.03,3.8-.71.13v10.52h.69l-.02-1.79.73-.26-.03-5.47.73-.26-.02-3.21h.92v-3.59h.69v5.31s.02,2.93.02,2.93l-.73.26.02,5.37h-.92v1.43l-5.19.02-.25-.75-5.52.03-.25-.75-4.37.03-.25-.75c-.94-.08-2.11.16-3.01.03-.43-.06-.3-.44-.49-.49-.74-.18-1.92.11-2.72,0l-.25-.75-2.75.03-.14-.7-1.94-.02-.25-.75-2.17-.02-.07-.65-.65-.04v-.71l.71-.13-.02-2.75h.93s-.02-7.51-.02-7.51l.73-.26-.02-6.09-2.29.04-.07.63-.67.18.02,1.3h-.93l.02,1.78-.72.26.02,1.89-.72.26.02,2.61-.7.13v5.5h-.93v1.43h-.69l-.02-.69h-1.94s-.25-.76-.25-.76l-2.06.03-.25-.75-2.75.03-.14-.71-1.36-.05-.02-.66h-1.48s-.14-.72-.14-.72c-1.14.1-1.42-.81-2.75-.53l-.02-.66-1.59-.05-.14-.7-1.25-.02-.02-.66-1.59-.07c.15-.92-.47-.55-.65-.74-.07-.07-.83-1.14-.78-1.34l-.9-.03v-4.31l2.3.03.02.66.89.06c-.15,1.07.89.3.74,1.36l1.36.04v1.43l.92.02.02.69h.69s-.02-1.42-.02-1.42l-.69-.14.02-1.31-.91-.03c.07-.2-.71-1.27-.78-1.33-.51-.47-1.45-.69-2.12-.53l-.17-.69-.61-.07-.05-1.29.68-.14.02-1.43.91-.03c-.11-1.04.77-.31.84-1.42l2.75.03.25-.75h4.83c.07,1.11.96.38.84,1.42l.91.03-.02,1.3c1.07.07.36.99,1.36.87l.07,1.39.61.07.07.64.91.03.02,1.18.68.15v1.29s.69.15.69.15l-.02,1.3h.69l.02-2.74-.69-.15-.05-1.16-.65-.03-.05-1.4-.64-.03-.02-2.14-.91-.03-.07-.63-.61-.07-.04-2.13h3.7v-.71h-5.08v-1.43h-.93l-.02-1.18-.68-.15v-1.17l.66-.18.07-.64.88-.07.07-.64.61-.07.02-1.28.67-.17.04-.68h.69l.13.74h2.17s.15.71.15.71l1.94.02.14.7h1.48s.02.67.02.67l1.36.06.14.7,1.36-.03c.23.58,0,.78.78.78l.05.66h.69s-.03-1.4-.03-1.4c-.9.15-.54-.5-.72-.69-.17-.18-.79.2-.65-.74l-.88-.07c.15-1.07-.89-.3-.74-1.37l-1.36-.07-.14-.7h-1.48s-.14-.71-.14-.71l-1.26.02.02-1.43.65-.02.05-1.17.64-.02.02-2.01.66-.17.07-.64,2.17-.02.25-.75,3.68.03.14-.7h1.71s.25-.76.25-.76l2.06.03.25-.75,2.06.03.14-.7,1.59-.05.14-.71,1.95.02c0-.24,0-.48,0-.71.25-.02.81.07.91-.03l.15-.7h12.23l.25.75,6.46-.03.25.75h5.65v-1.45c-.11-.11-2.35.11-2.84,0-.19-.05-.07-.43-.49-.49-1.59-.22-3.67.18-5.32.03l-.25-.75-6.46.03-.25-.75-5.75.03-.25-.75-4.83.03-.25-.75-4.37.03-.25-.75-3.91.03-.15-.7-1.6-.02v-.72h.93l.03-1.41c1.03.16.29-.93,1.32-.76-.11-1.13.2-2.04,1.42-1.89l.03-1.41c.65.19,1.15-1.13,1.41-1.39.18-.19.8.18.65-.75l1.58-.07c-.16-1.06.89-.3.74-1.36l1.58-.07,1.41.04v.71l.92.02.14.71,6.91-.03.25.75,4.83-.03.25.75,4.37-.03.25.75,3.21-.03.25.75,3.68-.03.25.75c1.3.11,2.91-.2,4.17-.03.44.06.22.46.66.52.91.11,2.06-.11,3.01-.03l.25.75,4.37-.03.25.75,4.6-.03.25.75,8.07-.03.25.75,1.95-.02v-.72l-1.37-.02-.14-.7-2.19.02c-.07-.55.11-1.24,0-1.75-.02-.09-.88-.61-.46-1.6l-.9-.03c-.21-1.13-1.92-1.66-2.13-2.8l-.87-.07c.15-1.07-.89-.3-.74-1.36l-1.58-.07c.16-1.07-.9-.3-.74-1.36l-1.35-.07-.03-.66-.9-.05-.02-.67c-1.14.09-1.43-.81-2.75-.53l-.03-.66-1.36-.05-.14-.7-1.48-.02-.02-.66-1.36-.05-.14-.7-2.06.03-.25-.75-2.52.03-.25-.75-3.68.03-.25-.75h-7.84l-.25.75-3.45-.03-.25.75-2.52-.03-.25.75-2.06-.03-.25.75-2.06-.03-.14.7-1.48.02-.14.7-1.36.05-.02.67c-1.27-.24-1.47.75-2.74.53.12,1.04-.78.31-.84,1.42l-1.47.02c.16,1.06-.88.3-.74,1.36l-.88.07c.06.2-.7,1.28-.78,1.34-.18.19-.85-.19-.64.77h-.69s.02-1.42.02-1.42l.65-.02.06-1.4c1.03.17.29-.93,1.32-.76-.05-1.97.07-1.08.78-1.43.61-.3.83-1.02.94-1.11.2-.2.68.19.76-.8,1.82.38,1.27-.37,1.54-.64.26-.27,1.52-.76,1.36-1.46,1.1.3.95-.8,1.43-1.39.2-.25,1.54-.82,1.34-1.48l.88-.07c.34-1.03,1.33-1.75,2.26-2.2.6-.3.75-.97.83-1.05.19-.19.79.18.65-.74l1.47-.02c.07-.99.57-.6.76-.79.11-.11,0-.48.11-.6.18-.18.81.19.66-.74l1.35-.07.14-.7,1.27.02v-1.43l-1.96-.02-.14.7-1.36.06-.03.66-1.58.06c-.05.19.04.52-.07.63-.56.55-1.93,1.22-2.05,2.17l-.88.07c.15,1.07-.9.3-.74,1.37-.79-.02-1.59.04-2.22.58-.11.09-.02.47-.13.58s-.47.02-.56.13c-.48.61-.33,1.7-1.43,1.4-.14.96-1.49,1.62-2.05,2.17-.14.13.02.64-.17.67h-.81v-1.44l.91-.03c-.02-.49.9-1.45,1.37-1.43l.07-1.39.61-.07.08-.63c1.11.31,1.15-.94,1.42-1.16.24-.2.78.17.65-.75l1.6-.04v-2.16s-.91.04-.91.04l-.15.7c-.32.05-1.05-.15-1.23.02-.05.05-.47,1.3-.52,1.35-.18.16-.71-.08-.87.07-.07.07-.65,1.21-.78,1.33-.14.12-1.22.56-1.26.61-.25.32.31.82-.96.69l-.07.64-.67.17.02,1.31h-.69l-.02-2.75.7-.13v-3.34h-1.62l.02,2.02-.72.26.02,3.09-.72.26.03,3.33-.73.26.02,2.74h-.93c-.07.54.11,1.24,0,1.75-.02.09-.85.6-.48,1.59l-.65.02-.05,1.4-.69.15.02,2.02h-.93v1.43h-.69v-9.09l-.7-.13.02-2.02h-.93s-.02-1.42-.02-1.42l-.68-.14.03-1.29.67-.02v-.71l-.65-.05-.09-.62-.65-.05v-.71l1.23-.02.17.69.9.05v-1.92s-.92,0-.92,0v-1.43l.91.03.15.7,1.26-.02v-.7s-.65-.06-.65-.06c-.03-.64-.06-.73-.7-.69l-.03-1.42h-.93s.02-2.02.02-2.02l-.72-.26.02-3.8-.66-.18-.17-.69h-6.45l-.15.7-1.94.02-.25.75c-1.35-.36-1.63.81-2.98.45l-.25.75-1.59-.03-.14.71-.9.05-.03.66-2.17.02c-.07,1.11-.96.38-.84,1.42l-1.36.07-.14.7h-1.36l-.16-.7-.65-.04v-.71s1.38,0,1.38,0v-.71s-.65-.05-.65-.05l-.17-.69-1.48-.02-.02-.66-2.63-.02-.25-.75c-1.01-.09-2.27.16-3.24.03-.42-.06-.3-.44-.49-.49-.57-.14-1.41.07-2.03,0l-.25-.75-1.94-.02-.14-.7h-2.87s-.14-.71-.14-.71l-4.14.03-.25-.75h-10.84l-.25.75-3.45-.03-.25.75-3.45-.03-.25.75-2.52-.03-.25.75h-2.06l-.25-.75-1.55.02.02-.16c1.94.21,1.18-.37,1.5-.76.38-.47,1.87-.79,2.55-.75-.2-1.11.87-.37.9-1.57l1.58-.04.12-.77,1.57-.14v-.71l1.57-.13v-.71s1.56-.14,1.56-.14v-.71l1.71-.1.12-.77,1.71-.1.12-.76,1.57-.14v-.71s1.83-.15,1.83-.15v-.71l2.24-.13.25-.82,2.12-.07.25-.81c1.01-.13,2.26.04,3.22-.13.51-.09.23-.5.74-.59,1.84-.32,4.24-.02,6.15-.28l.25-.82,5.85-.3.34.79c2.43.07,5.4-.6,7.76-.43.51.04.28.48.79.52,2.19.16,4.96-.48,7.22-.41l.34.79,5.05-.3.34.79,2.91-.18.2.75,2.51-.11.34.79,2.24-.1.2.75,2.53-.15-.03-.71h1.69l.25-.75h8.53l.25.75,10.15-.03.25.75,8.53-.03.25.75,3.68-.03.25.75,3.45-.03.25.75c.56.05,1.28-.14,1.8-.02.19.05.07.43.49.49.56.08,1.27-.08,1.86-.03l.25.75,2.75-.03.14.7h2.17s.14.71.14.71l1.94.02.25.75,1.83-.03.25.75,2.06-.03.25.75,2.06-.03.14.7,1.94.02.14.7h1.48s.14.71.14.71l1.36.07c-.11,1.04.77.3.84,1.42l1.36-.03.14.7c1.37-.27,1.69.72,2.98.53l.02.66,1.35.07c-.16,1.06.9.3.74,1.36l1.36.07.14.7,1.47.02c-.11,1.04.77.31.84,1.42h1.47s.03.67.03.67l1.36.06.03.66h1.48s.13.71.13.71l1.14.05.02.67,1.59.07c-.16,1.06.9.3.74,1.36.75-.02,1.63.05,2.22.58.11.1.02.48.12.58.2.2.69-.19.77.8l1.36-.04.14.71c2.09-.37,1.39.6,2.13,1.39.17.18.79-.16.65.75l1.58.07c-.15.93.47.56.65.74.07.07.83,1.14.78,1.34l.87.07c-.13.93.48.56.66.75.18.18-.18.83.72.68l.05,4.63-.73.26.03,2.61-.73.26.02,2.02h-.93s.02,1.78.02,1.78l-.68.14-.06,1.41-.64.03-.02,1.42h-.93l.02,1.3-.68.15-.02,1.29-.68.14c.12,1.14-.2,2.06-1.41,1.91l-.04,1.41c-.47-.03-1.39.93-1.37,1.42l-.87.07c-.21,1.13-1.91,1.66-2.12,2.79l-.88.07c.06.89-1.49,1.18-1.43,2.08-1.28-.12-.72.37-.96.69-.04.06-.62.15-.93.55-.19.25-.15.62-.19.67-.22.21-1.39-.13-1.57.07.16,1.07-.9.3-.74,1.36l-1.35.07-.02.66-.9.05-.03.66-1.36.06-.02.66-1.59.07c.16,1.06-.9.3-.74,1.36l-1.35.06-.14.71-1.24.02c.11,1.04-.78.3-.84,1.42-1.79-.31-1.19.2-1.55.64-.29.34-1.62.73-2.12.52l-.14.7-1.36.05-.02.66-1.59.06-.02.66-1.36.06-.03.66-1.36.05-.03.66h-1.47s-.15.72-.15.72l-1.36.06-.02.66-.89.07c.14.93-.48.56-.66.74-.17.19.19.84-.71.68l-.04,1.42h2.19s.25-.74.25-.74l2.06.03.14-.7,1.94-.02.15-.7h1.94s.14-.71.14-.71l1.48-.02.14-.7,1.36-.05.02-.66,1.48-.02.17-.69.61-.07c.11-.1.02-.48.03-.69-.46.02-.92-.06-1.37.03l-.14.7h-1.48s-.02.67-.02.67l-1.36.06-.14.7h-1.48s-.14.71-.14.71l-1.94.02-.14.7-2.19-.02v-.72l.92-.02.02-.66,1.36-.06.14-.71h1.48s.03-.67.03-.67l1.13-.05.14-.71h1.48s.02-.67.02-.67l1.36-.06.02-.66,1.48-.02c.25-1.1,1.34-1.31,2.42-1.25-.16-1.07.89-.3.74-1.36l1.23-.02.14-.7,1.36-.07c-.16-1.06.89-.3.74-1.36l1.59-.07.02-.66,1.59-.07c-.11-1.04.77-.31.84-1.42.57.1,1.49-.34,1.26.61l-.65.17c-.04.63-.07.71-.7.7-.12.1-.02.48-.04.69.42-.02.84.02,1.26.02l.15-.71.91-.02c-.25-1.79.22-1.15.64-1.49.05-.05.49-1.2.59-1.31.11-.11.47,0,.57-.12.13-.13,0-.54.07-.62.16-.16.72.08.88-.07.07-.07-.05-.45.08-.61.45-.57,1.86-.15,1.32-1.98l.91-.03c-.07-.2.7-1.26.77-1.34.19-.19.81.19.66-.74l1.57-.08c-.14-.92.48-.55.66-.74.07-.07.83-1.13.78-1.34,1.1.29.95-.8,1.43-1.4.2-.24,1.55-.82,1.34-1.48l.91-.02.03-1.18c1.03.16.29-.93,1.32-.76l.03-1.41h.93l.03-1.41c1.02.16.29-.93,1.32-.76l.06-1.4.65-.03.02-1.42h.92l.02-1.18.69-.14v-1.29s.69-.15.69-.15c-.42-.96.42-1.3.47-1.65.06-.48.04-1.67-.02-2.17-.05-.34-.19-.74-.47-.35l-.02,1.42-.65.03-.05,1.4-.65.03-.02,1.42h-.92l.02,1.79-.69.14-.05,1.41-.65.02-.06,1.4-.61.07-.16.69-.81-.02v-1.43h.93l-.02-2.02.73-.26.02-1.77.68-.15.02-2,.66-.02v-5.5c.34-.13,1.28.3,1.55.54.11.11.02.48.12.59.2.19.8-.18.65.75l1.35.07c-.15.93.48.55.65.74.18.18-.18.83.72.68l.03,1.41.91.03.07.64.61.07.07,1.39c.47-.03,1.39.93,1.37,1.43,1.27-.13.71.37.96.69.04.05,1.22.55,1.27.61.12.16,0,.53.08.61.16.16.72-.09.87.07.08.08-.05.5.08.63.11.11.46,0,.57.12.34.37.38,1.62,1.19,1.39l.03,1.41.91.03.07.64.61.07.07,1.4.68.14.02,2.01.64.03.02,1.18h.93l-.02,1.3.69.15.06,1.39.62.07.07.64.9.02-.02,1.31.69.14.05,1.41.65.02.05,1.41.65.02.05,1.17.69.14v1.29s.69.14.69.14l.02,1.29.68.15-.03,1.88.73.26-.02,2.75h.92s0,3.34,0,3.34l.71.13-.03,4.04.73.26ZM309.83,254.05v-1.39s-.82,0-.82,0l-.16.66-.61.07c.25,1.74-.43,1.07-1.03,1.84-.36.47.11.89-1.09.68v1.39l.89-.05c.05-.26.43-1.12.56-1.28.06-.07,1.09-.84,1.28-.78l.03-1.14h.93ZM307.05,251.27v-1.39l-.92-.02v-.68h-.7v4.17l-.66.02-.03,1.38h-.92l-.02,1.84-.65.03-.05,1.36-.69.14-.02,1.94-.61.07-.07.61-.88.07c.06.87-1.49,1.15-1.43,2.02-1.28-.13-.72.4-.96.67-.12.14-.76-.06-.65.52l-.46-.11c0-.34,0-.69,0-1.04.11-.02.34.09.43-.03-.14-1.02.9-.29.74-1.32l.91-.03c0-.46-.02-.93,0-1.39.19-.02.56.09.66-.03l.07-.61.61-.07.03-1.37h.93c0-.47-.02-.93,0-1.39.2-.02.56.09.67-.03l.07-.61.61-.07.03-1.14c-1.47.33-1.35.55-1.39,1.85-.25.03-.53-.03-.78-.02l-.18.66-.61.07-.07,1.36-.68.14c0,.43.02.84.02,1.26-.66.1-.96-.34-.98.64-1,.15-1.14,1.23-1.1,2.14-.18.05-.57-.09-.67.03l-.05.63c-.13.12-.53-.03-.71.05-.65.31-2.1,1.94-2.3,2.5l-.87.07c.15,1.03-.89.3-.74,1.32l-1.58.07c.15.9-.47.54-.65.72-1.1,1.09-2.46,3.06-3.6,4.04-.38.33-1.46.52-1.52.57-.09.09.04.48-.08.6-.18.18-.81-.19-.66.71l-1.47.02c-.07,1.07-.96.36-.84,1.37l-1.36.07-.14.68-1.48.02-.14.68h-1.94s-.03.66-.03.66l-1.36.05-.02.65h-2.17s-.14.69-.14.69l-1.59.06-.02.64-1.36.06-.02.64c-1.75-.2-1.1.28-1.43.66-.29.33-1.62.7-2.13.51l-.16.66-.61.07-.04,2.07,2.19.02.14-.69h1.94s.14-.7.14-.7l1.36-.05.02-.64,1.48-.02c.04-1.08,1.63-.79,1.54-1.83l1.47-.02c.07-1.07.96-.36.84-1.37.18-.2,1.35.13,1.57-.08.05-.04.47-1.25.51-1.3.22-.21,1.38.12,1.57-.07-.16-1.03.9-.3.74-1.32l1.36-.07.14-.68,2.06.03.14-.69.9-.05.02-.65,1.35-.07c0-1.07,2-1.44,2.12-2.47l1.24-.02.14-.69.9-.05.02-.67h.69l-.02,1.26.67.17.07.61h2.26c-.16-1.02.89-.29.74-1.32,1.27.16.74-.45.96-.67.11-.11.46,0,.57-.12.34-.36.38-1.57,1.19-1.34l.03-1.37h.93l.02-1.38.64-.02v-1.25s.69-.14.69-.14l.02-1.15h.93l-.02-1.26.69-.14.07-1.35c.89.15.53-.48.71-.66s.8.18.66-.72l.9-.03v-.69h-.92v-1.39h.92l.02-1.38.65-.03v-1.7s.74-.25.74-.25l-.02-2.66h.92ZM294.3,287.16c.12-.1.02-.48.03-.67-.49.02-.99-.02-1.49-.02-.07,1.08-.96.37-.84,1.38l-1.47.02c-.07,1.07-.96.37-.84,1.37l-1.24.02c-.21.96-1.22,1.28-2.18,1.2.16,1.03-.89.3-.74,1.33l-.91.03c-.02.23.02.47,0,.7.5-.03,1,.02,1.49.02.07-1.08.96-.37.85-1.38l1.23-.02c.21-.96,1.23-1.29,2.2-1.2l.02-.64.9-.05.02-.65,1.36-.06.03-.64.89-.06.07-.61.61-.07ZM238.87,299.1v-2.29l-.66-.17-.17-.66h-1.5s-.02,1.39-.02,1.39l-.64.02-.06,1.36-.64.03-.02,2.53h-.93l.02,4.04-.72.25.02,5.08-.72.25v2.66h1.4v-1.39h.93l.02-1.38.68-.14-.03-2.53.73-.25v-1.71s.69-.14.69-.14l-.02-2.66h.92v-4.17l.71-.12ZM231.24,288.44l-.02-2.66h-1.16v1.39h-.92l.02,1.96-.73.25v2.41s-.69.14-.69.14l.03,2.53-.71.12v4.17h-.92v1.16h1.49s.16-1.14.16-1.14l.65-.03v-1.94s.74-.25.74-.25l-.02-1.96h.92c.11-.11-.11-2.14,0-2.62.04-.19.42-.06.47-.49.11-.84-.11-1.91-.03-2.79l.73-.25Z"/>
  <path d="M309.82,252.66v1.39s-.92,0-.92,0l-.03,1.14c-.2-.07-1.23.71-1.28.78-.13.16-.51,1.02-.56,1.28l-.89.05v-1.39c1.19.2.73-.21,1.09-.68.6-.78,1.27-.11,1.03-1.84l.61-.07.16-.66h.81Z"/>
  <path d="M307.05,249.88v1.39h-.92l.02,2.66-.73.25v1.7s-.65.03-.65.03l-.02,1.38h-.92v1.39h.92v.69l-.9.03c.14.9-.48.54-.66.72s.18.81-.71.66l-.07,1.35-.69.14.02,1.26h-.93l-.02,1.15-.69.14v1.25s-.65.02-.65.02l-.02,1.38h-.93l-.03,1.37c-.8-.23-.85.98-1.19,1.34-.11.11-.47.02-.57.12-.22.22.32.83-.96.67.15,1.03-.9.3-.74,1.32h-2.26l-.07-.61-.67-.17.02-1.26h-.69l-.02.67-.9.05-.14.69-1.24.02c-.12,1.03-2.12,1.4-2.12,2.47l-1.35.07-.02.65-.9.05-.14.69-2.06-.03-.14.68-1.36.07c.16,1.02-.89.29-.74,1.32-.19.2-1.35-.14-1.57.07-.05.05-.47,1.26-.51,1.3-.22.21-1.39-.11-1.57.08.11,1.01-.78.3-.84,1.37l-1.47.02c.1,1.03-1.5.75-1.54,1.83l-1.48.02-.02.64-1.36.05-.14.69h-1.94s-.14.7-.14.7l-2.19-.02.04-2.07.61-.07.16-.66c.51.2,1.85-.18,2.13-.51.34-.39-.32-.86,1.43-.66l.02-.64,1.36-.06.02-.64,1.59-.06.14-.68h2.17s.02-.66.02-.66l1.36-.05.03-.65h1.94s.14-.69.14-.69l1.48-.02.14-.68,1.36-.07c-.11-1.01.77-.3.84-1.37l1.47-.02c-.15-.9.48-.53.66-.71.12-.11,0-.51.08-.6.06-.06,1.14-.25,1.52-.57,1.14-.98,2.49-2.95,3.6-4.04.18-.18.8.18.65-.72l1.58-.07c-.16-1.02.88-.29.74-1.32l.87-.07c.2-.56,1.64-2.19,2.3-2.5.18-.08.58.07.71-.05l.05-.63c.1-.12.49.02.67-.03,0,.35,0,.7,0,1.04l.46.11c-.11-.57.52-.38.65-.52.24-.27-.33-.8.96-.67-.06-.87,1.49-1.15,1.43-2.02l.88-.07.07-.61.61-.07.02-1.94.69-.14.05-1.36.65-.03.02-1.84h.92l.03-1.38.66-.02v-4.17h.69v.68s.92.02.92.02ZM299.42,265.41v-1.39c-1.29-.24-.75.4-.98.64-.11.11-.46,0-.57.12-.11.11-.49,1.14-.6,1.25-.11.11-.47.02-.57.12-.22.22.32.83-.96.67.13.9-.48.54-.66.72s.18.8-.71.66l-.07,1.36-.69.14.02,1.96h.69c-.21-.94.45-.57.64-.75.07-.07.83-1.11.78-1.29,1.27.15.74-.46.96-.68.11-.11.43,0,.57-.11.33-.29.67-1.51.55-2.01l.69-.14-.02-1.27h.93ZM273.53,280.46v-.69l-1.6.02-.02.64c-1.72-.25-1.14.4-1.54.72-.36.29-1.44.53-1.92.47v.69l1.95.02c.25-1.07,1.34-1.28,2.42-1.2l.06-.62.65-.04Z"/>
  <path d="M303.12,254.75l-.03,1.14-.61.07-.07.61c-.11.12-.47,0-.67.03.04-1.3-.08-1.52,1.39-1.85Z"/>
  <path d="M301.73,256.6c0,.47.02.93,0,1.39h-.93l-.03,1.37-.61.07-.07.61c-.11.12-.47,0-.66.03,0-.42-.02-.84-.02-1.26l.68-.14.07-1.36.61-.07.18-.66c.25-.02.54.05.78.02Z"/>
  <path d="M299.42,260.07c-.02.47,0,.93,0,1.39l-.91.03c.16,1.03-.88.3-.74,1.32-.09.12-.32,0-.43.03-.03-.91.11-1.99,1.1-2.14.02-.98.32-.54.98-.64Z"/>
  <path class="cls-1" d="M299.42,264.01v1.39s-.92,0-.92,0l.02,1.27-.69.14c.12.5-.22,1.72-.55,2.01-.14.11-.47,0-.57.11-.22.22.32.83-.96.68.05.19-.71,1.23-.78,1.29-.19.18-.85-.19-.64.75h-.69s-.02-1.95-.02-1.95l.69-.14.07-1.36c.89.15.53-.48.71-.66s.79.18.66-.72c1.27.16.74-.45.96-.67.11-.11.46,0,.57-.12.11-.11.48-1.14.6-1.25.11-.12.47-.02.57-.12.23-.24-.31-.88.97-.64Z"/>
  <path d="M292.72,302.01h5.09c-.24,1.34-.73,1.56-2.07,1.42l-.03.64h-1.94s-.25.74-.25.74l-2.06-.03-.25.73-2.75-.03-.14.68-1.36.06-.03.64-2.17.02-.14.68c-1.29-.18-1.61.78-2.98.52l-.02.65-1.36.05-.14.68-1.48.02-.02.64h-1.25s-.14.7-.14.7l-1.35.07c.16,1.02-.9.29-.74,1.31l-1.58.07c.16,1.03-.88.29-.74,1.32l-.88.07c.15,1.02-.89.29-.74,1.32-.11.11-1.05.02-1.36.03.12-1.21.34-.43.64-.75.11-.11,0-.47.11-.58.26-.27,1.52-.75,1.35-1.42l.89-.06.02-.64,1.36-.07.03-.64.9-.05.02-.64,1.36-.06.03-.64,1.59-.06.03-.64,1.13-.05.02-.65c1.37.26,1.69-.7,2.98-.52l.02-.64,1.59-.06.15-.68,1.49.02c.02-.23-.02-.47,0-.7.69-.02,1.39.02,2.08,0v-.7h-2.08c-.02.23.02.47,0,.7-.72.02-1.45,0-2.18-.02l-.25.73-2.06-.03-.14.68-1.59.06-.14.68c-.56.06-1.27-.13-1.8,0-.08.02-.58.85-1.53.48l-.14.69-2.06-.03-.14.68h-1.48c-.07,1.09-.96.38-.84,1.38l-1.35.07-.03.64-.9.05-.02.64-1.13.06-.03.64-1.58.07c.16,1.03-.9.29-.74,1.32l-1.58.07c.16,1.02-.9.29-.74,1.31l-1.35.07-.04.63c-.42-.1-1.28.57-1.82.57-.25,0-.42-.13-.47-.54.92.24.57-.48.75-.64.19-.18.8.18.65-.71l1.58-.07c-.16-1.03.89-.3.74-1.32l1.58-.07c-.16-1.03.89-.29.74-1.32l1.58-.07c-.16-1.02.9-.29.74-1.32l1.12-.06.14-.69,1.47-.02c-.11-1.01.77-.3.84-1.37l1.36.03.14-.69c.95.37,1.45-.47,1.54-.48.56-.14,1.41.07,2.03,0l.14-.68,1.59-.06.15-.68,1.82.03.25-.73,1.83.03.25-.73,2.06.03.25-.73,2.05.03.25-.73,2.53.03.25-.72,2.75.02.12-.7Z"/>
  <path d="M294.33,286.48c-.02.2.09.57-.03.67l-.61.07-.07.61-.89.06-.03.64-1.36.06-.02.65-.9.05-.02.64c-.97-.09-1.99.25-2.2,1.2l-1.23.02c.11,1.01-.78.3-.85,1.38-.49,0-.99-.05-1.49-.02.02-.23-.02-.47,0-.7l.91-.03c-.16-1.03.9-.3.74-1.33.96.07,1.97-.25,2.18-1.2l1.24-.02c-.11-1,.77-.3.84-1.37l1.47-.02c-.11-1.01.77-.3.84-1.38.5,0,1,.04,1.49.02Z"/>
  <path class="cls-1" d="M287.63,304.79v.7c-.69.02-1.39-.02-2.08,0,.02-.23-.02-.47,0-.7h2.08Z"/>
  <path class="cls-1" d="M285.55,305.49c-.02.23.02.47,0,.7l-1.49-.02-.15.68-1.59.06-.02.64c-1.29-.18-1.61.78-2.98.52l-.02.65-1.13.05-.03.64-1.59.06-.03.64-1.36.06-.02.64-.9.05-.03.64-1.36.07-.02.64-.89.06c.17.66-1.09,1.15-1.35,1.42-.12.11,0,.47-.11.58-.3.31-.51-.47-.64.75-.32,0-1.26-.08-1.37.03l-.06.62-.65.04v.7s1.14-.03,1.14-.03l.13.04-.25.74-5.52-.03-.25.75h-3.11v-.92c.54,0,1.4-.67,1.82-.57l.04-.63,1.35-.07c-.16-1.02.89-.29.74-1.31l1.58-.07c-.16-1.03.89-.29.74-1.32l1.58-.07.03-.64,1.13-.06.02-.64.9-.05.03-.64,1.35-.07c-.11-1.01.77-.3.84-1.38h1.48s.14-.69.14-.69l2.06.03.14-.69c.95.37,1.45-.47,1.53-.48.52-.12,1.24.07,1.8,0l.14-.68,1.59-.06.14-.68,2.06.03.25-.73c.73,0,1.46.03,2.18.02Z"/>
  <path d="M282.31,263.31v.72l-1.95.02-.25-.75-8.07.03-.25-.75-4.6.03-.25-.75-4.37.03-.25-.75c-.95-.08-2.1.15-3.01.03-.44-.06-.22-.46-.66-.52-1.26-.16-2.87.15-4.17.03l-.25-.75-3.68.03-.25-.75-3.21.03-.25-.75-4.37.03-.25-.75-4.83.03-.25-.75-6.91.03-.14-.71-.92-.02v-.71l13.05-.02.25.75,12.46-.03.25.75,14.54-.03.25.75,1.95-.02v-.71l-.65-.04-.06-.65-1.24-.02-.14-.7-1.35-.07c.16-1.07-.9-.3-.74-1.36l-1.58-.07-.03-.66-1.36-.05-.14-.7-1.48-.02-.14-.7c-.59-.05-1.29.11-1.86.03-.42-.06-.3-.44-.49-.49-.47-.11-1.07.06-1.56.02l-.15-.71h-2.17s-.25-.75-.25-.75l-4.37.03-.25-.75h-7.14l-.25.75-3.45-.03-.25.75-2.52-.03-.25.75c-.6.04-1.29-.11-1.86-.04-.42.06-.3.45-.49.49-.57.14-1.41-.07-2.03,0l-.14.7-1.59.06-.02.66h-1.71s-.15.71-.15.71l-1.58.07c.16,1.07-.9.3-.74,1.36l-1.58.07c.16,1.07-.9.3-.74,1.36l-1.58.07c.15.93-.47.56-.65.75-.26.26-.76,1.58-1.41,1.39l-.03,1.41c-1.22-.15-1.53.76-1.42,1.89-1.03-.17-.29.93-1.32.76l-.03,1.41h-.93l-.68-.02.02-.68.68-.15-.02-1.3h.93l-.02-1.3.69-.15.02-1.18h-1.62v-1.43h.93l-.02-2.02.69-.15.05-1.4.65-.02c-.37-.99.47-1.5.48-1.59.11-.51-.07-1.2,0-1.75h.93l-.02-2.74.73-.26-.03-3.33.72-.26-.02-3.09.72-.26-.02-2.02h1.62v3.34l-.7.13.02,2.75h.69l-.02-1.31.67-.17.07-.64c1.27.13.71-.37.96-.69.04-.06,1.12-.49,1.26-.61.14-.11.72-1.26.78-1.33.16-.16.69.09.87-.07.06-.05.47-1.3.52-1.35.18-.17.92.02,1.23-.02l.15-.7.9-.04v2.16s-1.59.04-1.59.04c.13.92-.41.54-.65.75-.27.22-.31,1.48-1.42,1.16l-.08.63-.61.07-.07,1.39c-.47-.02-1.4.93-1.37,1.43l-.91.03v1.43h.81c.2-.02.03-.53.17-.66.56-.55,1.91-1.21,2.05-2.17,1.1.3.95-.79,1.43-1.4.1-.11.45-.02.56-.13s.02-.49.13-.58c.63-.54,1.43-.61,2.22-.58-.16-1.07.88-.3.74-1.37l.88-.07c.12-.95,1.5-1.62,2.05-2.17.11-.11.02-.44.07-.63l1.58-.06.03-.66,1.36-.06.14-.7,1.96.02v1.43l-1.27-.02-.14.7-1.35.07c.15.93-.48.56-.66.74-.11.11,0,.48-.11.6-.19.2-.69-.2-.76.79l-1.47.02c.14.92-.47.55-.65.74-.08.08-.23.75-.83,1.05-.92.46-1.91,1.17-2.26,2.2l-.88.07c.2.66-1.14,1.23-1.34,1.48-.48.59-.33,1.69-1.43,1.39.16.7-1.1,1.19-1.36,1.46-.28.27.28,1.02-1.54.64-.08.99-.56.6-.76.8-.11.1-.33.82-.94,1.11-.71.34-.83-.55-.78,1.43-1.03-.16-.29.93-1.32.76l-.06,1.4-.65.02-.02,1.43h.69c-.21-.97.46-.59.64-.78.07-.07.83-1.14.78-1.34l.88-.07c-.15-1.07.89-.3.74-1.36l1.47-.02c.07-1.11.96-.38.84-1.42,1.27.21,1.47-.77,2.74-.53l.02-.67,1.36-.05.14-.7,1.48-.02.14-.7,2.06.03.25-.75,2.06.03.25-.75,2.52.03.25-.75,3.45.03.25-.75h7.84l.25.75,3.68-.03.25.75,2.52-.03.25.75,2.06-.03.14.7,1.36.05.02.66,1.48.02.14.7,1.36.05.03.66c1.32-.28,1.6.62,2.75.53l.02.67.9.05.03.66,1.35.07c-.16,1.06.89.3.74,1.36l1.58.07c-.16,1.06.88.3.74,1.36l.87.07c.21,1.14,1.92,1.67,2.13,2.8l.9.03c-.42.98.43,1.51.46,1.6.11.52-.07,1.2,0,1.75l2.19-.02.14.7,1.37.02ZM277.23,262.6v-.72h-.67s-.06-1.17-.06-1.17c-.9.16-.54-.5-.72-.68-.18-.19-.69.2-.76-.79h-2.17s-.14-.71-.14-.71l-14.55.03-.25-.75-8.66.02v.72h3.47l.13.73,3.68-.03.25.75,3.91-.03.25.75c1.3.11,2.91-.2,4.17-.03.44.06.22.46.66.52,1.19.16,2.71-.14,3.93-.03l.25.75,5.07-.03.25.75,1.95-.02ZM247.63,257.81v-.71h-2.08v.71h2.08Z"/>
  <path class="cls-1" d="M277.23,261.88v.72l-1.95.02-.25-.75-5.07.03-.25-.75c-1.23-.11-2.75.19-3.93.03-.44-.06-.22-.46-.66-.52-1.26-.16-2.87.15-4.17.03l-.25-.75-3.91.03-.25-.75-3.68.03-.13-.73h-3.47v-.72l8.66-.02.25.75,14.55-.03.14.7h2.17c.07,1,.58.61.76.8.18.18-.18.84.72.68l.06,1.16h.67Z"/>
  <path class="cls-1" d="M273.53,279.77v.69l-.65.04-.06.62c-1.08-.07-2.17.14-2.42,1.2l-1.95-.02v-.69c.48.07,1.56-.18,1.92-.47.4-.32-.18-.98,1.54-.72l.02-.64,1.6-.02Z"/>
  <path class="cls-1" d="M271.91,257.1v.71l-1.95.02-.25-.75-14.54.03-.25-.75-12.46.03-.25-.75-13.05.02-1.41-.04c-.16-1.06.89-.3.74-1.36l1.58-.07.15-.7h1.71s.02-.67.02-.67l1.59-.06.14-.7c.62-.07,1.45.15,2.03,0,.19-.04.07-.43.49-.49.56-.07,1.26.08,1.86.04l.25-.75,2.52.03.25-.75,3.45.03.25-.75h7.14l.25.75,4.37-.03.25.75h2.17s.15.72.15.72c.49.04,1.1-.12,1.56-.02.19.05.07.43.49.49.56.08,1.27-.08,1.86-.03l.14.7,1.48.02.14.7,1.36.05.03.66,1.58.07c-.16,1.07.9.3.74,1.36l1.35.07.14.7,1.24.02.06.65.65.04Z"/>
  <path d="M269.83,314.99c-.02.23.02.47,0,.7l-.92.02-.02.64-1.14.03v-.7s.65-.04.65-.04l.06-.62c.11-.11,1.05-.02,1.37-.03Z"/>
  <path d="M265.31,223.61l.25.75-.25,1.16-2.75.03-.25-.75c-.59-.05-1.29.11-1.86.03-.42-.06-.3-.44-.49-.49-.51-.12-1.23.07-1.8.02l-.25-.75-3.45.03-.25-.75-3.68.03-.25-.75-8.53.03-.25-.75-10.15.03-.25-.75h-8.53l-.25.75h-1.69l-.08-1.59-1.56.05.12-.65,3.91.03.25-.75h14.78l.25.75,5.52-.03.25.75,5.52-.03.25.75,4.37-.03.25.75,3.45-.03.14.7h1.94s.25.76.25.76l2.06-.03.25.75,2.75-.03Z"/>
  <polygon class="cls-1" points="258.04 350.82 258.04 351.53 227.75 351.53 227.63 350.8 223.26 350.84 223 350.08 220.37 350.07 220.23 349.36 217.48 349.39 217.22 348.65 214.47 348.68 214.22 347.93 210.77 347.96 210.51 347.21 207.64 347.23 207.64 346.51 211.9 346.49 212.16 347.25 217.22 347.21 217.48 347.96 223 347.93 223.26 348.68 229.94 348.65 230.19 349.39 238.03 349.36 238.28 350.12 249.13 350.08 249.38 350.84 258.04 350.82"/>
  <path d="M250.42,297.63v8.83l-.72.26c-.03.36-.04.74-.04,1.11h-.4v-5.31h-.7v3.59h-.92l.02,3.21-.73.26.03,5.47-.73.26.02,1.79h-.69v-10.52l.71-.13-.03-3.8.73-.26.02-2.72.66-.02v-4.79h.92v-1.79h.57c0,1.17.04,2.34.11,2.88.04.34.82.6.5,1.52l.69.14Z"/>
  <path d="M249.72,283.63c-.18,1.84.23,4.1.02,5.88-.06.46-.44.23-.5.69-.07.55-.11,1.71-.11,2.88h-.57v-3.23h-.92v3.58l-.71.13.03,3.33-.73.26-.02,3.2-.61.07-.07.64-.88.07-.07.64-.61.07-.17,1.42h-1.49v-2.88h.93v-4.06l.7-.12.02-3.44.66-.02v-4.3h.93l-.02-2.5.72-.26-.03-2.61.73-.26.02-2,.61-.07.17-.7,1.49.02-.03,1.42-.61.07-.07.64-.91.03v.72l.92.02.02.66,1.14.02ZM247.63,286.5v-2.15h-.69v2.15h.69ZM246.94,290.56v-2.63h-.69c0,.88.02,1.76,0,2.63-.23.02-.47-.02-.69,0v3.59h.69c.02-1.19-.02-2.39,0-3.59.23-.02.47.02.69,0ZM245.55,297.02v-2.16h-.92v2.16h.92Z"/>
  <rect class="cls-2" x="246.94" y="284.35" width=".69" height="2.15"/>
  <rect class="cls-1" x="245.55" y="257.1" width="2.08" height=".71"/>
  <path class="cls-2" d="M246.94,287.93v2.63c-.23.02-.47-.02-.69,0,.02-.87,0-1.75,0-2.63h.69Z"/>
  <path class="cls-1" d="M246.25,290.56c-.02,1.2.02,2.4,0,3.59h-.69v-3.59c.22-.02.46.02.69,0Z"/>
  <rect class="cls-1" x="244.63" y="294.87" width=".92" height="2.16"/>
  <path d="M238.87,296.81v2.29l-.71.12v4.17h-.92l.02,2.66-.69.14v1.71s-.74.25-.74.25l.03,2.53-.68.14-.02,1.38h-.93v1.39h-1.39v-2.66s.71-.25.71-.25l-.02-5.08.72-.25-.02-4.04h.93l.02-2.53.64-.03.06-1.36.64-.02.02-1.38h1.5s.17.66.17.66l.66.17ZM237.25,301.88l-.02-2.66h-.69s-.05.66-.05.66l-.67.17.03,3.22-.71.12v4.17h.69l-.02-2.65.73-.25v-2.65s.69-.14.69-.14Z"/>
  <polygon class="cls-1" points="237.23 299.23 237.25 301.88 236.56 302.02 236.55 304.67 235.82 304.92 235.84 307.57 235.15 307.57 235.15 303.4 235.86 303.27 235.82 300.05 236.5 299.88 236.54 299.23 237.23 299.23"/>
  <polygon class="cls-1" points="234.23 269.05 234.23 269.77 218.17 269.78 217.92 269.03 215.86 269.04 215.73 269.77 215.04 269.77 215.03 268.33 216.64 268.3 216.7 267.66 217.36 267.48 217.35 266.18 218.04 266.18 218.06 266.87 220.69 266.88 220.94 267.63 224.62 267.6 224.87 268.35 229.94 268.32 230.19 269.06 234.23 269.05"/>
  <path d="M231.22,285.79l.02,2.66-.73.25c-.07.88.14,1.95.03,2.79-.06.43-.43.3-.47.49-.11.48.11,2.52,0,2.62h-.92l.02,1.96-.73.25v1.94s-.65.03-.65.03l-.16,1.15h-1.49v-1.16h.92v-4.17l.71-.12-.03-2.53.69-.14v-2.41s.74-.25.74-.25l-.02-1.96h.92v-1.39h1.16Z"/>
  <path class="cls-1" d="M229,270.24c.25.03.14.52.14.72-.98.06-2.02,0-3.01,0,.02-.24-.02-.48,0-.72h2.87Z"/>
  <path class="cls-1" d="M226.13,270.96c-.02.24.02.48,0,.71l-3.57-.02-.25.75-3.21-.03-.13.73h-5.31l.02-1.42.69-.14-.02-1.31,8.66-.02.25.75c.96-.02,1.92-.02,2.88-.02Z"/>
  <path d="M220.62,221.49l.03.71-2.53.15-.2-.75-2.24.1-.34-.79-2.51.11-.2-.75-2.91.18-.34-.79-5.05.3-.34-.79c-2.26-.07-5.03.57-7.22.41-.51-.03-.28-.48-.79-.52-2.35-.16-5.33.51-7.76.43l-.34-.79-5.85.3-.25.82c-1.91.25-4.32-.04-6.15.28-.51.09-.23.5-.74.59-.96.17-2.21,0-3.22.13l-.25.81-2.12.07-.25.82-2.24.13v.71l-1.84.15v.71s-1.56.14-1.56.14l-.12.76-1.71.1-.12.77-1.71.1v.71l-1.57.14v.71s-1.56.13-1.56.13v.71l-1.57.14-.12.77-1.58.04c-.02,1.2-1.1.46-.9,1.57-.68-.03-2.17.29-2.55.75-.32.39.44.98-1.5.76l-.02.16h-.51s-.14-.7-.14-.7l-.57-.02s0-.08.02-.1c.08-.1,1.74-.02,2.53-.75.13-.11,0-.51.11-.64.21-.21.93.16.72-.83l1.7-.11c.02-1.19,1.09-.46.9-1.57l1.69-.11c.02-1.2,1.09-.46.9-1.57l1.55-.16c-.25-1.13,1.02-.38.78-1.51l1.56-.15.12-.76,1.71-.1.12-.77,1.71-.1v-.71l1.57-.13v-.71c.14-.16,1.23,0,1.66-.12.21-.06.05-.47.54-.56.58-.1,1.28.02,1.88-.06l.12-.76,2.25-.13.25-.82,3.45-.14.25-.82,7.19-.33.25-.82,5.18-.22.2.75,12.54-.68.34.79,4.78-.29.34.79,4.78-.28.34.79c.85.02,1.86-.24,2.68-.17.5.03.37.46.59.49.67.12,1.63-.16,2.35-.13l.2.75,1.72-.07.2.75h.03l-.02.07-.92.02v.71l2.19-.02.25.75h.13Z"/>
  <polygon points="220.53 219.9 220.62 221.49 220.48 221.49 220.23 220.74 218.04 220.75 218.04 220.04 218.96 220.02 218.97 219.95 220.53 219.9"/>
  <path d="M219.66,294.87l.02,6.09-.73.26.02,7.52h-.93s.02,2.74.02,2.74l-.71.13h-.69l-.02-2.02.7-.13v-5.5h-.69v2.16h-.93s-.02,1.18-.02,1.18l-.68.15-.02,2-.68.15-.68-.13v-5.5l.7-.13-.02-2.61.72-.26-.02-1.89.72-.26-.02-1.78h.93l-.02-1.3.67-.18.07-.63,2.29-.04ZM217.35,299.65v-2.16h-.69c-.02.71,0,1.44,0,2.16-.3,0-.61,0-.92,0,0,.95,0,1.92,0,2.87-.23,0-.46,0-.69,0v2.87h.69c0-.95,0-1.92,0-2.87.31,0,.62,0,.93,0,0-.95-.02-1.92,0-2.87.24,0,.47,0,.69,0Z"/>
  <polygon class="cls-1" points="219.66 259.97 219.63 261.15 218.95 261.29 218.97 262.6 218.04 262.6 218.06 263.9 217.38 264.05 217.36 264.73 217.35 265.46 216.66 265.46 216.64 263.44 217.36 263.18 217.39 261.19 218.95 260.65 218.97 259.97 219.66 259.97"/>
  <path d="M218.03,241.09v.7s-1.25.02-1.25.02l-.15-.7-.91-.03v1.43h.93v1.92s-.91-.05-.91-.05l-.17-.69-1.23.02h-1.62l-.02-.7-1.36-.5-.02-.7h1.39v-.72h-2.08v-1.43h2.08v-1.43l-1.27-.02-.12.73h-.69l-.04-.67-.65-.05v-.71s1.25.02,1.25.02l.17-.69.61-.07.04-2.13h-.69c.2.97-.46.59-.65.78-.11.11,0,.48-.11.6-.54.56-1.93,1.24-2.05,2.18l-.87.07c-.21,1.13-1.91,1.67-2.12,2.8l-.88.07c.02.43-1.14,1.65-1.59,1.87-.18.09-.51-.02-.74.02.25,1.79-.23,1.14-.64,1.49-.27.23-.4,1.69-1.18,1.39l-.03,1.42-.91.02-.07.64-.61.07-.07,1.39-.69.15.02,1.3-.92.02-.02.7h-.69l-.05-.68-.61-.06v-1.4s.63-.03.63-.03v-1.29s.68-.18.68-.18l.07-.64.91-.02.03-1.42c.89.16.54-.49.71-.68.18-.18.8.19.66-.74l.9-.03v-1.44l-.89.05c.02.66-.07.68-.68.72l-.05.66h-.69l-.02-.68-.91-.03.02,2.02c-1.07.07-.36.99-1.36.88l-.03,1.41h-2.31l-.02-1.42-.67-.02v-.71l.71-.13-.02-2.75h-.69v2.16c-.3-.02-.64.04-.92,0,.03-1.11-.03-2.24,0-3.34-.65-.14-.42.23-.47.69-1.2-.3-1.32.62-2.3.5v-1.2l.91-.02.06-.65.65-.05v-.7s-1.59-.03-1.59-.03l-.02-.66-1.36-.05-.14-.71h-2.17s-.02-.67-.02-.67l-1.59-.06-.14-.7h-1.71s-.14-.71-.14-.71l-2.06.03-.25-.75v-.7l2.31-.02.14.7h1.71s.14.71.14.71l1.59.06.14.7,2.17.02.02.66,1.36.05.14.7,1.47.02.15.7.9-.02c.37-.04-.34-1.32-.4-1.37-.22-.2-.78.17-.65-.75l-1.58-.07-.14-.7-1.95-.02-.02-.66-1.59-.06-.14-.7-2.06.03-.12-.74.12-1.18c.62.07,1.45-.15,2.03,0,.19.05.07.43.49.49.97.13,2.23-.12,3.24-.03l.25.75,2.63.02.02.66,1.48.02.17.69.65.05v.71s-1.38,0-1.38,0v.71s.65.04.65.04l.16.7h1.36l.14-.7,1.36-.07c-.11-1.04.77-.3.84-1.42l2.17-.02.03-.66.9-.05.14-.71,1.59.03.25-.75c1.35.36,1.63-.81,2.98-.45l.25-.75,1.94-.02.15-.7h6.45l.17.69.66.18-.02,3.8.72.26-.02,2.02h.93s.03,1.41.03,1.41c.65-.04.67.05.7.69l.64.06ZM215.03,242.51v-2.87h-.69v2.87h.69Z"/>
  <polygon class="cls-1" points="217.35 303.96 217.35 309.45 216.64 309.58 216.66 311.61 214.34 311.61 214.33 309.58 215.01 309.44 215.03 307.44 215.7 307.29 215.73 306.1 216.66 306.11 216.66 303.96 217.35 303.96"/>
  <path class="cls-1" d="M217.35,297.5v2.16c-.23,0-.46,0-.69,0,.02-.71,0-1.44,0-2.16h.69Z"/>
  <path class="cls-1" d="M216.65,299.65c-.02.95.02,1.92,0,2.87-.31,0-.62,0-.93,0,0-.95,0-1.92,0-2.87.31,0,.62,0,.92,0Z"/>
  <path class="cls-1" d="M215.73,302.52c0,.95,0,1.92,0,2.87h-.69v-2.87c.23,0,.46,0,.69,0Z"/>
  <path class="cls-1" d="M213.65,254.23v12.67h-.93l.02,2.02-.69.14-.05,1.17-.65.02v1.29s-.69.14-.69.14l-.06,1.4-.62.07-.17.69-2.17.02-.02.69h-10.4v1.43l.92.02v.69h9.49l-.03,1.41c-.89-.13-.53.43-.73.67-.03.05-.91.56-.96.57-.36.06-1.5.06-1.82-.02-.19-.04-.07-.43-.49-.49-.9-.12-2.07.11-3.01.04l-.14-.7-1.48-.05-.17.69-.67.18.02,1.78h5.09l.02.69,1.37.03v.7c-.94-.21-.57.48-.75.67-.18.18-.8-.2-.66.74l-.89.06-.14.71-1.01-.06c.11-1.03-.78-.3-.84-1.41l-1.48-.02-.02-.66h-1.48s-.13-.74-.13-.74c-.9-.02.04,1.07-1.39.71v1.3s.65.18.65.18l.07.63,1.47.02.14.7,1.36.06.03.66.92.02v.71l-.91.03c.02.45-1.13,1.63-1.6,1.87-.18.08-.58-.07-.71.05l-.04.65-1.35.07c.18,1.07-.98.3-.71,1.39h-12.02v.71l.65.05.04.67h8.09c.1.21-.47,1.32-.53,1.37-.24.22-.65-.19-.75.8h-2.75l-.25-.75-4.37.03-.25-.75-1.95.02v2.16c1.11-.39.98.77,1.45,1.36.1.11.45.02.56.13.11.12.02.49.13.58.29.25,1.19.69,1.55.55v.72h-.93v.71l1.5-.02.17.69.61.07.03,2.13h.93s0,1.43,0,1.43l-.9-.04-.15-.7-2.75.03-.25-.75-1.82.03-.25-.75-2.75.03-.25-.75-2.17-.02-.07-.64-.66-.17.04-1.29.68-.15v-4.65h-2.09v6.22l-.9-.03-.16-.7-2.65.02v-1.92c-.96-.43-1.45.45-1.54.48-.56.16-1.55-.59-1.59-1.21h-1.36c-.16.84-1.19,1.44-2.05,1.21-.08-.02-.6-.91-1.54-.48l-.02-2.74.73-.26-.02-2.02-1.95-.02-.14.71-1.61.02v.71s.71.13.71.13l-.02,2.02-1.36-.03-.03-.66-.89-.06c.02-1.17-.6-.11-.71-1.4.23,0,.46,0,.69,0l.02-.69.92-.02v-.72h-1.63c.03.48-.03.97,0,1.43-.2,0-.53.09-.65-.05l-.17-.68-1.49.02.02-3.46c-.05-.24-1.03.11-.71-.84-.54-.04-.41-.08-.47.35-.06.46.09,2.43,0,2.52h-.69l-.02-.7-.89-.06-.07-.64-.65-.05v-.71s1.62,0,1.62,0v-.71l-.93-.12.93-.36v-.71l-.8-.02h0s1.48,0,1.48,0l.14.69,2.65-.02.02-1.96-.67-.17-.07-.61-1.93-.02c-.12-1.06-.83-.37-.95-1.43l-1.36.03-.14-.68-1.59-.06-.02-.64-1.36-.06-.14-.68c-1.32.34-1.58-.7-2.87-.48l-.14-.69-1.82.03-.25-.72-1.95-.02-.03-.64-.79-.03-.16.66-.61.07-.03,1.84,1.37.02.14.68,2.17.02.02.64,1.13.05.14.69h1.48s.14.7.14.7l2.06-.03c.07,1.07.96.37.84,1.37l1.59.07.02.64.56.02-2.75.03-.25-.75-3.68.03-.14-.71-1.13-.05-.02-.66-1.59-.07c.16-1.06-.9-.3-.74-1.36l-1.36-.07-.14-.7h-1.48s-.14-.71-.14-.71l-1.47-.02c.16-1.07-.9-.3-.74-1.36l-1.01-.02-.14-.71-.92-.02c-.24-.93,1.11-.24,1.36-.52l.07-.63.61-.07.04-1.42-2.65-.02-.14.7h-1.59s-.07-.65-.07-.65l-.65-.04v-.71s2.98-.03,2.98-.03l.03-.66.92-.02v-1.43l-1.61-.02-.14-.71-5.07.03-.14-.7h-1.48s-.14-.72-.14-.72l-1.12-.06c.15-.93-.49-.56-.66-.74-.12-.12,0-.53-.08-.62-.15-.13-.56.03-.71-.05-.42-.23-.46-.75-1.56-.49l-.02-.66-1.59-.06-.14-.7-2.06.03-.25-.75-1.95.02v-1.44l1.95-.02.25.75,4.37-.03.25.75,2.52-.03.15.71h2.17s.25.75.25.75l2.06-.03.14.71c.95-.38,1.41.48,1.71.52.56.07,1.26-.08,1.86-.04l.25.75,2.65-.02-.04-1.17-.61-.07-.17-.69h-1.01s-.02-.67-.02-.67l-1.59-.05-.14-.71-2.06.03-.14-.7-1.36-.05-.14-.71-2.06.03-.25-.75-2.52.03-.25-.75-2.75.03-.12-.73h-5.32l-.02-4.65.73-.26-.03-2.61.73-.26-.03-2.61.73-.26-.02-1.79h.93s.02-1.42.02-1.42l.69-.14.02-2,.61-.07.07-.64.91-.02-.02-1.3c1.07-.07.36-.99,1.36-.88l.07-1.39.61-.07.07-.63c.93.09,1-.82,2.05-.52.34,1.32-.47,1.11-.47,1.2v7.89h-.69l-.02-.7-.89-.06c.02-.66-.04-.7-.67-.73l-.16-.67c-1.04-.27-.47,1.51-.53,2.12.82.31,1.15.69,2.25.54-.16,1.07.9.3.74,1.37l1.14.03v1.43h.92l-.02-2.73c1.08-.57,1.69-.57,1.41-2.06l.9.04.02.68h.69v-.69s1.38-.02,1.38-.02v-1.44l.91.04.15.7,1.26-.02v-2.16h.93s0-2.87,0-2.87h-.92v1.44h-1.26s-.15-.69-.15-.69l-.91-.03v1.43h-3.69v2.16h-.69s-.02-.7-.02-.7l-.91-.02v-4.3h.92v-6.22l.71-.13-.03-3.32.73-.26-.02-2.5h.93v-2.87l1.26-.02.14.7,1.59.07c-.16,1.06.89.3.74,1.36l1.47.02.14.71,1.12.06c-.16,1.07.9.3.74,1.36l1.47.02c.13.79.96,1.21,1.72,1.25l.07.62.67.18v1.29s.65.02.65.02l.06,1.41.64.02.02,1.43h.93s.03,1.41.03,1.41c.89-.15.53.48.72.67.11.11.47.02.56.13.71.89.12,1.73,2.02,1.38l.17-.69.61-.07v-1.4s-.65-.02-.65-.02v-3.58h.69v2.16h.81c.05-.98.56-.59.74-.79.07-.06.75-1.25.82-1.31.19-.2.68.2.76-.79h3.67c.08.02.55,1.26.66,1.38s.47.02.57.12c.24.25-.31.91.98.66v-1.43l-.91-.03-.06-.64-.65-.05v-.71s3.56.02,3.56.02l.25-.75h9.46l.25.75,7.84-.03.25.75,4.37-.03.25.75,2.06-.03.14.7h1.71s.14.71.14.71l1.59.06.02.66h2.17s.14.72.14.72l1.36.05.02.66,1.6.03v.7s-.65.05-.65.05l-.06.65-.91.02v1.2c.99.12,1.1-.79,2.3-.5.05-.46-.18-.83.47-.69-.03,1.11.03,2.23,0,3.34-.14-.02-.37.07-.44-.02l-.02-.7h-.69v2.16h1.16c0-.48-.02-.96,0-1.43.29.04.62-.02.92,0v-2.16h.69l.02,2.75-.71.13v.71l.67.02.02,1.42h2.31l.03-1.41c1.01.11.29-.8,1.36-.88l-.02-2.02.91.03.02.68h.69l.05-.66c.61-.04.7-.06.68-.72l.89-.05v1.44l-.9.03c.14.93-.48.56-.66.74-.17.19.18.84-.71.68l-.03,1.42-.91.02-.07.64-.67.18v1.29s-.65.03-.65.03v1.4s.62.06.62.06l.05.68h.69l.02-.7.92-.02-.02-1.3.69-.15.07-1.39.61-.07.07-.64.91-.02,1.97.7c-.1.99-.51.58-.75.8-.11.09-.06.39-.16.55-.22.34-.92.52.1.93v.48c-.64.17-.49.57-.45,1.18l-.66.19-.07.64-.91.02v1.44l1.5.02.14-.7h1.12l.03.66.89.06c-.06.2.7,1.26.78,1.34.18.19.8-.18.65.75l1.6.03v2.16s2.18.02,2.18.02l.12-.74h.69l-.02,1.42-.69.15.02,1.79h.69l.02-1.18.69-.15v-1.29s.69-.14.69-.14v-1.29s.65-.02.65-.02l.05-1.41.64-.02.03-2.14h.69l.02.7.92.02ZM194.23,281.16v-.7l-.65-.04-.07-.61-1.93-.05-.15.68h-2.86s-.25.74-.25.74c-.8.09-1.99-.19-2.72,0-.17.04-.14.41-.32.45-.73.17-1.92-.11-2.72,0l-.25.72-1.82-.03c-.07.96-.58.59-.77.77-.18.19.2.69-.77.77l.02,1.96,1.96.02.14-.69,1.36-.05.14-.69,2.06.03.25-.73,2.75.03.25-.73,2.06.03.25-.72,1.71-.02.02-.64c1.14.21,1.45-.32,2.3-.49ZM192.84,257.99v-.7l-.92-.02-.14-.69h-.9l-.15.69-1.58.06c.16,1.03-.9.3-.74,1.32l-1.24.02-.14.69-.92.02-.03,1.37c-.9-.15-.54.48-.71.66-.18.18-.8-.19-.66.72l-.88.07-.07.61-.61.07-.06,1.12-.65.02c.08.96-.31,2.37-1.41,2.07l.02,1.96-.69.14-.05,1.37-.69.14.03,2.99-.72.25v4.61l.72.25-.02,3.82h1.39v-2.56h.93c-.14-.61.11-1.53.52-2.02.1-.11.46-.02.56-.12.19-.2-.18-.85.75-.64v-.69s-1.72-.02-1.72-.02l-.14.68-1.61.02v-5.33l.67-.02.02-2.07h.93c-.17-.83.24-2.14,1.11-2.11l.07-1.35.64-.02c-.07-1.93.09-1.07.77-1.39.2-.09.2-.3.29-.36.19-.11.51-.07.56-.11.2-.2-.11-1.16.07-1.34l.61-.07.07-.61.88-.07c-.06-.2.7-1.23.78-1.3.18-.18.8.18.65-.71l1.59-.07.02-.64,1.36-.06.03-.64,1.37-.02ZM180.36,295.99v-1.39h-1.39v.69s.66.04.66.04l.04.66h.69ZM177.36,255.09c.05-.7-1.25-.2-1.63-.34l-.03,1.14c-1.03-.16-.29.89-1.32.74l-.06,1.35-.69.14.02,1.96h-.92c.42.95-.44,1.47-.46,1.55-.16.62.08,1.58,0,2.26l-.73.25.02,2.66h-.93v6.02h.92l-.02-4.51.73-.25c.06-.73-.12-1.62-.03-2.32.06-.43.43-.3.47-.49.11-.43-.1-2.29,0-2.39h.92s-.02-1.96-.02-1.96l.69-.14.05-1.36.64-.02.07-2.05.61-.07.07-.61.91-.03-.02-1.26.71-.25ZM172.25,245.58c.05-.39.78-.33.47-1.56-.04-.15-.68-.3-.47-.84l-.69-.02v2.09s-.92,0-.92,0l-.02,1.15-.69.14v1.25s-.65.02-.65.02l-.02,2.64-.72.25.02,1.97h-.93s.02,2.42.02,2.42l-.72.25.02,3.22-.7.13v4.16h-.92v8.11h.92v-6.25l.7-.13-.02-3.69.7-.12v-3.47h.93v-2.55c.23-.02.46.02.69,0,0,1.03,0,2.08.02,3.11l-.72.25.02,4.05h-.93v11.35h.93v-9.5l.7-.12-.03-3.69.73-.25-.03-3.23.71-.12v-3.94h.93s-.02-3.34-.02-3.34l.73-.25c.09-1.09-.16-2.43-.03-3.48ZM163.95,269.57v-6.02l-.71-.12.03-3.22-.73-.25.03-2.53-.73-.25.02-1.96h-1.39l.03,1.38.68.15.02,1.94.68.14-.03,2.52.73.25-.03,3.69.71.12v4.17h.69ZM156.57,277.55v-7.85l-.73-.25-.02-1.94-.64-.03-.02-1.38h-.93c.26-1.74-.23-1.11-.63-1.44-.1-.08-.04-.43-.23-.63-.51-.54-1.1-.35-1.01-1.13l-.91-.03v-1.39l-1.36-.03-.03-.64-.9-.05-.02-.67h-.69l-.02,1.26.67.17.07.62.88.07c-.02.42,1.14,1.59,1.59,1.8.18.09.51-.02.74.02-.25,1.75.25,1.12.64,1.44.3.26.67,1.54.55,2.02l.69.14-.02,1.97h.93s0,8.8,0,8.8l-.9-.03-.04-.64-1.13-.05-.14-.69-1.5.02v1.39l.92.02.02.64h1.01s.17.68.17.68l.61.07.04,2.53.91.02.02.67h.69l.04-.66.67-.16-.05-1.02-.68-.14v-3.23l.73-.25Z"/>
  <path class="cls-1" d="M212.73,241.08v.71h-1.39s.02.71.02.71l1.36.5.02.7h-1.39v.71l.67.02.04,1.29-.67.18-.04.67h-.69v-.72h-.69l.02,1.43.65.02.05,1.41.65.02.05,1.41.69.15-.05,1.29-.68.15v1.76s-.65.03-.65.03v1.29s-.68.18-.68.18l-.06.63-1.37.04v-1.31s.69-.12.69-.12v-.72l-1.49-.02-.13.74h-.69v-1.44s-1.26.02-1.26.02l-.15-.7c-.87.19-.87-.64-1.59-.51v-3.59l-1.5-.02-1.97-.7.03-1.42c.78.3.91-1.16,1.18-1.39.41-.35.88.3.64-1.49.22-.03.56.07.74-.02.45-.22,1.62-1.43,1.59-1.87l.88-.07c.21-1.13,1.91-1.67,2.12-2.8l.87-.07c.12-.94,1.51-1.62,2.05-2.18.11-.12,0-.48.11-.6.19-.19.85.19.65-.77h.69s-.04,2.12-.04,2.12l-.61.07-.17.69-1.26-.02v.71s.65.05.65.05l.04.67h.69l.12-.73,1.27.02v1.43h-2.08v1.43h2.08Z"/>
  <path d="M212.03,253.51l-.03,2.14-.64.02-.05,1.41-.65.02v1.29s-.69.14-.69.14v1.29s-.69.15-.69.15l-.02,1.18h-.69l-.02-1.79.69-.15.02-1.42h-.69l-.12.74-2.19-.02v-2.16s-1.59-.03-1.59-.03c.15-.93-.47-.56-.65-.75-.07-.07-.83-1.13-.78-1.34l-.89-.06-.03-.66h-1.12l-.14.7-1.5-.02v-1.44l.91-.02.07-.64.66-.19c-.04-.61-.19-1.01.45-1.18v-.48c-1.01-.41-.32-.6-.1-.93.11-.16.06-.46.16-.55.24-.22.65.19.75-.8l1.5.02v3.59c.72-.13.72.7,1.59.51l.15.7,1.27-.02v1.44s.69,0,.69,0l.13-.74,1.49.02v.72l-.7.12v1.31s1.38-.04,1.38-.04l.06-.63.67-.18v-1.29s.65-.03.65-.03l.72.02Z"/>
  <rect class="cls-1" x="204.63" y="345.8" width="2.32" height=".71"/>
  <path class="cls-1" d="M203.25,289.13v.72l-1.95-.02-.15.7-1.6.02v-.71l.91-.03c-.16-1.07.89-.3.74-1.36h1.11s.03.65.03.65l.92.02Z"/>
  <path d="M194.23,280.46v.7c-.84.17-1.16.7-2.3.49l-.02.64-1.71.02-.25.72-2.06-.03-.25.73-2.75-.03-.25.73-2.06-.03-.14.69-1.36.05-.14.69-1.96-.02-.02-1.96c.96-.08.59-.58.77-.77.19-.18.69.19.77-.77l1.82.03.25-.72c.8-.1,1.99.18,2.72,0,.18-.04.15-.41.32-.45.73-.18,1.92.1,2.72,0l.25-.73h2.86s.15-.69.15-.69l1.93.05.07.61.65.04Z"/>
  <path d="M192.84,257.29v.7l-1.37.02-.03.64-1.36.06-.02.64-1.59.07c.15.89-.47.53-.65.71-.07.07-.83,1.11-.78,1.3l-.88.07-.07.61-.61.07c-.19.18.12,1.14-.07,1.34-.05.05-.37,0-.56.11-.09.06-.09.27-.29.36-.68.33-.84-.53-.77,1.39l-.64.02-.07,1.35c-.87-.03-1.28,1.28-1.11,2.11h-.93s-.02,2.07-.02,2.07l-.67.02v5.33l1.61-.02.14-.68,1.72.02v.69c-.94-.21-.57.44-.76.64-.11.11-.47,0-.56.12-.42.48-.66,1.4-.52,2.02h-.93s0,2.55,0,2.55h-1.39l.02-3.82-.72-.25v-4.61l.72-.25-.03-2.99.69-.14.05-1.37.69-.14-.02-1.96c1.1.3,1.5-1.11,1.41-2.07l.65-.02.06-1.12.61-.07.07-.61.88-.07c-.14-.91.48-.54.66-.72.17-.18-.19-.81.71-.66l.03-1.37.92-.02.14-.69,1.24-.02c-.16-1.02.89-.29.74-1.32l1.58-.06.15-.69h.9l.14.69.92.02Z"/>
  <path d="M191.92,245.14c-.02.48,0,.96,0,1.43h-1.16v-2.16h.69l.02.7c.07.1.3,0,.44.02Z"/>
  <path class="cls-1" d="M191.39,238.27c.06.05.77,1.33.4,1.37l-.9.02-.15-.7-1.47-.02-.14-.7-1.36-.05-.02-.66-2.17-.02-.14-.7-1.59-.06-.14-.7h-1.71s-.14-.71-.14-.71l-2.31.02h-.57v-.72h4.17l.12.74,2.06-.03.14.7,1.59.06.02.66,1.95.02.14.7,1.58.07c-.13.92.43.55.65.75Z"/>
  <path class="cls-1" d="M190.76,303.24v.71h-2.31l.02-2.02-.72-.26-.02-2.01-.68-.15v-2.02c.98.17,2.02-.25,2.22-1.21l1.49.02v.71l-.7.13v5.96l.7.13Z"/>
  <path class="cls-1" d="M186.15,342.42c.11.11,3.19-.2,2.3.51-.84-.13-2.08.18-2.84,0-.19-.04-.07-.43-.49-.49-.77-.11-1.75.11-2.55.03l-.25-.75-2.52.03-.25-.75-2.06.03-.25-.75-2.06.03-.25-.75-2.06.03-.25-.75-1.95.02v-.72l2.99.03.03.66,1.94.02.25.75,2.06-.03.25.75,2.75-.03.25.75,1.82-.03.25.75,2.75-.03.14.7Z"/>
  <path class="cls-1" d="M188.45,295.59v.71l-1.26-.02-.15.7c-.92-.19-.82.65-1.59.51l.02-1.06-.67-.18-.07-.64-1.47-.02-.16-.69-.65-.05v-.71s1.36.02,1.36.02l.14.7,3.1.02.02.66,1.37.02Z"/>
  <polygon points="183 232.69 183.26 233.44 183.14 234.62 178.98 234.62 178.97 235.34 179.54 235.34 179.54 236.04 175.17 236.07 174.91 235.32 167.08 235.36 166.82 234.6 161.17 234.6 161.17 233.42 166.49 233.42 166.49 232.71 162.43 232.71 162.43 231.29 162.69 230.54 173.52 230.54 173.78 231.29 177.92 231.26 178.06 231.96 180.93 231.97 181.07 232.68 183 232.69"/>
  <polygon points="180.36 294.6 180.36 295.99 179.67 295.98 179.63 295.33 178.98 295.29 178.97 294.6 180.36 294.6"/>
  <path d="M175.73,254.75c.38.14,1.68-.36,1.63.34l-.71.25.02,1.26-.91.03-.07.61-.61.07-.07,2.05-.64.02-.05,1.36-.69.14.02,1.97h-.92c-.11.09.1,1.95,0,2.38-.04.19-.42.07-.47.49-.09.7.09,1.59.03,2.32l-.73.25.02,4.51h-.92v-6.02h.93l-.02-2.66.73-.25c.07-.68-.16-1.64,0-2.26.02-.08.87-.6.46-1.55h.92l-.02-1.96.69-.14.06-1.35c1.03.16.29-.9,1.32-.74l.03-1.14Z"/>
  <path d="M172.72,244.02c.31,1.23-.42,1.16-.47,1.56-.13,1.05.12,2.39.03,3.48l-.73.25.02,3.35h-.93s0,3.93,0,3.93l-.71.12.03,3.23-.73.25.03,3.69-.7.12v9.5h-.93v-11.35h.93l-.02-4.05.72-.25c-.02-1.03-.02-2.08-.02-3.11.23-.02.47.02.69,0v-2.79h-.69c-.02.93,0,1.86,0,2.79-.23.02-.46-.02-.69,0v2.55h-.93v3.47l-.7.12.02,3.69-.7.13v6.25h-.92v-8.11h.92v-4.16l.7-.13-.02-3.22.72-.25-.02-2.43h.93s-.02-1.96-.02-1.96l.72-.25.02-2.64.64-.02v-1.25s.69-.14.69-.14l.02-1.15h.93s0-2.08,0-2.08l.69.02c-.21.54.42.7.47.84ZM170.65,251.27v-2.09h-.69v2.09h.69Z"/>
  <path class="cls-1" d="M171.57,301.8v2.16s-.92,0-.92,0l.02,2.02-.73.26.03,2.37-.73.26h-.66s.02-.84.02-.84l.68-.15v-1.78c-.48.04-1.02-.09-1.48,0-.16.03-.21.77-.84.48l.02-1.18.68-.15-.02-2.02-.69.02-.05.66c-.63.04-.69.07-.67.73l-.88.07-.07.63-.61.07-.06,1.16-.69.14v1.29s-.69.15-.69.15v1.29s-.65.03-.65.03l-.05,1.4-.65.03-.05,1.41-.64.02-.06,1.41-.64.02-.02,1.9h-.93l.02,1.3-.68.15-.06,1.4-.64.03-.02,1.42h-.93l.02,1.3-.68.15-.06,1.4-.64.03-.05,1.4-.65.03-.02,1.18h-.92v-1.92s.92,0,.92,0l.02-1.43.69-.15v-2s.69-.15.69-.15l-.03-1.89.72-.26-.02-2.5h.93s-.02-2.02-.02-2.02l.72-.26-.02-2.61.72-.26-.02-2.75h.93s-.02-1.78-.02-1.78l.72-.26-.03-2.61.73-.26-.02-2.74,1.37.02.14.7,3.45-.03.25.75,2.75-.03.14.7,1.6.02Z"/>
  <rect class="cls-2" x="169.95" y="249.18" width=".69" height="2.09"/>
  <path class="cls-2" d="M169.95,251.96v2.79c-.23.02-.47-.02-.69,0,.02-.93,0-1.86,0-2.79h.69Z"/>
  <path d="M169.27,306.11v1.78s-.67.15-.67.15l-.02.83v.59h-.94l-.02,1.42-.64.03-.06,1.41-.68.14.02,1.3h-.93l-.02,1.43-.64.02-.05,1.17-.65.02v2.01s-.69.15-.69.15l-.05,1.4-.65.03v1.29s-.69.15-.69.15v1.29s-.69.15-.69.15c-.13.34.12,1.19-.07,1.39-.05.05-.36,0-.55.11-.09.06-.09.28-.29.38-.69.34-.83-.57-.78,1.43-1.01-.12-.29.79-1.36.87l.02,1.3-.91.03c.16,1.07-.88.3-.74,1.36-.1.13-.47.02-.66.04-.02-.27-.05-1.34.02-1.42l.64-.03.06-1.4.64-.03.02-1.42h.93v-1.2c-1.16.03-1.89.56-1.66,1.89-.18-.02-.42.11-.66.31l-.69-1.01.02-1.18.65-.03.05-1.4.64-.03.06-1.4.68-.15-.02-1.3h.93l.02-1.42.64-.03.06-1.4.68-.15-.02-1.3h.93l.02-1.9.64-.02.06-1.41.64-.02.05-1.41.65-.03.05-1.4.65-.03v-1.29s.69-.15.69-.15v-1.29s.69-.14.69-.14l.06-1.16.61-.07.07-.63.88-.07c-.02-.66.04-.69.67-.73l.05-.66.69-.02.02,2.02-.68.15-.02,1.18c.63.3.68-.44.84-.48.46-.09,1,.04,1.47,0Z"/>
  <polygon class="cls-1" points="166.49 232.71 166.49 233.42 161.17 233.42 161.17 232.71 162.43 232.71 166.49 232.71"/>
  <polygon points="163.95 263.55 163.95 269.57 163.25 269.57 163.25 265.4 162.54 265.28 162.57 261.59 161.85 261.33 161.88 258.81 161.2 258.67 161.18 256.73 160.51 256.58 160.47 255.2 161.86 255.2 161.85 257.16 162.57 257.42 162.54 259.95 163.27 260.2 163.24 263.42 163.95 263.55"/>
  <path d="M163.28,322.88c.1-.13.47-.02.67-.04-.04,1.34.08,1.57-1.39,1.91l.03-1.17.61-.07.07-.63Z"/>
  <path d="M162.43,231.29v1.42h-1.27v1.89h-3.8l-.25.75-3.57-.02v.71s.65.05.65.05l.06.64.91.03v1.43c-1.29.25-.74-.42-.98-.66-.1-.11-.46,0-.57-.12s-.58-1.36-.66-1.38h-3.67c-.08.99-.57.6-.76.79-.07.07-.75,1.25-.82,1.31-.19.2-.69-.19-.74.79h-.81v-2.16h-.69v3.58l.66.02v1.4s-.62.07-.62.07l-.17.69c-1.9.34-1.31-.5-2.02-1.38-.1-.11-.46-.02-.56-.13-.19-.2.17-.82-.72-.67l-.03-1.42h-.93s-.02-1.42-.02-1.42l-.64-.02-.06-1.41-.64-.02v-1.29s-.68-.18-.68-.18l-.07-.62c-.75-.04-1.59-.46-1.72-1.25l-1.47-.02c.16-1.06-.9-.3-.74-1.36l-1.12-.06-.14-.71-1.47-.02c.16-1.07-.9-.3-.74-1.36l-1.59-.07-.14-.7-1.26.02v2.87h-.93l.02,2.5-.73.26.03,3.32-.71.13v2.16h-1.62v-1.43h-1.16v-.72l1.14-.03.07-.64.65-.05v-.71s-1.85,0-1.85,0v-.71h1.86v-.71s-.65-.05-.65-.05l-.17-.69-1.03.02v-1.2h.69c0,.48-.18.85.47.71v-2.73l-1.16-.14v-.71h1.86v-2.88s.92,0,.92,0l.03-1.42.61-.07.17-.69h1.36l.14.7,1.36.06.14.7,2.75-.03.14.7,1.36.06.03.66,1.36.05.02.66,2.17.02.14.7,1.59.06.02.66,2.17.02.14.7h1.71s.25.76.25.76l2.06-.03.14.7,1.02.03c0,.16.08.46-.03.58s-.51.02-.65.16c-.03.02-.2.35-.34.7v-.73h-2.31v.71h.92v1.2h1.39v-.4l1.12-.08v-.7l1.03-.11.1-.61,1.55-.02.25.75h2.06l.25-.75,2.52.03.25-.75,3.45.03.25-.75,3.45.03Z"/>
  <path class="cls-1" d="M159.55,299.65v.71l-.67.02v3.44s-.71.13-.71.13v3.35h-.93s.02,2.02.02,2.02l-.72.26.03,2.61-.73.26.03,1.89-.69.15-.02,1.18h-.93l.02,2.02-.69.15c.23,1.31-.74,1.52-.51,2.84l-.69.14.02,1.31-.9-.03-.02-.69h-.69l-.05.67-.66.18v1.3s2.2.02,2.2.02l.17-.7.66-.17c-.34-1.08.42-1.2.46-2.01l.69-.02-.03,1.43-.68.14c-.04.54.1,1.16.03,1.68-.06.44-.43.32-.47.51-.11.48.05,1.11,0,1.62l-.73.25.02,1.31h-.93c-.1.58.39,1.68-.57,1.43l-.13-.7h-1.48s-.14-.71-.14-.71l-1.36-.07c.16-1.07-.89-.3-.74-1.36l-1.47-.02c-.07-1.11-.96-.38-.83-1.42-.69.05-1.5-.16-2-.58-.11-.1,0-.48-.12-.59-.19-.19-.8.18-.65-.74l-1.58-.08c.15-.92-.47-.55-.65-.74-.07-.07-.83-1.14-.78-1.34l-.88-.07c.07-.89-1.5-1.18-1.43-2.08l-.91-.03v-.72s1.5-.02,1.5-.02l.14.7,1.48.02.14.7,1.36.06.02.66,1.61.02v-.72l-.92-.02-.03-.66-1.35-.07c.16-1.06-.89-.3-.74-1.36l-1.59-.07-.02-.66-1.6-.03v-.71s.92,0,.92,0l.02-1.18.69-.15.02-1.29.61-.07.07-.64.91-.03.02-1.42.69-.15v-2.01s.65-.02.65-.02v-1.29s.69-.14.69-.14l.02-1.19h.93s.02-1.42.02-1.42l.68-.14-.03-1.89.73-.26c-.42-.96.42-1.31.47-1.65.07-.55-.08-1.23-.02-1.81h3.24c.09.59-.39,1.69.57,1.44l.16-.67.6-.1.05-.67h10.4l.04.68.65.04Z"/>
  <path d="M158.17,292v.72l-.92.02-.02.69c-.23,0-.46,0-.69,0-.04-.47.02-.96,0-1.43h1.63Z"/>
  <path class="cls-1" d="M158.16,324.28v1.2s-.92,0-.92,0l-.02,1.42-.64.03-.06,1.4-.64.03c-.07.07-.05,1.15-.02,1.42-.64.07-.75-.25-.72.69l-.78.03-.16-.68-.65-.04v-.71l.67-.02.02-1.43.9-.03c-.02-.3.34-.79.71-1.11.24-.2.48-.33.66-.31-.23-1.34.5-1.86,1.65-1.89Z"/>
  <path d="M156.57,269.7v7.85l-.73.25v3.23l.68.14.05,1.02-.67.16-.04.66h-.69l-.02-.67-.91-.02-.04-2.53-.61-.07-.17-.67h-1.01s-.02-.65-.02-.65l-.92-.02v-1.39l1.5-.02.14.69,1.13.05.04.64.9.03v-8.81h-.93s.02-1.96.02-1.96l-.69-.14c.12-.48-.25-1.75-.55-2.02-.38-.32-.89.3-.64-1.44-.22-.03-.56.07-.74-.02-.45-.21-1.62-1.38-1.59-1.8l-.88-.07-.07-.62-.67-.17.02-1.26h.69l.02.67.9.05.03.64,1.36.03v1.39l.91.03c-.1.78.5.59,1.01,1.13.19.2.13.55.23.63.4.33.89-.3.63,1.44h.93l.02,1.38.64.03.02,1.94.73.25Z"/>
  <polygon class="cls-1" points="156.55 295.59 156.55 296.3 151.46 296.3 151.46 295.59 153.41 295.6 153.66 294.85 155.03 294.85 155.18 295.56 156.55 295.59"/>
  <path d="M155.87,285.92l-.02,1.96-2.65.02-.14-.69h-1.48s-.14-.69-.14-.69l-.81-.03-.56-.02-.02-.64-1.59-.07c.11-1-.77-.3-.84-1.37l-2.06.03-.14-.69h-1.48s-.14-.7-.14-.7l-1.13-.05-.02-.64-2.17-.02-.14-.68-1.37-.02.03-1.84.61-.07.16-.66.79.03.03.64,1.95.02.25.72,1.82-.03.14.69c1.29-.23,1.54.82,2.87.48l.14.68,1.36.06.02.64,1.59.06.14.68,1.36-.03c.11,1.06.83.37.95,1.43l1.93.02.07.61.67.17Z"/>
  <polygon class="cls-1" points="151.46 292.72 151.46 294.15 150.76 294.15 150.64 293.42 148.47 293.41 148.33 292.7 146.14 292.72 146.14 292 147.05 291.97 147.09 291.32 149.13 291.32 149.16 291.97 150.06 292.02 150.09 292.69 151.46 292.72"/>
  <polygon class="cls-1" points="150.77 294.88 150.76 295.58 150.12 295.63 150.05 296.28 149.16 296.33 149.15 297.02 145.45 297.02 145.45 293.43 146.15 293.43 146.27 294.17 148.44 294.18 148.58 294.88 150.77 294.88"/>
  <path d="M148.39,232.72l-.1.61-1.03.11v.7l-1.12.08v-.78c.14-.34.31-.67.34-.7.15-.14.54-.04.65-.16s.03-.42.03-.58l.57.02.14.7h.51Z"/>
  <path class="cls-1" d="M146.15,289.85v.71l-.65.05c.07.92-.51.55-.69.72-.24.24.28,1.04-1.42.64l-.14-.7-3.45.03-.12-.74h-8.09v-.71l.7-.13-.02-1.79,1.95.02.25-.75,5.07.03.25-.75,1.25.05.14.7,1.47.02c-.13.85.56.57,1.01,1.16.19.25.15.62.19.66.36.35,1.83-.56,1.63.72l.65.04Z"/>
  <path class="cls-1" d="M146.15,234.22v.4h-1.39v-1.2h-.92v-.71h2.31v.73c-.16.35-.28.73-.2.79l.2-.02Z"/>
  <path d="M146.15,233.44v.78l-.2.02c-.08-.07.04-.44.2-.79Z"/>
  <path class="cls-1" d="M142.67,292.72l-.03,1.41-.61.07-.07.63-.91.03.02,1.31-.69.14-.05,1.17-.64.02-.07,1.4-.61.07-.07.64-.88.07c.02.49-.89,1.45-1.37,1.43l-.03,1.41-.91.03c.13.7-1.72,1.69-1.86,2.29-.09.4.02.84-.02,1.26-.23.02-.52-.07-.74,0-.33.12-1.7,1.51-1.59,1.87l-.88.07c.16.7-1.09,1.19-1.36,1.46-.23.22.24,1.06-1.54.68l-.17-.69-.61-.07-.07-1.39-.61-.07-.07-.63-.88-.07-.07-.63-.61-.07-.05-1.04.66-.18.07-.63.91-.03.03-1.42c1.03.16.29-.93,1.32-.76l.03-1.41h.93l.03-1.41c.87.07,1.15-1.56,2.01-1.48l.03-1.17.91-.03c-.07-.9,1.5-1.19,1.43-2.08l.91-.03v-2.16s8.78,0,8.78,0Z"/>
  <path class="cls-1" d="M142.67,299.65l-.02,2.14-.64.02-.02,1.43h-.93s-.02,2.13-.02,2.13l-.65.03-.05,1.17-.64.02-.06,1.4-.68.15.02,1.3h-.93l-.02,1.42-.64.03-.05,1.41-.69.14.02,1.3h-.93v1.44s-1.83-.03-1.83-.03l-.02-.66-.92-.02v-2.16c1.11.31,1.5-1.15,1.41-2.14l.69-.14.02-1.29.61-.07.07-.64.88-.07.07-.64.62-.07.02-1.04.66-.18.07-.64.91-.03.03-1.41c1.03.16.29-.93,1.32-.76l.07-1.4.64-.02.02-1.43.92-.02.02-.7h.69Z"/>
  <path class="cls-1" d="M138.98,285.07v.72h-3.93l-.13.73-1.95-.02v-4.3l.91.03.03.66,1.12.06c-.11,1.04.78.3.84,1.42h1.48s.14.71.14.71l1.5-.02Z"/>
  <path class="cls-1" d="M132.28,292.72v.71h-1.63v.72h.93v.71l-.91.03-.07.64-.61.07c.44,1.82-.92,1.38-1.36,1.95-.25.32.31.82-.96.69l-.07.64-.66.17-.02,1.29-.61.07-.07.64c-1.27-.16-.74.47-.96.7-.11.11-.46,0-.57.12s-.48,1.18-.6,1.29c-.11.12-.47.02-.57.12-.23.25.31.91-.98.66l.02-2.02-.73-.26v-2.61l.73-.26-.02-1.78.92-.02.14-.71h1.01s.03-.67.03-.67l1.59-.05.03-.66,1.36-.06.02-.66.9-.05.03-.66,1.36-.06.02-.66,2.3-.02Z"/>
  <path class="cls-1" d="M131.58,280.76v.72h-.93s-.03,5.71-.03,5.71l-.61.07-.17.7c-1.21-.25-1.51.79-2.87.48l-.14.7-1.48.02-.02.66h-1.01s-.17.7-.17.7l-.65.05v.71s1.02.02,1.02.02l.15-.7,1.47-.02.15-.7,1.36-.06.02-.66,1.59-.06.02-.69h.69l-.03,1.41c-.9-.15-.54.5-.71.68-.18.19-.8-.19-.66.75l-.89.06-.02.66-1.36.06-.03.66-.9.05-.02.66-1.12.07c.16,1.07-.9.3-.74,1.36l-5.17.05-.14-.7h-2.17s-.25-.76-.25-.76h-1.94s-.14-.71-.14-.71l-2.19.02v-4.3h.93l.02-1.18.68-.15.02-1.29c.9.16.54-.49.71-.68.18-.18.81.19.66-.74l1.35-.07.14-.7,2.19.02v-2.16l-.92-.02v-.7h-.7l-.02.7h-1.94s-.14.71-.14.71l-1.36.07c.16,1.06-.88.3-.74,1.36l-.88.07-.07.64-.61.07-.07,1.4-.66.02v5.5l-.91-.03-.15-.7-1.24-.02c.16-1.07-.88-.3-.74-1.37-1.27.13-.71-.38-.96-.69-.04-.05-1.01-.32-1.09-.71-.11-.54-.12-4.2,0-4.68.02-.09.85-.61.48-1.59l.65-.02.02-1.43,2.18.02c.13-.79.97-1.24,1.72-1.25l.04-.66,1.36-.06.02-.66h2.17s.25-.76.25-.76l2.52.03.25-.75,3.68.03.25-.75,4.72.05.03.66.88.06c-.06.89,1.5,1.18,1.43,2.08l.88.07.07.64.65.52-.71.13.02,1.3-.91.03c.07.9-1.5,1.19-1.43,2.09l-.9.03-.04,1.41c-.9-.03-1.23,1.29-1.15,2.16l-.61.07-.07.64-.91.03v1.2c1.36.33,1.65-1.31,2.15-1.84.11-.12.47-.02.57-.13.22-.23-.32-.85.96-.69l.07-.64.67-.18.02-1.28.61-.07.07-.64.88-.07c-.06-.2.7-1.26.78-1.34.18-.19.8.19.65-.74l1.6-.04Z"/>
  <path class="cls-1" d="M121.87,272.4v.71l-2.88-.02-.25.75-2.75-.03-.14.7-1.94.02-.14.7-1.36.05-.02.66-1.48.02-.14.7-1.59.05-.14.71-2.75-.03c-.1.98-.49.57-.75.79-.27.23-.34,1.56-1.45,1.13v1.43s-1.27-.02-1.27-.02l-.16.69-.65.05v.71s1.38,0,1.38,0v3.59h-.69s-.05-.67-.05-.67c-.62-.03-.69-.07-.67-.73l-.91-.03-.03-1.42c-1.01.12-.29-.79-1.36-.87l.04-4.64.64-.02.02-1.29.66-.17.07-.64.89-.06.14-.71,1.24-.02c-.16-1.07.9-.3.74-1.36l1.35-.07.14-.7h1.48s.14-.72.14-.72h1.95s.02-.67.02-.67l1.59-.06.02-.69h4.39v1.44h.69v-.72h.69l.05.66c.61.04.69.07.66.73l1.47.06.14-.7,1.48-.05.14.71,1.38.02Z"/>
  <path class="cls-1" d="M120.14,297.02c.42.06.37-.08.34.48l-.91.04c.03.66-.04.69-.67.73l-.04.66h-.69l-.02-.69-.92-.02c0-.39,0-.79,0-1.2.92.08,1.99-.11,2.89,0Z"/>
  <path class="cls-1" d="M118.87,295.59v.71h-1.63c0,.24.02.48,0,.72-.2-.02-.57.08-.67-.03l-.07-.64-.65-.05v-.71s3,0,3,0Z"/>
</svg>