<?xml version="1.0" encoding="UTF-8"?>
<svg id="line" xmlns="http://www.w3.org/2000/svg" viewBox="0 0 500 460">
  <defs>
    <style>
      .cls-1 {
        fill: #d8bf80;
      }

      .cls-2 {
        fill: #53290c;
      }

      .cls-3 {
        fill: #dbd5d5;
      }

      .cls-4 {
        fill: #1e1502;
      }

      .cls-5 {
        fill: #af8b8b;
      }

      .cls-6 {
        fill: #ccc6b8;
      }

      .cls-7 {
        fill: #d2bebe;
      }

      .cls-8 {
        fill: #ededed;
      }
    </style>
  </defs>
  <path class="cls-6" d="M201.19,122.6c48.74-5.73,89.32-9.7,119.18-12.4,43.36-3.91,60.01-4.76,71.33-5.2,39.88-1.55,72.91-.36,95.85,1.03,1.2,45.77,2.4,91.55,3.6,137.32-68.7,8.02-145.37,11.88-228.53,7.94-22.94-1.09-45.22-2.72-66.82-4.79-1.02-14.2-2.04-28.4-3.06-42.6,1.31-26.15,2.61-52.3,3.92-78.45,1.52-.95,3.03-1.91,4.55-2.86Z"/>
  <polyline class="cls-8" points="284.33 160.74 410.77 151.96 491.14 153.01 491.14 287.94 298.81 289.27 285.24 247.13 281.09 163.75 284.33 160.74"/>
  <path class="cls-3" d="M195.79,246.52c30.28,1.37,60.56,2.73,90.84,4.1,2.18,3.04,5.06,7.83,6.8,14.26,1.14,4.21,1.49,7.97,1.53,10.91,17.14,3.42,31.65,5.56,42.41,6.94,47.44,6.06,84.8,5.07,100.95,3.25,4.77-.54,19.54-2.39,39.26-1.29,5.38.3,9.77.75,12.61,1.07.08,43.03.16,86.06.24,129.09-73.77.89-147.51.36-221.21-1.59-21.49-.57-42.99-1.26-64.47-2.07-2.23-25.17-4.13-51.06-5.62-77.64-1.68-29.84-2.76-58.87-3.33-87.04Z"/>
  <path class="cls-7" d="M237.93,410.35c-.33-1.01.29-2.31,1.86-3.91,1.54-22.94,3.07-45.87,4.61-68.81,1.29-9.38,2.58-18.76,3.86-28.14,9.18-3.02,18.36-6.04,27.55-9.06,8.56-1.27,17.31-2.46,26.22-3.55,17.08-2.1,33.65-3.7,49.66-4.9,6.1-.74,12.25-1.44,18.47-2.07,42.19-4.32,82.55-5.61,120.75-4.72-.16,41.34-.33,82.69-.49,124.03l-2.2,6.98c-27.87-1.3-55.74-2.59-83.61-3.89-26.32-.93-52.64-1.86-78.96-2.8-19.69.65-39.38,1.31-59.07,1.96-18.12,2.27-27.67,1.89-28.66-1.13Z"/>
  <path class="cls-5" d="M237.23,410.22c-.02-.12-.18-.91.22-1.73.31-.65.86-1.38,1.65-2.17,1.54-22.94,3.07-45.87,4.61-68.81,1.29-9.38,2.58-18.76,3.86-28.14,9.18-3.02,18.36-6.04,27.55-9.06,8.56-1.27,17.31-2.46,26.22-3.55,17.08-2.1,33.65-3.7,49.66-4.9,6.1-.74,12.25-1.44,18.47-2.07,42.19-4.32,82.55-5.61,120.75-4.72.04,7.78.09,15.55.13,23.33-25.4.26-61.21,1.03-100.13,3.28-59.33,3.42-30.51,4.77-60.74,6.22-6.68.32-15.61.61-26.27,4.9-13.19,5.31-22.13,13.94-27.52,20.27-1.12,4.4-2.12,9.06-2.93,13.97-3.3,20.05-2.46,38.02-.3,52.56-28.46,1.2-35.16,1.05-35.23.62Z"/>
  <path class="cls-2" d="M12.68,224.87c2.02,12.48,4.22,22.78,5.96,30.21,6.17,26.47,10.25,33.11,16.63,35.88,4.05,1.76,8.12,1.54,10.67,1.18,1.82.47,3.64.94,5.46,1.42,46.08-1.11,92.17-2.22,138.25-3.33-10.19-17.02-20.39-34.04-30.58-51.07-7.14.73-14.83,1.25-23.04,1.46-8.86.22-17.16.04-24.82-.41-1.65-5.66-3.31-11.33-4.96-16.99-31.19.55-62.38,1.1-93.56,1.65Z"/>
  <path class="cls-4" d="M99.58,205.3c.97,11.85,2.63,22.87,4.66,32.94,1.65,1.05,3.29,2.1,4.94,3.16,14.03-.15,28.07-.31,42.1-.46l12.96-47.2c-9.25-.27-18.5-.54-27.75-.81-.12-3.5-.25-7-.37-10.5-2.56.06-5.12.13-7.68.19-.37,3.81-.75,7.63-1.12,11.44-9.49-.44-18.98-.88-28.48-1.31.15,4.08.4,8.27.75,12.57Z"/>
  <path class="cls-1" d="M99.41,120.52c-9.44,18.78-18.87,37.55-28.31,56.33,12.52,2.65,27.49,4.82,44.43,5.36,26.51.84,49.07-2.62,66.02-6.58-1.31-5.57-2.58-11.51-3.73-17.8-.99-5.41-1.76-10.16-1.76-10.16-1.96-12.09-1.78-13.92-3.26-17.89-1.01-2.72-2.87-6.63-6.56-10.94-3.55-.53-8.61-1.22-14.72-1.83-5.35-.54-13.63-1.37-20.85-1.38-7.12,0-17.87.78-31.26,4.91Z"/>
  <path d="M99.57,158.05c2.61-.34.13-2.87.13-3.28,0-1.05,1.72-1.99,2.17-2.7.31-.49,1.34-2.58,1.49-3.09.33-1.1-.14-1.62-.04-2.15.13-.69,1.84-1.01.46-1.94-3.39,1-.95,3.93-2.18,5.55-.69.91-.73-.87-1.29-.7.13,1.53-1.21,3.38-1.45,4.7-.13.72.02,1.5-.02,2.23.24-.02.49,0,.73,0v1.39Z"/>
  <path d="M145.52,237.68c-.18-.19-.34-.41-.47-.65-.37.02-.73.03-1.1.04.56.23,1.09.44,1.57.61Z"/>
  <path d="M494.14,279.31c2.28,5.99-42.43,3.23-50.59,4.86-29.05.24-57.22,1.48-86.37.27-4.63.59-16.24-.91-28.01-1.97l.13-1.32c40.48,3.75,82.05-4.86,122.03-6.12.78-.34,4.13-.99,5.49.06,1.57-.89,3.52-.98,5.51-.8l-.07,1.23h-1.85c0,.36.11.63.29.8l-1.01.87c-.06,0-.13.02-.21.06-4.22,1.49-8.88,0-13.34.7-6.74.06-14.83,2.07-21.52.65-2.75,1.97-8.21,1.27-11.75,1.87-57.02,2.76,33.68,2.57,46.93.91,2.35-.41,4.28-1.22,6.34.04.14-.04.35-1.25,2.54-.71.62,2.08,2.49-2.14,4.16.71,2.04-.94,5.55-.57,7.75-1.42,1.29-.1-.55,1.88.74,1.39.62-.23,1.31-1.27,2.26-1.39,1.38-.17,2.13,1.44,3.12.18l-1.11-.34c1.36-1.48,1.88.23,2.4.21,1.98-1.67,3.98,1.46,6.13-.73Z"/>
  <path d="M484.88,275.85c.15,1.23-1.74.58-.74,2.08-3.18.41-6.09-2.45-9-.78-.82-.18-1.64-.38-2.45-.56l.18-.76c3.96-1.89,7.86.58,12.01.02Z"/>
  <path d="M253.17,305.26c-2.65-4.1-8.15-6.59-12.4-8.96-2.3.74,11.58,8.07,12.4,8.96ZM476.17,413.74c36.96,1.01-56.68,2.07-57.83-.35.01.96-2.47.97-2.58,0-2.21,1.98-4.74-.06-7.44.04-5.79,2.42-2.9-.7-8.84.99-.22-.03-.32-1.43-2.26.02-3.28-2.72-6.05-.42-7.05-.59-.27-.05-.41-.27-.4-.84,3.89-2.65-20.03-.93-23.33-1.35-1.63,1.47,9.93.92,12.18,1.17,2.1.07,5.56,1.54,7.55,1.52.77-.01,1.74-1.19,2.63-.26.15.16.3.39.45.68-62.97.57-126.01-3.25-187.78-.72.13-1.03.09-2.11-.25-3.09h.1c.58-15.43-2.69-30.23-4.44-45.56-.16-1.82.49-6.09-.45-7.9,0-.16,0-.32,0-.49-.01-.45-.05-.95-.18-1.42l.1-.04c-1.19-7.66.62-19.46-.48-27,.12-1.11.11-2.24.08-3.36-.04-1.31.02-2.66-.22-3.96.02-.05.05-.11.07-.17-.06-9.16-.52-18.44-.15-27.47.17-.32.28-.69.29-1.1.02-1.8-.09-3.61-.24-5.42.02.07.05.14.08.21,1.08-5.63.09-11.69.22-17.56.08-.34.1-.71.03-1.03.03-.68.08-1.35.15-2.02l-.38-.82c0-.07-.02-.14-.03-.21-.18-1.08-.48-2.14-.79-3.19-.07-.22-.16-.45-.28-.65.08-2.61.22-5.22.33-7.83.14-3.29.52-6.74-1.23-9.73-.1-.17-.2-.31-.31-.44-2.29-16.78-1.9-34.84-2.29-51.77-.2-19.14,1.11-37.01,1.99-55.98.2-2.58,1.21-5.14.74-7.8-.19-.16-2.4.41-2.6-.69,1.98.54,5.1-1.2,2.4-2.42-.4-.55.31-3.58,1.18-4.13,95.64-7.68,207.22-28.41,299.27-12.85-85.59-7.26-171.15,3.9-256.29,10.77-.79-.02-1.13.19-1.2.49l-1.24-.18c-7.5-.34-29.12,3.87-36.78,4.85-3.4,6.46,3.46,113.09-1.72,83.27-2.32-41.02-1.88,30.4,2.74,36.25,1.01-1.63.98-4.52.65-6.02,2.75-5.24,3.1-2.85,4.71,1.37.18,1.27-.65,3.82-.64,4.14,1.26.65.57,2.91,1.66,3.63,14.37,1.81,28.78,2.01,43.28,2.78,51.45.74,33.57,6.44,34.29-24.6-2.45.85-1.5-16.13-2.98-16.81.13-2.53.89-15.46-1.84-15.59,4.91-6.82-.28-20.8,2.31-29.37.94-2.43,2.33-.8,3.24-2.86,1.52.22,3.07.3,4.63.3v.93c-.36.03-1.63.19-1.68.56.04,6.68,5.81,1.96,9.95,1.61l12.53-2.26.19.97c-6.24,1.15-12.43,2.67-18.56,4.67,4.58.96-1.29.38-2.42,1.39-.26.33-.01,1.58-.91,1.03-.1-.06.3-1.02-.75-.68.71,6.7,1.01,18.53,5.56,23.73-3.2,4.78,2.28,14.15,2.64,20.06,1.6,4.41.83,11.36,3.83,13.36-2.66-.6-.05,6.09-.17,7.47.97,7.28.71,14.7,1.35,21.88-.37,2.09.15,2.51.88,3.91-2.75,1.83-1.32,13.11-1.62,16.67,9.75,2.69,19.61,4.35,29.53,5.26l-.13,1.32c-15.55-1.41-31.4-2.09-31.9,3.73-3.79.39-2.36-.62-1.08-2.92.47-1.44-.91-4.15.76-4.89.69-2.34-3.18-1.75-4.81-6.18-.28-.86.97-.43,1.48-.51.33-1.36-1.38-5.89-2.09-7.11.01-.38,1.65-2.03-.87-1.21.15-2.15-.05-4.55-1.49-6.09-1.83-1.53-.38-3-1.68-5.02-26.21.56-53.16-.18-79.26-2.78-1.74-.2-8.76-1.92-9.81-1.3-.75,1.44-.84,4.5,1.37,4.51-.24,3.5,4.01,5.19,5.87,5.84-5.56,0,21.69,24.19,24.23,28.13,7.98,7.95,20.93,10.3,26.36,20.89-.1,0-.2,0-.3-.01-.67-.25-1.43-.27-2.31.1-.63.26-1.08.83-1.35,1.5-11.32-8.99-22.24-18.39-34.54-25.6-6.92-3.95-13.23-8.55-17.9-14.8-.47-.06-.5,0-.71.38-.09.13-.75,16.62.37,8.85,3.79-1.56,2.78.47,4.05,3.18.04.09,1.86,1.09.18,1.29l-1.67-1.38c-3.38,26.46-.83,48.65.73,74.98-.04.13-.04.28-.02.41.07.38.12.77.2,1.14l-.02.02,3,31.88c.34,3.81,3.12,15.04,2.04,21.47,20.71-.98,42.1.27,62.48-1.71.33-.45.69-7.27.55-8.18-2.93-11.56-.27-23.23,0-35.65.36-8.93-.66-19.56,3.65-27.99l.77.31c-.74,2.02-2.06,5.06-1.29,7.05,1.91-3.66,3.82-8.91,6.85-11.87.94-.28,1.35-.65,1.39-1.07.09,0,.18,0,.27,0,.92-.01,1.6-.63,1.97-1.41.96-.56,1.98-.96,2.97-1.42-.25.64-.4,1.19-.29,1.38,1.93.87,4.61-3.61,6.67-3.99l-.74-1.38c2.25-.16,5.37-.94,6.78-2.67,6.92-3.89,15.88-4.27,23.61-4.26l.17,1.33c-9.65,1.17-23.45,3.95-21,5.6-.57.7-2.06.97-3.08.68-3.19.91-7.8,4.64-10.02,6.25,1.44,3.38.78,3.1-2.38,2.24-7.95,3.36-16.47,17.76-11.97,24.11-2.99-.24-1.41,4.71-1.74,6.75-.56,12.59-1.21,24.06.17,35.47-1.66,3.15,1.53,6.96-1.32,7.15-.83,3.9,6.96,1.33,9.42,1.55,10.55.66,26.37.38,38.61-.05,26.07-1.15,50.92-.88,77.9.62,21.4.46,44.05,1.38,65.87,3.24.82-1.18,1.23-1.43,1.92.31,2.86-1.1,4.34,0,7.77.02,2.41-.78.93.19,2.22.35ZM299.22,277.97c-2.49,2.45,7.24,2.72,6.25,1.34l-6.25-1.34ZM297.68,251.6l-4.42,1.06c.5,1.77.22,6.34,2.94,5.87-.3.22-1.75.62-1.5,1.19,1.67,3.29.39,8.54,2.79,10.93.1-2.62,1.91-9.69-.56-11.61.2-.17.36-.35.5-.53,1.48-1.99-.65-4.48.25-6.92ZM297.68,271.69c-1.32-.07-1.42,1.92-.73,2.77,1.26.31.56-2.23.73-2.77ZM295.45,238.27c3.96,5.52-.03-10.37.39-12.32-.7.21-4.68-.7-4.36.92,1.09,3.24,2.59,7.99,3.97,11.39ZM294.86,225.29c.76-6.35-2.97-15.06-3.76-21.76-5.38-29.26-3.06,14.31.32,21.7l3.44.06ZM293.24,251.25c7.48,1.23-3.35-17.28-3.9-21.32-1.36,2.9,1.85,13.54,2.97,18.55.67.7,2.15-.38,1.66,1.85-.08.35-1.08-.02-.72.91ZM288.24,192.35c1.41-.03.6-3.66-.1-4.42-.17-1.15.54-3.47-.84-4.24.18,1.49-.61,7.65.93,8.66ZM283.96,201.88c0-.96-1.66,0-1.1.52.22.2,1.1-.29,1.1-.52ZM283.59,175.72c-.14-1.82,1.7-5.25-.36-6.24.47,1.95-1.22,4.91.36,6.24ZM282.86,183c1.15-.44.66-1.88.73-2.77-1.15.44-.66,1.88-.73,2.77ZM282.86,189.93c1.99.22.91-.76,0-1.38v1.38ZM283.23,178.15c1.18-.26.63-2.03-.37-1.73l.37,1.73ZM283.23,198.59c-.36-1.16.93-3.12-.36-3.81-.02.85-.07,3.05.36,3.81ZM225.77,285.89c-6.43-7.48-17.73-16.8-25.08-24.02-8.62-2.42,20.76,23.71,25.08,24.02ZM204.65,406.11c1.09-.4.44-2.95.27-3.9-.91-2.71-.84,2.94-.27,3.9ZM203.9,262.33c.43-1-3.3-4.13-3.7-3.81.12,1.14,2.83,2.9,3.7,3.81ZM196.11,192.35c.75-1.29.15-21-.93-15.24.97,4.9-1.22,11.03.93,15.24ZM195.74,173.99c-.15-.16.38-2.86-.36-2.42.15.16-.37,2.86.36,2.42Z"/>
  <path d="M472.87,275.83l-.18.76c-1.24-.27-2.46-.48-3.65-.43l-.06-.98c1.92-.12,2.6-1.57,3.89.66Z"/>
  <path d="M468.98,275.17l.06.98c-.72.03-1.42.14-2.11.39-.11,0-.53-.75-1.29-.84l.16-.93c1.06.18,2.06.34,2.96.41.08,0,.15,0,.22,0Z"/>
  <path d="M465.8,274.77l-.16.93c-.37-.04-.82.06-1.35.48,1.43,1.56-3.3,1.88-3.68,2.43-.18-.32-.38-1.44-.91-1.44l1.01-.87c.53.52,1.58.26,1.56-.8l.07-1.23c1.16.11,2.34.31,3.46.49Z"/>
  <path d="M454.57,155.88c.82-.18,7-2.57,6.95-1.11-48.8,13.04-101.65-1.57-151.57,7.63l-.19-.97,7.2-1.3c-9.49.09-18.45,1.83-27.99,1.38v-.93c3.85,0,7.79-.52,11.68-.81l-1.48-.68c31.49-.04,64.59-3.57,97.34-6.11l.11,1.32c-9.81.75-19.57,1.75-29.24,3.05,29.21-.01,56.89,4.76,87.19-1.48Z"/>
  <path d="M494.14,153.21c-32.03-1.16-65.06-1.39-97.53,1.1l-.11-1.32c33.63-2.6,66.88-4.15,97.63.22Z"/>
  <path d="M422.97,311.87c-4.74-.15-9.57.12-14.44.38l-.02-.38c.17-.61-.13-.7-.54-.7v-.36c1.75-.04,3.51-.06,5.27-.08,1.94-.24,4.49-1.63,6.23-.26,1.34.2,3.2-.5,3.51,1.4Z"/>
  <path d="M408.52,311.87l.02.38c-4.15.21-8.31.41-12.45.3-4.91,1.67-9.84-.75-14.19,2.21-2.21.87-5.77-1.79-6.5.27-12.21,2.31-31.23.39-42.78,4.23-.06-.6-3.89-.42-8.81.17l-.17-1.33v-1.04c3.18,1.4,10.96-2.88,12.61-1.04,24.12-2.83,47.82-4.74,71.73-5.22v.36c-.17,0-.37.02-.55,0-.25.89.5.66,1.1.69Z"/>
  <path d="M276.18,334.89c2.97.35.43,1.07-.64,2.54-.03.1-.07.2-.11.31l-.77-.31c.44-.87.95-1.72,1.52-2.54Z"/>
  <path d="M95.33,288.1c.5-.13.99-.27,1.47-.44.12,0,.24.02.36.02.05.33.11.67.15,1,0,0,4.5.05,8.76.08h.03s.09,0,.13.01c.89.07,1.8.08,2.68.01,2.58.03,4.56.05,4.56.05.06-.14.11-.29.17-.43h1.2c.75,0,1.28-.38,1.65-.91l-.43,1.5v1.39h-.18c-3.17,2.99,6.69.39,8.14.68,2.97-.58,9.66,1.43,10.95-.68h-14.62v-1.35c.37,0,.73,0,1.1-.02,22.62-.89,42.94-1.46,64.18-.16.37,0,2.37.13,2.33-.37-6.43-8.28-9.41-20.26-13.89-29.62-1.18-.25-.97-1.23-1.02-2.17-.66.07-16.01-27.97-17.33-26.04-.82,2.65-1.79,8.12-3.43,11.63-.39-.13-.81-.18-1.27-.13-6.39.72-13.03.24-19.45.05-6.81-.21-13.59-.86-20.4-.81-.76,0-1.43.19-2,.52h0c-.24-.13-.48-.26-.72-.39-.62-.1-.5.24-.39.65h0c-.88-.24-1.76-.46-2.64-.67-.61-.88-1.26-1.75-2.72-1.7,1.08-2.16,1.21-3.18-.61-4.27-1.13-3.58-1.14-9.54-2.91-11.3l-3.16.33,1.85,1.04c-7.13-.63-11-.74-12.84-.12-2.31-.45-4.79-.51-7.35-.56-2.89-.06-5.79-.12-8.68-.15l.33-.2v-1.31c9.23-.06,18.4-.33,27.43-1.12-26.92-1.3-54.14-4.23-80.84-.55-4.14,1.59-1.05,2.35,1.65,2.27l.04,1.27c-1.05.03-2.1.07-3.14.13-.24,2.94-.45,6.44.59,9.19,0,.13.03.26.05.39.14.89.31,1.78.5,2.66-.41.74-.94,1.43-.39,2.32.35-.12.63-.19.88-.22,1.01,3.98,2.45,7.86,4.05,11.67.44,3.9,1.89,7.87,3.29,11.08.78,1.8,1.67,3.6,2.63,5.38.34,1.09.89,2.09,1.63,2.97.74,1.73,1.55,3.43,2.47,5.05.45,1.37,1.1,2.66,2.11,3.57-.03-.14-.06-.28-.09-.42.41.57.85,1.11,1.3,1.64-.33.07-.66.06-.79.2-.32,1.34,1.92,8.26,4.58,5.49,1.79,1.7,7.38,2.12,9.25,1.16,3.27.54,6.53.79,9.8.84h0c5.87.43,12.1.13,18.16-.58h0c3.21.49,6.54,1.03,9.84,1.24-.07.05-.12.08-.18.13,1.02-.04,3.08.16,4.74-.09h0c2.09-.11,4.31-.3,6.41-.83ZM43.4,363.85c2,4.08,9.92.54,13.92.71,9.52-1.01-13.55-.7-13.92-.71ZM16.37,302.35c.48,3.18-3.72,13.96,1.79,11.58-.2-1.88,1.59-2.97-.27-4.37l-1.52-7.21ZM189.66,281.7c.63,1.67,1.3,3.23,1.96,4.66l.02.05c.43,1.03.85,2.12,1.25,3.28.61,1.74,1.09,3.4,1.48,4.95-.21,3.16.55,7.48-.11,10.14-.08,1.88-.4,11.03.07,15.25h0c-.21,1.66-.02,3.31.08,4.96-.68,4.93-.18,10.01-.9,15.11-.46,3.64,1.09,12.78-1.85,14.91.09.35.38.6.77.75-.1.38-.07.81,0,1.22-.56.53-.73,1.25-.01,1.83-2.55,3.51.84,2.31,1.11,3.81-3.09,1.49-3.2,2.82-3.23,6.49.03,1.38,1.94,3.43.3,4-.07,10.96.31,26.69-.77,37.84h.11c-.03.09-.05.19-.07.29-.22.99-.22,1.98,0,2.96.03.13.06.26.1.39-1.04.06-2.07.11-3.1.17.41-1.2-2.07-.86-2.22,0-1.05-.06-2.09-.19-3.14-.32-.2-1.23-.19-2.47-.21-3.71.12-.13.2-.27.23-.44-.22-6.97,1.01-14.99-.22-21.57,2.02-6.74-.63-15.01-.74-22.11-2.58,1.68-3.75-1.19-5.45,1.37-6.36-.96-4.35,2.5-4.18,7.17.79,11,.19,21.59,1.57,32.76.11.65.55,2.65,1.07,3.2-.03.15-.06.32-.06.49-.02.86,0,1.71.05,2.56-2.61-.38-5.46.95-8.2.59-2.22-2.21-8.33,2.27-4.71-3.19,3.08-6.29,2.71-32.69.13-39.24,2.3,1.21.73-2.87,1.24-3.65-1.14.63-4.34-.68-4.57-.64-5.16.4-16.9-1.38-24.51-1.78-21.94-2-45.32-2.53-66.73.41l.92-.76c-1.65.43-3.8-.77-4.37.49-.32.11-.62.23-.93.38-2.91-.23-5.98-1.11-7.54,1.17-1.57-.97-4.23-.72-5.51.06-.14,0-.66-1.36-2.41-.71,1.03,6.7-2.68,1.03-5.19,0,1.13.32-2.18,47.19,2.62,43.57-.05,1.28.22,2.71.87,3.89h-11.95c.01-.64.04-1.29.13-1.92.08-.56.04-1.21-.19-1.75.19-.11.31-.22.34-.35l-.72-1c1.76-2.47.24-7.7-.09-10.65-1.87-1.38.64-3.21-1.79-4.26.64-2.48,3.43-5.68,1.21-7.78-.58-5.08,1.12-22.26-4.15-24.77-.27-.91.93-.35,1.11-.52l-1.94-7.55h-.01c0-.47-.06-.95-.04-1.42v-.1c.38-.13.78-.29,1.21-.48-1.32-4.3-1.98-5.68-4.35-8.76-.62-1.96-1.93-4.05-2.27-.56-.12,2.69-.45,5.94.25,8.05-.2.39-.3.83-.32,1.26-.03.66-.01,1.37.11,2.04l-.05.07-.74,58.03c.11-.03.34-.05.67-.07-.01.05-.03.1-.04.15-.1.43-.16.86-.21,1.3-.06.32-.1.65-.13.98-1.41,0-5.53.59-4.74-.63-1.04.6-3.23.69-4.98.7-.16-.83-.37-1.64-.66-2.44,1.42-.38.07-3.05.13-4.71-1.54-6.67,1.23-16.34-2.27-21.79,3.63-7.9,1.57-23.05,2.6-32.39-.05,0-.1,0-.14,0,.17-1.62.28-3.32.15-4.9-.01-.19-.04-.39-.1-.59h0c.61-7.26.32-16.62.42-23.06-1.14-3.9-.37-2.34-3.3-4.18,4.15-4.38-2.07-14.29-.69-20.36,1.05-1,1.74-2.39,1.06-3.89.21-2.65,1.89-6.22-.74-8.14,2.59.83,1.42-2.89,1.47-4.35.04-1.25.9-2.96-.73-3.47,1.13-6.34,2.49-18.14-1.1-23.36,1.56-5.87-.79-15.28-1.13-22.34.52-1.57,3.17-1.85,2.93.4,1.39,2.25-.81-5.91-.72-6.19-2.3-2.16.66-9.19-3.68-5.47,1.41-10.42,3.17-1.8,6.59-3.37,1.7-.75-.2-4.19,2.86-4.6-1.2,5.59,2.44,4.32,6.35,3.51,25.43-3.13,55.41,2.12,78.73.31-2.77-.2-5.56-.4-8.35-.59l.1-1.33c2.85.19,5.62.21,8.25-.15-2.25-1.05.38-2.93-.37-4.86l-.69-.06c-.24-1.03-.33-2.08-.43-3.14.16-.23.27-.51.28-.86.06-1.28-.64-7.02-1.04-8.21-1.39-2.14,1.22-4.4.02-6.78-.72.07-.69-.67,0-.87,1.55-2.85,3.35.24,2.23,2.25l2.7-.36.16,1.1c-1.95.28-3.26,1.37-2.08,3.37.39.23,4.12-.58,5-.61,5.74-1.08,15.64,2.48,20.44.15-.55-1.47-3.13-2.2-6.41-2.55l.13-1.18c2.6.25,5.01.29,6.73-.44l-1.47-1.04c2.71-.84.82-7.79,1.86-10.22-7.57-.07-15.37.53-22.81-.73-.98.11-.47,1.75-3.34,1.44-2.86-1.45-2.35-2.78-6.23-1.98-2.21,1.03-3.76-1.43-6.79-.92-2.35-.9-5.11-1.07-7.8-1.05l-.11-.06c-2.17-.42-5.26-1.35-7.56-1.11-.43.04-.76.25-1.02.56-.21-.02-.43-.02-.66,0-.11.01-.22.03-.33.04-.06-.15-.12-.31-.18-.46-.1-.59-.25-1.18-.46-1.75-.03-.08-.07-.16-.11-.24,1.43-.76,2.75-1.73,2.38-2.78-4.72-1.14,3.49-8.45,4.45-11.4,2.31-.91-.45-1.62-1.62-1.4,6.81-1.12,8.44-11,11.07-16.7-.05-2.75,12.8-16.28,7.02-15.69,7.23-.69,2.72-11.7,10.23-8.11,1.08.67,1.78-.32,2.19-.29.9,1.18,5.07,1.75,6.34,1.96,1.63.2,3.48-2.34,3.15.34,6.09,1.64,12.17.83,18.08.73l.02,1.05c-5.94-.04-3.43,4.55.76,1.71.09.97,1.86,1.38,4.17,1.51l-.06,1.23c-2.46-.13-5.45-.06-2.99,1.42-1.1-.19-.54.76-.86,1.28-3.67,2.81,2.59-4.32-4.9-2.68-.76.32-3.69.91-2.75-1.2l-4.09-.16c-.3,1.3,1.28.32,1.86.86-2.85.79-.57,2.46-2.59,2.6.58-3.19-1.65-1.8-3.71-2.08.5-1.24,3.39-.19,3.7-1.56.23-1.01-2.94-1.46-3.63-1.13-1.27.69-.33,2.59-.45,2.69-1.81-.65-1.09,2.53-3.33,2.08,4.36-3.33-3.97-1.68-5.19-2.08l-.1-.78c2.2-.27,4.56-.17,6.77.09l.37-2.77c-1.33.62-3.86-1.7-4.16-.11-1.21.66-1.82-.77-2.38-.88-.51-.1-1.52.69-2.33,1.57l-1.05-.17c.52-.65,1.07-1.3,1.76-1.8-2.22-.49-5.14-1.68-6.66.52-.33,1.35-7.37,12.09-5.19,13.33.47-.08.83-.42,1.13-.89l.36.23c-3.69,5.5-6.52,12.14-10.16,16.99-13.62,15.68-8.25,33.84-1.18,10.01.64-1.56,2.44-2.06.58-3.47,2.29-.4,1.61-3.61,3.7-3.48l1.16.5c-1.32,1.39-2.01,3.04.62,1.52l1.26.34c-.19.53-.24.92-.08,1.1.53.09.98.14,1.37.15v.21c-.13,0-.27,0-.42,0-4.29,1.2-3.94,7.63-6.68,10.75.35,2.38-.92,1.43-.95,2.74h5.56c.16,0,.67-1.97,2.2-1.76l1.17.19c-.86,4.39,6.42-1.77,4.44-3.06l.74-1.58c1.59.95.73-2.63,1.24-3.51.5-1.86,2.52-2.36-.16-4.13,3.33-.23,1.52-6.84,4.82-6.07-1.36.78.35,1.75-1.12,2.1.31,1.02,1.02,2.4-.35,2.75l1.84,1.39c-2.71,1.02-.8,2.42-2.54,3.57-1.08,2.55,0,1.62.18,2.65.22,1.22-1.78,4.31-.96,6.08,4.7.05,3.19-4.54,4.09-7.44.58-1.76,3.55-4.52.36-4.86l1.3-1.56c.19,1.35,1.41,0,2.04-.18l1.07.07c-.06.86-.3,1.97-.91,3.54,0,2.95-1.04,2.12-1.24,3.47,1.58-.41-.26,5.06-.03,5.56l2.05-.69c.4-3.27,1.34-6.2,2.41-9.49-2.55-1.19,1.28-3.67,3.32-2.98-2.12.82-.69,2.03.66,1.93l.05.44c-1.31.15-1.59,2.56-1.79,4.07-1.11,1.26-2.44,2.86-.03,3.27.68.79-1.16.44-.74,1.38.93-.09,1.97-1.02,2.21-1.92l.31.08c-.34,1.7.53,2.54,4.85,1.1.69-2.6.94-5.82-.15-8.27,1.33-2.9,5.08-.57,4.65-3.47,1.62-.33.02,3.36,1.29,3.44.08,0,.15,0,.22,0l.06.37c-2.14.4-1.21,6.41-1.2,7.97h2.21c-.13-.9.33-2.9.5-4.68l1.18.12c-.05.53.07,1.07.53,1.6.02.32-.77,4.02.96,3.66,1.21-.66,3.57-8.82.42-8.82l.02-.3c3.3.18.64-2.15,2.17-3.35,2.45,7.57,2.46-.8,3.52-3.11-.66,0-1.63-.12-1.48-1.04,5.1.71-1.04,7.76,4.62,7.76v.13c-1.36-.06-2.97.16-3.14.6,1.52.25.49,2.91.55,4.15.59,2.51-.15,5.4.95,7.6,3.3,2.34,3.03-6.14,3.27-10.02l.94.06c-.11,1.71.39,4.02.42,5.7,0,.6-.04,1.12-.2,1.5-.06.54-1.6,2.35.24,2.92,1.39.43,1.26-.57,1.74-.91.42-.3,1.77.18.81-1.14-.93-.24-1.36-1.24-1.41-2.39-.08-1.79.76-3.95,2.05-4.2.88-.89-1.19-.33-.1-2.06l-1.11-.69c7.44.53,1.2.51,3.35,3.91-2.2,1.15.66,1-.38,3.86,1.34,1.74-.72,1.97.61,3.32,4.76.56,2.57-1.42,2.72-4.52,3.02.65,2.72-1.59,3.34-3.61v-.03s1.09-.02,1.09-.02c.24,1.01.69,1.91.32,3.12-2.09.8-.45,2.66-.28,4.32.77.05,1.4.03,1.93-.03l.16,1.33c-4.05.6-1.45,4.39-3.25,4.51-.32.02-.76-.06-1.4-.3-.01-2.59-.83-3.8-3.78-2.9-3.78,4.31.45,4.59,5.28,4.08,3.73-.39,7.81-1.26,8.82-1.11l-.37-.97,1.31-.47c.14.34.36.7.76,1.11,2.4-.97,15.47-1.26,9.95-5.2-.46-.79,1.01-2.21-.71-2.42-.09.21-.19.4-.29.57l-1.13-.7c1.3-.55,2.32-1.34,2.7-2.46-.89-.31-1.6-1.62-1.4-2.41,3.35-1.57-.97-3.03-1.14-4.49.13-.82,1.75-.79,1.85-1.12-1.02-2.6,1.91-5.37-2.25-4.29l1.86-.69c-.25-1.17-.12-1.95-.72-1.9l-.05-.51h.02c.95-1.86-.83-3.37-.77-5.06,1.22-2.12-.99-9.17-2.53-11.48.58-1.04.96-1.86-1.56-2.76-.46-.58.31-2.83-.97-2.97-.16-.35.61-1.53-1.22-1.67,2.43-3.49-2.56-7.22-4.84-9.89.86-3.18,4.58,2.08,6.2,2.38,1.54,1.44,1.68,6.45,3.96,7.14.44,1.65,1.05,3.25,1.67,4.85.39,1.57.9,3.19,1.51,4.83,0,.52.02,1.03.09,1.51.57,3.87.49,7.61,1.41,11.37h0c-.48,1.42.55,2.56.72,3.65.31,1.99-.23,5.49,1.87,6.57-2.25,1.85.48,8.52-1.03,11.74.14.67,2.9,1.43,2.03,3.58-9.45,2.71-20.56,5.09-30.77,5.7-.83.23-.82,1.23-1.25,1.33-4.02-1.08-7.91-.57-12.1-.3-2,3.75-.69,9.04-.99,13.45h7.25v.38c-1.52,1.11-7.99-.36-7.82,2.05,2.1,1.62,8.89-.21,11.68,1.04-1.85,1.54-8.67,0-10.74.85-1.14.53-.69,2.29-.75,3.3.38.63,15.87-3.18,13.66-.05-3.42,2.15-16.26-.63-13.87,4.57.37.69,20.27-1.24,18,1.71-.32.31-7.48-.23-8.65-.21-1.67.02-6.38.06-7.76.3-3.51.6-.2,1.82-1.6,3.39-2.5-.06-1.01-2.43-2.2-3.47-8.61,2.12-18.69,1.52-27.62,3.27-5.5,1.59-.95,4.71-.41,6.72-.92.02-1.64,1.23-.22,1.36.84-.16,1.15,1.8,1.18,2.14-2.31.25-.85,1.15-.68,1.99.18.9.02,3.52,1.12,3.87.11,2.69,1.54,6.62,2.57,9.71,11.46-2.14,23.74.09,35-1.25,10.41.89,4.25-2.35,7.63-5.27l.86-4.84c-1.88.37.08-5.51,1.72-4.9l4.18-17.93c.78-3.42-.99-12.29,2.97-12.27h0c.52-.05,1.05-.07,1.57-.11,1.32.65,1.14,1-.39.87.18,9.5-6.49,19.38-.73,28.15.63,1.09,5.85,3.89,5.88,4.24-.82,1.93-.92,1.95,1.12,2.47,3.52,13.8,8.87,29.82,16.12,43.27h0c.44,2.03,1.01,4.21,1.74,6.5.41,1.28.84,2.5,1.28,3.67ZM170.93,322.44c.61,0,9.26,25.48,10.38,22.52-1.89-16.87,2.53-31.84.37-48.86,1.1-3.63,1.14-4.41-3.15-3.25-1.43-.04-6.96-2.17-7.61-.54.59,6.56-.66,15.27-.37,22.86-.39,2.36,2.4,6.57.38,7.27ZM190.9,334.6c.55,8.64,1.34-7.58.77-10.94-2.9.82-.01,8.1-.77,10.94ZM191.12,322.96c1.54.31.54-4.79.54-5.73-1-3.63,2.83-20.28-1.47-19.7,1.2,8.24-1.21,17.94.94,25.43ZM187.96,388.79c.17-5.29.85-12.02-1.1-17.32.34,3.23-1.36,16.39,1.1,17.32ZM187.22,404.03c1.38.42.5-14.12.74-14.55-2.73,1.24.1,11.32-.74,14.55ZM187.62,355.73c1.43-9.71-.39-22.54-.34-32.64.13-4.26.63-37.18-1.54-20.41-.23,13.1-.17,29.79-1.48,44.28-1.43.64-.65.97.31.98,1.03,1.05-1.57,8.89,3.06,7.78ZM187.22,359.69c1.38-.83,1.12-3.56-.74-3.46-.34,1.36.53,2.22.74,3.46ZM185.4,410.1c.22-2.67-1.75-6.22-.77-8.83h-1.11c.22.39-.98,14.61,1.89,8.83ZM184.62,294.55c-.14-.95,1-2.28-.36-2.77l.36,2.77ZM183.51,331.97l-.18-2.08c-.76.37-.46,2.05.18,2.08ZM182.03,361.07l-.74-4.85c-2.29-.24-.56,5.31.74,4.85ZM181.29,264.41c.1-.65,0-1.2-.74-1.38-.1.65,0,1.2.74,1.38ZM178.31,353.29c7.64,10.52-4.78-16.41-4.44-16.47-2.47,2.31,4.49,12.09,4.44,16.47ZM180.55,262.33l-1.11-3.81c-2.29-.26.88,3.2,1.11,3.81ZM178.17,361.44c.24-1.35-1.38-6.28-3.91-5.22-.1-.95,1.05-.65,1.66-.69,1.17-4.04-3.75-8.89-2.42-13.17l-1.1.35c.61-2.16-1.12-3.5-1.68-5.19-.45-3.26-1.47-6.72-4.24-8.56-.27-1.19.59-5.23-.62-5.6-33.76-.88-80.3-8.81-124.57-7.8-6.28,6.05-1.27,25.5-3.85,35.64-.33,1.47.9,2.45,2.3,2.17.59,1.33-1.09.22-.79,1.29l3.58,6.71c36.36,1.1,72.87.02,108.99.3,9.04,1.79,17.79.14,26.66-.24ZM178.69,258.18c-3.4-9.16-5.83-18.57-9.54-27.63-7.57-8.15,8.29,26.46,9.54,27.63ZM167.57,410.44c3.22,4.56,4.79-3.71,1.3-.52-1.89-.72,1.55-17.41-1.3-15.07v15.6ZM169.8,329.89c.36-.41-1.21-2.29-1.85-2.42-.42,1.49.83,1.65,1.85,2.42ZM169.43,245.36l-6.27-16.14-5.59-.84c4.75,5.06,6.63,12.87,11.86,16.97ZM168.31,393.29v-1.73c-.2-.4-1.35,1.51,0,1.73ZM167.2,317.42c1.46,1.03,1.19-6.87.1-3.21-.21,1.07-.08,2.14-.1,3.21ZM165.35,226.31c-.16,1.36.91,1.89,2.22,1.73-.49-1.3-.44-2.31-2.22-1.73ZM166.09,312.57v-1.38h-.74c.15.21.18,1.69.74,1.38ZM165.71,302.02c.1,1.45.44,5.69-.54,6.74-.64.69-1.94-.19-1.67,1.04,5.18,3.05,6.37-21.18,1.1-17.84,1.75,3.27-.49,7.07,1.1,10.06ZM164.98,411.31c-1.13-3.1.03-7.03-.37-10.39-1.6.38-2.96,12.6.37,10.39ZM164.98,318.46c-.02-3.11-.95-.77-2.01-.71-6.64-3.72,1.1-20.04-3.2-26.63-19.04,3.32-41.09,1.03-61.31,2.07-2.6.47-9.57.39-17.39.29v-.91c.44,0,.82-.19,1.12-.76l9.77-.03c-.55-2.66-3.22-.66-5-.66-6.99,0-14-.32-21.07-.25l-4.68,1.09c0,.49.67.64,1.56.61l.02.92c-6.94.22-11.94.86-11.42,2.46l-2.03-.35c-.23-4.03-6.16-1.73-9.02-2.74-.42,1.34-.63,2.75-.71,4.21l-.98-.06c0-.22-.1-.45-.34-.67-3.51-.11-2.04,3.67-2.74,3.76,2.56-.05,3.27-.21,3.27-.4l.76-.02c.11,4.28.89,8.8.5,12.9,14.52.08,30.33.72,43.99,2.08,15.96.08,32.25,2.25,48.63,2.44.36.12.76.19,1.19.21,1.45.07,2.9.14,4.36.23.63.12,1.27.21,1.89.31.28.05.55.09.83.13,0,0,.13.03.39.09,2.27.54,4.47,1.26,6.81,1.48,2.06.19,4.23-.26,6.26.12.05,0,.1.02.14.02-.13.78,1,.4,1.53.49v-.47c.32-.04.62-.13.91-.23.76,1.59,3.84.8,5.38,1.04-.13-1.36,1.17-2.89,2.61-2.07ZM164.61,399.88v-2.08c-.22-.44-1.44,1.83,0,2.08ZM163.87,396.41h.74c-.14-.18.35-2.48-.36-2.08l-.37,2.08ZM162.75,226.47c.17-1.06-3.57-2.09-4.44-1.9-.8,2.29,3.35,2.66,4.44,1.9ZM162.38,223.36l-2.41-4.68c-1.85,2.56-.78,5.98,2.41,4.68ZM156.65,366.81c1.65.17,10.16-.95,3.76-.9-.57-1.34-1.34-.25-2.28-.02-6.88-1.88-13.62-.99-20.58-1.36,4.16,1.52,13.41,2.12,19.1,2.27ZM148.67,167.41v-1.04c-1.36,0-1.36,1.03,0,1.04ZM143.48,180.58l4.08-.35c-.36-4.31-.09-6.29-4.61-3.44-.31-.05-.48-1.91-2.6-1.39-.3.17-.28.74-.21,1.41l-1.22.13c-.06-.31-.27-.52-.82-.51-1.07.01.35,3.28-.47,3.99,1.37,1.08,1.55-.09,2.28-.58.42-.28,1-.33,2.09.39-.16-1.93.27-2.78.71-2.78.53,0,1.08,1.16.77,3.12ZM137.55,290.4c-.3,1.33,2.15.46,2.96.69-.47-1.08-2-.62-2.96-.69ZM136.7,169.59c.56.51,1.19,2.46,1.96.95-2.54-.43,1.51-9.15-1.66-9.02-1.68.58.01,4.69-1.66,5.09-.72,2.85.47,2.16,1.37,2.98ZM129.58,180.92c6.36.01,5.93,1.09,5.74-5.37-1.25-3-1.56,1.86-3.93.2-1-4.24-2.09-5.25-2.04.1-.22,1.75-1.42,3.49.23,5.06ZM132.73,193.22l2.18-1.09c-.13-.42.81-9.17-.14-9.14-9.13-2.1-5.85,6.73-6.48,12.47,2.41-1.03,8.2,2.12,6.25-2.02l-1.8-.22ZM129.26,199.23c1.62-.2,6.71,1.1,5.53-1.71-1-.58-8.82-1.51-5.53,1.71ZM131.46,208.66c2.37-.36,4.46.91,3.09-2.77-10.33,1.36-21.68,1.48-31.85,4.13-.45.89,1.09.81,1.1,1.21,0,.09-1.08.91-.73,1.56,8.05-3.33,19.13-3.12,28.38-4.13ZM102.2,207.97c5.66-3.1,34.57-.58,32.17-7-1.65-.32-6.91-1.05-5.53,2.12-1.66-.58-1.56-4.47-2.96-1.04-1.21.12-.85-.21-.56-1.04-8.14-.2-17.07-1.97-25.58-.69l2.46,7.65ZM131.62,171.91c.69.28,2.06.45,1.85-.69-.53.14-2.31-.45-1.85.69ZM122.72,125.84c1.03-.18,4.97,1.24,4.45-1.04-.65.33-5.46-.89-4.45,1.04ZM126.06,180.92c.41-4.61.99-5.38-4.53-4.76-3.79.43-9.17,2.6-13.12,3.01-1.53-.17-6.83-.22-2.18,1.4l19.83.35ZM116.79,175.38c1.29-.94,8.58-1.14,5.84-3.7-1.48-1.43-6.71,1.19-5.84,3.7ZM113.82,176.42c-1.66-2.55.45-1.11,0-2.42-.54-.16-1.47-.41-1.87.14-.72,2.69-1.32,2.85,1.87,2.28ZM110.12,176.07c.14-1.45-.05-1.48-1.48-1.38-.14,1.45.05,1.48,1.48,1.38ZM107.89,237.39c.39-2.28-1.76-3.49-1.11-5.89-3.33-1.19-1.2,6.1,1.11,5.89ZM106.03,228.94l-2.21-5.06c-.02,1.61.18,8.89,2.21,5.06ZM103.64,176.76c3.41,2.84,5.53-4.28-3.41-.43-.1,0-.2,0-.3-.02-1.25-.19-2.46-1.58-2.41,1.83,1.08.45,1.95-1.29,2.4-1.3.65-.02,2.41,2.13,3.72-.08ZM96.77,176.77c-1.14-.21-2.28-.48-3.33.17.44,1.52,2.63.97,3.33-.17ZM90.47,177.46c.24-.89-.5-.67-1.11-.69-.24.89.51.67,1.11.69ZM87.88,177.46v-1.04c-1.83.23-2.32,1.16,0,1.04ZM75.57,174.62c.59-5.51-2.83.69-2.52,1.45.76.74,1.77-1.54,2.52-1.45ZM53.53,291.77c.14.02.88,1.36,2.47.71-.3-3.61-7.91-.34-2.47-.71ZM44.65,291.06l.6-1.36-5.37-.35c-.94,3.09,3.19.98,4.77,1.71ZM33.18,364.97l4.12,3.1c-.28-2.46,1.6-4.55-4.12-3.1ZM38.97,410.45c-2.2-5.45-1.66-10.2-2.58-15.98-.46-2.06,2.19-7.24-.78-7.76,2.91-2.46,1.33-7.6,1.08-11.26-.11-2.54,1.51-5.19-2.37-6.42-2.03,4.53,1.12,10.98-.2,15.77.74.92.9,1.33.84,1.9-.05.49-.26,1.09-.41,2.21,0,7.24,1.5,14.19.31,21.53.15,1.43,3.92,1.02,4.11,0ZM34.27,304.72c.06-3.84.62-7.66.22-11.55-1.42-.47-.82,16.23-1.11,16.63,2.34-.46.86-3.56.88-5.08ZM34.12,312.57c.99-2.21-1.35-2.21-.36,0h.36ZM33.02,320.89c2.22.94,2.31-4.83.74-5.38-.27,1.39-.65,3.23-1.04,5.32-1.59,8.57-3.43,21.51.49,26.03,1.85-3.54-.13-10.24.54-14.7.36-3.68,2.08-9.02-.73-11.28ZM33.11,355.73c.32-1.41-.56-2.46-.67-2.59-.7.07-1.32.39-1.78.87-.27.29-.48.64-.61,1.02-.35,1.06,0,2.24.91,2.96,1.1-.33,1.93-1.19,2.16-2.26ZM30.6,286.59c2.31,1.48,1.14-1.29.27-1.98-.45-1.08-.36-2.64-1.56-3.22-.38,1.94,1.19,3.32,1.29,5.2ZM30.99,303.4c-.4-5.71,1.24-11.66-2.69-16.47,1.24-1.22-3.38-5.63-2.79-8.05-3.22-7.15-4.71-14.16-7.5-21.06-2.49.8-.74,2.3-.54,3.63.56,11.76-.15,26,2.53,37.13-.93,3.47-.8,7.22.77,11.69,3.27,1.58,6.9-1.43,8.91,1.61-.85-1.75,1.1-2.77,1.16-3.29-.59-2.01-.62-3.55.15-5.19ZM29.03,320.2c5.74-6.68-12.82-5.18-5.38.64.94.17,2.01-.52,2.52.39.63-1.44,1.26-.71,2.86-1.02ZM28.55,326.24c.23-1.66,1.64-2.57.01-4.66-3.04,1.62-5.92-2.38-5.71,2.79-.6,1.33-1.94,3.31.16,4.37.72,1.32,1.36,4.21,1.95,5.22.88.94,2.65,2.09,2.12,3.55,2.66-2.02.43-8.09,1.46-11.28ZM28.57,278.96l-7.78-20.09c1.16,3.73,4.66,19.61,7.78,20.09ZM28.38,313.96l.19-.69c-1.45-1.1-2.02.1-3.13,0-1.66-.15-.96-.04-2.24,0-.56.01-1.46-1.06-2.41-.69-.42,3.44,5.28.65,7.59,1.39ZM20.41,323.66c.63-2.12-2.44-3.37-.85-.76.26.43-.23.96.85.76ZM19.67,316.74c-6.28-2.54-1.73,5.77.74,3.24-.23-1.16-1.54-1.62-.74-3.24ZM17.81,384.11c.52-2.41-.33-6.54-.33-9.04-.99-4.06,3.75-22.9-2.26-21.27,1.54-1.26,4.19-2.13,2.35-4.73.35-.87-.01-1.42-.83-1.56-.11-3.63-.81-13.51-2.26-17.61,1.26,10.99-7.47,84.13,2.57,82.44.1-8.15.55-15.09.8-23.37-.88-1.66-1.75-3.17-.05-4.85ZM16.71,288.32c1.33-1.17,1.1-5.17-.37-6.24l.37,6.24ZM16.33,277.23c-.12-.5,1.04-2.59-.37-2.08.14.18-.35,2.49.37,2.08ZM15.59,266.84c.66-1.12-.23-6.51-1.11-4.34.03,1.08-.57,4.51,1.11,4.34ZM13.74,256.1c2.01.48.51-1.52.56-2.42l-.56,2.42ZM13.93,252.98c1.27-1.13-.05-2.92-.18-4.33-.13-1.85.94-3.42-.54-4.35-1.91-7.83-.39,9.16.72,8.68ZM13.74,285.54l-.37-11.43c-1.52.57-.39,2-.37,2.6.19,2.92-.52,6.07.74,8.83ZM13,269.61c-1.82-.05-.45,2.46-.74,3.46,1.5.21.44-2.63.74-3.46ZM13,313.95l-1.11-13.16c-3.03,1.55.46,6.24-.76,8.82.03.39.68,5.66,1.87,4.35ZM12.25,227.34c.63-1.79-.34-2.24-2.22-2.08-.28,1.28.59,3.05,1.29,1.04l.93,1.04ZM12.26,223.53c.77-2.4-3.3-2.29-2.97-.35l2.97.35ZM11.89,264.41l.37-3.11c-1.54-.23-.51,2.38-.37,3.11ZM12.26,267.18c-.14-.54.44-2.16-.74-1.73.14.54-.44,2.15.74,1.73Z"/>
  <path class="cls-2" d="M191.67,323.66c.58,3.36-.22,19.59-.77,10.94.75-2.85-2.13-10.12.77-10.94Z"/>
  <path class="cls-2" d="M191.65,317.23c0,.94,1.01,6.03-.54,5.73-2.15-7.49.26-17.19-.94-25.43,4.3-.58.47,16.07,1.47,19.7Z"/>
  <path class="cls-2" d="M186.86,371.47c1.95,5.29,1.27,12.03,1.1,17.32-2.46-.92-.76-14.09-1.1-17.32Z"/>
  <path class="cls-2" d="M117.13,285.23c.02-.24.05-.47.07-.7.44-.49.78-1.08,1.02-1.71h8.54c5.73,0,6-10.17.77-11.08.31-2-.27-4.84-2.16-5.89-.63-.35-1.26-.68-1.9-1,2.97-1.39,3.42-7.08,1.36-9.22-.38-.39-.77-.76-1.18-1.1-.12-.51-.29-1.02-.51-1.51l-.02-.06c2.82.16,5.63.32,8.46.41,6.42.2,13.06.68,19.45-.05,2.89-.33,4.53-2.85,4.53-5.57,0-1.86-1.16-4.78-3.27-5.45,1.65-3.5,2.61-8.98,3.43-11.63,1.32-1.93,16.67,26.11,17.33,26.04.05.94-.16,1.92,1.02,2.17,4.48,9.36,7.46,21.34,13.89,29.62.04.5-1.96.38-2.33.37-21.24-1.3-41.56-.72-64.18.16-.37.02-.73.02-1.1.02-1.43,0-2.87-.1-4.29-.04l.43-1.5h0c.38-.55.57-1.26.62-1.88,0-.13.02-.26.03-.39h0Z"/>
  <path class="cls-2" d="M187.96,389.48c-.23.43.65,14.97-.74,14.55.84-3.23-1.99-13.3.74-14.55Z"/>
  <path class="cls-2" d="M187.27,323.09c-.04,10.11,1.77,22.93.34,32.64-4.63,1.11-2.03-6.74-3.06-7.78-.95-.01-1.73-.35-.31-.98,1.31-14.49,1.24-31.18,1.48-44.28,2.18-16.77,1.68,16.15,1.54,20.41Z"/>
  <path class="cls-2" d="M186.48,356.23c1.86-.1,2.12,2.63.74,3.46-.21-1.24-1.08-2.11-.74-3.46Z"/>
  <path class="cls-2" d="M184.63,401.26c-.98,2.62.99,6.16.77,8.83-2.87,5.77-1.66-8.44-1.89-8.84h1.11Z"/>
  <path class="cls-2" d="M184.26,291.78c1.36.49.22,1.82.36,2.77l-.36-2.77Z"/>
  <path class="cls-2" d="M183.33,329.9l.18,2.08c-.64-.02-.94-1.7-.18-2.08Z"/>
  <path class="cls-2" d="M181.29,356.23l.74,4.85c-1.31.46-3.03-5.08-.74-4.85Z"/>
  <path class="cls-2" d="M173.87,336.82c-.33.06,12.08,26.99,4.44,16.47.04-4.38-6.91-14.16-4.44-16.47Z"/>
  <path class="cls-2" d="M174.26,356.22c2.53-1.06,4.15,3.87,3.91,5.22-8.87.38-17.62,2.02-26.66.24-36.12-.27-72.63.81-108.99-.3l-3.58-6.71c-.3-1.07,1.39.04.79-1.29-1.4.28-2.63-.7-2.3-2.17,2.58-10.14-2.43-29.59,3.85-35.64,44.27-1.01,90.8,6.92,124.57,7.8,1.21.37.34,4.41.62,5.6,2.77,1.84,3.79,5.3,4.24,8.56.56,1.69,2.3,3.03,1.68,5.19l1.1-.35c-1.33,4.28,3.59,9.12,2.42,13.17-.61.04-1.76-.26-1.66.69Z"/>
  <path d="M175.24,170.05l1.13.7c-2.23,3.73-7.87.36-11.39,3.06l-.81.29v-.04c-1.84-.3-3.16-.33-4.11-.19l-.16-1.33c3.26-.36,2.77-2.4,4.71-1.68.31-3.94-2.39-.92-1.85-3.11.86.16,2.15.97,2.97.69.12.11-.32,2.5,1.01,2.76,2.13.11,5.89-.05,8.5-1.15Z"/>
  <path d="M176.08,152.18l.05.51c-.26.01-.66.18-1.28.54-1.76-2.39.88-.96,1.23-1.04Z"/>
  <path class="cls-2" d="M168.87,409.92c3.49-3.18,1.92,5.08-1.3.52v-15.6c2.85-2.34-.59,14.35,1.3,15.07Z"/>
  <path class="cls-2" d="M167.95,327.47c.63.13,2.21,2.01,1.85,2.42-1.02-.78-2.26-.94-1.85-2.42Z"/>
  <path class="cls-2" d="M168.31,391.56v1.73c-1.35-.22-.2-2.13,0-1.73Z"/>
  <path class="cls-2" d="M167.31,314.21c1.09-3.66,1.36,4.23-.1,3.21.02-1.07-.11-2.14.1-3.21Z"/>
  <path d="M166.66,176.7l-1.31.47-1.18-3.06.81-.29c1.86.87,1.2,1.69,1.68,2.88Z"/>
  <path class="cls-2" d="M166.09,311.19v1.38c-.55.3-.59-1.17-.74-1.38h.74Z"/>
  <path class="cls-2" d="M165.17,308.76c.98-1.05.64-5.29.54-6.74-1.59-2.99.64-6.79-1.1-10.06,5.27-3.34,4.08,20.89-1.1,17.84-.26-1.22,1.04-.35,1.67-1.04Z"/>
  <path class="cls-2" d="M164.61,400.92c.4,3.36-.76,7.29.37,10.39-3.33,2.21-1.98-10.01-.37-10.39Z"/>
  <path class="cls-2" d="M164.61,397.8v2.08c-1.44-.25-.22-2.52,0-2.08Z"/>
  <path class="cls-2" d="M164.61,396.41h-.74l.37-2.08c.72-.41.22,1.9.36,2.08Z"/>
  <path d="M157.83,124.1h3.44c-.3-5.03-15.56.88-20.01.18-1.16.32-3.3.09-5.2.07v-.92c6.59,0,14.3-1.75,20.39-2.62-16.76-7.43-36.88-3.95-54.4-.88h-.09c-.9-1.19,6.53-1.82,6.71-2.22-.34-2.61,3.56-1.97,5.71-2.26,15.07-.84,39.74-3.4,50.6,8.47l-4.48,2.52c-.22,2-.54,3.91-1.07,5.84l-1.18-.3c.02-.07.03-.15.04-.24-1.18-.15-1.76-1.56.01-1.57-2.23-5.71-3.11.98-5.94.87,2.61-2.34.51-3.34-1.98-2.11-.39.26-.95,2.44-1.91,2.79-1.67-1.59,1.76-.78.92-2.76h-7.23c-1.21,0-1.54,2.55-2.96,2.78-1.74.27,1.31-1.85.18-2.62-.16,0-1.3-.13-2.57-.19l.06-1.23c3.78.22,8.98-.28,10.46-.14,1.79-.89,3.78-.66,5.75-.69-.04-1.09.3-2.8,1.8-1.99,1.06,2.6,2.14.14,2.93-.77Z"/>
  <path d="M158.26,131.97l1.18.3c-.27.97-.6,1.95-.99,2.94-1.32.1-2.23-.05-.97-1.33-.12-1.52.6-1.2.78-1.91Z"/>
  <path d="M157.93,165.13l-1.1.02c-.11-.15-1.05-.06-.75-1.37.28-1.21,1.84-1.04,1.87-.7-.23.78-.16,1.43-.01,2.05Z"/>
  <path d="M149.78,197.2c-1.47-.4-4.37.92-4.98-.65v-.38h2.94c.22,0,2,.54,2.04,1.04Z"/>
  <path d="M147.56,160.13c7.94.46,2.99,1.46-.27,1.2-.36-.03-.7-.08-1-.14-1.08.18-1.46,1.1-1.54,2.31l-.94-.06c.05-.88.13-1.52.28-1.75-.12-.35-.95-.54-1.91-.59v-.13c.65,0,1.44-.09,2.42-.29.21-.91,1.48-1.62,1.67-1.9.16-.24-.52-1.6.39-1.75.96-.16,1.9,1.53,2.03,2.25.18,1.04-1.18.07-1.12.86Z"/>
  <path class="cls-2" d="M140.51,291.09c-.81-.22-3.26.64-2.96-.69.96.07,2.49-.39,2.96.69Z"/>
  <path d="M140.15,176.8c.14,1.19.46,2.68-.5,2.68-.17,0-.39-.05-.65-.15-.46-.68.04-1.76-.08-2.4l1.22-.13Z"/>
  <path d="M136.07,123.43v.92c-1.77-.01-3.32.16-3.72,1.14-.04,0-.08,0-.11,0-.54,0-.07-.83-.27-1.02l-.02-1.05c.14,0,.28,0,.42,0,.32-.32-.97-1.59,1.69-1.74,1.07-.49,1.22,1.19,1.52,1.75.17,0,.33,0,.5,0Z"/>
  <path class="cls-2" d="M120.34,290.4h14.62c-1.3,2.11-7.98.09-10.95.68-1.45-.28-11.31,2.32-8.14-.68h4.48Z"/>
  <path d="M133.35,160.71l-.02.3c-.27,0-.58.06-.94.19-.06,1.17-.86,2.28-.96,3.38l-1.18-.12c.17-1.83.03-3.43-1.4-3.3h-.11s-.06-.36-.06-.36c1.85-.19,1.73-4.45,4.06-.14.22.03.43.05.61.05Z"/>
  <path d="M120.34,289.05v1.35h-4.29v-1.39c1.42-.06,2.86.04,4.29.04Z"/>
  <path d="M119.39,158.75c3.04,1.09-.98,6.39-1.56,9.25l-.31-.08c.06-.22.07-.43.02-.64-.52-.03-1.39-1.91.62-3.08.37-.81-.1-1.87,1.21-2.51-.62-.46-1.11-.63-1.51-.58l-.05-.44c.79-.07,1.56-.59,1.57-1.93Z"/>
  <path d="M118.95,194.7l-.13,1.18c-5.66-.61-13.38-.11-16.32-.42-.22.01-.43.03-.64.06l-.16-1.1,2.48-.33c-.64-1.21-2.56-.53-3.7-.69,1.77-.74,6.97-.44,8.89-.34l-1.11,1.04c2.95-.48,7,.27,10.68.61Z"/>
  <path class="cls-2" d="M113.63,288.41c-.06.14-.11.29-.17.43,0,0-1.98-.02-4.56-.05.76-.06,1.49-.19,2.17-.39h2.56Z"/>
  <path d="M113.09,146.97c1.37-.27.9,1.84-.02,1.93l-.61-.06c.36-.54.63-1.13.63-1.86Z"/>
  <path d="M113.07,148.9c-.01.41.48.96.39,1.68-.66,1.08-1.14,1.96-1.47,2.7l-.3-.13c.05-.23-.17-.52-.83-.87-.37-1.39.82-2.28,1.6-3.44l.61.06Z"/>
  <path d="M111.7,153.15l.3.13c-1.42,3.15-.26,3.7-.43,6.06l-1.07-.07c-2.74-.39-.16-4.53.09-5.65.57,0,1.06-.18,1.11-.46Z"/>
  <path class="cls-2" d="M109.17,241.92h0c-.22.12-.41.26-.6.41-.17-.05-.34-.1-.52-.14h0c-.11-.41-.23-.75.39-.65.24.13.48.26.72.38Z"/>
  <path d="M104.93,128.26c1.14-.52,4.91-2.95,2.22,0,.22-.03.43-.06.65-.09l.1.78c-.94,2.23-3.09,4-3.82,6.3-.84,1.88-.67,1-1.64,1.05-2.54.6,2.61,1.24-2.13,5.82-.12,1.89-.98,2.92-1.52,2.77-.42-.13-.65-1-.16-2.78-.48-.51-1.22.32-1.77,1.46l-1.31-.13c.11-.33.08-.75-.25-1.32,1.71.4,1.55-2.78,2.26-3.96,1.82-3.05,6.23-5.61,7.38-9.21v-.7ZM99.37,140.73h1.11c-.73-1.23,1.13-2.21-.48-2.72-2.16.41.31,1.23-.63,2.72Z"/>
  <path d="M105.02,125.91l1.05.17c-.81.89-1.43,1.88-1.14,2.18v.7c-3.47,1.82-6.16,4.85-8.51,8.35l-.36-.23c.9-1.43,1.27-4.14,2.41-4.99,1.54-.34,2.64-2.37,2.02-3.82,2.32.52,3.37-.9,4.54-2.36Z"/>
  <path class="cls-2" d="M102.7,239.81c1.46-.04,2.1.83,2.72,1.7-1.33-.32-2.67-.59-4.02-.85l-.02-.05c-.7-1.42-1.14-2.9-2.13-4.19-1.17-1.52-2.75-2.59-4.47-3.45-.47-1.13-1.13-2.21-1.96-3.17-2.24-2.57-4.88-3.76-7.78-4.33,1.83-.62,5.71-.51,12.84.12l-1.85-1.04,3.16-.33c1.76,1.76,1.78,7.72,2.91,11.3,1.82,1.09,1.69,2.1.61,4.27Z"/>
  <path class="cls-2" d="M100.53,288.01c1.85.25,3.67.6,5.54.76-4.25-.04-8.76-.08-8.76-.08-.05-.33-.11-.67-.15-1,1.13.08,2.26.18,3.37.32Z"/>
  <path d="M98.64,145.56c.53,0-.73,4.06-2.39,2.98-.25-.17-.51-.45-.77-.88-.72.87-3.42,2.27-2.12,3.63-2.23,1.37-.71,3.85-3.26,4.5l-1.4-.3c.31-.91,1.54-2,1.71-2.56.74-3.52,2.59-4.47,3.53-7.94.28-.52,1.34-.81,1.6-1.56l1.31.13c-.91,1.88-1.34,4.6.62,3.67.62-1.23.99-1.68,1.17-1.68Z"/>
  <path d="M98.26,156.67c-1.01,2.65.79,1.36.99,4.36-2.62,1.69-3.75,8.63-4.61,11.83-.02.09-.04.18-.06.26l-1.17-.19c.16-1.03-.1-1.1-1.09-1.02.29-2.48,1.76-4.68,1.54-7.01.28-1.14,3.19-3.71-.18-3.71v-.21c3.87.14,1.71-3.25,4.56-4.31Z"/>
  <path d="M95.85,149.06c1.36,1.25-.44,4.72-1.95,7.59l-1.28-.17c1.15-1.91,1.13-6.08,3.23-7.41Z"/>
  <path d="M92.62,156.47l1.28.17c-.63,1.2-1.21,2.29-1.49,3.08l-1.26-.34-.48-1.66.93-.36c.43-.13.76-.45,1.03-.89Z"/>
  <path class="cls-2" d="M91.95,291.78l-9.77.03c-.3.57-.69.76-1.11.76-.81,0-1.78-.69-2.63-.8-3.18-.44-4.07,1.38-6.68-.02-1.68.58-2.42.76-4.08.09-.44,0-3.14.69-4.92.73-.89.02-1.55-.13-1.56-.61l4.68-1.09c7.07-.07,14.08.24,21.07.25,1.78,0,4.45-2,5,.66Z"/>
  <path d="M90.1,155.81c1.39.04,1.65.17,1.49,1.56l-.93.36s-.09.09-.13.14l-1.16-.5c.37-1.07-.57-.98-.64-1.1-.12-.22-.11-.47-.02-.74l1.4.3Z"/>
  <path d="M90.74,217.45l-.1,1.33c-6.54-.45-13.12-.89-19.71-1.24l.08-1.29c6.38-.49,13.24.77,19.73,1.2Z"/>
  <path class="cls-2" d="M88.75,288.93c.05,0,.11,0,.16,0-1.66.25-3.72.05-4.74.09.05-.04.11-.08.18-.13h0c1.47.09,2.95.12,4.4.05Z"/>
  <path d="M81.07,292.57v.91c-6.16-.07-12.83-.16-18.29.01l-.02-.92c1.78-.04,4.48-.74,4.92-.73,1.66.67,2.4.49,4.08-.09,2.62,1.4,3.5-.42,6.68.02.85.11,1.82.8,2.63.8Z"/>
  <path class="cls-2" d="M74.46,287.64h.04c-6.06.72-12.29,1.02-18.16.59,5.62.1,11.24-.35,16.88-.79.42.07.83.13,1.25.2Z"/>
  <path d="M71.02,216.26l-.08,1.29c-17.41-.96-34.84-1.43-51.52-.59-.91.18-4.1-.61-4.28-1.59-.05-.26.11-.54.6-.82,18.69,1.4,36.85-.55,55.28,1.71Z"/>
  <path d="M69.33,223.27v1.31c-.44.07-.89.13-1.35.19h-.01c-2.91-.03-5.82-.02-8.72.06-3.81.11-7.61.37-11.39.83-10.04-.15-20.33-.82-30.23-.52l-.04-1.27c.89-.03,1.75-.15,2.28-.36,16.34-.66,33-.13,49.47-.24Z"/>
  <path class="cls-2" d="M69.34,224.58l-.33.2c-.34,0-.68,0-1.03,0,.45-.06.91-.13,1.36-.19Z"/>
  <polygon class="cls-2" points="52.24 260.68 52.15 260.7 52.14 260.68 52.24 260.68"/>
  <path class="cls-2" d="M45.29,287.17c.41.08.83.15,1.24.22-1.87.97-7.47.54-9.25-1.16-2.66,2.77-4.9-4.15-4.58-5.49.13-.14.45-.13.79-.2,1.44,1.69,3.09,3.18,5.02,4.4.58.45,1.24.83,1.98,1.11.39.19.78.37,1.19.54.31.26.7.42,1.16.45.09.03.17.06.25.09.77.26,1.53.25,2.2.05Z"/>
  <path class="cls-2" d="M47.86,225.66c-2.19.27-4.37.61-6.53,1.02-1.33.26-2.66.55-3.98.89-.46.12-.92.25-1.38.37-.58.03-1.17.06-1.75.11-4.45.34-9.12.99-13.52-.05-4.12-.98-5.97,3.12-5.62,6.46-1.04-2.75-.83-6.25-.59-9.19,1.04-.06,2.09-.1,3.14-.13,9.9-.3,20.2.37,30.23.52Z"/>
  <path d="M38.62,297.01l.98.06c-.05.85-.05,1.72-.03,2.6l-.76.02c0-.25-1.12-.55-1.1-.75.11-.65.9-1.29.9-1.94Z"/>
  <path class="cls-2" d="M38.28,296.34c.25.22.34.45.34.67,0,.65-.8,1.29-.9,1.94-.03.19,1.1.5,1.1.75,0,.19-.71.36-3.27.4.7-.09-.77-3.87,2.74-3.76Z"/>
  <path class="cls-2" d="M37.3,368.06l-4.12-3.1c5.72-1.45,3.84.64,4.12,3.1ZM35.28,366c.92.26,1.67-.17,1.81-.25-1.11-1.23-1.54-1.23-2.96-.52.13.16.51.58,1.15.76Z"/>
  <path class="cls-2" d="M36.39,394.47c.92,5.78.38,10.53,2.58,15.98-.19,1.01-3.96,1.42-4.11,0,1.2-7.33-.3-14.29-.31-21.53.15-1.12.36-1.72.41-2.21h.65c2.97.52.32,5.71.78,7.76Z"/>
  <path class="cls-2" d="M36.69,375.45c.26,3.65,1.83,8.8-1.08,11.26h-.65c.06-.58-.1-.99-.84-1.91,1.32-4.79-1.84-11.24.2-15.77,3.88,1.23,2.26,3.88,2.37,6.42Z"/>
  <path class="cls-2" d="M37.09,365.75c-.13.07-.89.5-1.81.25-.65-.18-1.02-.6-1.15-.76,1.42-.71,1.85-.71,2.96.52Z"/>
  <path class="cls-2" d="M34.5,293.17c.39,3.89-.17,7.7-.22,11.55-.02,1.53,1.46,4.62-.88,5.08.29-.39-.31-17.1,1.11-16.63Z"/>
  <path class="cls-2" d="M33.76,312.57c-.99-2.21,1.36-2.21.36,0h-.36Z"/>
  <path class="cls-2" d="M33.76,315.51c1.58.54,1.49,6.31-.74,5.38l-.3-.05c.39-2.1.77-3.93,1.04-5.32Z"/>
  <path class="cls-2" d="M33.02,320.89c2.8,2.27,1.09,7.6.73,11.28-.67,4.46,1.31,11.16-.54,14.7-3.92-4.53-2.08-17.46-.49-26.03l.3.05Z"/>
  <path class="cls-2" d="M32.44,353.14c.11.13.99,1.18.67,2.59l-.46.14-1.85-1.73-.14-.13c.46-.48,1.09-.79,1.78-.87Z"/>
  <path class="cls-2" d="M32.65,355.87l.46-.14c-.23,1.06-1.07,1.93-2.16,2.26-.9-.71-1.26-1.89-.91-2.96.13-.39.34-.73.61-1.02l.14.13c-.17,1.81.05,1.85,1.85,1.73Z"/>
  <path class="cls-2" d="M30.8,354.15l1.85,1.73c-1.8.13-2.02.08-1.85-1.73Z"/>
  <path class="cls-2" d="M23.65,320.84c-7.44-5.82,11.12-7.31,5.38-.64-1.6.31-2.24-.42-2.86,1.02-.51-.91-1.58-.21-2.52-.39Z"/>
  <path class="cls-2" d="M28.56,321.58c1.62,2.08.22,3-.01,4.66-1.03,3.19,1.2,9.26-1.46,11.28.53-1.46-1.24-2.61-2.12-3.55-.59-1.01-1.23-3.9-1.95-5.22-2.1-1.05-.76-3.04-.16-4.37-.21-5.17,2.67-1.17,5.71-2.79Z"/>
  <path class="cls-2" d="M28.57,313.27l-.19.69c-2.31-.73-8.01,2.06-7.59-1.39.95-.37,1.85.71,2.41.69,1.28-.03.57-.14,2.24,0,1.11.1,1.68-1.1,3.13,0Z"/>
  <path class="cls-2" d="M19.57,322.9c-1.59-2.61,1.48-1.36.85.76-1.08.2-.58-.33-.85-.76Z"/>
  <path class="cls-2" d="M20.41,319.99c-2.47,2.52-7.02-5.79-.74-3.24-.8,1.63.51,2.08.74,3.24Z"/>
  <path class="cls-2" d="M17.89,309.56c1.86,1.4.07,2.48.27,4.37-5.51,2.38-1.31-8.39-1.79-11.58l1.52,7.21Z"/>
  <path class="cls-2" d="M17.48,375.07c0,2.5.85,6.63.33,9.04-1.7,1.68-.83,3.19.05,4.85-.24,8.28-.7,15.22-.8,23.37-10.05,1.7-1.32-71.45-2.57-82.44,1.44,4.1,2.14,13.98,2.26,17.61.81.14,1.18.69.83,1.56,1.84,2.6-.81,3.46-2.35,4.73,6.01-1.63,1.27,17.21,2.26,21.27Z"/>
  <path class="cls-2" d="M16.34,282.08c1.47,1.07,1.7,5.07.37,6.24l-.37-6.24Z"/>
  <path class="cls-2" d="M15.97,275.16c1.41-.51.25,1.57.37,2.08-.72.41-.22-1.9-.37-2.08Z"/>
  <path class="cls-2" d="M15.62,237.5c.15.7.31,1.4.49,2.09-.25.03-.53.11-.88.22-.55-.89-.02-1.57.39-2.32Z"/>
  <path class="cls-2" d="M14.48,262.5c.88-2.17,1.77,3.22,1.11,4.34-1.68.17-1.08-3.26-1.11-4.34Z"/>
  <path class="cls-2" d="M14.3,253.68c-.05.91,1.45,2.9-.56,2.42l.56-2.42Z"/>
  <path class="cls-2" d="M13.75,248.65c.13,1.41,1.45,3.2.18,4.33-1.11.49-2.64-16.5-.72-8.68,1.48.93.41,2.5.54,4.35Z"/>
  <path class="cls-2" d="M13.37,274.12l.37,11.43c-1.26-2.76-.55-5.91-.74-8.83-.02-.6-1.15-2.03.37-2.6Z"/>
  <path class="cls-2" d="M12.26,273.08c.29-1-1.08-3.51.74-3.46-.3.84.76,3.67-.74,3.46Z"/>
  <path class="cls-2" d="M11.89,300.79l1.11,13.16c-1.18,1.31-1.84-3.96-1.87-4.35,1.22-2.57-2.28-7.27.76-8.82Z"/>
  <path class="cls-2" d="M12.26,261.3l-.37,3.11c-.14-.73-1.17-3.34.37-3.11Z"/>
  <path class="cls-2" d="M11.52,265.46c1.19-.43.6,1.18.74,1.73-1.19.43-.6-1.18-.74-1.73Z"/>
  <path d="M165.48,133.11l1.83.52c-1.03.89-2.07,1.24-2.16,2.75l-1.13.2c.33-1.37-.43-2.42,1.1-2.95-1.29-1.45-.82-4.74-2.57-5.37,2.06-2.49,5.57-1.66,4.29,1.82-.38,1.04-1.71,1.7-1.36,3.04Z"/>
  <path d="M157.44,160.11c.07.07,1.83.66,1.93.65.95-.12,2.95-3.34,3.18-.28,1.18.33,1.65-1.25,2.72-1.06.27.05.27.66.58.87.42.28,1.19-.06,1.09.54-1.43.18-1.93,1.6-1.83,2.78-1.44.38-.4-2.12-.73-2.43l-2.19.36.32,2.37-1.43.38c-.44-.95,1.39-.55.71-1.37-.03-.04-.63.09-.72-.24-.15-.53.09-1.28,0-1.85l-4.41.53.2-2.96c1.24.48.49,1.64.57,1.71Z"/>
  <path d="M118.61,151.47c-.24.95-.22,1.97-.39,2.92-.08.48-.5.78-.58,1.13-.08.36.29.85.18,1.25-.09.38-1.13,1.38-1.58,1.28-1.1-.25-.73-4.3-.53-4.49.09-.08,1.76.11,2.18-.89l-1.1-1.21h1.83Z"/>
  <path d="M172.81,161.53l1.1,2.59-1.07.14c-.12-.09-.7-2.34-.97-2.72-.57-.8-1.76-.32-1.99-1.05l1.32-1.07,3.06,1.24-1.46.87Z"/>
  <path d="M139.48,143.85c.27,1.17-.48,1.59-1.09,2.42,1.08-.17.55.75.75,1.12.23.41.88.16.71.79l-.92.54c-2.18-.9-1.15-2.2-2.01-3.82l1.45-.03.02-1h1.09Z"/>
  <path d="M109.17,142.88c-.83,1.42.4,1.18.75,1.32,1.01.41-1.42,2.26-2.3,1.73-.11-.1.27-2.57.38-2.85.08-.21,3.49-2.86,3.65-2.69.27,1.11-2.3,2.19-2.48,2.5Z"/>
  <path d="M167.15,138.5c-.62,1.07-1.06,1.61-2.4,1.54-.2-1.36.88-2.25,1.96-2.86l-.12-1.99c2.31.44,1.35,1.95.56,3.31Z"/>
  <path d="M106.09,153.82c-.31.17-.69.05-1.03.08l.36-2.77h1.47s.54-1.38.54-1.38c1.85,1.96.61,2-.74,3.12-.33.27-.5.9-.61.96Z"/>
  <polygon points="154.44 163.3 154.5 167.21 153.04 167.76 152.67 162.91 154.44 163.3"/>
  <path d="M160.72,138.66l-1.47,2.77-1.79-.73c.18-1.82,1.52-2.3,3.26-2.04Z"/>
  <path d="M175.73,168.79c-.76-.19-.66-1.08-1.09-1.58-.49-.56-1.95-1.04-1.83-2.23l1.79-.32c.45,1.36,1.78,2.68,1.13,4.13Z"/>
  <path d="M118.97,147.32c.11,1.45-1.47,1.73-1.1,3.12l-1.47-.17c-1.37-.86,1.97-3.49,2.57-2.95Z"/>
  <path d="M154.6,161.29c-.39.48.45,1.24-1.56.92l.34-1.01-1.07-.55.78-1.18,2.5,1.18c-.02.22-.76.35-.99.63Z"/>
  <path d="M158.89,142.12c.96.85,1.3,4.51-1.09,4.15-.17-.66.61-1.07.66-1.61.01-.15-1.02-3.82.43-2.54Z"/>
  <path d="M127.03,141.43c.24,1.68-.86,2.92.38,4.34l-.74.85c.29-.93-1.12-1.61-1.06-2.19.06-.52.86-1.02.95-1.5.12-.63-.93-1.75.46-1.51Z"/>
  <path d="M170.68,157.99c-.3-.16-1.05-2.02-.79-2.36l2.56,1.22c.31.99-.96,1.57-1.76,1.14Z"/>
  <path d="M154.13,193.05v.35h-6.78c-.65,0-1.77.4-2.74,0v-.34s9.52,0,9.52,0Z"/>
  <path d="M120.07,141.42c-4.19.48-1.24-3.46-.19-1.38.23.45.23.9.19,1.38Z"/>
  <path d="M136.82,153.66c.12.11.08.53.25.78.27.41,1.37.32-.33,1.44-1.55-.59-1.41-1.19-1.28-2.68.39.26,1.11.23,1.37.46Z"/>
  <path d="M126.66,155.29c.34.32-1.8,2.82-2.01,3.11l-.48-1.67c.78.11,1.7-2.17,2.49-1.44Z"/>
  <path d="M147.9,151.82c.25.16.3,1.84-.02,2.05-3.21.57-1.13-2.81.02-2.05Z"/>
  <path d="M131.78,151.82v2.55c-.32.62-1.56.08-1.4-.59.74-.68.62-1.09.32-1.96h1.09Z"/>
  <path d="M139.85,151.13c.6.56-2.59,2.44-2.51.45l.53-.79,1.98.33Z"/>
  <path d="M129.6,144.2c-.33-.32,1.4-3.01,2.19-3.12-.16,1.23-.6,2.99-2.19,3.12Z"/>
  <path d="M119.34,143.51c.18.16-1.17,2.72-1.83,2.77-.15-1.38-.08-2.92,1.83-2.77Z"/>
  <path d="M160.36,137.26l-1.82.35-.37-1.73c1.03-.14,2.21.22,2.19,1.38Z"/>
  <path d="M159.26,149.4c.08,1.15-.26,2.67-1.83,2.42-.29-.26,1.27-3.03,1.83-2.42Z"/>
  <polygon points="125.53 151.15 125.93 153.2 124.47 153.2 124.47 151.13 125.53 151.15"/>
  <path d="M147.17,148.35c-1.23.93-1.18-2.41.19-2.76l-.19,2.76Z"/>
  <path d="M106.15,141.08c.32.38-1.41,3.1-2.19,2.42-.35-.3.97-1.49,1.25-1.77.12-.12.4-1.3.94-.65Z"/>
  <path d="M148.64,142.12h-1.46s0-2.07,0-2.07c1.22-.02,1.62,1.1,1.46,2.07Z"/>
  <path d="M126.66,148.36c-.07.75-1.22.53-1.41.74-.35.39.53,1.62-.78,1.34l.34-1.93,1.85-.15Z"/>
  <path d="M154.86,156.32c.26,1.39-2.08,2.96-1.68,1,.13-.65.99-1.05,1.68-1Z"/>
  <path d="M114.58,145.93l-1.83.35c-.31-2.09,1.41-2.32,1.83-.35Z"/>
  <polygon points="148.25 149.07 148.64 150.43 146.81 151.13 147.18 149.05 148.25 149.07"/>
  <path d="M154.86,151.82h-1.1c-.09-.92.16-1.81.92-2.43l.18,2.43Z"/>
  <path d="M170.61,154.59h-1.46c-.44-2.03,1.84-2.32,1.46,0Z"/>
  <path d="M132.52,135.19c.61,1.26.12,2.14-1.46,2.07l1.46-2.07Z"/>
  <polygon points="131.79 155.98 131.73 157.3 130.33 157.71 130.69 156.21 131.79 155.98"/>
  <path d="M153.65,134.4c-.13.13-1.3.85-1.34.79-.32-1.38.34-1.36,1.28-2.07.66.38.51.82.07,1.28Z"/>
  <path d="M168.41,141.77l-1.29.31c-.77-.5-.69-.85.01-1.35.76-.13,1.4.29,1.28,1.03Z"/>
  <path d="M121.17,135.19c-.15.17-1.28,2.72-1.83,2.07-.43-.76,1.37-2.47,1.83-2.07Z"/>
  <polygon points="113.11 135.53 111.65 135.88 111.65 134.15 113.11 135.53"/>
  <polygon points="109.45 133.11 108.9 134.84 107.99 134.49 108.91 133.11 109.45 133.11"/>
  <path d="M139.48,135.19c.06.04.45,1.31.37,1.38h-1.46c-.3-.68.53-1.76,1.09-1.38Z"/>
  <path d="M128.86,130.34c.1.12-.03,2.7-.73,2.77.24-.76-.68-3.04.73-2.77Z"/>
  <path d="M159.99,193.05l-3.66.34c.59-1.26,2.51.05,3.66-.34Z"/>
  <path d="M143.87,193.05c.09.6-.83.33-1.28.34-1.03.04-2.08-.02-3.12,0-.09-.6.83-.33,1.28-.34,1.04-.04,2.08.02,3.12,0Z"/>
  <path d="M121.17,156.32l-.37,1.73h-.72c-.1-.86-.02-1.82,1.09-1.73Z"/>
  <path d="M106.89,140.04c-1.57.06-1.78-.51-.55-1.38l.55,1.38Z"/>
  <polygon points="107.62 147.66 107.62 149.05 106.52 149.05 106.89 147.66 107.62 147.66"/>
  <path d="M121.17,133.46h-.54c-1.65-1.66.67-2.1.54,0Z"/>
  <polygon points="145.71 156.67 145.34 158.4 144.61 158.4 144.98 156.67 145.71 156.67"/>
  <path d="M139.11,142.12c.47.48-.65,1.84-1.09,1.38-.47-.48.65-1.84,1.09-1.38Z"/>
  <path d="M162.19,158.05h-1.83s0-.69,0-.69c.7-.05,1.61-.09,1.83.69Z"/>
  <path d="M150.47,157.02c.23.23-.17,1.37-.55,1.38-1.09.01-.1-2.04.55-1.38Z"/>
  <path d="M116.04,193.05c-.51.8-2.45.14-3.29.34.48-.8,2.45-.14,3.29-.34Z"/>
  <path d="M161.09,155.29v.69s-1.46.35-1.46.35v-.51c.39-.54.79-.6,1.46-.52Z"/>
  <path d="M140.21,137.27c.16.83-.83,1.08-1.46,1.38-.35-.4.9-1.64,1.46-1.38Z"/>
  <path d="M139.11,139.7c.18.15-.08.65-.36.87-1.29.99-.81-1.85.36-.87Z"/>
  <rect x="136.19" y="149.05" width=".73" height="1.38"/>
  <path d="M154.13,196.51v1.04s-1.09,0-1.09,0c-.12-.63.4-1.15,1.09-1.04Z"/>
  <rect x="164.02" y="167.06" width="1.46" height=".69"/>
  <path d="M153.03,140.04h-1.1c0-1.27,1.09-1.27,1.1,0Z"/>
  <path d="M164.39,158.4c-.1-.65,0-1.2.73-1.39.1.65,0,1.2-.73,1.39Z"/>
  <rect x="127.03" y="154.59" width="1.09" height=".69"/>
  <rect x="152.3" y="137.27" width=".73" height="1.04"/>
  <rect x="112.02" y="136.92" width=".73" height="1.04"/>
  <rect x="106.16" y="136.23" width="1.09" height=".69"/>
  <path d="M126.67,135.88v-.69s1.09-.35,1.09-.35c.12.63-.4,1.15-1.09,1.04Z"/>
  <path d="M491.09,307.79c-1.99-.4-4.21-.65-6.44-.84l-7.52.14.74-.53c-.64-1.48-.74-.19-1.3-.02-1.93.59-7.79.82-10.19,1-15.25,1.1-30.73,1.61-46.09,1.87-3.93.07-9.11-.06-12.99.45-5.2.69-11.56.02-16.26.83-1.76.31-3.6,1.19-5.38,1.55.02.09.04.16.05.22.21.06.41.14.61.23,3.14-.32,8.45-1.04,11.38-.65.47.06.61.65.91.65,1.25,0,4.18-1.1,5.78-1.27,2.37-.25,5.03-.11,7.43-.21,8.8-.35,18.2-.2,27-.55,7.06-.28,15-1.46,21.95-1.35.58,0,1.21.16,1.79.2-.36.16-.61,1.32-.68,1.34-.46.17-1.12-.24-1.54.25-.38.45.05,1.29.52,1.23,1.06-.14,1.88-1.7,2.7-2.01.27-.1,3.37-.99,3.55-1.01.19-.03.31.5.54.5.96-.02,3.15-.6,4.59-.75,6.21-.65,12.94-.54,19.11.09.31.03,3.07.51,2.88-.09-.59-1.37-1.95-1.04-3.16-1.28Z"/>
  <path d="M486.46,284.7c-1.99-.4-4.21-.65-6.44-.84l-7.52.14.74-.53c-.64-1.48-.74-.19-1.3-.02-1.93.59-7.79.83-10.19,1-15.25,1.1-30.73,1.61-46.09,1.87-3.93.07-9.11-.06-12.99.45-5.2.69-11.56.02-16.26.83-1.76.31-3.6,1.19-5.38,1.55.02.09.04.16.05.22.21.06.41.14.61.23,3.14-.32,8.45-1.04,11.38-.65.47.06.61.65.91.65,1.25,0,4.18-1.1,5.78-1.27,2.37-.25,5.03-.11,7.43-.21,8.8-.35,18.2-.2,27-.55,7.06-.28,15-1.46,21.95-1.35.58,0,1.21.16,1.79.2-.36.16-.61,1.32-.68,1.34-.46.17-1.12-.24-1.54.25-.38.45.05,1.29.52,1.23,1.06-.14,1.88-1.7,2.7-2.01.27-.1,3.37-.99,3.55-1.01.19-.03.31.5.54.5.96-.02,3.15-.6,4.59-.75,6.21-.65,12.94-.54,19.11.09.31.03,3.07.51,2.88-.09-.59-1.37-1.95-1.04-3.16-1.28Z"/>
  <path d="M381.83,288.35c-2.02-.26-4.24-.35-6.48-.39l-7.49.66.7-.58c-.75-1.43-.75-.14-1.29.07-1.88.72-7.71,1.36-10.09,1.7-15.13,2.16-30.54,3.74-45.84,5.07-3.91.34-9.09.57-12.93,1.36-8.81,1.79-13.48,1.47-16.15,1.96-5.62,1.04-9.65,2.3-17.7,4.83-4.2,1.32-9.62,3.12-15.91,5.47-.56,1.99-1.08,4.28-.55,4.51.46.2,1.37-1.31,2.6-2.58,2.2-2.27,4.46-2.81,10.44-4.61,8.27-2.49,6.31-2.17,10.45-3.29,6.22-1.68,11.05-2.51,15.03-3.19,4.48-.77,7.78-1.18,9.01-1.33,3.6-.43,6.29-.6,7.4-.72,8.75-.96,18.14-1.47,26.89-2.43,7.03-.77,14.86-2.5,21.79-2.87.58-.03,1.22.08,1.8.08-.34.19-.51,1.35-.58,1.38-.45.2-1.14-.16-1.51.36-.34.47.14,1.28.61,1.19,1.05-.21,1.75-1.82,2.54-2.19.26-.12,3.29-1.22,3.47-1.26.19-.04.35.48.58.46.95-.09,3.1-.82,4.52-1.07,6.15-1.08,12.86-1.44,19.07-1.24.31.01,3.1.29,2.87-.29-.69-1.32-2.02-.9-3.25-1.06Z"/>
  <path d="M381.83,288.35l.06-.46c-2.05-.27-4.29-.36-6.54-.39h-.03s-7.51.66-7.51.66l.04.46.31.35.98-.82-.17-.32c-.14-.26-.26-.45-.39-.61-.07-.08-.14-.14-.24-.2-.09-.06-.22-.11-.36-.1-.13,0-.25.04-.34.09-.15.09-.22.19-.28.27-.09.13-.15.24-.21.31l-.07.08h-.01s.01.03.01.03v-.02s-.01,0-.01,0v.02s0-.02,0-.02c-.42.16-1.12.34-1.96.5-2.51.5-6.23.92-8.02,1.17-15.12,2.15-30.52,3.74-45.81,5.07-3.9.34-9.09.57-12.98,1.36-4.38.89-7.73,1.26-10.32,1.46-2.59.2-4.42.24-5.82.5-5.66,1.04-9.71,2.32-17.76,4.84-4.2,1.32-9.64,3.12-15.93,5.48l-.23.08-.06.23c-.2.71-.39,1.46-.54,2.15-.15.69-.25,1.32-.25,1.81,0,.21.02.39.07.58.03.09.07.19.14.28.07.09.17.18.3.24.09.04.19.06.28.06.18,0,.32-.06.44-.13.2-.12.37-.27.54-.45.26-.28.55-.63.86-1,.31-.38.65-.78,1.02-1.16,1.06-1.09,2.09-1.74,3.64-2.37,1.55-.63,3.6-1.21,6.6-2.12,4.14-1.25,5.73-1.79,6.79-2.17,1.06-.37,1.58-.56,3.64-1.12,6.2-1.67,11.01-2.5,14.98-3.18,4.47-.77,7.76-1.18,8.99-1.33,3.59-.43,6.26-.6,7.39-.72,8.74-.95,18.12-1.46,26.89-2.43,7.06-.78,14.89-2.5,21.76-2.87.06,0,.12,0,.19,0,.46,0,1.01.08,1.57.08h.02v-.46l-.23-.41c-.13.07-.21.16-.27.24-.11.15-.18.3-.24.46-.09.23-.15.47-.2.66-.02.09-.04.17-.06.21v.02s0,0,0,0l.28.1-.26-.14-.02.04.28.1-.26-.14.37.2-.33-.27-.05.06.37.2-.33-.27.35.29-.2-.41c-.09.04-.13.09-.16.12l.35.29-.2-.41s-.09.03-.22.03c-.1,0-.22,0-.36,0-.16,0-.35,0-.55.08-.2.07-.42.21-.56.42-.15.2-.2.43-.2.64,0,.32.12.61.3.84.09.12.2.22.34.3.14.08.3.14.49.14.06,0,.12,0,.17-.02.37-.08.68-.27.94-.48.39-.33.71-.73,1-1.07.14-.17.28-.32.4-.44.12-.12.23-.2.31-.23,0,0,.08-.03.18-.07.37-.14,1.14-.43,1.84-.68.35-.13.68-.24.93-.33.13-.04.23-.08.31-.11l.09-.03h.02s0,0,0,0l-.07-.24.06.25h.01s-.07-.25-.07-.25l.06.25-.08-.36v.37h.09s-.09-.37-.09-.37v.37-.34l-.18.29s.1.05.18.05v-.34l-.18.29.09-.15-.13.12.03.03.09-.15-.13.12s.08.1.17.21c.05.06.1.12.19.19.09.06.23.14.41.14h.06s0,0,0,0c.28-.03.61-.09.98-.18,1.1-.26,2.57-.72,3.58-.9,5.03-.88,10.45-1.28,15.65-1.28,1.12,0,2.22.02,3.31.05.02,0,.1,0,.2.01.31.02.89.06,1.44.06.35,0,.68-.01.97-.07.15-.03.29-.07.43-.15.07-.04.15-.1.22-.2.07-.09.11-.22.11-.35,0-.08-.02-.16-.04-.23v-.02s-.02-.02-.02-.02c-.2-.39-.48-.69-.8-.88-.48-.29-1-.35-1.47-.37-.48-.02-.94,0-1.34-.05l-.06.46-.06.46c.69.09,1.33.02,1.82.09.24.03.44.09.61.2.17.1.31.25.46.52l.43-.21-.45.16.27-.1h-.29s0,.08.02.1l.27-.1h-.29.33l-.27-.18s-.06.12-.06.18h.33l-.27-.18.19.13-.13-.19-.06.06.19.13-.13-.19.03.05-.03-.05h0s.03.05.03.05l-.03-.05s-.13.05-.3.06c-.17.02-.38.03-.61.03-.33,0-.69-.02-.99-.04-.15,0-.28-.02-.38-.03-.11,0-.18-.01-.24-.02-1.1-.04-2.22-.06-3.35-.06-5.25,0-10.72.41-15.82,1.3-.75.13-1.65.38-2.48.61-.42.11-.81.22-1.16.3-.35.08-.65.14-.84.16h0s.03.33.03.33v-.33h-.03s.03.33.03.33v-.33.3l.14-.27s-.08-.03-.14-.03v.3l.14-.27-.08.14.11-.12-.03-.02-.08.14.11-.12h-.01s-.09-.13-.16-.22c-.04-.05-.09-.1-.16-.16-.07-.06-.2-.13-.38-.13-.04,0-.08,0-.13.01-.05.01-.07.02-.11.03-.26.08-1.05.36-1.81.64-.38.14-.75.28-1.05.39-.15.06-.28.1-.38.14-.1.04-.17.07-.23.09-.29.14-.51.35-.73.57-.32.34-.61.73-.9,1.03-.15.15-.29.28-.43.38-.14.09-.26.15-.38.17l.02.11v-.11h-.02s.02.11.02.11v-.11.07l.02-.07h-.02s0,.07,0,.07l.02-.07h0s-.08-.07-.12-.14c-.04-.07-.06-.16-.06-.22,0-.05.01-.08.03-.11.04-.05.06-.06.1-.08.04-.02.12-.03.24-.03.1,0,.22,0,.36,0,.18,0,.4,0,.63-.11.13-.06.16-.12.19-.16.05-.07.06-.1.07-.13.02-.06.03-.1.05-.15.05-.18.11-.44.18-.66.04-.11.08-.21.11-.27l.03-.05h0s-.11-.11-.11-.11l.08.13.04-.03-.11-.11.08.13,1.6-.87h-1.85c-.45,0-1-.08-1.57-.08-.08,0-.16,0-.24,0-6.99.38-14.83,2.1-21.82,2.87-8.73.96-18.11,1.47-26.88,2.43-1.08.12-3.8.29-7.4.72-1.24.15-4.55.56-9.04,1.33-3.98.68-8.83,1.52-15.07,3.2-2.08.56-2.65.77-3.71,1.14-1.06.37-2.62.91-6.75,2.15-2.99.9-5.05,1.49-6.68,2.15-1.63.66-2.83,1.41-3.97,2.59-.6.62-1.12,1.28-1.53,1.77-.21.24-.39.44-.52.57-.07.06-.12.1-.15.11h-.01s0,0,0,0l.06.15v-.16h-.06s.06.16.06.16v-.16.25l.11-.23-.11-.02v.25l.11-.23-.09.2.19-.13s-.05-.05-.1-.07l-.09.2.19-.13-.07.05.08-.04h0s-.07.04-.07.04l.08-.04v-.02s-.04-.16-.04-.31c0-.37.09-.97.23-1.63.14-.66.33-1.4.53-2.09l-.46-.12.17.43c6.28-2.35,11.69-4.14,15.88-5.46,8.05-2.53,12.05-3.78,17.64-4.81,1.27-.24,3.11-.28,5.72-.49,2.62-.21,6.01-.58,10.44-1.48,3.77-.77,8.94-1.01,12.87-1.35,15.3-1.33,30.72-2.92,45.86-5.07,1.18-.17,3.23-.41,5.23-.71,1-.15,1.99-.31,2.85-.48.86-.17,1.59-.35,2.12-.55.19-.08.32-.2.42-.31.14-.16.23-.32.29-.41l.03-.05h0s-.13-.14-.13-.14l.09.16.05-.03-.13-.13.09.16-.14-.27v.3c.06,0,.11-.02.14-.03l-.14-.27v.3-.26l-.15.23s.07.04.15.04v-.26l-.15.23.04-.07-.05.06h0s.04-.06.04-.06l-.05.06s.14.15.29.45l.43-.21-.31-.35-1.83,1.53,8.97-.79-.04-.46v.46c2.22.03,4.43.12,6.42.38l.06-.46Z"/>
  <path d="M247.02,311.69c-.77,1.97-1.37,4.15-1.9,6.35l-.79,7.42-.59-.73c-1.98.64-.33.73-.19,1.28.51,1.9.06,7.68-.03,10.04-.54,15.04-1.88,30.31-3.51,45.45-.42,3.87-1.24,8.99-1.08,12.81.21,5.13-1.46,11.4-1.01,16.03.17,1.74,1.06,3.55,1.3,5.3.11-.02.21-.04.29-.05.1-.21.23-.41.38-.6-.01-3.1-.25-8.33.63-11.23.14-.46.91-.6.95-.9.15-1.23-.88-4.12-.89-5.69-.02-2.34.5-4.96.69-7.33.68-8.68,2.08-17.95,2.75-26.62.54-6.97.05-14.79,1.08-21.64.09-.57.37-1.19.49-1.77.16.35,1.61.6,1.63.66.16.46-.45,1.11.13,1.51.53.37,1.66-.06,1.64-.52-.05-1.04-1.94-1.85-2.24-2.65-.1-.26-.83-3.32-.85-3.5-.01-.19.69-.31.71-.54.1-.95-.37-3.11-.38-4.52-.03-6.13.96-12.76,2.57-18.85.08-.3,1.05-3.03.25-2.84-1.83.59-1.58,1.93-2.05,3.12Z"/>
  <path d="M247.02,311.69l-.67-.25c-.79,2.02-1.4,4.23-1.93,6.44v.04s-.8,7.46-.8,7.46l.71.07.56-.43-.9-1.11-.48.15c-.39.13-.67.23-.9.37-.12.07-.23.14-.34.27-.05.06-.11.14-.15.24-.04.1-.07.21-.07.33,0,.2.08.37.15.47.14.19.25.26.35.33.15.1.26.16.32.21l.03.02h0s.21-.18.21-.18l-.27.07c.02.08.06.12.06.12l.21-.19-.27.07c.07.26.13.68.17,1.19.04.51.05,1.11.05,1.75,0,2.39-.21,5.35-.26,6.9-.54,15.01-1.87,30.27-3.5,45.4-.38,3.52-1.11,8.1-1.11,11.87,0,.36,0,.71.02,1.05.01.3.02.61.02.92,0,2.1-.27,4.4-.55,6.69-.28,2.29-.56,4.58-.56,6.68,0,.61.02,1.2.08,1.78.09.96.38,1.89.65,2.78.28.89.55,1.75.66,2.55l.1.72.74-.13c.11-.02.21-.04.29-.05l.36-.07.16-.32c.08-.16.18-.32.31-.48l.14-.19v-.23c0-1.13-.04-2.53-.04-3.99,0-1.28.03-2.62.12-3.84.09-1.23.26-2.35.52-3.19l-.13-.04.11.07.02-.04-.13-.04.11.07h-.01s.01,0,.01,0h0s-.01,0-.01,0h.01s.03-.02.09-.06c.09-.06.22-.13.38-.24.08-.06.17-.12.27-.23.1-.11.21-.28.24-.51.01-.12.02-.24.02-.36,0-.41-.06-.85-.15-1.33-.13-.71-.32-1.49-.48-2.22-.16-.73-.28-1.41-.28-1.87v-.12c0-2.21.49-4.78.68-7.15.68-8.65,2.07-17.92,2.75-26.62.55-7.03.06-14.85,1.08-21.59.03-.22.11-.48.21-.78.09-.29.2-.61.28-.95l-.7-.14-.65.29c.1.21.23.31.34.4.2.14.38.22.57.29.28.11.58.18.8.24.11.03.2.05.25.07h.02s0,0,0,0l.14-.38-.19.36.05.02.14-.38-.19.36.3-.56-.41.49c.05.04.08.06.1.07l.3-.56-.41.49.44-.53-.66.22c.08.2.18.26.22.31l.44-.53-.66.22h0s.2-.07.2-.07l-.21.03v.04s.21-.07.21-.07l-.21.03h.08s-.08-.01-.08-.01h0s.08,0,.08,0h-.08s-.01.11-.05.25c-.04.15-.1.34-.1.6,0,.16.03.36.12.55.09.19.25.36.43.49.31.21.64.27.94.27.41,0,.78-.11,1.12-.29.17-.09.32-.21.46-.37.14-.16.26-.39.26-.68h-.53.53s0,0,0,0h-.53.53s0,0,0-.05l-.72.04.72-.03c-.01-.23-.07-.45-.16-.63-.15-.33-.38-.59-.61-.82-.35-.35-.73-.63-1.03-.89-.15-.13-.28-.24-.36-.34-.09-.09-.12-.17-.13-.17h0s0,0,0,0h0s0,0,0,0h0s-.03-.12-.06-.23c-.11-.4-.3-1.17-.46-1.84-.08-.34-.15-.65-.21-.89-.03-.12-.05-.22-.06-.29l-.02-.08h0s-.45.05-.45.05l.45-.03v-.04s-.45.06-.45.06l.45-.03h0s-.65.04-.65.04h.65v-.04s-.65.04-.65.04h.65-.63l.58.25c.03-.06.05-.15.05-.25h-.63l.58.25-.49-.21.35.4s.08-.07.14-.19l-.49-.21.35.4-.18-.21.16.22.02-.02-.18-.21.16.22h0s0,0,0,0h0s0,0,0,0h0s.06-.03.11-.05c.09-.04.21-.09.35-.18.07-.05.15-.11.24-.2.09-.1.19-.26.21-.47.01-.12.02-.24.02-.37,0-.6-.1-1.34-.2-2.11-.1-.76-.19-1.54-.19-2.12,0-.1,0-.19,0-.28,0-5.97.98-12.44,2.55-18.39,0,0,.01-.05.03-.1.07-.21.2-.63.32-1.08.06-.23.12-.47.16-.7.04-.23.07-.46.07-.69,0-.19-.01-.38-.12-.62-.06-.12-.15-.26-.31-.36-.15-.11-.36-.16-.52-.16-.08,0-.16.01-.24.03h-.03s-.03.02-.03.02c-.54.17-.97.42-1.3.73-.25.23-.43.49-.56.75-.2.39-.29.78-.38,1.12-.08.35-.15.66-.26.93l.67.25.67.25c.14-.36.22-.7.29-1,.1-.46.2-.82.37-1.07.08-.13.18-.24.32-.34.14-.11.34-.21.62-.3l-.22-.66.17.68-.1-.39v.4h.1s-.1-.4-.1-.4v.4-.51l-.3.42c.09.07.22.1.3.09v-.51l-.3.42.29-.4-.43.25s.07.1.14.14l.29-.4-.43.25.31-.18-.34.12.03.07.31-.18-.34.12.16-.05-.16.04v.02s.16-.05.16-.05l-.16.04h0s0,.08,0,.08c0,.11-.02.31-.07.53-.07.33-.17.71-.26,1.02-.05.16-.09.3-.13.41-.04.12-.06.19-.08.27-1.6,6.05-2.59,12.61-2.59,18.73,0,.1,0,.2,0,.29,0,.71.11,1.51.2,2.28.1.76.19,1.49.19,1.94,0,.09,0,.17-.01.23l.55.05-.44-.34s-.1.14-.12.28l.55.05-.44-.34.26.21-.2-.26s-.03.02-.06.06l.26.21-.2-.26h0s-.15.07-.3.15c-.08.04-.16.08-.28.18-.06.05-.12.11-.19.21-.06.1-.12.25-.12.42v.05s0,0,0,0c0,.04,0,.06,0,.09.01.08.03.16.05.28.09.41.27,1.16.43,1.85.08.34.17.67.23.93.03.13.06.24.09.33.01.05.02.08.03.12.01.04.02.07.04.11.15.38.4.63.65.87.38.35.81.66,1.11.95.15.15.27.28.34.39.07.11.09.18.09.23h0s0,0,0,0l.63-.03h-.63s0,.03,0,.03l.63-.03h-.63s0,0,0,0v.02s.31,0,.31,0l-.25-.2s-.06.08-.06.2h.31l-.25-.2.03.02-.02-.02h0s.03.02.03.02l-.02-.02s-.08.06-.17.09c-.1.04-.21.06-.3.06h-.09s-.01-.01-.01-.01l-.02.05.03-.04h0s-.02.04-.02.04l.03-.04h0s-.1.11-.1.11l.14-.05-.04-.05-.1.11.14-.05-.15.06.16-.03v-.03s-.16.06-.16.06l.16-.03h-.07s.07,0,.07,0h0s-.07,0-.07,0h.07s.01-.13.05-.27c.04-.15.1-.33.1-.59,0-.12-.02-.26-.07-.41h0c-.04-.12-.1-.19-.15-.24-.09-.09-.14-.12-.18-.14-.08-.04-.11-.05-.15-.07-.07-.02-.12-.04-.19-.06-.22-.06-.53-.14-.78-.22-.12-.04-.23-.09-.28-.12h-.02s0,0,0,0h0s0,0,0,0h0s0,0,0,0l-.25.3.35-.15c-.05-.11-.1-.13-.1-.14l-.25.3.35-.15-.9-1.95-.45,2.1c-.05.23-.14.51-.24.82-.1.31-.2.63-.26.99-1.05,6.95-.55,14.79-1.09,21.69-.67,8.64-2.06,17.91-2.75,26.62-.18,2.27-.69,4.86-.69,7.26,0,.04,0,.09,0,.13,0,.43.07.9.16,1.39.13.74.33,1.52.48,2.24.16.72.27,1.38.27,1.78,0,.08,0,.14-.01.19l.48.06-.4-.28s-.07.12-.09.22l.48.06-.4-.28.25.18-.22-.21-.03.03.25.18-.22-.21.07.07-.06-.07h0s.07.07.07.07l-.06-.07s-.05.04-.13.08c-.11.07-.27.16-.44.3-.17.14-.38.35-.47.67-.3,1-.47,2.2-.57,3.48-.1,1.28-.12,2.64-.13,3.95,0,1.48.03,2.89.04,4h.72s-.58-.42-.58-.42c-.17.22-.33.46-.45.72l.65.3-.13-.68c-.08.01-.17.03-.29.05l.13.68.71-.09c-.13-.95-.43-1.88-.7-2.76-.27-.88-.52-1.73-.6-2.51-.05-.52-.07-1.07-.07-1.65,0-1.98.27-4.22.55-6.52.28-2.29.56-4.64.56-6.85,0-.33,0-.65-.02-.98-.01-.32-.02-.65-.02-.99,0-3.6.72-8.16,1.1-11.72,1.63-15.16,2.96-30.44,3.51-45.5.05-1.51.27-4.5.27-6.95,0-.66-.02-1.29-.05-1.84-.04-.56-.1-1.04-.21-1.45-.04-.14-.1-.26-.17-.35-.12-.16-.25-.26-.35-.34-.16-.12-.3-.19-.36-.23l-.02-.02-.21.24.27-.17c-.04-.05-.06-.07-.06-.07l-.21.24.27-.17-.47.3h.56c0-.14-.05-.25-.09-.3l-.47.3h.56-.58l.53.22c.03-.06.05-.14.05-.22h-.58l.53.22-.39-.16.28.32s.06-.05.11-.16l-.39-.16.28.32-.07-.08.07.08h0s-.07-.08-.07-.08l.07.08.04-.02c.08-.05.29-.13.6-.23l-.23-.66-.56.43,1.69,2.07.97-9.12-.71-.07.7.16c.53-2.19,1.12-4.34,1.87-6.26l-.67-.25Z"/>
  <path d="M490.16,272.23c.8-3.15,1.35-6.65,1.8-10.18l.18-11.92.88,1.19c2.58-.97.36-1.16.1-2.05-.91-3.08-.99-12.38-1.15-16.17-1.04-24.2-1.05-48.76-.65-73.11.1-6.23.61-14.44-.05-20.61-.89-8.27.62-18.33-.53-25.79-.43-2.8-1.84-5.75-2.37-8.57-.15.03-.28.05-.38.08-.11.33-.26.65-.44.96.38,4.99,1.32,13.43.48,18.06-.13.74-1.15.95-1.16,1.42-.06,1.98,1.67,6.66,1.87,9.2.3,3.77-.09,7.98-.06,11.79.1,13.96-.67,28.85-.56,42.8.09,11.21,1.68,23.82,1.09,34.83-.05.92-.35,1.91-.45,2.83-.26-.57-2.23-1.01-2.27-1.12-.27-.74.47-1.77-.35-2.44-.75-.61-2.23.04-2.14.78.18,1.68,2.82,3.04,3.32,4.34.16.43,1.51,5.37,1.55,5.67.04.3-.88.48-.89.85-.02,1.52.86,5.01,1.04,7.3.76,9.87.21,20.52-1.23,30.28-.07.48-1.05,4.84,0,4.57,2.39-.89,1.9-3.06,2.39-4.97Z"/>
  <path d="M146.67,116.62c.25.14.54.25.84.35l1.02.14-.06.13c.23.48.12.07.19.04.22-.12,1.07-.04,1.41-.03,2.31.08,5.1.39,8.44.83.95.13,2.44.4,3.16.34.98-.08,3.6.54,4.36.36.28-.07,0-.41.21-.5-.1-.04-.17-.07-.24-.1-.13-.03-.27-.08-.43-.13-.69.01-1.68.1-2.86-.18-.18-.04-.66-.28-.73-.29-.33-.04-.34.28-.65.29-.46.01-1.24-.14-1.79-.19-1.89-.17-3.95-.5-5.51-.64-1.18-.1-2.24.04-3.37-.16-.09-.02-.21-.07-.3-.1l-.1-.33s.2.08.18-.03c-.01-.1-.19-.3-.25-.3-.13.01-.03.37-.1.43l-.38.18-.14-.14c-.13-.02-.37.09-.55.09-.78.03-1.65-.14-2.4-.4-.04-.01-.35-.16-.32-.03.08.32.24.27.38.35Z"/>
  <path d="M146.67,116.62l-.24.4c.29.16.61.28.92.39h.04s1.06.17,1.06.17l.07-.46-.44-.18-.06.13-.08.19.09.19c.05.1.08.16.12.23.02.03.04.06.08.11.02.02.05.05.1.08.05.03.14.07.27.08.11,0,.24-.05.31-.11.07-.06.1-.11.13-.15.04-.08.04-.12.05-.15,0-.05,0-.08.01-.1v-.03s0,0,0,0l-.24-.02.23.06v-.05s-.23-.02-.23-.02l.23.06-.39-.11.35.2s.04-.07.04-.1l-.39-.11.35.2-.39-.22.22.38c.09-.05.14-.11.17-.16l-.39-.22.22.38-.1-.18.07.19h.03s-.1-.19-.1-.19l.07.19-.03-.07.02.07h0s-.03-.07-.03-.07l.02.07h.02c.05-.01.16-.02.28-.02.29,0,.66.03.89.04,2.28.08,5.06.38,8.39.82.42.06.96.14,1.49.22.54.07,1.06.13,1.5.14.1,0,.19,0,.28-.01.04,0,.1,0,.16,0,.41,0,1.11.09,1.82.2.71.1,1.42.2,1.96.21.17,0,.33,0,.49-.05.07-.02.15-.04.22-.09.11-.07.2-.18.24-.29.04-.1.04-.19.04-.25,0-.06,0-.1,0-.13v-.03s0,0,0,0h-.27l.24.11c.03-.07.03-.11.03-.11h-.27l.24.11-.3-.14.13.3c.05-.02.14-.09.17-.16l-.3-.14.13.3,1.01-.42-1.01-.43c-.1-.04-.17-.07-.24-.1h-.03s-.03-.02-.03-.02c-.12-.03-.25-.07-.41-.12l-.08-.03h-.08c-.3,0-.63.03-1,.03-.52,0-1.1-.04-1.74-.19,0,0-.05-.02-.11-.04-.09-.04-.21-.09-.32-.14-.05-.02-.1-.04-.15-.06l-.08-.03s-.05-.02-.13-.03h-.12c-.15,0-.31.04-.41.1-.16.1-.22.18-.24.2h0s.02.03.02.03l-.02-.03h0s.02.03.02.03l-.02-.03.06.09v-.11s-.06.02-.06.02l.06.09v-.11s-.04,0-.04,0c-.19,0-.48-.03-.78-.07-.31-.04-.62-.09-.91-.11-1.87-.17-3.92-.5-5.52-.64-.62-.05-1.2-.04-1.74-.04-.55,0-1.07-.02-1.58-.11v.07s0-.07,0-.07h0s-.01.07-.01.07l.02-.07s-.04-.01-.08-.03c-.05-.02-.11-.04-.19-.06l-.12.45.46-.13-.1-.33-.46.13.3.36-.28-.33v.43c.05,0,.17,0,.28-.1l-.28-.33v.43-.34l-.08.33s.03,0,.08,0v-.34l-.08.33h0s.06.02.06.02c.03,0,.07.02.15.02.04,0,.09,0,.16-.02.09-.02.22-.11.28-.21.06-.11.08-.2.08-.27v-.07s0,0,0,0c-.02-.13-.06-.2-.09-.26-.05-.09-.11-.17-.18-.24-.04-.04-.07-.07-.12-.11-.03-.02-.06-.04-.1-.06-.05-.02-.11-.04-.22-.05h-.05c-.13.01-.28.1-.35.18-.07.08-.09.15-.11.2-.03.1-.03.16-.03.21,0,.08,0,.14,0,.16h0s.26.03.26.03l-.24-.08v.05s.24.03.24.03l-.24-.08.39.13-.27-.3c-.08.07-.11.14-.12.17l.39.13-.27-.3.32.35-.22-.41-.38.18.22.41.35-.32-.14-.14-.12-.12-.17-.02h-.09c-.17,0-.27.03-.37.05-.09.02-.17.04-.18.04-.05,0-.11,0-.16,0-.66,0-1.41-.15-2.06-.38l-.12.31.13-.3h-.02s-.11.3-.11.3l.13-.3s-.06-.03-.13-.05c-.04-.01-.08-.03-.12-.04-.05-.01-.1-.03-.19-.03-.07,0-.17,0-.31.09-.07.04-.13.11-.17.19-.04.08-.05.16-.05.22v.1s.01.01.01.01h0c.03.13.07.24.14.34.1.16.27.26.37.29.05.02.08.03.1.03h.01s.03-.07.03-.07l-.04.07h0s.03-.07.03-.07l-.04.07.24-.4.24-.4c-.09-.05-.16-.07-.2-.08h-.03s0-.01,0-.01l-.05.13.08-.11h-.03s-.05.11-.05.11l.08-.11-.11.15.17-.1-.06-.06-.11.15.17-.1-.06.03.06-.03h0s-.06.03-.06.03l.06-.03v-.04s-.48.11-.48.11l.47-.08-.39.07h.4v-.07s-.4.07-.4.07h.4-.43l.39.18c.03-.07.04-.14.04-.18h-.43l.39.18-.4-.19.17.4c.07-.03.18-.11.23-.21l-.4-.19.17.4-.15-.36v.39s.08,0,.15-.03l-.15-.36v.39-.26l-.05.26h.05s0-.26,0-.26l-.05.26v-.07s0,.06,0,.06h0s.01-.06.01-.06l-.02.06.06.02.04.02.06.02c.74.26,1.58.43,2.38.43.07,0,.14,0,.2,0,.16,0,.28-.04.37-.06.05-.01.09-.02.11-.03h.03s0,0,0,0v-.11s0,.11,0,.11h0s0-.11,0-.11v.11-.23l-.03.22h.03s0-.22,0-.22l-.03.22.06-.46-.35.32.14.14.24.25.75-.37.05-.04c.11-.1.14-.2.16-.26.03-.11.03-.17.03-.23v-.1s0-.04,0-.04h0s-.29-.04-.29-.04l.25.14c.04-.07.04-.1.04-.1l-.29-.04.25.14-.35-.2.24.32c.06-.04.1-.09.12-.12l-.35-.2.24.32-.25-.33.04.41c.07,0,.14-.03.2-.07l-.25-.33.04.41-.05-.46v.46-.41l-.2.36s.08.05.2.05v-.41l-.2.36.13-.23-.17.2.04.03.13-.23-.17.2.06-.07-.07.07h0s.06-.07.06-.07l-.07.07h.01s.03.05.03.05h0s.23-.11.23-.11l-.26.03c0,.07.02.08.02.08l.23-.11-.26.03h0s.37-.04.37-.04h-.37v.04s.37-.04.37-.04h-.37.42l-.4-.13c-.02.06-.02.1-.02.13h.42l-.4-.13.43.14-.22-.38c-.1.05-.18.16-.2.24l.43.14-.22-.38.22.37v-.42s-.12,0-.22.06l.22.37v-.42.34l.08-.33s-.03,0-.08,0v.34l.08-.33v.02s0-.02,0-.02h0s0,.02,0,.02v-.02s-.05-.02-.05-.02c-.03,0-.07-.02-.15-.02-.07,0-.2.01-.33.11l-.24.19.26.88.26.07s.05.02.11.04c.06.02.13.05.23.07.61.11,1.19.13,1.76.13.56,0,1.11,0,1.67.04,1.53.13,3.6.46,5.51.64.24.02.55.07.87.11.32.04.63.08.91.08h.07c.15,0,.3-.05.41-.11.16-.1.23-.19.25-.2h0s-.04-.05-.04-.05l.03.05h0s-.04-.05-.04-.05l.03.05-.08-.13v.15l.08-.02-.08-.13v.15-.04.04s0,0,0,0v-.04.04s.04-.34.04-.34l-.1.33h.06s.04-.33.04-.33l-.1.33.04-.12-.04.11h0s.04-.11.04-.11l-.04.11s.05.02.1.04c.08.04.19.08.3.13.11.05.21.09.33.12.74.18,1.41.22,1.97.22.4,0,.75-.02,1.02-.02v-.46s-.16.44-.16.44c.16.05.31.1.45.14l.13-.45-.19.42c.07.03.15.06.24.1l.19-.42-.19-.43c-.13.05-.26.17-.32.29-.06.12-.06.22-.07.29,0,.06,0,.1,0,.13v.04h.28l-.23-.14c-.05.08-.05.14-.05.14h.28l-.23-.14.29.18-.19-.28-.1.1.29.18-.19-.28.14.21-.06-.25-.08.04.14.21-.06-.25s-.13.02-.26.02c-.41,0-1.12-.09-1.83-.2-.71-.1-1.42-.2-1.96-.21-.08,0-.17,0-.25,0-.05,0-.12,0-.19,0-.34,0-.85-.05-1.36-.13-.52-.07-1.06-.16-1.5-.22-3.35-.44-6.15-.75-8.48-.83-.18,0-.57-.04-.92-.04-.12,0-.24,0-.36.02-.12.02-.23.03-.38.11-.13.07-.18.17-.21.23-.05.11-.05.16-.05.2,0,.06,0,.09,0,.09l.34.03-.32-.1c-.02.06-.02.07-.02.08l.34.03-.32-.1.43.14-.34-.29c-.06.07-.08.12-.09.15l.43.14-.34-.29.35.3-.21-.41c-.06.03-.11.07-.14.11l.35.3-.21-.41.21.41v-.46c-.07,0-.15.02-.21.05l.21.41v-.46.45l.25-.38s-.13-.07-.25-.07v.45l.25-.38-.21.32.32-.23s-.02-.04-.1-.09l-.21.32.32-.23-.15.11.16-.1h0s-.15.1-.15.1l.16-.1h0s-.03-.06-.07-.14l-.43.2.44.18.06-.13.24-.55-1.63-.23-.07.46.16-.44c-.28-.1-.55-.2-.76-.32l-.24.4Z"/>
  <path d="M201.71,246.23c.48-.81.86-1.74,1.2-2.71l.51-3.33.45.21c1.59-.7.25-.4.13-.62-.4-.75-.1-3.52-.05-4.66.34-7.61,1.42-16.77,2.98-27.72.45-3.13,1.4-7.99,1.21-10.38-.25-3.24,1.9-11.81,1.32-14.35-.22-.95-1.36-.04-1.65-.78-.14.31-.25.56-.35.78-.12.41-.27.88-.44,1.38.02,2.27.3,5.56-.67,9.42-.15.59-.94,2.12-.98,2.38-.14,1.08.92,1.16.94,2.19.03,1.52-.5,4.08-.68,5.87-.62,6.22-1.78,12.96-2.27,18.11-.36,3.87.08,7.41-.64,11.11-.06.3-.25.68-.33.99-.12-.1-1.09.29-1.1.27-.11-.14.28-.63-.1-.61-.34.02-1.02.58-1,.76.04.42,1.21.16,1.42.41.07.08.59,1.19.6,1.27,0,.08-.46.33-.47.44-.06.43.28,1.24.29,1.84.08,2.59-.5,5.43-1.4,7.87-.04.12-.55,1.13-.11,1.07,1.08-.21.91-.74,1.19-1.21Z"/>
  <path d="M488.56,418.26c.81-2.79,1.39-5.9,1.88-9.03l.38-10.54.81,1.03c2.45-.9.36-1.03.13-1.82-.8-2.71-.71-10.93-.8-14.28-.56-21.38-.14-43.1.67-64.63.21-5.51.83-12.78.31-18.22-.7-7.3.9-16.21-.05-22.79-.36-2.47-1.64-5.05-2.09-7.54-.14.03-.26.05-.36.07-.11.29-.26.58-.43.86.27,4.41,1.01,11.85.14,15.96-.14.66-1.1.86-1.12,1.27-.09,1.76,1.45,5.86,1.6,8.1.22,3.33-.22,7.06-.26,10.42-.15,12.34-1.14,25.52-1.27,37.85-.11,9.91,1.16,21.04.42,30.78-.06.81-.36,1.7-.47,2.51-.23-.5-2.09-.86-2.12-.95-.24-.65.47-1.57-.29-2.15-.7-.53-2.1.07-2.03.73.14,1.49,2.61,2.64,3.05,3.78.15.38,1.33,4.72,1.36,4.98.03.27-.84.44-.85.76-.05,1.34.73,4.42.85,6.44.55,8.71-.16,18.14-1.69,26.8-.08.43-1.07,4.3-.08,4.04,2.27-.83,1.84-2.74,2.34-4.43Z"/>
  <path d="M459.2,278.62l3.51-1.39c1.17-.07,3.03,1.66.74,1.7-1.3.02-2.96-.1-4.25-.31Z"/>
  <path d="M264.37,142.47c.4.31-2.93,4.21-3.21,4.75-1.08,2.06-1.9,4.86-3.07,7.14-1.1,2.15-2.91,3.85-3.23,6.31-.09.69.11.52.72.51-.48-2.12,2.96-2.31,4.21-3.78.89.92,2.77,2.59.55,2.59l-.91-1.23c-1.11,1.28-2.84,1.76-4.08,2.89-.17.16-3.03,4.1-3.43,2.12-.32-1.58,2.73-2.57,1.1-4.32.42-.04.84-.18,1.11-.5.5-.6,3.69-6.51,3.66-6.95l-.73-.18c-.05.3-.13.67-.36.87-2.37,2.09-4.47,4.52-6.96,6.57l.73.86c-2.14-.44-1.98.42-2.97,1.18-3.1,2.38-6.16,5.39-10.21,6.1-.39-1.45,1.47-1.35,2.52-1.94,2.44-1.36,4.57-2.95,6.72-4.65,3.3-2.61,6.67-5.76,9.59-9.01,2.3-2.55,4.15-5.23,6.45-7.86.44-.5.31-1.66,1.81-1.47Z"/>
  <path d="M217.25,128.82c.07-.41,4.48-1.72,5.01-1.98,2.04-1,4.55-2.65,6.8-3.77,2.12-1.06,4.19-1.47,6.22-3.09.57-.46.35-.42.09-.69-1.43,1.74-3.02.33-4.69.83.33-1.06.83-3.11,1.77-2.11l-.56,1.3c1.45-.42,2.55,0,3.94-.25.19-.04,4.44-1.59,3.08.01-1.09,1.28-3.13.63-3.79,2.62-.2-.16-.5-.25-.85-.13-.68.21-6.57,3.04-6.89,3.36l.17.45c.25-.19.57-.42.82-.46,2.6-.44,5.37-1.25,7.99-1.61l.36-.95c.56,1.28,1.15.59,2.16.48,3.13-.32,6.74-1.11,8.99.2-.95,1.22-1.66.32-2.56.27-2.08-.11-4.19.07-6.41.33-3.4.4-7.24,1.16-10.98,2.19-2.93.81-5.78,1.91-8.77,2.77-.57.17-1.41,1.05-1.89.24Z"/>
  <rect x="153.82" y="319.72" width="3.16" height="2.85"/>
  <path d="M141.31,125.14c.14.91-.51,1.79-1.46,1.73-.14-.91.51-1.79,1.46-1.73Z"/>
  <polygon points="150.65 124.46 151.2 124.97 150.65 125.83 150.1 125.31 150.65 124.46"/>
  <path d="M91.5,173.99h-1.46c0-1.38,1.46-1.36,1.46,0Z"/>
</svg>