<?xml version="1.0" encoding="UTF-8"?>
<svg id="line" xmlns="http://www.w3.org/2000/svg" viewBox="0 0 670 670">
  <defs>
    <style>
      .cls-1 {
        fill: #202020;
      }

      .cls-2 {
        fill: #ededed;
      }
    </style>
  </defs>
  <path class="cls-2" d="M221.61,262.89c8.14,30.49,16.75,54.18,23.31,70.58,3.58,8.95,5.97,14.3,10.79,26.45,9.53,24.02,16.29,43.94,20.59,57.34,8.92-4.4,22.5-10.28,39.81-14.48,18.19-4.41,29.67-4.35,52.72-6.8,13.22-1.41,32.02-3.84,54.79-8.26-6.67-24.11-14.24-42.89-19.97-55.66-9.33-20.8-15.62-29.78-25.19-51.82-8.66-19.93-14.08-36.88-17.3-48.09-21.08,8.79-38.7,12.18-50.89,13.64-19.41,2.33-29.43.33-49.11,4.06-17.36,3.29-30.92,8.89-39.56,13.04Z"/>
  <path class="cls-1" d="M221.03,261.69c-.22.3.11.57.91.11l.31-.88-1.21.77Z"/>
  <path class="cls-1" d="M227.13,260.25c.85-.71,1.78-1.72.9-2.01-.73,1.01-1.08.86-1.82,2.02-.8.44-1.54.45-1.5.17-.22.29-1.35.46-1.63,1.04,1.29-.04,2.66-.64,3.93-1.65.37,0,.14.29.11.43Z"/>
  <path class="cls-1" d="M314.29,246.19h-.58c.16.02.36.02.58,0Z"/>
  <path class="cls-1" d="M361.68,238.41c-.14-.4-.25-.55-.32-.55.16.36.29.66.32.55Z"/>
  <path class="cls-1" d="M363.84,247.64c-.05-.2-.09-.36-.13-.54,0,.22.04.43.13.54Z"/>
  <path class="cls-1" d="M314.29,246.19h1.49c.07-.24-.77-.05-1.49,0Z"/>
  <path class="cls-1" d="M238.03,254.28c-.28.13-.51.27-.7.43.23-.12.46-.22.69-.32v-.11Z"/>
  <path class="cls-1" d="M290.02,248.62l-.45.02c-.13.08-.25.17-.36.28l.81-.3Z"/>
  <path class="cls-1" d="M271.55,249.84c.42-.02.5-.59.63-.85-.21.26-.51.39-.86.48,0,.11.07.23.23.37Z"/>
  <path class="cls-1" d="M242.72,255.12l-.47.23c.12-.06.33-.16.47-.23Z"/>
  <path class="cls-1" d="M303.41,248.07l.19.19c0-.07-.08-.13-.19-.19Z"/>
  <path class="cls-1" d="M224.99,284.43l.1-.03c-.09-.09-.13-.11-.1.03Z"/>
  <path class="cls-1" d="M221.75,262.85l.11.28c.11,0,.22,0,.32-.02l-.43-.26Z"/>
  <path class="cls-1" d="M368.97,264.19l-.02-.08c-.22-.4-.12-.17.02.08Z"/>
  <path class="cls-1" d="M400.81,389.38c1.84.21-2.77,1.09-.03,1.22-.28-.18,2.27-1.25.03-1.22Z"/>
  <path class="cls-1" d="M238.51,254.19c.24-.09.48-.18.73-.25-.34.1-.56.17-.73.25Z"/>
  <path class="cls-1" d="M400.78,390.6h0s.28.01.28.01c-.12,0-.18,0-.28-.01Z"/>
  <path class="cls-1" d="M385.36,300.57c.05-.12.05-.29.04-.47-.05.04-.07.15-.04.47Z"/>
  <path class="cls-1" d="M373.77,273.22l.21.71c-.07-.29-.14-.51-.21-.71Z"/>
  <path class="cls-1" d="M393.09,313.86c.14.37.13.53.45.98v-.18c-.17-.14-.32-.35-.45-.8Z"/>
  <path class="cls-1" d="M400.1,328.14c0-.09-.01-.21-.02-.31-.08-.14-.16-.3-.24-.44l.26.76Z"/>
  <path class="cls-1" d="M241.15,330.38c.02-.38.1-.65.2-.87-.28.38-1.27-1.77-.2.87Z"/>
  <path class="cls-1" d="M238.14,254.57c.04-.16.15-.28.37-.38-.17.07-.34.14-.5.2-.02.09,0,.17.12.18Z"/>
  <path class="cls-1" d="M397.33,312.42l1.08,2.31c-.27-.66-.67-1.5-1.08-2.31Z"/>
  <path class="cls-1" d="M296.18,411.21l-.52.26c.21-.07.4-.15.52-.26Z"/>
  <path class="cls-1" d="M401.85,321.48c.02.5.13.98.27,1.46l.26.2-.53-1.67Z"/>
  <path class="cls-1" d="M241.35,329.5h0s0,0,0,0Z"/>
  <path class="cls-1" d="M234.23,314.25c.81,2.29,1.07.83,1.64,1.17,1.18,2.65-.05,1.44-.07,2.5.81,1.63,1.92,2.7,2.37,3.97-.08.14-.03.4-.28.16,1.22,1.58,2.03,5.3,3.53,7.11,0,.18-.03.28-.07.34.21-.47.54-.66.82-.69.41,1.01,1.16,1.71.87,2.26-.23-.62-.43-.6-.69-.84l.61.98c-.27,1.21-.79-1.36-1.27-1.17,1.02,1.99,2.51,4.18,2.97,5.81-.5.58-1.71-3.59-1.42-1.27l-.73-2.54c-.25,2.27-.52-1.52-.9.63,1.09,3.3,1.77,3.46,2.88,6.73.64.58.42-.44,1.07.13,2.48,4.28-.13,4.2,2.07,7.2.77.7,1.71.71,2.25,3.25l-1.04-.53c1.19,3.12,1.75,1.36,2.59,4.79-.52-.46-1.23-2.34-1.12-1.84.29,2.32,1.01,1.32,1.67,2.94l-.5.59c1.46,3.25,3.37,6.71,4.91,10.33-.27-.13-.71-.68-.57.25,2.12,4.5,3.72,9.92,5,14.54l1.18,1.51c.14.4.02.83-.24.44.43,1.83.38-.04.91.72.4.98.17,1.43-.23.86,1.6,2.92,4.2,8.46,4.74,11.94l-.39-.58c.67,2.63,2.14,2.48,2.44,5.03l-.25-.42c.83,2.81,1.89,5.71,2.8,8.48.46,1.38.88,2.73,1.22,4.02.23.96.85,3.3,1.25,5.26.27.13.55.76.86,1.63.83-.36,1.86-.87,2.86-1.31.96-.43,1.93-.88,2.64-1.29.51-.31.75-.58.72-.89,3.27-.84,2.48-.28,6.92-1.75,1.16-.44,1.43-1.39,2.82-2.08l.26.56,1.72-1.36,1.3.29,1.3-.65c-.55.17-1.24.17-1.22-.03,2.02-1.07,5.33-1.47,5.49-1.18,1.62-.74,3.26-1.46,4.91-2.16-.04.27-.87.62-1.49.99,2.52-1.47.69.46,3-.86-.38-.03.07-.41.09-.54,1.35-.03,4.19-.84,6.27-1.56l-.3.52c3.84-.92,8.03-2.23,12.38-3.06-1.6.11-1.39-.68-.12-1l.63.54c.75-.56-1.38.02.22-.8,1.65-.23,1.23.53.33.91l1.94-.57c.15.17-.3.35-.38.62.75-.55,3.52.08,4.59-.79l.14.17c4.38-.62,6.37-1.04,9.98-1.46.01-.56,1.44-.59,2.48-1.14,2.69-.08,5.7.1,8.93-.23,2.25-.48.62-.53,1.61-.96.21.5,3.44.16,1.8.67,3.88-.44,4.96-.55,9.83-1.47-.55-.15-1.16-.18-.87-.39.88-.18,2.05,0,1.95.26l-.23.08c5.43-1.32,12.9.05,17.16-1.6l-.24.08,4.47-1.16c2.1-.2-1.2.55.39.66,4.77-1.53,7.75-1,11.69-2.19,3.36,1.02,11.01-1.92,15.36-1.75l-.31-.31c1.02-.54,1.34-.04,2.16-.11-.16-.25-1.23-.1-.59-.41,1.53-.37,5.51-1.17,8.76-1.76-.37-1.36-.73-2.72-1.1-4.09-.32-1.23-.64-2.46-.96-3.7-.45-1.81-.9-3.63-1.36-5.46-.9-3.65-1.86-7.29-2.92-10.84-1.05-3.35-2.36-1.29-3.03-5.73l1.04.96c-3.08-6.4-4.96-13.59-8.24-19.73.3.32.49.26.74.88-.11-1.54-2.07-5-2.44-4.86-.38-1.01.23-.37.15-1.06-.32-1.46-2.03-3.13-1.92-4.03.02-.15.31.31.45.54-.59-.78-1.78-4.09-1.9-3.02-.83-2.48-2.31-4.41-2.9-6.42-1.14-.95-1.67-4.13-2.65-4.13.9-.24-1.37-4.4-2.5-5.66.49.36-.4-1.4.23-1-.86-1.66-1.8-3.1-2.06-2.6-.62-3.55-3.95-5.72-3.59-8.07-2.95-4.68-5.49-9.1-7.77-13.5.88-.22,2.41,4.91,3.19,4.3-2.37-4.05-4.21-6.19-5.9-10.54-.37-1.15.63.47.94.78-2.26-4.13-3.53-8.34-5.56-12.02.08-.02.34.36.56.73-.34-.75-.6-1.82-.94-1.58l.4.7c-.06,1.45-2.38-2.57-2.72-2.6,1.6.87-1.24-3.95.96-2.43-.27-.48-.69-1.04-.9-.83-.21-.78-.16-1.07.43-.43-1.26-2.67-1.3-1.54-2.23-4.04.19-.06.45.42.77.59-.84-1.13-1.68-2.27-2.29-4.45.16.09.22-.21.44.42-1.37-3.62-3.19-5.89-4.18-10.05,1.21.92-.18-1.47.46-1.91l-.91-2.11-.07.99c-.6-1.91-1.65-3.44-1.92-5.16l.74,1.33-1.24-3.55.35,2.12c-.96-1.83-.84.48-1.42-2.14.11.24-.02-.2-.19-.95-.19-.79-.4-1.85-.42-2.7h0c-.13-.23-.26-.46-.39-.7-.06-.12-.12-.24-.18-.36,0-.11-.12,0-.19.03l-.24.13c-.64.33-1.27.61-2.05.82-.42-.09.45-1.07.17-1.13-.34.3-.85.61-1.46.92-.31.15-.63.31-.98.46-.26.11-.54.23-.81.35-1.11.48-2.24.97-2.71,1.5.33-.29.21-.67.06-.7l-.59.76c-.93.16-1.08.13-1.05-.21-2.65.86,1.16.59-2.1,1.33.23-.13.09-.16.57-.41-3.2.91-5.98,2.38-8.99,3.02-1.08-.45,2.5-.95,1.32-1.26-4.14,1.43-8.49,3.41-12.69,4.21l.79-.1c-.33,1.18-3.21.22-5.2,1.15.5-.18.55-.72.44-.57-2.88.42-5.78,1.44-10.1,2.44l.5-.35c-1.73.04-4.5.51-6.35.61-.51.33-1.58.4-.89.73-5.83-.9-10.83,1.79-16.01.68.61-.02,1.44-.29.96-.27l-4.33.4c.36.45.58.26,1.5.59-.54.29-1.76.54-2.84.58,1.95-.37-.04-.74-.9-.97.15.14-.14.3-.06.44-2.3-.75-.35.94-3.47.5l.15-.25c-1.16.16-2.21.55-3.47.54-.55-.51,1.22-.31,1.28-.75-1.77.11-3.42,1.2-5.04.79.74-.22,1.81-.27,2.55-.47-1.78-.51-1.97-.35-3.27-.34h.13c-1.01,0-2.01-.03-3.02,0l.78.09c-2.06,1.61-4.47.72-7.29,2.08,2.73-1.29.4-.57.53-1.2-.78-.05-1.96-.06-1.66-.28-1.32.68-2.4.02-4.25,1.06-.13-.19-1.49.27-1.27-.27-1.78.51.49.25.39.52-2.64,1.18-6.71.56-10.44,2.49-3.3,1.27-3.73,2.1-6.73,3.35-.57.02-.41-.22-.11-.46.3-.24.75-.48.75-.48-1.77.25-3.03.7-4.54,1.46.26-.27-.11-.29-.66-.34-1.25.48-.61.96-2.37,1.28.21-.31.46-.77,1-1.19-1.43.7-2.77,1.58-4.23,2.33-.53-.16.74-.83,1.2-1.24-1.68.78-4.33,2.03-4.65,2.74l1.16-.27c-.61.28-.49-.3-.07-.58,1.31-.97,2.18-.66,2.33-.51l-1.03.54c1.51.61,4.28-1.84,6.53-2.54l-.64,1.1,2.04-1.43c.55.04,1.03.37-.02.86,1.71-.15,1.31-.74,2.81-.75.17.02.12.08-.01.16.49-.25.98-.49,1.48-.72-.25.26.43.48-.56.66,2.92-.4,4.34-1.93,5.56-1.62l-.22.11c3.84-1.3.21-.69,2.99-2.16l2.35.98.25-.69c.41-.08,1.23-.21,1.13.06,1.43-.74-.32-.2.48-.78,2.08.09,5.4-1.39,6.02-.5.63-.58-1.96-.02.1-.71.79.93,2.41-.63,4.32-.41-.48.62-2.23.6-.35.8.96-1.09,3.56-.31,5.06-.67-.01-.73,3.3-.68,5.87-1.11-.15.24,4.9.07,7.33.27l-.07.12c.44-.76,2.94-.7,4.76-.91-.06.44-.38.62-1.36.85l1.71-.06c.4-.25.93-.39,2.04-.51l-.41.56c2.29-.11,4.58-.8,7.54-.61.13-.52-2.41-1.29.67-1.81.13.27.28.74-.53.9.26-.05.93-.28,1.48-.2l-1.21.54c1.35.13.68-.42,1.75-.46,0,.4.81.22.68.55-.27.06-.95-.09-1.35.09,1.21-.01,2.69.11,3.2.37-.12-.22-.04-.53.84-.66,2.28-.24.82.4,2.18.48.53-.32,2.02-.21,1.99-.79.67-.07.82.19,1.1.32,1.16-.37,5.5-.78,4.09-1.22h-.31s.19-.05.19-.05h0s0,0,0,0c3.76-1.11,8.03-.91,11.77-1.94l.03.19c2.21-.68,4.98-1.23,6.48-2.03.66-.15,1.64-.04,1.42.26,1.67-.59,1.81-.82,4.34-1.2-1.62.8.67.13-1.68.73,2.25-.45,2.85-.26,5.06-1.49-.66.72,1.84.13,2.84-.35-.55.05-1.09.09-1.64.13,1.15-.41,2.18-.71,3.23-1l-.36.81c4.75-.67,7.57-4,11.37-4.02.99-.88-2.5.61-1.65-.3,1.02-.34,2.14-.49,3.09-.59.66,0,.87.18,1.02.12.28-.01.47-.11.68-.27.1-.08.21-.18.33-.28l.19-.05c.25-.05.6.18.73,1.06.08-.13.25-.35.47-.34.12.02.24.05.41.31.17.24.36.61.58,1.14.54,2.08-.18,2.82-.76,1.57-.17-.49-.17-.75-.09-.75-.29-.64-.64-1.49-.65-.59l.31.2c.07,1.09.97,3.92.4,3.37.7,1.49.58.55.34-.64.49,2.74,1.28,4.12,1.95,6.89-.02-.47.12-.95.26-.53,1.04,4.05,1,1.6,2.01,4.24.18,1.63-1-.26.21,2.33.34,1.72-.48.56-.88-.03,1.28,2.3,1.33,4.67,1.77,6.1l-.65-1.22c.39.73.61,1.36.84,2l.18-.9c.19.78.43,1.42.24,1.48.58.67.52-.87,1.49.52.14,1.09,1.38,2.95.93,3.52-1-3.22-.47.58-1.57-2.05.26.49.49,1.12.71,1.9-.02.14-.16-.06-.28-.25.63,3.21,1.18,1.13,2.39,4.24-.49-.26-.34.97-.07,1.45-.49-1.26.31-.82,1.02.23.55,2.08,1.06,2.08,1.45,3.12l-.36-1.23c.49.27.84,1.28,1.52,2.6-.21.22-.7-1.17-.6-.64,1.21,1.28.84,3.7,2.14,5.65.2,1.08-.57.36-.35,1.29,1.46,2.18.68,2.77,2.14,5.1.11-.91-.05-.99,1.16.56l-2.13-3.94,1.79,2.34c-.54-1.23-1.42-2.48-1.68-3.25.91,1.09.74,1.01.84.26.08,1.98,1.86,3.17,2.3,5.3l-1.1.43c.86,3.14,2.95,4.92,4.51,8.78l-.41-1.29c.67.3,1.19,2.28,1.96,3.4-.41.06-.16.88-.12,1.5.23-.19,1.35,2.73,2.23,2.71l.38,1.89c1.35,3.08,2.76,2.88,4.11,5.8-.83-.66-.4.76-1.67-1.01.49.96.87,1.84,1.12,1.73.07.67,1.84,2.4,1.95,3.45.36.32.8.27,1.31,1.35-.01.15-.18.08-.18.08.18-.08,1.08,1.56,1,.43.4,3.49,4.18,8.23,4.42,11.3,1.11,2.06,2.39,4.57,3.27,6.5-.16-.08-.18.07-.31-.31.84,2.82,1.77,1.19,2.71,4.41.08,1.82-1.01-1.49-.82-.42-1.01.93,1.74,3.62,1.88,5.99l-.27-.47c.24,1.75,2.03,3.68,2.96,6.32,0,0-.16-.08-.19.06,1.31,1.54,2.81,4.85,3.9,7.32-.76-.61-.67-1.06-.98-.4.48,1.11.66-.62,1.62,1.6.01.83.36,2.55-.08,2.95l-.79-2.13c-.28,1.33,1,2.76,1.29,3.93l-.34-.04c1.22,3.25,2,3.04,3.11,6.62l.1-.44c1.38,1.7.12,1.76,1.29,3.53l-.56.83c.6,1.22,2.14,4.28,2.97,6.57-.94-1.15-2.07-3.77-2.92-5.33.39,1.28,1.39,4.32,1.96,4.88-.22-.5-.61-1.09-.65-1.63.54.69,1.04,1.54,1.48,2.53.23.5.44,1.03.65,1.6.2.56.41,1.21.55,1.72-.43-.04-.56.31-.56.77,0,.46.15,1.09.31,1.74-.6.09-1.23.19-1.78.2-.27,0-.52,0-.72-.05l-.16-.04-.24-.03c-.16-.03-.3-.06-.42-.11-4.53,1.42-9.24,1.43-14.64,2.41,2.11.86-1.58.29-1.05,1.44-1.25.28-1.74.34-1.86.28l-3.95-.13c-.96-.21,1.16-.45,1-.7-2.78.33-1.24-.33-3.12-.38.44.38-.87.76-2.47.83l2.3.23c-3.78,1.22-3.49-.52-7.3.66l1.18-.55c-1.97.51-7.39.98-9.24,2.2-.37-.1-.88-.37-.01-.57-4.81.45-10.58,2.29-14.38,2.06l.33-.33c-.89.18-1.51.71-2.66.53.05-.13.33-.33-.08-.31-.46.15-2.34.75-3.55.69l.99-.43c-4.74.05-7.15,1.47-11.09,2.03-.07-.88-3.81-.83-5.69-.79l.05-.13c-5.54.44-9.33,1.73-14.37,2.88-1.66-.21-4.36.15-7.28.71-2.92.55-6.03,1.3-8.6,1.68.81-.03.04.69-.82,1.01-1.21.14-3.06,1.46-3.09.64l.42-.1c-1.09-.51-3.43.37-5.3.93v1.1c-2.64.02-5.77,1.19-8.57,2.38-2.8,1.19-5.28,2.35-6.82,2.24-1.04.7-2.44,1.28-3.45,2l-.16-.55c-1.59.6-2.78,1.07-4.04,1.62-.63.27-1.28.58-2,.92l-.28.13-.11.06-.17.09c-.1.06-.27.16-.35.21.06-.18.13-.36.17-.53-.13.05-.11.15-.22.37-.05.11-.12.24-.2.39-.08.14-.2.35-.27.4-.32.36-.76.39-.97-.22.2-.29.42-.53.66-.71l-.37-1.22-.41-1.48-.81-2.98c-.56-1.97-1.23-3.91-2.24-5.7.14.02.41.06.65.67-.59-1.83-1.88-7.23-2.75-6.19.7-.29-1.32-4.01-2.38-5.98l.64.14c-1.3-1.52-1.5-1.51-2.57-3.89-.14-.6.24-.66.38.16-.42-2.03-1.04-1.33-1.61-3.77l.65.75c-.69-2-.81-1.78-1.6-2.73-.67-1.17-1.26-3.81-.9-4.28-.39-.16-1.18-1.1-1.48-2.31.12-.22.39.16.52.35-.89-3.44-2.47-4.68-2.83-7.15.15-.11.18-.29.16-.5,1,2.62,1.77,4.75,1.66,4.57.48-.18-.25-2.34,1.06-.9-1.01-1.57-2.91-4.17-3.49-6.32,0-.12.02-.23.06-.34l.14.19c-.14-.49-.35-.9-.59-1.27-.18-.69-.29-1.13-.53-1.76.3-.4-.74-2.51-1.15-3.56-.49.29-.96-1.11-.87.35-.03-.18.14.17.45.86.08.15.16.33.24.42l-.07-.05c.28.69.65,1.58,1.07,2.6-.59-.73-1.16-1.51-1.33-2.78-.55-.4-1.14-.86-1.44-1.13.15-1.72-.59-4.63-.29-5.2-1.6-3.08-3.26-7.44-5.06-9.06-.5-.86-.14-1.16-.13-1.56.31.48.55,1.11.81,1.34-.99-1.71-2.29-5.34-3.15-5.5-.62-2.41,1.16,1.03-.24-2.06l.38.34c-1.43-6.61-5.78-9.37-6.97-16.84.09.51.14.77.06.91-2.32-8.11-6.48-16.13-8.04-24.38-.53-2.31-1.05-2.41-1.83-3.68l.42-.67-1.41-2.14c-1.53-3.19-.37-6.22-2.55-10.18l-.23.66c-.38-1.54-1.64-4.77-1.12-4.64-.12-.14-.55-.38-.52-1.04l.29-.13-1.58-3.61c-.59-2.98,1.32.12.22-4.15-.55-1.55-2.11-4.27-2.16-3.62.16.64.25,1.69-.04,1.82l-.55-1.41c-.97-.02-2.2-.9-1.85,2.85l1.23,2.34-.22.92-.6-2.09c-.09,1.3.48,1.96.97,2.73-.18.26-.24.66-.19,1.18l1.54,2.2c-.27.4-1-.9-.74.8.72,1.03.48-1.32,1.27.5-.06,1.3-.49,1.05.26,2.34-.17.26-.41.01-.67-.51.64,1.16,1.07,3.25,1.73,3.75-.13,1.38,1.38,4.13.5,4.27.31.33,1.32,1.97,1.71,3.1-1.65-1.76,1.25,4.26,0,4.05,1.38,1.25,2.16,5.4,3.55,7.93-.12-.13-.36-.38-.39-.63.42,1.54.3,2.07.46,3.11.81-.05,1.76,2.25,2.66,3.36-.08,2.1-1.26-.83-1.74-.01.57-.3,1.7,3.02,1.99,2.21.04,1.57.21,1.29-.15,2.24,1.01-.08.62,1.26,1.6,2.23.27,2.21-.68.83.41,2.98.1,1.17-.94-.71-.94-.71ZM256.57,366.22h-.01c-.19-.44-.35-.83-.45-1.07.1.22.23.53.46,1.07ZM258.29,370.63c-.19-.55-.44-1.22-.72-1.93.12-.22.37-.13.54.32-.21-.2.08.89.18,1.61ZM258.27,359.86c.35.67.34.95.27,1.08-.14-.33-.31-.71-.55-1.2l-.1-.06c.13.03.25.07.37.17Z"/>
  <path class="cls-1" d="M257.09,358.88c-.05-.1-.1-.14-.16-.27.01.16.03.31.05.46.09.06.18.13.26.18-.05-.13-.11-.25-.16-.37Z"/>
  <polygon class="cls-1" points="313.61 246.19 313.71 246.19 313.49 246.14 313.61 246.19"/>
  <polygon class="cls-1" points="291.41 413.33 291.35 413.2 291.01 413.47 291.41 413.33"/>
  <path class="cls-1" d="M287.41,246.15c-.05-.05-.15-.1-.35-.13.02.04.17.08.35.13Z"/>
  <path class="cls-1" d="M276.08,246.61l-1.62-.07c.71.06,1.22.07,1.62.07Z"/>
  <path class="cls-1" d="M267.34,247.3c-.1.11-.12.19-.14.26h.02s.12-.26.12-.26Z"/>
  <path class="cls-1" d="M377.02,271.25c.05.11.1.21.15.3.39.68.16.21-.15-.3Z"/>
  <path class="cls-1" d="M362.14,232.48c.23.43.47.89.7,1.44-.24-.97-.45-1.74-.7-1.44Z"/>
  <polygon class="cls-1" points="397.21 312.17 397.2 312.17 397.33 312.42 397.21 312.17"/>
  <path class="cls-1" d="M363.47,236.09c-.06-.39-.11-.65-.23-1.04-.12-.41-.26-.79-.4-1.13.1.39.21.82.31,1.24.1.36.19.64.32.93Z"/>
  <polygon class="cls-1" points="230.69 256.97 230.28 257.11 230.27 257.21 230.69 256.97"/>
  <path class="cls-1" d="M230.27,257.21l-.41.24c.2-.08.37-.16.41-.24Z"/>
  <path class="cls-1" d="M229.01,257.96l.86-.51c-.32.13-.71.27-.86.51Z"/>
  <path class="cls-1" d="M241.69,253.28l.06-.24c-.06.06-.08.14-.06.24Z"/>
  <path class="cls-1" d="M245.03,252.18c-.81.2-2.15.18-3.23.68l-.05.19c.43-.47,2.62-.31,3.28-.86Z"/>
  <path class="cls-1" d="M259.8,251.11c-.96.13-1.92.27-2.88.44.54.1,1.25.24-.02.58,3.71-.14-.85-.34,2.9-1.02Z"/>
  <path class="cls-1" d="M268.73,249.92c-1.53.31.06.31,0,.44.95-.32,1.18-.4,0-.44Z"/>
  <path class="cls-1" d="M333.88,242.65l-.03.54c1.17-.38-.04-.19.03-.54Z"/>
  <polygon class="cls-1" points="345.17 236.62 343.96 236.68 343.57 237.29 345.17 236.62"/>
  <path class="cls-1" d="M353.37,237.64l-.48.25c.62-.29,1.24-.57,1.85-.88l-1.38.63Z"/>
  <path class="cls-1" d="M398.45,325.79l.41-.6c-.46-.69-1.17-.53-.41.6Z"/>
  <path class="cls-1" d="M416.57,369.46c-.14.59.09,1.91.63,2.6-.28-1.03-.38-2.11-.63-2.6Z"/>
  <polygon class="cls-1" points="301.55 404.32 302.41 403.82 300.72 404.55 301.55 404.32"/>
</svg>