<?xml version="1.0" encoding="UTF-8"?>
<svg id="Layer_1" data-name="Layer 1" xmlns="http://www.w3.org/2000/svg" viewBox="0 0 600 600">
  <path d="M317.36,51.37l-2.2.08-.19,1.5-2.1-1.69c-.56-1.38,2.75.54,3.04-.77-1.37-6.32-6.15-3.53-10.8-4.22l-5.47,3.68-4,5.04,8.88,2.92c1.73.9,4.1,2.25,6.7,4.17,3.24,2.39,6.86,5.06,9.63,9.63,1.24,2.04,3.07,5.71,3.61,10.94.53-.2,1.98-.83,3.03-2.39.95-1.41,1.04-2.81,1.05-3.37.25-.08.4-.05.49,0,.56.28.25,1.7,1.22,1.5.51-.11,3.09-4.66,1.35,1.5l2.29-2.24c-.3,1.97-2.78,2.85-2.24,5.18,1.38.77,2.83.36,4.15,1.37.31.24,2.22,1.81,2.33,1.93.1.11,1.42,2.48,1.44,2.62.09.6-.35,1.2-.28,1.76.36,2.61.42,5.07.74,7.5.07.56.71.99.73,1.51.06,1.31-2.52,5.2-3.43,6.36.41.49.57.67,1.26.5.23-.06,3.82-2.18,4.07-2.39.93-.78.78-2.62,2.9-3.13.23,0,.86,1.03.88,1.35.01.19-1.8,3.18-1.97,3.37-1.34,1.47-4.86,1.35-4.48,3.66,1.53.26,3.18,1.26,4.68,1.47,1.16.16,1.5-.9,2.22.05l-2.31,2.27c-.05,1.47,1.93,3.25,2.2,4.14.21.7-.08,2.97.12,3.87-.72.73-3.94-2.67-4.62-3.15-1.75-1.25-3.79-2.26-5.52-3.58-.91.19-.5,3.01-.62,3.89-.05.38-.61,3.61-1.49,2.84.11-1.92-.58-4-.59-5.81,0-.52,1.26-2.95-.42-3.51-1.43-.47-1.82,1.13-2.71,1.39-1.19.35-2.29-.25-3.01-.15-.43.06-.73.87-1.53.99-1.17.17-2.12-.7-3.23-.76-.51,1.78-.76,3.23-.9,4.17-.42,2.97-.15,4.28-.89,6.83-.24.82-.61,1.86-1.32,3-.42.66-.83,1.17-1.14,1.52,0,.7-3.43,1.93-3.69,2.16-1.19,1.05-1.24,2.49-1.54,4.29-.23,1.41-.42,3.51-.04,6.09,1.89,1.64,4.86,3.92,8.91,5.89,3.61,1.75,6.02,2.25,10.68,3.71,2.75.87,8.18,2.57,13.79,5.11,5.73,2.59,11.76,5.4,16.91,11.45,1.5,1.76,2.56,3.37,3.24,4.5l-.77,1.49,1.5.42-.31,2.91,1.87.98c-.38,1.07-1.73-.45-1.53.75.13.83,1.16,3.31,2.31,2.81l-1.14,2.05,1.14.19c-.85,1.56.28,2.32.38,3.2.63,5.73.14,5.27,3.15,10.38.49.83,1.66,4.16,1.05,4.74-.2.19-3.35-.05-1.64,1.9l2.25.34c1.02,3.76.82,7.24-.96,10.71-3.8-1.07-2.08,3.15-4.04,5-.95.89-5.94.97-2.48,3.19-.94.28-2.01,2.16-1.94,2.96.03.34,1,.31,1.15.82.13.46-.39,1.15-.3,1.76.1.64.81,1.02.96,1.63.26,1.07-.62,2.45-.57,3.2.04.68.56,4.12.7,4.95.14.84,1.06,1.35,1.14,2.29.1,1.36-1.19,2.23-1.14,3.53l1.16-.19c.94.89,1.34,2.22.36,3.17,1.5.06,1.78,2.79,1.52,3.86-.09.38-1.2.18-.9,1.7.26,1.28,3.08,2.67,3.18,5.13.02.63-.4,1.24-.35,1.83.07.76,1.49,2.16.8,3.02-.3.38-1.21.59-1.39.9-.15.27.3,1.26.14,1.99-.15.73-.99,1.23-1.11,1.98-.11.69.7.45.78.79.08.36.42,3.82.35,4.01-.18.53-1.62.53-1.16,2.08l-1.1.03c-.6,1.12,1.14,1.41,1.14,1.68,0,.11-.7.57-.88.93-.82,1.72-1.28,2.06-2.55,3.56l1.53.56c.22,1.11-.98.54-1.07,1.76-.05.6.23,1.04.31,1.61h-2.3s-.39,3-.39,3l-1.5-.6c-1.84.16.02,3.55-.03,3.76-.07.3-.88.47-1.16.85-.79,1.11-.84,2.53-.76,3.84l-1.53-.37c.09,2.04,2.71,2.94.52,4.84l-2.05-.35c.02,1.04.42,1.73,1.53,1.5l-.55,3.02c-1.71.33-1.89,1.48-3.66.9l-.16,2.84-2.9.91,1.16,1.1c-.21,1.36-1.3,1.99-2.31,2.71l-.38,4.6-.95-.75c-.24,1.36-2.35,1.77-2.46,1.9-.18.2.67,2.27-.8,3.17-.79.48-1.5-.22-2.06-.12-1.32.22-2.25,4.89-2.17,6.09.09,1.31,1.02,1.84,1.3,2.88.17.64-.2,1.33.13,2.08.2.45.83.4.9.73.24,1.09-.6,3.76-.41,5.18.24,1.81,1.12,1.63,1.18,4.81,0,.2,1.61,1.66,2.09,3.23,1.04,3.42,1.05,4.94,2.68,8.23.39.79.12,1.73.78,2.61.37.5,1.2.68,1.28.81.28.46-.39,1.7,0,2.77.22.62,2.12,3.2,2.26,3.76.21.87-.37,2.79.07,4.08.23.69.86.49.84,1.08-.03.95-.52,2.73-.4,3.72.03.27.68.2.74.48.53,2.23.05,1.59,1.12,3.78.77,1.58,2.45,5.87,2.63,7.48.05.49-.16.78-.3,1.2l1.18.21-.03,2.42-1.52.18c.43,1.52,2.09.81,3.05,1.87-2.91.36-1.06.63-.56,1.7.26.55-.12,1.11.04,1.48.35.81,1.28,1.68,1.57,2.53.37,1.1.29,3.25.87,4.29.25.45.9.47,1.15.83,1.61,2.43,1.45,5.22,1.96,7.83,1.39,7.19,2.29,13.75,2.65,20.94.07,1.45,1.03,3.6,1.13,5.29.06,1.08-1.3,2.55.77,2.81.14.19-.71.61-.7,1.23.01.71,1.2,4.85,1.49,5.96.07.28.65.27.72.55.28,1.16.06,3.1.49,4.32.3.85,1.38,1.27,1.83,1.95.58.88,1.25,3.81,1.61,4.23.28.33,1.16.23,1.37.53.35.5,1.07,2.68,1.83,3.63,1.1,1.39,1.7-.05,2.26.03l.41.38c.07.43-.04.89.14,1.31.22.5,1.12,2.66,1.22,2.78.14.18,1.54-.16,3.4,2.37,1.01,1.37.81,1.65,1.36,2.53.18.28.91.27.98.6.19.97-1.07,1.8-1.13,2.26-.06.48.59.79.65,1.13.08.45-.6.73-.53,1.25.19,1.46,1.91,4.01,1.37,5.97l1.13.2c-.95,1.42.38,1.91.61,2.78.46,1.72-.35,4.07,2.46,3.76l-.39,1.12c1.28.51,1.65.28,2.49-.74l4.21,4.11.18-.85.77-.27c-.06,1.32,1.56,2.11,2.68,2.25-1.39,1.58.04,3.36-2.3,4.29.82,1.33,2.02,1.31,1.53,3.19l-2.29-.37c-.43.97.74.61.78.99.07.58-.69,1.26.36,1.82l-.76.56,1.53.37-1.19.22c.41,1.42-.74,1.73-.74,1.84,0,.55.85,1.11.71,2.24-.23,1.93-2.9,7.85-2.86,8.6.02.29,2.2,4.3,2.57,5.25.25.63.06,1.48.19,1.69.3.47,1.46.7,1.87,1.5.44.86.27,2.19.62,3.06.19.47,2.04,2.06,2.23,2.37.38.63.24,1.25.45,1.75.14.33.72.3.75.53.08.61-.55,1.4-.41,2.14.05.31.89.08.8.77-.13,1.02-1.51,2.37-.44,3.74.38.49,1.29-.13,1.19.59-2.13-.27-.22.71-1.33,1.46l-.96-.33v2.24s1.91.37,1.91.37l-2.67,1.69,1.91.94c.13,1.81-2.24,1.43-2.63,3.56l1.84,1.33-.35.92c-1.7-.52-1.38.49-2.08.58-.71.09-1.58-.12-2.32-.03l.19-.75c-.87-.21-1.43.64-2.14.75-1.5.22-2.21-.95-3.6.75,1.23-1.67-1.37-3.74-2.8-3.32-.58.17-2.12,2.41-2.74,2.96-.34.3-.97.26-1.22.49-1.06.93-2.2,3.1-3.77,3.21l-.18,1.53c-1.35-.58-3.65-.07-4.73-.44-.31-.1-1.72-1.31-3.2-1.7-2-.52-.68-.19-1.68-.8-.1-.06-2.08-.01-2.36,0-1.09.09-.98,1.24-2.56-.44-.61,1.48-.72,1.56,0,2.99l-3.51-.93c-1.14,1.1-2.75,1.42-4.22,2.09-.34.15-.35.63-.79.82-1.13.49-3.31.53-3.65.73-.27.16-.14,1-.99,1.03-1.85.06-3.19-.98-4.45-1.33-1-.28-2.15,0-3.41-.75-.82-.48-1.08-1.47-1.26-1.57-.57-.32-1.66.08-2.34-.07-.24-.05-2.79-2.77-3.72-3.18-2.83-1.26-1.74,1.56-2.67,2.24-.33.24-1.84.45-2.59.82-.35.17-.38.56-.79.83-.33.22-1.95,0-1.99,1.72-.03,1.22,2.07,1.05,2.5,1.65.14.2-.35,1.57.81,1.88l1.68-.73c.85,2.01-.36,2.25-.67,3.26-.35,1.13-.12,2.52-.3,3.51-.14.78-1.37,1.21-.56,2.58-1.18-1.1-2.26-.73-3.49.17l-.49,5.45c-.4.61-1.61.24-2.25.37-.13.03-.84,1.1-2.04,1.44-3.82,1.1-9.3-.49-13.36-.7-3.99-.21-8.32.32-12.24,0-.97-.08-2.14-.79-2.65-.77-.23,0-.03.71-.76.8-2.75.35-3.79-.8-5.57-2.47l1.52-.93c-.97,0-1.28-1.36-1.79-2.16-.24-.38-.8-.49-.82-.53-.12-.27.28-3.42-1.21-3.3,1.23-.88.83-1.87,1.17-2.71.13-.34.68-.26.74-.54.04-.21-.05-3.09-.21-3.11h-2.46s.38,1.5.38,1.5l-1.9-.74-.77,1.86c1.61-.29,1.25,1.01,1.64,1.4.39.39,1.94,0,1.39,1.75-1.36,1.86-1.61-.67-2.45-.52-1.31.91.45.87.58,1.32.16.54-1.17,1.97-1.43,2.05-1.39.39-1.46-1.58-2.23-.39-.83,1.29.48,2.42.37,2.99-.24,1.3-1.5,2.14-2.79,2.32l-.06,1.03,1.14.21-1.08.62.29.65-3.04,1.17.39.74c-1.36.22-1.5-.07-2.11-1.11-.46.39-.71,1.01-1.44,1.02-2.91.06-8.54-1.49-11.96-1.77-1.99-.17-4.12.15-6.12,0-4.71-.37-9.41-1.1-14.15-1.13-2.16-.77-2.62-3.11-3.65-4.85,1.05.19,1.21-.26,1.53-1.12l-.77.74-.76-.57.76-1.68-1.53.37.38-2.62-.74.36-1.17-2.05c-.45-.99,1.56-.1,1.91-.56-.25-1.39-1.49-1.58-.84-3.2.71-1.75,3.66-1.77,3.14-3.9l-3.4-.33-1.4,3.34-2.09-.77-.02,1.09c-1.11-.22-2.35.36-3.28.37-.77,0-1.49-.4-2.26-.37-1.27.04-7.11.86-7.76-.07-.15-.21-.02-.68-.11-.97l-1.88-.05.35-1.06c-1.44-.08-.88-1.51-1.2-1.86-.08-.09-1.68-.5-2.08-1.27-.17-.32.24-1.52-.5-1.99-.9-.57-3.22.05-3.08-2.42-.75-.15-1.04.71-1.71.74-2.17.08-2.37-4.4-4.41-4.11v-.74s.73-.03.73-.03l.03-.53c-1.84-.51-1.25-2.38-1.89-2.98-.1-.1-.55.04-.78-.08-.36-.2-.61-.68-1.01-.76-.7-.15-4.32-.26-3.97,1.01h-.57s-.25-.64-.25-.64c-1.93-.26-1.39-.41-3.2-.24-.43.04-2.56-1.21-3.61-.57l-.59,1.08c-1.51-1.47-3.24-2.72-3.26-5.24-1.26-.42-.93,1.67-1.15,1.87-1.08.27-.86-1.07-1.72-1.49-.87-.18-.84,1.23-1.14,1.12-.76-.28-1.5-1.54-1.71-1.65-.39-.2-.99.31-1.37-.21-.19-.26.22-1.54-.84-2.06l1.43-1.5c-2.71-1.14.74-3.66.76-4.48.01-.64-1.25-2.35-1.14-2.44,2.27.31.71-1.58-.38-2.06l1.96-.79c-.49-2.85,3.1-3.21,1.49-6.13.44.35,2.13-.53,2.27-.77.44-.74-1.59-1.15-1.12-2.22l2.29-.56-.76-.56,1.14-.18c-1.19-1.76.2-1.86.78-3.18l1.52.74-.79-.58c.02-1.8,1.09-1.43,1.44-1.75.23-.21.16-.83.51-1.19.42-.44,1.45-.72,1.73-1.34.33-.75-.41-2.05.06-3.36,1.01-2.8,3.88-5.3,4.88-7.5.48-1.06.05-.9.41-2.22,1.06-3.87,3.46-4.88,4.82-7.73,1.01-2.11.32-2.87.66-6.59.91-9.89,6.77-15.27,5.36-22.14-.1-.47-.37-.82-.25-1.43.48-2.32,2.49-6.81,2.53-9.14,0-.46-1.69-2.41-1.66-3.51.03-1.08.91-3.19,2.08-2.22l1.17-2.07-.75-.72c1.46-1.57.72-4.35,1.19-6.32.25-1.06,1.16-2.41,1.4-3.5,2.04-9.26-1.19-18.86.56-27.88.14-.73,1.7-6.47,1.88-6.77.43-.7,1.09-.44,1.5-.87,1.65-1.74,2.23-5.7,2.83-7.99,1.31-5.02,3.2-10.25,4.48-15.45.61-2.47.62-4.93,1.52-7.31l1.49-.05c-1.73-1.84-.22-2-.02-2.52.89-2.32,1.93-4.55,2.82-6.9,3.07-8.06,3.64-16.57,7.25-24.31.38-.82,1.33-1.89,1.34-2.8.01-1.01-1.58-2.37-1.76-3.01-.09-.32-.21-2.19-.32-2.96-.03-.18.45-2.86-.86-1.96-.14.1.24,1.06-.8.7.85-2.31-1.1-4.53-2.3-6.54-1.15-1.93-2.87-4.03-4.04-5.81-.35-.52.23-1.17.03-1.51-.14-.23-.91-.22-.99-.6-.17-.81,1.24-2.91-1.11-2.37.12-.91.59-1.77.37-2.73-.03-.14-1.27-1.25-1.46-2.43-.47-2.95-1.13-5.5-2.06-8.42-1.09-3.44-4.17-6.54-5.56-9.9-.71-1.73.06-3.98-.58-5.8-.2-.56-.89-.84-1-1.28-.19-.77.26-1.74-.29-3.45-1.93-5.97-3.63-14.44-3.59-21.16,0-1.26.85-4.04.76-4.85-.07-.57-.72-.98-.75-1.51-.03-.7.96-1.69,1.11-2.64.36-2.23-.02-5.62.41-7.83.16-.81,1.06-1.26,1.06-1.49,0-.2-.67-.59-.67-1.45-.01-3.55,2.3-8.43,2.65-11.7.12-1.17-.44-2.56,0-3.87-1.49-.87-4.14.08-5.11-.1-.77-.14-2.07-2.41-3.21-2.61-.07-1.22-1.37-3.87-2.18-4.79-.86-.98-.5,1.36-2.12.38l.77-1.49c-3.68-.45-2.78-6.06-1.16-8.06.1-.13,2.17-2.15,2.31-2.23.89-.52,2.63.3,3.26-.93.63-1.24-.49-3.86-.59-5.41-.23-3.74.98-3.75,2.46-6.6,1.99-3.86,3.97-9.62,6.47-12.94.49-.64,2.74-2.24,3.34-3.01,2.93-3.78,2.27-6.15,6.64-9.51,5.37-4.13,7.92-8,15.49-9.19,5.81-.91,11.39-2.82,19.1-3.74,5.02-.6,7.1-.54,8.44-2.33,1.38-1.85,1.07-4.46.82-6.54-.17-1.43-.45-3.79-2.11-4.66-.53-.28-1.03-.33-1.4-.32-2.28.07-5.89,1.54-8.58,1.73-2.51.18-5.19-.04-6.66-2.37-1.21-1.92-.02-3.04-.35-4.44-.17-.69-1.16-.25-1.73-1.01-.41-.54-.41-1.21-.41-1.44,0-.97.52-1.21.33-1.84-.16-.54-.58-.48-.8-1.1-.22-.61-.01-1.2.09-1.52.24-.69.56-.86.71-1.2.48-1.1-1.37-2.87-3.35-4.88-1.81-1.84-2.63-2.53-3.83-4.12-.97-1.29-1.22-1.86-1.32-2.11-.6-1.51-.52-2.89-.42-4.45.04-.73.15-1.73.41-2.91l-1.56-.62c-.12-.55.04-.6.41-.9,1.9-1.49,5.03-1.25,6.86-3.03-1.63-1.68-.78-2.3-.93-3.94-.14-1.41-1.33-3.25-1.37-4.84-.27.54-.62,1.36-.77,2.41-.17,1.11-.06,1.98,0,2.28.25,1.67,1.04,2.87,1.55,3.53-.7-.42-1.82-1.22-2.51-2.59-.78-1.55-.64-3.04-.47-4.24.49-3.6.89-6.58,2.88-10.81.8-1.71,2.33-4.62,4.91-7.77.49-.6,7.36-6.45,10.35-8.21.66-.39,1.68-.31,2.07-.6.4-.3.25-1.06.45-1.23.23-.21,5.3-1.71,5.96-1.84,2.18-.45,4.39-.23,6.59-.48l-1.91-2.24c2.15-1.01,6.51,1.9,7.79,1.79,1.62-.14,3.09-2.96,3.4-4.33l2.98-.82.19,1.86c1.81-1.46,1.58-3.6,3.67-5.01.48-.33,1.23-.31,1.61-.57.51-.34.5-1.21,1.3-1.45,3.12-.92,5.69-1.17,8.93-.26,3.7,1.04,6.87,3.11,4.88,7.21ZM252.49,97.92c-.4.78-1.67,3.51-.56,6.37.59,1.52,1.85,3.08,2.48,2.87.74-.25-.08-2.76.82-6.35.39-1.56.96-2.77,1.38-3.54l-.79-.42-3.33,1.07ZM254.21,229.22c-2.48-2.52-1.83,4.46-1.99,5.53-.39,2.66-2.04,5.59-2.42,8.11-.74,4.92,1.78,16.12,3.63,20.96.66,1.75,1.95,3.9,3.88,2.09-.09-4.37,2.26-8.36,2.69-12.71.61-6.25-.91-8.39-2.15-13.89-.23-1.01.04-2.09-.26-3.12-.22-.78-1.03-.82-1.46-1.55-.69-1.18-1.22-4.71-1.92-5.42ZM336.2,232.11c-.98-.15-.59.08-.8.53-2.02,4.4-2.67,8.74-4.06,13.23-.82,2.63-3.51,8.13-3.59,10.37-.21,5.8,2.49,14.18,4.94,19.52.51,1.11,1.07,2.78,2.55,2.77,2.17,0,1.45-1.86,1.9-3.04.39-1.03,1.44-2.27,1.65-3.25.67-3.19,1.09-10.94,1.25-14.49.41-8.79-.72-17.44-3.85-25.64Z"/>
</svg>