<?xml version="1.0" encoding="UTF-8"?>
<svg id="Layer_1" data-name="Layer 1" xmlns="http://www.w3.org/2000/svg" viewBox="0 0 360 200">
  <defs>
    <style>
      .cls-1 {
        fill: none;
      }

      .cls-2 {
        fill: #c21927;
      }

      .cls-3 {
        fill: #ca3642;
      }
    </style>
  </defs>
  <g id="IlpvdA.tif">
    <g>
      <path class="cls-2" d="M6.72,75c2.5-1.59,5.7-2.39,8.64-2.77,8.67-1.12,15.8.73,23.63,4.15,3.44,1.5,6.27,2.8,8.96,5.49,7.14,7.17,12.09,16.49,20.04,22.89,7.77,6.27,16.83,10.86,26.91,11.85,6.1.6,12.38.67,18.41-.43,4.31-.79,8.49-1.98,12.82-2.72,7.31-1.26,14.68-2.09,22.1-2.42,8.73-.4,18.6-.97,26.1,4.3,3.53,2.48,6.12,5.71,10.51,6.82,2.05.52,3.98.47,6.05.63,9.51.7,23.37,1.73,30.95-5.13,1.12-1.02,1.93-2.18,2.09-3.73-1.31.1-4.08.31-5.18-.46-.88-.61-.71-2.66-.38-3.55.68-1.84,3.1-2.66,4.88-2.04,2.05.71,1.38,3.45,1.57,5.15,5.51-.95,11.05-1.8,16.58-2.7,12.14-1.99,24.27-4.11,36.42-6.04,6.13-.97,11.59-1.76,17.82-2.01,13.47-.54,27.26-.46,40.35,3.12,4.68,1.28,11.2,4.94,14.23,8.78,1.72,2.18,3.04,7.69,2.67,10.42-.06.47-.26,1.12-.67,1.37h-.1c-.65-.46.11-1.4.11-2.14,0-2.05-.88-6.13-1.78-7.98-1.53-3.13-8.77-7.69-12.03-8.89-1.04-.39-2.14-.68-3.22-.97-15.34-4.01-31.23-3.43-46.92-2.52-21.22,3.25-42.36,6.95-63.54,10.36-.19,3.06-2.98,5.15-5.4,6.61-6.17,3.72-16.12,3.88-23.17,3.54-2.84-.14-6.07-.28-8.87-.6-6.69-.75-8.5-3.98-13.48-7.45-7.36-5.13-17.34-4.5-25.9-4.1-7.69.36-15.42,1.24-22.99,2.62-3.71.68-7.34,1.71-11.04,2.41-6.28,1.18-12.43,1.14-18.79.54-10.91-1.03-20.58-6.05-28.81-13.04-5.58-4.75-9.89-11.43-14.61-17.06-2.83-3.38-5.31-6.48-9.33-8.5-10.26-5.16-22.77-8.69-33.9-3.91-.54.23-1.22.9-1.73.42v-.3ZM224.03,113.12c0-1.28.02-2.62-.25-3.87-.2-.46-.84-.71-1.31-.78-1.47-.22-3.09.55-3.47,2.06-.13.51-.17,1.53-.03,2.03.13.44,1.51.63,1.93.66.39.03,3,.03,3.13-.1Z"/>
      <g>
        <path class="cls-1" d="M6.72,75c2.5-1.59,5.7-2.39,8.64-2.77,8.67-1.12,15.8.73,23.63,4.15,3.44,1.5,6.27,2.8,8.96,5.49,7.14,7.17,12.09,16.49,20.04,22.89,7.77,6.27,16.83,10.86,26.91,11.85,6.1.6,12.38.67,18.41-.43,4.31-.79,8.49-1.98,12.82-2.72,7.31-1.26,14.68-2.09,22.1-2.42,8.73-.4,18.6-.97,26.1,4.3,3.53,2.48,6.12,5.71,10.51,6.82,2.05.52,3.98.47,6.05.63,9.51.7,23.37,1.73,30.95-5.13,1.12-1.02,1.93-2.18,2.09-3.73-1.31.1-4.08.31-5.18-.46-.88-.61-.71-2.66-.38-3.55.68-1.84,3.1-2.66,4.88-2.04,2.05.71,1.38,3.45,1.57,5.15,5.51-.95,11.05-1.8,16.58-2.7,12.14-1.99,24.27-4.11,36.42-6.04,6.13-.97,11.59-1.76,17.82-2.01,13.47-.54,27.26-.46,40.35,3.12,4.68,1.28,11.2,4.94,14.23,8.78,1.72,2.18,3.04,7.69,2.67,10.42-.06.47-.26,1.12-.67,1.37h-.1c-.65-.46.11-1.4.11-2.14,0-2.05-.88-6.13-1.78-7.98-1.53-3.13-8.77-7.69-12.03-8.89-1.04-.39-2.14-.68-3.22-.97-15.34-4.01-31.23-3.43-46.92-2.52-21.22,3.25-42.36,6.95-63.54,10.36-.19,3.06-2.98,5.15-5.4,6.61-6.17,3.72-16.12,3.88-23.17,3.54-2.84-.14-6.07-.28-8.87-.6-6.69-.75-8.5-3.98-13.48-7.45-7.36-5.13-17.34-4.5-25.9-4.1-7.69.36-15.42,1.24-22.99,2.62-3.71.68-7.34,1.71-11.04,2.41-6.28,1.18-12.43,1.14-18.79.54-10.91-1.03-20.58-6.05-28.81-13.04-5.58-4.75-9.89-11.43-14.61-17.06-2.83-3.38-5.31-6.48-9.33-8.5-10.26-5.16-22.77-8.69-33.9-3.91-.54.23-1.22.9-1.73.42v-.3ZM224.03,113.12c0-1.28.02-2.62-.25-3.87-.2-.46-.84-.71-1.31-.78-1.47-.22-3.09.55-3.47,2.06-.13.51-.17,1.53-.03,2.03.13.44,1.51.63,1.93.66.39.03,3,.03,3.13-.1Z"/>
        <g>
          <path class="cls-3" d="M224.29,113.37s-.09-.12-.15-.06c.02.06.03.12.03.19.05-.04.09-.09.12-.13Z"/>
          <path class="cls-3" d="M223.87,113.19c-.02.09-.03.25.01.41,0-.18.03-.1.03-.32.02-.03.06.05.07.11,0-.05.05.03.05-.09-.09-.12-.11-.12-.15,0-.02-.04-.01-.09-.02-.12Z"/>
          <path class="cls-3" d="M221.44,112.98l.02.02s0-.02-.02-.02Z"/>
          <path class="cls-3" d="M220.02,112.73s.02-.02.02-.03c-.01,0-.02.02-.02.03Z"/>
          <path class="cls-3" d="M219.85,112.47v.02s0-.03,0-.02Z"/>
          <path class="cls-3" d="M221.44,112.98l-.04-.06c0,.06.02.04.04.06Z"/>
          <path class="cls-3" d="M223.57,113.66s.01-.03.02-.05c0,0-.01.02-.02.02v.03Z"/>
          <path class="cls-3" d="M222.1,112.83h.01s0-.05,0-.07l-.02.07Z"/>
          <path class="cls-3" d="M222.61,112.8s-.01.15-.02.22c0-.06.01-.09.02-.11,0-.03,0-.06,0-.11Z"/>
          <path class="cls-3" d="M223.41,113.04v-.02s0,.02,0,.02Z"/>
          <path class="cls-3" d="M221.74,112.8s0-.04,0-.06v.06Z"/>
          <path class="cls-3" d="M224.76,112.53s-.02,0-.03,0c.02,0,.03,0,.03,0Z"/>
          <polygon class="cls-3" points="223.99 113.12 223.98 113.11 223.9 113.11 223.99 113.12"/>
          <path class="cls-3" d="M219.71,112.22h0s0,0,0,0Z"/>
          <path class="cls-3" d="M220.42,109.55c-.11-.09-.05-.19-.19-.27.04.05.1.23.19.27Z"/>
          <path class="cls-3" d="M223.55,113.64s-.01,0-.02,0c.01,0,.02,0,.02,0Z"/>
          <polygon class="cls-3" points="220.23 109.28 220.23 109.27 220.22 109.27 220.23 109.28"/>
          <path class="cls-3" d="M219.54,111.86s-.05,0-.07.01c.02,0,.04,0,.07-.01Z"/>
          <path class="cls-3" d="M219.41,112.39v-.02s0,.02,0,.02Z"/>
          <path class="cls-3" d="M219.33,111.48s.03-.01.01-.03h-.02s.03.02,0,.03Z"/>
          <polygon class="cls-3" points="219.35 111.08 219.32 111.08 219.33 111.1 219.35 111.08"/>
          <path class="cls-3" d="M224.66,111.17s-.09.02-.14.03c.11-.01.15.05.14-.03Z"/>
          <path class="cls-3" d="M223.56,113.58s0,.06,0,.07c0,0,0,0,.01,0,0-.02,0-.04,0-.06Z"/>
          <path class="cls-3" d="M218.11,111.42l.03-.08s-.03.05-.03.08Z"/>
          <path class="cls-3" d="M223.06,107.97h.02s-.01-.02-.02,0Z"/>
          <path class="cls-3" d="M218.13,111.11c.06,0,.09-.02.11-.03-.01,0-.02,0-.04-.01l-.07.05Z"/>
          <path class="cls-3" d="M224.52,111.2h0s0,0,0,0Z"/>
          <path class="cls-3" d="M224.9,111.66c0-.07-.2-.03-.32-.04-.06-.08.15-.04.25-.07-.06-.05-.24-.08-.24-.12.03,0,.05-.01.09,0-.16-.05-.01-.16-.22-.21h.05c-.1,0-.2.01-.28.01,0-.03-.13-.05,0-.07,0,.02.05.02.09.02l-.06-.03c.19-.04.07.04.21.03-.06-.06-.23-.12-.17-.17.19-.02.07.11.23.04l-.07.08c.29-.07-.02.05.29-.02.05-.1-.1-.11-.05-.21-.1-.02-.15.02-.26,0-.2-.13.46-.14.21-.23-.13-.02-.36,0-.24-.09h.21c.01-.09-.31-.02-.17-.13.08.01.08.07.1.05.16-.08-.12-.04-.13-.08l.19-.03c-.04-.1-.18-.2-.23-.3.06,0,.12.01.17-.02-.11-.13-.02-.31.07-.47l-.17-.03s.07-.04.1-.03c.05-.06-.1.01-.17,0-.02-.03.08-.06.14-.05-.15-.06-.33-.21-.22-.43h.05c.02-.14-.35.02-.27-.13h.04c-.07-.26-.38-.34-.36-.62-.15.17-.13-.21-.3.07-.02-.2.03-.23-.08-.4-.04-.03-.14.16-.2.17l.06-.16-.13.14.03-.2-.06.02s.02.09,0,.13c-.09.05-.14-.17-.12-.25l-.22.09c.02-.07.05-.08.09-.12-.14.15.02-.18-.11-.04,0,.04-.03.1-.03.13-.02-.11-.14-.13-.21-.09l.03-.11c-.13-.04-.29.02-.44.02.05.06.03.26,0,.28v-.18c-.04.11.03.07-.03.2-.05-.02-.03-.2,0-.26l-.07.06c0-.05.01-.08.02-.15-.03.11-.12-.18-.16.02v-.05c-.16,0-.22.07-.34.09.02.15-.03.13-.05.25-.09-.04-.21-.15-.31-.11-.06.09,0,.13,0,.23-.04-.14-.13-.1-.1-.21-.12.05-.15.07-.27.22.03.05.06.07.06.12-.02.03-.08-.04-.1-.1v-.02c-.08.25-.54-.24-.55.1v-.02s-.06.2-.06.2c-.07,0-.01-.11-.1-.17-.02.29-.24.1-.27.31-.33-.27-.28.24-.55.15l.07.07c.04.09-.07,0-.11,0,.06.05.09.04.11.09-.13.3-.55.39-.8.67-.09.1.41.29.14.32l-.15-.12c.09.31-.2.48-.07.76-.04-.02-.09-.03-.09-.06-.14.02-.04.18.06.2-.02.03-.1,0-.16,0-.08.04.15.14.02.15-.02,0-.04-.02-.05-.03.06.04-.03.14.12.13-.08.07.05.16-.05.21.17.05-.09.13.15.16-.25-.02-.21.13-.09.18-.07-.02-.08.04-.18.02,0,.06.05.11.17.1-.3.1.24.21-.14.27.14.17.23.31.31.47-.25.01-.04-.17-.3-.15.11.13.34.24.32.43-.02.06-.11,0-.15,0,.13.17.1.42.34.48-.02.01-.05.02-.08.01.03.02.03.09.11.01h-.05c.09-.14.35-.14.41-.21-.27.2.06.15-.28.4.03,0,.09-.03.14-.09.01.03,0,.08-.09.12.15.03.18-.1.27-.05-.03.05-.06.05-.11.1.11-.06.21-.13.27-.05-.02.03-.03.07-.05.06.17.05.3-.19.4-.05-.1.22.02.09-.03.29l.08-.04v-.1c.06.02.14-.11.18-.04l-.06.07h.12s-.04-.1-.04-.1c.08-.09.05-.25.11-.18-.02.02.05.01.06.14h0c.04-.06.08-.12.11-.06,0,.07-.05.22-.05.27.06-.16.14-.02.21-.2-.02.04-.04.15-.04.17l.05-.13s.02.07,0,.15c.08.04.02-.26.09-.14,0,0,0,.03-.03.05.09.07.19-.06.27.02,0,.21-.08.04-.07.22.14-.02.29-.21.42-.16l-.02-.02c.03-.29.09.15.15.01-.02.02-.02.16-.02.13.08.05.17-.07.29-.16l-.02.07c.05.07.13.04.18.07.02-.07.05-.06.03-.17.16.43.3-.23.44.13-.02,0-.04.07-.03.07l.12-.07c-.01-.13-.02-.08-.04-.18.01-.08.05-.13.08-.13-.05.08,0,.2.03.27,0-.04,0-.08,0-.12.06.23,0-.26.09-.1v.07s.06-.12.09-.1c.02.15-.03.07-.03.19.05,0,.09-.28.14-.13-.02.04-.05.04-.07.08.05.17.06.13.09.15h0s.08.07.08.07l-.02-.05c.05-.38.12-.07.2-.33-.07.24-.01.14-.01.3.02.05.06.1.05.14.04-.14.07.1.12-.09,0,.05.04,0,.04.14.05-.04-.01-.09-.01-.16.07-.19.19.22.3-.04.09-.11.1-.29.19-.38.03.08-.01.2-.01.2.05.08.09.06.13,0,0,.05,0,.09.02.15.04-.02.01-.2.07-.12,0,.06,0,.16-.02.22.04-.05.08-.16.12-.21.02.09-.02.14-.03.21.05-.05.13-.1.13-.25l-.04-.05s.02.13.01.15c-.04.12-.07-.05-.08-.1l.03-.04c-.06-.31-.12.06-.19.05v-.23s-.04.19-.04.19c-.02-.06-.04-.19,0-.22-.05-.11-.04.08-.08-.04,0-.02,0-.03,0-.04l-.04.07s-.02-.16.01-.13c-.08-.13-.12.18-.16,0h0c-.11.07,0,.15-.08.35l-.07-.41v.17s-.04-.02-.04-.08c-.04.12,0,.07-.01.18-.06-.15-.15.08-.17-.19-.02.13.06.1,0,.19-.02-.29-.07.05-.12-.08.01-.15.06-.07,0-.2-.02.25-.1-.05-.14,0,0,.2-.09.09-.16.15,0-.07-.14-.11-.2-.18v-.03c0,.2-.08.16-.13.21,0-.12,0-.17.04-.22h-.05c-.01.07-.02.1-.05.12v-.15c-.05,0-.11.18-.19.08,0,.14.06.39-.02.49,0-.08,0-.21.02-.24,0,.01-.03.06-.04.03l.03-.13c-.04-.06-.02.11-.05.1,0-.11-.02-.08-.02-.16,0-.01.03.04.04,0-.03-.02-.07-.08-.09-.17,0,.06,0,.15-.02.16-.06,0-.02-.13-.06-.19-.02.08-.05,0-.06.16-.02,0-.02-.08-.03-.12-.03.07-.15.02-.11.19h0s0,.02,0,.02h0,0c-.11.16-.22-.09-.32-.03v-.05c-.06.06-.14.03-.18.15-.02,0-.03-.1-.02-.17-.05.04-.06.1-.11,0,.05-.09,0-.08.05-.06-.05-.05-.06-.14-.13,0,.04-.14-.02-.18-.06-.14l.03.1s-.06,0-.09-.01l.04-.18c-.08-.24-.27.34-.3-.04-.05.12.05.1,0,.24-.05-.03-.06-.3-.08-.31-.05-.11-.12.25-.18.16,0,.07-.03.24-.1.29-.05-.04,0-.28.04-.33.01,0,.02.02,0,.04.02-.02.05-.04.05-.11l-.02.06c-.01-.07-.08-.08-.04-.18-.05.05-.04.1-.02.14-.04-.11-.1-.03-.15-.11,0,.04-.01.11-.02.11-.07-.11-.08.11-.15.11,0-.11.09-.22,0-.16-.01-.08.05-.17.08-.21-.11.09-.04-.1-.03-.12l.03-.05s-.02.02-.02.02l-.06.12s0-.02.03-.07c-.05.07-.1.19-.18.29.02-.06-.09.04.02-.11,0,.07.1-.14.14-.16-.01.02-.02.01,0,0,.01-.02.02-.03.03-.04.09-.13-.13.16-.16.13.07-.07.13-.14.11-.13,0,0-.12.12-.19.17.04-.07-.07.02-.07,0l-.02.04c-.08.06-.09.04-.13.03.06-.05.06-.01.08-.04-.17.07.13-.15.02-.11.06-.04.17-.08.21-.11-.13.03.12-.06.02-.04-.13.04-.09.04-.22.04.03.01.07.02.1.02-.06.01-.13.02-.19.02,0,.02.09.02.07.03-.11.02-.08,0-.18.06.18-.09-.12-.04,0-.12l.32-.06c.14-.03-.18-.08-.1-.19l-.05.04c-.13,0-.02-.06-.08-.09.11,0,.15-.02.21-.04-.08,0,0-.07-.21-.08l.14-.05c.06-.08-.31-.1-.27-.18.12.03.2,0,.28.05,0-.03.02-.05-.05-.05.07-.01-.14-.08-.04-.1-.05-.01-.16-.02-.15-.05.02,0,.05,0,.05,0-.05,0-.07-.05-.19-.03.34-.07,0-.25.29-.3-.03-.06-.06-.14-.06-.19.03,0,.05,0,.04.02.11-.06-.3-.09-.18-.16.18-.01.09.06.16.05.35.05-.03-.11.19-.11l.02.02c.12,0-.11-.12-.06-.18,0,0,.03.01.05.02-.16-.09-.19-.21-.21-.29.12.07.06.06.19.1,0-.03-.22-.08-.23-.15.08.01.16,0,.3.06v.05c.18.06,0-.06.05-.08l.08.04c0-.08-.18-.18-.12-.25l-.06-.02c-.16-.15.12.03.01-.1l.19.1c-.03-.05-.11-.21-.1-.28.11.13.14.23.19.31.02-.02.05-.09-.03-.17,0,.02.04.07,0,.06-.12-.13-.15-.23-.1-.28.31.28.2-.06.46.14-.03-.18.19-.09.27-.17-.23-.24.02-.03-.18-.3.01-.04.03-.04.04-.02l.19.12c.07.07.02.08.06.14.07,0,.1.11.18.16-.07-.1-.07-.16-.02-.14l-.12-.11c-.01-.2.2.2.19.01l.03.1c0-.07.13-.06.06-.33.02.03.07.11.06.14.11,0,.12-.36.26-.22l.02.08s-.01-.16.04-.09c0,.03.02.08.03.08,0-.03.01-.16.05-.12v.09c.13.08.11-.26.2-.33.04.24.14.31.18.34v.03c.12,0,.18-.21.3-.32.07.27.24.11.34.28-.01-.05.02-.19.05-.21.02.05.1-.16.06.06h0c-.01.21.04.16.07.18l.07-.28c0,.43.33-.07.25.31.05-.06.08-.05.13-.1l-.07.14c.04.06.05.09.13.09l-.07.09s.28-.35.33-.33l-.13.19c.07.05-.09.18.1.08-.03.02-.09.05-.1.06,0,.02-.13.1.17-.03-.19.08-.01.03.08.05l-.15.03c.2-.01.25,0,.32.05-.02.02-.12.04-.08,0-.07.07.15.02.08.09h-.1s.05.04.17.05c.07.02-.02.11-.16.14.08,0,.2,0,.17.05-.05.01-.09,0-.1,0-.09.11.2.11.05.2-.05,0-.07.02-.09.02,0-.07,0-.13,0-.13-.14.02-.16.08-.36.06.11.03.35.08.29.15-.01,0-.03,0-.05.01h-.02s0,.02.03.03c-.02.02-.04.03-.04.05-.12.02-.06.07-.06.1.15-.02.13.02.26-.03-.01,0-.02,0-.03-.02,0,0,0,0-.02-.01h.01s-.01-.04-.02-.07c.08.01.15.03.07.07.1,0,.2.01.25.02-.21.06-.32.15-.45.17.09.08.08.21.37.24.04.02-.08.04-.13.05-.03-.01-.03-.03-.07-.04.08.05.04.15.24.15-.09.07-.19-.03-.15.06h-.06c-.31.18.53.26.12.48.03-.01.04-.02.07-.03-.18.23.18.47-.11.7-.06.06.07.07.17.11h-.17s.19.08.19.08c.14.1-.41.17-.14.29l.11-.02s.07.14-.06.13c.02,0,.12.01.06.03h-.09s.15.11.15.11c-.06.08-.34-.01-.36.11.03.05.25.13.31.11,0-.02.05-.05.14-.05l.05.04c.26,0,.52.04.7-.06l-.16-.07.12-.02v.06c.12-.03.02-.05-.05-.08.07,0,.11-.02.14-.03l-.24-.07c.1,0,.2.03.25-.02-.11-.03-.22.03-.3-.02.12-.03.21-.02.11-.06.07,0,.11,0,.14.02-.08-.04-.03-.09-.17-.11.14-.04-.04-.12.2-.12-.06-.01-.19-.06-.2-.09.29.06.02-.12.33-.11-.26-.04-.12-.16-.26-.24.02,0,.06.01.05.02.02-.04.1-.06.15-.09-.22,0-.27-.07-.4-.11.21-.06.25.03.45,0-.17,0-.18-.09-.32-.07.13-.04.06-.04.24-.06-.27,0-.05-.04-.21-.07.13-.06.25-.02.17-.09.08-.03.18.02.18.02ZM224.33,110.08h0s0,.02.01.03c0,0,0-.02-.02-.03ZM224.31,109.95s0,.04,0,.06c-.05.01-.11.01-.11,0,.04,0,.06-.03.11-.06ZM223.28,110.35s0-.03.04-.03c0,0,0,.02.02.03h.02s-.06,0-.08,0Z"/>
          <path class="cls-3" d="M223.49,110.36h.01s.02,0,.03,0h-.05s0,0,0,0Z"/>
          <path class="cls-3" d="M221.46,113.01h0s0,0,0,.02v-.02Z"/>
          <polygon class="cls-3" points="223.26 107.96 223.24 108 223.27 107.97 223.26 107.96"/>
          <path class="cls-3" d="M222.17,113.54s0,.03,0,.04c0-.01,0-.02,0-.04Z"/>
          <path class="cls-3" d="M222.49,113.57l.04.05s-.03-.05-.04-.05Z"/>
          <path class="cls-3" d="M222.73,113.64s0-.05,0-.07h0s0,.07,0,.07Z"/>
          <path class="cls-3" d="M218.58,113.05h-.02s-.02,0,.02,0Z"/>
          <path class="cls-3" d="M220.03,113.33s-.04.05-.05.06c.02.02.03.02.05-.06Z"/>
          <polygon class="cls-3" points="218.11 111.43 218.11 111.43 218.11 111.42 218.11 111.43"/>
          <path class="cls-3" d="M219.92,113.38s.03.03.05.01c-.01-.01-.03-.03-.05-.01Z"/>
          <path class="cls-3" d="M223.8,113.66h.01s0-.01,0-.02v.02Z"/>
          <path class="cls-3" d="M223.81,113.64v-.02s0,0,0,.02Z"/>
          <path class="cls-3" d="M223.85,113.58l-.03.04s.02,0,.03-.04Z"/>
          <path class="cls-3" d="M223.46,113.61v.06s0-.03,0-.06Z"/>
          <path class="cls-3" d="M223.36,113.63s.07.12.1.08v-.04c-.01.08-.08-.13-.1-.03Z"/>
          <path class="cls-3" d="M222.93,112.96l.08.04c-.02-.06-.04-.14,0-.15-.11-.18.02.13-.08.11Z"/>
          <path class="cls-3" d="M222.68,112.88s0-.09,0-.12c-.03.05-.03.07,0,.12Z"/>
          <path class="cls-3" d="M220.92,112.87v-.14s0,.05,0,.14Z"/>
          <polygon class="cls-3" points="220.5 113.55 220.53 113.65 220.56 113.52 220.5 113.55"/>
          <polygon class="cls-3" points="220.46 112.53 220.47 112.52 220.41 112.56 220.46 112.53"/>
          <path class="cls-3" d="M219.48,111.16h-.17s.22.04.17,0Z"/>
          <path class="cls-3" d="M219.62,110.07c.08.03.14.04.08-.02-.02.01-.09,0-.08.02Z"/>
          <polygon class="cls-3" points="222.51 109.18 222.48 109.23 222.53 109.19 222.51 109.18"/>
        </g>
        <g>
          <path class="cls-3" d="M7.09,75c-.04-.31-.11-.25-.13.3l-.07-.17c.08.08.19.15.39.09.19-.11.37-.29.57-.48-.21.13-.4.26-.56.31-.17.06-.21.05-.31-.02l.12.27v-.3Z"/>
          <path class="cls-3" d="M13.65,73.25c1.28-.4,2.83-.68,1.93-.75-.66.16-1.06.26-1.48.38-.41.12-.84.23-1.52.49-1.09.34-1.94.5-1.77.38-.38.13-1.69.58-2.23.9,1.44-.42,3.2-1.06,5.12-1.53.42-.05.03.08-.06.14Z"/>
          <path class="cls-3" d="M109.37,117.76l-.72.04c.2,0,.44-.02.72-.04Z"/>
          <path class="cls-3" d="M176.19,118.17c-.41-.32-.59-.44-.62-.45.39.29.7.53.62.45Z"/>
          <path class="cls-3" d="M186.58,123.83c-.26-.05-.47-.07-.7-.12.26.07.54.11.7.12Z"/>
          <path class="cls-3" d="M109.37,117.76c.62-.05,1.23-.1,1.85-.16.12-.08-.95.09-1.85.16Z"/>
          <path class="cls-3" d="M28.99,73.3c-.38-.08-.7-.14-.99-.19.31.07.62.13.93.2.02,0,.04-.01.07-.01Z"/>
          <path class="cls-3" d="M79.44,113.45l-.51-.25c-.16-.05-.31-.1-.45-.14l.96.39Z"/>
          <path class="cls-3" d="M60.78,99.4c.34.41.58.44.77.55-.25-.18-.53-.45-.84-.8-.03.01,0,.09.07.25Z"/>
          <path class="cls-3" d="M33.85,75.36l-.63-.19c.16.05.44.13.63.19Z"/>
          <path class="cls-3" d="M95.61,117.89s.12.05.21.07c0-.02-.08-.04-.21-.07Z"/>
          <path class="cls-3" d="M32.8,74.76s0-.02,0-.03c-.13-.03-.18-.03,0,.03Z"/>
          <path class="cls-3" d="M6.7,74.97l.32-.2s.04-.09.03-.12l-.34.32Z"/>
          <path class="cls-3" d="M208.27,124.46s-.06,0-.1,0c-.57.07-.25.04.1,0Z"/>
          <path class="cls-3" d="M329.05,103.17c1.1.28.19.15-.58.06-.77-.08-1.4-.14.26.22-.3-.12,3.08.35.33-.27Z"/>
          <path class="cls-3" d="M29.57,73.46c.31.07.63.14.94.24-.42-.13-.71-.19-.94-.24Z"/>
          <path class="cls-3" d="M328.72,103.44h0s.34.08.34.08c-.14-.03-.22-.05-.34-.08Z"/>
          <path class="cls-3" d="M253.57,109.8c-.1-.01-.3,0-.51.01.02.01.14.01.51-.01Z"/>
          <path class="cls-3" d="M220.4,120.29c.26-.17.53-.33.78-.51-.31.2-.56.37-.78.51Z"/>
          <path class="cls-3" d="M272.5,106.49c.49-.07.66-.07,1.33-.2-.06,0-.13,0-.21.01-.24.06-.56.12-1.12.19Z"/>
          <path class="cls-3" d="M292.25,103.69c-.11,0-.25,0-.37-.01-.2.01-.43.03-.63.04l1-.03Z"/>
          <path class="cls-3" d="M78.89,112.58c-.38-.23-.6-.41-.77-.55.23.24-2.43-1.09.77.55Z"/>
          <path class="cls-3" d="M28.98,73.39c.12-.01.3.01.6.07-.23-.05-.44-.1-.66-.15-.06,0-.08.03.06.07Z"/>
          <path class="cls-3" d="M273.12,105.15l3.14-.49c-.88.14-2.02.31-3.14.49Z"/>
          <path class="cls-3" d="M218.26,120.81l-.67.35c.26-.13.5-.25.67-.35Z"/>
          <path class="cls-3" d="M285.57,103.13c.57-.04,1.17-.1,1.78-.18.13-.03.27-.07.36-.1l-2.14.28Z"/>
          <path class="cls-3" d="M78.11,112.03s0,0,0,0c0,0,0,0,0,0Z"/>
          <path class="cls-3" d="M61.25,99.39c2.04,2.29,1.12.93,1.63,1.34,2.58,2.58,1.07,1.32,1.88,2.28,1.69,1.56,3.22,2.49,4.55,3.53.08.1.34.31,0,.11,1.02.65,2.45,1.71,4.01,2.69,1.55.99,3.19,1.93,4.49,2.48.18.11.26.18.3.21-.36-.3-.37-.42-.25-.45,1.2.65,2.32,1,2.73,1.35-.76-.36-.84-.34-1.21-.47.44.19.87.39,1.32.56.55.34.09.17-.5-.09-.59-.27-1.33-.62-1.36-.56,2.53,1.2,5.63,2.22,7.67,2.88.35.37-4.76-1.56-2.12-.45-1.04-.39-2.06-.81-3.07-1.28,2.22,1.29-1.85-.83.17.4,2.02.88,3.2,1.24,4.37,1.6,1.18.33,2.36.68,4.51,1.15.99.1-.29-.22.7-.12,3.07.45,4.28.59,5.27.81,1,.19,1.8.36,4.08.33,1.18-.1,1.64-.27,4.87-.22l-1.1.24c2.12-.03,2.72-.17,3.34-.26.62-.11,1.27-.18,3.48-.38-.77.2-3.3.41-2.66.38,2.88-.11,2.01-.32,4.19-.63l.48.11c4.45-.8,9.13-2.31,13.98-3.12-.26.1-1.08.3.06.16,6.11-1.13,13.14-1.81,19.12-2.03l2.28-.28c.53-.02.99.03.42.09,2.34-.04.12-.11,1.24-.22,1.33-.07,1.76.02.92.1,2.06-.15,4.99-.34,7.93-.22,2.94.08,5.89.53,7.93,1.19-.27-.07-.54-.11-.82-.16,1.61.42,2.51.66,3.38.91.86.27,1.71.55,3.03,1.37l-.53-.25c3.22,1.64,5.79,4.62,9.02,6.59,1.6.98,3.38,1.63,5.08,1.89,1.7.28,3.28.32,4.65.48.54-.08,2.36.08,4.1.21,1.75.12,3.43.18,3.67.03,2.11.14,2.86.19,3.84.23.97.03,2.16.09,5.16-.12,1.6-.16,2.36-.47,4.29-.88l.08.16c.87-.25,1.73-.51,2.57-.84.48-.07.96-.13,1.43-.26.58-.25,1.17-.45,1.73-.75-.68.33-1.51.52-1.41.45.34-.14.7-.29,1.06-.43.36-.17.72-.35,1.08-.53.75-.32,1.41-.79,2.04-1.14,1.2-.8,2.07-1.46,2.13-1.47.54-.53,1.04-1.14,1.42-1.84.19-.39.32-.61.5-1.3.13-.57.2-1.15.23-1.67l-2.07.17c-.41.03-.82.04-1.23.04.07-.03.38-.05.78-.08.22-.02.47-.04.72-.06.42-.04.85-.08,1.25-.12-.82.09-1.53.14-1.68.15-.26.02-.45.02-.59.02-.27,0-.34-.03-.4-.06-.06-.02-.11-.05-.34-.07-.22-.02-.65-.02-1.34-.14.35.13-.22.05-.29.05-.35-.18-.47-.23-.6-.71-.11-.46-.11-1.13.02-1.77.11-.64.39-1.14.88-1.54.47-.4,1.09-.65,1.67-.75-.14.06-.28.13-.41.21.96-.27,2.29-.11,2.63.55.22.36.32.92.35,1.54.02.31.01.64.02.97,0,.21,0,1.03.06,1.59l.04.46v.12s.02.08.07.06l.23-.03c.3-.04.6-.07.92-.13l1.3-.22c.68-.12,1.36-.23,2.05-.35,1.37-.23,2.76-.46,4.15-.69-2.01.27-1.58,0,.05-.29l.68.07c1.04-.28-1.72.21.42-.28,2.08-.32,1.43-.03.25.23l2.52-.47c.16.03-.43.15-.57.25,1.02-.28,4.39-.53,5.86-.97l.15.03c5.56-.95,8.08-1.38,12.6-2.16.06-.17,1.84-.43,3.17-.77,3.34-.5,7.05-1,11.06-1.67,2.81-.54.8-.27,2.06-.57.23.1,4.23-.57,2.17-.13,4.81-.81,6.14-1.09,12.22-2.03-.67.03-1.42.11-1.04,0,1.1-.17,2.53-.26,2.38-.18l-.29.05c3.42-.54,7.39-.74,11.21-.75,3.82-.04,7.45-.01,10.2-.13h-.31c1.9-.03,3.8-.03,5.7-.01,2.62.15-1.58.03.36.21,6.15.06,9.67.73,14.67,1.4,1.87.56,5.32,1.2,8.73,2.24,3.38,1.12,6.72,3.01,8.71,4.65l-.18-.25c1.14.71,1.26,1.02,1.98,1.67-.05-.15-1.04-1-.38-.51.98.81,1.94,1.72,2.67,2.71.69.99,1.17,2.24,1.55,3.49.38,1.25.64,2.56.79,3.86.06.65.09,1.3.05,1.93-.03.32-.05.61-.14.85-.07.25-.22.45-.26.46l.35-.1h-.1s.39.12.39.12h0s-.06.06-.06.06c0,0-.07.05-.03.03,0,0,.02,0,.02,0,.02,0,.06-.02.08-.02.03,0,.01,0,.01-.02,0-.05.04-.22.09-.39.06-.18.13-.38.2-.62.03-.12.06-.26.08-.41.02-.18.01-.29.01-.39-.01-.89-.12-1.72-.25-2.55-.28-1.67-.63-3.29-1.24-4.93-.14-.41-.36-.83-.61-1.24-.25-.38-.51-.76-.81-1.08-.56-.68-1.19-1.25-1.82-1.82-1.27-1.11-2.62-2.09-4-2.99-1.87-1.2-2.52-1.36-3.24-1.65-.37-.13-.76-.29-1.39-.55-.31-.13-.7-.3-1.16-.46-.47-.16-1.02-.34-1.68-.56l1.58.29c-8.61-2.48-17.81-3.73-26.47-3.82.52-.02.53-.08,1.38-.04-.91-.12-2.6-.15-4.07-.15-.73,0-1.41.03-1.9.05-.49.02-.81.05-.82.08-1.35-.01-.31-.1-1.14-.15-1.83-.07-4.59.25-5.57.15-.17-.02.51-.06.85-.08-1.19.09-5.55.19-4.4.3-1.62.03-3.17.13-4.63.22-.73.05-1.44.09-2.13.13-.34.02-.68.03-1.02.05-.04,0-.25.01-.31.03l-.24.03-.48.06c-1.63.44-5.47.81-5.97,1.13.19-.28-5.62.71-7.62,1.16.66-.18-1.77.21-.99-.02-2.3.38-4.4.77-3.98.83-4.29.4-8.49,1.63-10.94,1.64-6.82,1.25-13.13,2.37-19.28,3.43.18-.28,6.8-1.13,6.49-1.35-5.82,1.05-9.15,1.81-14.95,2.7-1.5.21.83-.24,1.33-.37-1.46.25-2.89.5-4.3.74-.76.13-1.52.25-2.27.37l-.43.07-.22.04s-.03.14-.05.2c-.04.28-.07.6-.11.85-.06.3-.15.6-.26.89-.46,1.16-1.34,2.14-2.32,2.97-.98.82-2.09,1.57-3.19,2.19,0-.03.47-.3.91-.59-.43.26-.95.52-1.33.74-.4.19-.67.33-.6.36.29-.15.6-.27.87-.45.74-.32-.07.27-1.19.83-1.11.56-2.51,1.05-2.59,1.11.79-.41-.44-.03-1.58.2-1.14.22-2.15.37-.84-.1-.65.17-1.47.36-1.31.4-.99.14-1.31.15-.32-.1-1.8.31-2.39.4-2.93.5-.54.09-1.04.18-2.71.27,0-.05.68-.11,1.02-.2-1.67.22-3.38.4-6.2.31.17-.03-.16-.08.69-.07-2.43,0-4.5-.06-6.63-.16-2.12-.11-4.34-.14-6.97-.48.79,0,.34-.09-.32-.2-.66-.13-1.53-.35-1.63-.49-.9-.22-1.77-.53-2.6-.94.31.21.64.38.97.56-2.26-.92-4.04-2.27-5.67-3.69l1.5,1.11c-1.23-.96-2.44-1.99-3.72-2.93.7.56,1.39,1.14,2.06,1.73-2.06-1.52.08.34-2.56-1.75.57.38-2.03-1.52-3.22-2.13h0c-1.16-.5-2.37-.94-4.16-1.5-.45-.19.44-.11.15-.24-.62-.09-2.07-.46-3.59-.68-1.51-.25-3.08-.35-3.87-.31.52,0,.56-.11.39-.14-.35.02-.7.03-1.05.07-1.17-.1-1.34-.13-1.15-.2-3.53-.08,1.11.25-3.07.12.33-.01.17-.03.86-.06-2.1-.03-4.13.07-6.11.18-1.98.11-3.92.22-5.84.33-1.15-.14,3.36-.27,2.05-.36-5.56.35-11.46,1.2-16.77,1.99l.99-.13c-.69.39-3.98.46-6.63,1.13.65-.15.83-.33.66-.26-1.82.33-3.65.78-5.7,1.3-2.05.51-4.32,1.11-7.06,1.55l.67-.18c-2.13.3-5.64.6-7.97.58-.69.09-2.02.07-1.21.18-3.59-.25-7.03-.39-10.31-.81-3.28-.44-6.45-1.21-9.36-2.51.71.27,1.73.54,1.16.35-1.71-.56-3.38-1.25-5.03-2.01.33.31.61.37,1.61.93-.66-.2-2.08-.79-3.29-1.42,2.23,1.01.06-.17-.82-.75.14.12-.2-.02-.14.06-1.19-.78-1.31-.81-1.57-.86-.25-.06-.63-.17-2.23-1.28l.21.05c-1.24-.76-2.39-1.46-3.64-2.41-.44-.5,1.29.86,1.44.82-1.79-1.26-3.64-2.4-5.06-3.81.73.58,1.77,1.44,2.53,1.98-1.58-1.49-1.8-1.62-2.98-2.7l.12.11c-.89-.85-1.76-1.74-2.58-2.66l.62.72c-2.19-1.71-3.79-4.12-6.26-6.89,2.42,2.69.48.38.78.5-.55-.77-1.39-1.95-1.1-1.65-1.18-1.3-1.7-2.39-3.4-4.22-.03-.12-1.18-1.47-.82-1.25-1.49-1.75.28.48.1.37-1.2-1.31-2.45-2.94-3.95-4.67-1.49-1.71-3.35-3.48-5.67-4.65-1.98-1-3.19-1.44-4.37-1.9-1.18-.44-2.32-.86-4.24-1.51-1.25-.56,1.12.21,1.12.21-2.04-.88-3.65-1.34-5.67-1.85.42.07.01-.1-.59-.3-1.64-.37-1.13-.1-3.29-.58.38.01.88,0,1.69.1-1.96-.32-3.91-.57-5.96-.62-.54-.12,1.25-.07,1.97-.03-1.15-.1-2.65-.21-3.95-.16-1.3-.01-2.39.18-2.74.25l1.48-.03c-.84.05-.44-.1.18-.16,1.98-.13,2.85.09,2.96.16-.48-.04-.97-.03-1.46-.02.74.15,2.2.22,3.83.37.82.08,1.68.16,2.51.3.84.11,1.64.28,2.35.46l-1.24-.06c.98.18,1.98.31,2.95.54.6.23.98.47-.41.11,1.98.67,1.8.44,3.47,1.12.18.08.09.06-.08.01.65.19,1.29.42,1.94.63-.39-.09.26.27-.9-.2,3.37,1.4,5.52,2.11,6.68,2.87l-.28-.12c2.3,1.07,2.36,1.19,2.38,1.1,0-.05-.11-.27,1.52.75.61.63,1.17,1.29,1.69,1.97l.48.22c.37.37,1.07,1.13.89,1.04,1.4,1.36-.17-.3.67.47,1.58,1.98,4.54,5.29,4.68,5.91.66.63-1.42-1.96.32.11.25.78,1.95,2.43,3.26,4.34-.55-.47-1.83-2.25-.52-.34,1.05.95,2.73,3.58,4.05,5.03.2-.06,2.82,3.2,5.39,5.27-.1-.05,1.04.99,2.58,2.2,1.52,1.22,3.44,2.6,4.73,3.43l-.09-.02c.59.17,3.27,1.83,5.36,2.79-.13.06-.54-.05-1.66-.6.63.35,1.28.66,1.93.98.48.18,1.11.42,2.4.96l-.56-.08c2.65,1.14,5.46,1.98,9.05,2.86.23-.1-2.77-.99,1.04-.28.13.1.24.26-.76.08.33.06,1.18.19,1.84.31-.52-.04-1.04-.08-1.56-.16,1.64.39.88.05,2.2.3-.04.11.97.22.77.28-.35-.02-1.15-.23-1.67-.26,1.49.29,3.32.54,3.91.67-.13-.08.01-.14,1.12-.07,2.86.19.97.21,2.64.36.7-.03,2.53.09,2.58-.07.84.01.99.08,1.32.13.74-.04,2.48-.07,3.82-.18,1.34-.1,2.28-.24,1.43-.24l-.38.02c.07,0,.15-.02.24-.03h-.01s.01,0,.01,0c2.42-.28,4.92-.63,7.39-1.14,2.47-.49,4.91-1.07,7.25-1.6v.05c2.79-.65,6.27-1.17,8.28-1.57.84-.12,2-.17,1.65-.06,2.17-.32,2.4-.43,5.56-.67-2.18.32.76,0-2.24.31,2.83-.26,3.48-.24,6.52-.64-1.03.22,2.15,0,3.5-.1l-2,.03c1.52-.13,2.84-.18,4.2-.23l-.72.22c5.82-.07,10.51-.83,14.85.12.77.03,0-.09-.8-.21-.79-.13-1.62-.19-.93-.22,2.67.22,5.31,1.09,6.08,1.35,1.71.54,2.5.82,3.31,1.1.42.12.81.3,1.32.54.52.22,1.11.6,1.89,1.12-.18-.16-.35-.33-.17-.29.19.04.73.32,1.88,1.17,2.09,1.68,2.39,2.29,1.05,1.25-.5-.4-.73-.6-.7-.61-.69-.52-1.61-1.17-.81-.48l.31.16c.99.85,3.86,3.22,3.13,2.74,1.69,1.21.75.46-.41-.51,2.62,2.25,4.54,3.32,8.1,4.08-.56-.15-1.07-.33-.5-.22,1.3.29,2.11.35,2.62.37.52.03.75.02.93.01.37-.02.53-.07,2.29.04,1.99.23-.74.19,2.82.34,2.16.21.45.2-.42.2,3.24.14,6.06.38,7.93.39l-1.72.05c1.03-.02,1.87-.03,2.73-.04l-.98-.11c1.01.01,1.86-.02,1.85.04,1.04-.13-.8-.18,1.25-.39,1.35.02,4.07-.4,4.55-.31-4.22.41.49.16-3.08.52.69-.07,1.53-.15,2.54-.25.15,0-.14.05-.41.1,2.03-.17,2.49-.34,2.96-.47.46-.18.95-.3,3-.84-.49.24,1-.1,1.65-.34-1.65.5-.81.14.63-.49,1.28-.46,1.95-.81,2.44-1.12.5-.3.85-.53,1.44-.91-.46.29-.92.55-1.41.8.44-.35,1.63-.98,3.08-2.21.19-.02-1.33,1.09-.77.71.8-.69,1.74-1.42,2.58-2.46.41-.52.78-1.13,1.03-1.83.07-.17.12-.35.16-.53l.06-.28v-.11c.02-.08,0-.19.12-.18l.29-.06c1.33-.15.16.16,1.32.02,3.16-.64,3.47-.43,6.8-1.08-.98.03-1.15.09,1.19-.42l-5.48.99,3.5-.76c-1.66.27-3.49.65-4.49.79,1.66-.38,1.5-.32.69-.3,2.3-.18,4.48-.85,7.13-1.14l-.03.33c3.97-.5,6.99-1.31,12.12-2.06l-1.66.21c.67-.24,3.16-.53,4.81-.86-.14.13.91,0,1.62-.05-.1-.07,3.75-.6,4.18-.89l2.31-.23c4.15-.62,4.67-1.08,8.66-1.69-1.18.31.64.09-2.01.61,1.33-.22,2.53-.39,2.53-.47.79-.06,3.66-.74,4.9-.84.55-.14.72-.28,2.21-.51.17,0,0,.05,0,.05,0-.05,2.32-.45,1-.36,2.07-.17,4.93-.64,7.72-1.1,1.38-.22,2.8-.5,4-.63,1.27-.06,2.41-.1,3.31-.07,2.93-.2,6.46-.38,9.12-.46-.17.04,0,.05-.51.06,3.67.02,2.25-.38,6.43-.29,2.13.18-2.22.09-.89.16.58.36,5.04-.05,7.84.32h-.68c2.14.19,5.23.12,8.72.53,0,0-.17.01-.03.05,2.4.06,6.91.66,10.22,1.37-1.06-.08-1.52-.24-.92.03,1.48.31-.38-.36,2.57.31.95.27,3.01.97,3.23,1.2-.91-.26-1.79-.56-2.72-.76.69.25,1.56.52,2.44.76.89.24,1.79.44,2.44.78h-.21c1.94.88,2.92,1.42,3.92,1.96.99.56,2.03,1.14,3.87,2.58l-.34-.35c1.07.7,1.45,1.09,1.82,1.48.35.4.74.77,1.56,1.71.1.24.16.49.22.73.42.66.93,2.05,1.35,3.63.21.79.4,1.63.54,2.47.07.42.13.83.16,1.23.03.42.08.78-.04,1.12.1-.39,0-.9-.08-1.5-.09-.59-.21-1.25-.36-1.92-.3-1.33-.7-2.7-1.09-3.7.27.77.65,2.12.91,3.4.28,1.28.42,2.47.48,2.89-.05-.65-.21-1.48-.28-2.13.16.64.31,1.35.38,2.13.01.2.04.39.01.56-.03.18-.09.38-.15.59-.06.21-.13.44-.15.71-.04.26.1.63.36.79l.06.04h.05s.07,0,.1,0h.06s.04-.03.04-.03c.51-.36.65-.93.74-1.47.06-.55.08-1.11.05-1.69.23.3.19-1.96-.51-4.48-.34-1.26-.82-2.58-1.42-3.7-.63-1.15-1.39-1.89-1.76-2.42-2.24-2.09-4.74-3.74-7.48-5.21-1.37-.73-2.82-1.39-4.37-1.94-.78-.29-1.59-.51-2.4-.71-.81-.21-1.64-.43-2.49-.61,2.33.86-1.98-.43-1.64,0-1.59-.28-2.19-.41-2.33-.45-1.59-.34-3.2-.66-4.81-.93-1.14-.25,1.53.14,1.4.04-3.51-.5-1.46-.33-3.78-.7.47.17-1.24.04-3.25-.17l2.82.4c-2.47-.14-3.53-.28-4.6-.42-1.07-.13-2.14-.28-4.64-.27l1.58-.05c-2.56-.09-9.44-.16-11.93.19-.45-.03-1.05-.11.07-.16-3.05.06-6.44.21-9.66.51-3.22.3-6.25.72-8.61.97l.45-.14c-1.12.18-1.94.43-3.36.56.07-.04.44-.15-.08-.08-.59.12-2.96.6-4.45.81l1.25-.3c-5.87.86-8.95,1.71-13.85,2.58-.03-.24-4.64.44-6.95.79l.07-.05c-6.82,1.1-11.54,2.12-17.84,3.25-1.98.19-5.31.7-8.93,1.28-.9.14-1.83.29-2.75.44l-1.23.2-.16.02s-.02-.1-.03-.14c0-.35,0-.7,0-1.04,0-.47-.02-.95-.1-1.46-.09-.5-.26-1.03-.61-1.5-.35-.47-.87-.78-1.34-.95.58.26.51.29.13.17-.36-.1-1.01-.21-1.65-.18-.85-.03-2,.34-2.72.93-.75.57-1.05,1.24-1.09,1.05.1-.19.24-.35.37-.52-.25.22-.58.61-.8,1.17-.21.56-.31,1.16-.32,1.86,0,.35.02.71.12,1.1.1.38.27.84.68,1.21.83.63,1.54.65,2.19.76.16-.08.3-.17.45-.25.49.06.99.09,1.51.1.27,0,.55,0,.84,0,.02.09-.04.25-.08.35l-.05.12-.11.24c-.08.16-.16.31-.26.46-.39.6-.89,1.17-1.51,1.66-.61.49-1.21,1.02-1.89,1.41-.33.2-.64.44-.98.62-.34.17-.68.35-1.02.52-2.7,1.33-5.34,1.84-6.76,1.94-1.45.34-3.3.55-4.78.71l.07-.16c-4.15.2-6.23.11-11.4-.14l1.06-.05c-2.91-.17-3.71.17-6.42.05l-.79-.28c-2.52-.11-4.89-.78-6.95-2.16-2.07-1.33-3.91-3.14-6.04-4.59.09.02.25.06.92.57-.93-.78-2.92-2.19-4.72-3.02-.45-.2-.88-.38-1.27-.55-.39-.14-.74-.25-1.02-.33-.55-.17-.83-.21-.64-.06,0-.09-1.28-.55-2.95-.85-1.66-.31-3.68-.51-5.07-.55l.45-.12c-2.36.05-2.44.05-5.71.11-.77-.01-.68-.12.35-.08-2.58-.05-2.01.16-5.13.2l1.16-.15c-2.65.1-2.43.14-3.88.33-1.66.13-5.02.27-5.42.17-.35.11-1.79.34-3.34.46-.21-.03.35-.12.63-.16-4.42.33-6.53.91-9.56,1.2-.07-.04-.27-.04-.52-.01,3.48-.53,6.3-.84,6.04-.8-.02-.14-2.85.18-.62-.29-2.26.37-6.09,1.16-8.84,1.57-.13,0-.27.02-.37.02l.28-.07c-.64.1-1.2.22-1.73.34-.88.15-1.43.25-2.26.43-.35-.05-3.2.66-4.57.97.15.13-1.66.5.06.25-.22.04.26-.08,1.17-.29.21-.05.45-.12.58-.15-.03,0-.06.02-.09.03.91-.21,2.09-.48,3.43-.79-1.08.31-2.21.64-3.75.91-.69.26-1.44.54-1.87.68-.97.13-2.37.31-3.59.47-1.22.15-2.27.23-2.54.2-2.11.33-4.63.52-6.95.58-2.33.07-4.46.03-5.82.09-1.23-.04-1.4-.19-1.85-.27.71.03,1.54.09,1.93.08-1.22-.04-3.03-.17-4.59-.36-1.56-.18-2.88-.41-3.19-.38-2.98-.76,1.71.24-2.39-.73l.57.08c-1.98-.59-3.76-1.19-5.43-1.83-1.68-.63-3.26-1.29-4.83-2.05-3.14-1.51-6.3-3.36-9.78-6.4.49.41.73.62.81.73-4.16-3.23-7.74-7.33-11.09-11.6-3.36-4.26-6.56-8.64-10.21-12.45-1.07-1.08-1.77-1.56-2.35-1.93-.59-.36-1.07-.62-1.89-1.03l-.49-.46c-.95-.44-1.92-.83-2.89-1.19-2.03-.83-3.75-1.67-5.65-2.46-1.9-.78-4-1.53-6.78-1.98l.68.26c-.98-.23-2.54-.51-3.83-.66-1.29-.15-2.29-.22-2.12-.27-.21.01-.66.07-1.45,0l-.06-.09c-1.65,0-3.29.14-4.92.35-1.9.17-1.76.11-1.85.03-.08-.04-.39-.18-3.15.5-1.01.29-2.42.85-3.41,1.42-1,.57-1.59,1.07-1.25.88.72-.46,1.93-.96,2.02-.9-.57.27-1.13.57-1.67.9-.08.2-.39.54-.18.55.23.04.87-.39,2.99-1.12.95-.42,1.95-.75,2.97-1.03l1.02-.08c-.87.16-1.73.36-2.58.61,1.47-.3,2.38-.57,3.43-.81.26.03.71,0,1.33-.03,1.02-.2,2.05-.36,3.09-.48.38.09-1.39.24.7.23,1.46-.13-1.41-.22,1.02-.3,1.52.15,1.07.23,2.86.26.24.09-.14.09-.84.07,1.59,0,4.16.47,4.99.52.76.23,2.07.52,3.15.85,1.08.31,1.94.62,1.83.71.49.09,2.72.73,4.08,1.3-1.3-.36-.02.13,1.47.78,1.5.64,3.18,1.44,2.79,1.44.94.31,2.56,1.05,4.13,2.18,1.58,1.1,3.03,2.7,4.27,3.96-.15-.13-.44-.39-.63-.63,1.31,1.48,1.62,1.98,2.4,2.98.33.05,2.32,2.42,3.44,3.68,1.33,2.06-1.11-1.02-.8-.29.06-.21,2.73,3.25,2.34,2.51,1.04,1.56.94,1.32,1.39,2.19.41.09,1.11,1.35,2.23,2.45,1.65,2.17.24.71,2.29,2.91.46.55.21.36-.15.02-.36-.34-.81-.83-.81-.83ZM127,113.72h0c-.6.11-1.11.2-1.43.26.3-.05.71-.13,1.43-.26ZM132.87,112.83c-.72.1-1.61.22-2.55.36-.21-.02,0-.11.59-.19-.32.08,1.07-.09,1.96-.16ZM120.29,113.99c.91-.23,1.23-.27,1.36-.27-.43.1-.94.22-1.6.38-.03.01-.08.03-.1.04.08-.05.17-.1.35-.16Z"/>
          <path class="cls-3" d="M118.69,114.56c-.13.03-.2.05-.38.1.19-.03.37-.06.55-.09.11-.04.22-.08.31-.12-.17.04-.34.08-.49.12Z"/>
          <path class="cls-3" d="M108.52,117.82h.13c-.1,0-.2,0-.27,0,.08,0,.09,0,.14,0Z"/>
          <polygon class="cls-3" points="211.87 123.05 211.85 123.02 211.34 123.16 211.87 123.05"/>
          <path class="cls-3" d="M76.94,111.38s-.15-.11-.36-.24c.01.02.17.12.36.24Z"/>
          <path class="cls-3" d="M65.52,103.23c-.47-.47-.94-.93-1.39-1.42.58.64,1.04,1.06,1.39,1.42Z"/>
          <path class="cls-3" d="M58.37,95.13c-.11-.09-.15-.11-.18-.13v.02s.18.11.18.11Z"/>
          <path class="cls-3" d="M219.21,119.82c.12-.08.24-.15.35-.22.79-.55.25-.18-.35.22Z"/>
          <path class="cls-3" d="M171.4,114.24c.49.24,1.01.43,1.5.74-.78-.5-1.45-.8-1.5-.74Z"/>
          <path class="cls-3" d="M272.77,105.21s0,0,0,0c.12-.02.23-.04.35-.06l-.34.05Z"/>
          <path class="cls-3" d="M174.91,116.34c-.72-.58-1.38-.99-2.01-1.35.65.41,1.38.91,2.01,1.35Z"/>
          <path class="cls-3" d="M19.26,72.16c-.18,0-.35.01-.53.02,0,0-.02.02-.06.03.2-.01.4-.04.59-.04Z"/>
          <path class="cls-3" d="M18.67,72.2l-.59.05c.27-.01.51-.03.59-.05Z"/>
          <path class="cls-3" d="M16.85,72.37c.41-.05.82-.08,1.24-.12-.43.03-.96.04-1.24.12Z"/>
          <path class="cls-3" d="M33.52,74.66h.18c-.09-.02-.15-.02-.18,0Z"/>
          <path class="cls-3" d="M37.65,76.18c-.96-.42-2.4-1.09-3.81-1.53h-.14c.69.11,3.01,1.22,3.95,1.53Z"/>
          <path class="cls-3" d="M51.6,87.62c-.77-.95-1.54-1.9-2.33-2.82.37.52.86,1.21-.24-.04,2.86,3.61-.5-.83,2.57,2.86Z"/>
          <path class="cls-3" d="M58.56,96.6c-1.25-1.53-.06.07-.15.01.83.94,1.03,1.17.15-.01Z"/>
          <path class="cls-3" d="M133.78,113.43l-.18.16c1.5-.21,0-.06.18-.16Z"/>
          <polygon class="cls-3" points="149.36 111.39 147.88 111.37 147.18 111.53 149.36 111.39"/>
          <path class="cls-3" d="M158.62,112.26h-.66c.83.01,1.67.02,2.5.08-.61-.04-1.23-.07-1.85-.08Z"/>
          <path class="cls-3" d="M288.71,104.03c-.14-.05-.35-.1-.43-.14-.5.1-.8.2-.76.24.02.02.12.02.32,0,.1-.01.23-.03.38-.05.04,0,.08-.01.12-.02.02,0,.02,0,.08,0,.09,0,.19-.02.3-.02Z"/>
          <path class="cls-3" d="M346.25,112.03c.46.45,1.7,1.54,2.43,2.21-.89-.94-1.89-1.82-2.43-2.21Z"/>
          <path class="cls-3" d="M223.04,114.67l-.15.04-.07.02s-.02.01-.16.02c.14,0,.13-.01.16-.01h.07s.13-.03.13-.03c.03.03,0,.11,0,.18.02-.06.06-.16.04-.21h-.01Z"/>
        </g>
      </g>
    </g>
  </g>
</svg>