<?xml version="1.0" encoding="UTF-8"?>
<svg id="Layer_1" data-name="Layer 1" xmlns="http://www.w3.org/2000/svg" viewBox="0 0 600 600">
  <path d="M271.19,575.4c-.18-.87-1.84-.21-2.53-.39-.45-.12.06-1.01-.85-.81-.56,1.48-3.49.67-5.17.8-2.3.19-4.66.59-6.97.79l.4-.79c-1.92.37-2.94-.59-4.37-1.59-.29.3,1.07,1.64,1.32,1.85.56.45,1.45.29,1.45.93-3.77.46-4.51-.19-5.77-3.57-1.33-3.55-1.18-5.96-1.58-9.36-.08-.64-.97-1.57-1.17-2.4-.45-1.85-.08-4.6-.22-6.55l-2.35.37c-2.49-4.94-2.83-10.96-3.27-16.42-1.64-1.13-3.44-1.62-5.08-2.87-4.83-3.67-5.73-9.39-8.69-14.38-.94-5.83-.16-11.59.09-17.4.04-1.05-.53-2.47-.52-3.21,0-.17.61-.06.78-.75,1.03-4.24.53-8.36,1.07-12.46.22-1.67.01-3.69.17-5.38.13-1.41,1.62-2.87-.09-4.47,1.67-.47.47-1.84.44-2.81,0-.23.79-2.46.71-4.27-.19-4.37-.58-14.21,1.1-18.17.62-1.46,2.36-3.06,2.75-4.78.18-.79-.3-1.57-.05-1.98.19-.3.92-.46,1.19-.83,1.39-1.96.84-3,1.1-4.95.03-.25.69-.16.68-.36-.07-1.28-.87-5.63-.77-6.34.04-.27.74-.22.81-.52.67-2.87-.41-4.56-.59-6.7-.48-5.69-.37-11.51-.07-17.04.13-2.45.14-6.87.49-9.06.26-1.63,1.21-3.22,1.38-4.5.27-2-.45-4.68-.3-6.33.2-2.12,1.56-5.4,1.86-8.01.33-2.8-.22-7.26.08-9.45.14-1.05,1.68-3.44,1.89-4.88.71-4.88-.26-7.66,1.41-12.9,1.07-3.36-.41-3.66-.22-6.16.09-1.29,1.11-2.54,1.14-3.98.23-9.22.13-18.29.72-27.51.22-3.44.78-7.46.17-10.7l-1.6-.19.03-.98c-2-.04-2.01-1.73-2.4-2.01-.23-.16-4.02-.72-4.97-1-1.18-.35-5.38-1.63-5.73-2.63-.68-1.95.75-2.3,1.22-3.43.52-1.27,1.07-4.69.98-6-.07-.93-.99-1.91-.89-2.68.13-.93,2.1-1.14,1.65-2.75-.31-1.12-2.75-2.89-3.59-3.99-3.73-4.9-5.83-11.15-8.4-16.65-.99-2.11-4.25-7.1-4.86-9.06-.33-1.09-.08-2.41-.61-3.77-.45-1.16-1.81-2-1.87-2.2-.53-1.92-.36-3.95-1.3-5.75-.2-.38-1.82-1.96-1.82-2.1,0-.47.54-1.14.36-1.93-.12-.5-2.42-.7-.02-2.06l-.81-.45c-1.52-8.54,2.13-16.47,3.47-24.72.33-2.04.6-4.12.54-6.2-2.33-.8-4.72-2.22-7.17-1.44.14-1.85-3.76-2.82-5.18-2.38-.06-1.35-1.13-2.66-1.47-3.86-.11-.39.39-1.01.23-1.25-.16-.25-1.38-.25-1.15-1.05.91-.81,1.45-2.22,2.78-1.4-.2-1.9.94-3.54-.01-5.35l.83-.47-.37-1.7c1.79-.36.78-1.33.93-2.44.31-2.25.82-6.91,1.51-8.83.3-.81,1.63-2.08,1.81-3,.15-.81-.49-1.27-.52-2.12-.06-1.84,1.18-1.65,1.36-2.19.25-.77-.51-1.68-.31-2.06.05-.1,1.41-.97,1.77-1.45,2.03-2.69,3.87-7.36,5.51-10.58,1.46-2.88,2.21-6.28,3.93-9.4.24-.43,1.41-.17.67-1.68,1.77.26,1.53-1.43,2.1-1.92.22-.18.87.04,1.11-.32.29-.44.25-1.48.6-2.11.76-1.38,5.2-7.57,6.41-7.91,2.42-.68,2.89-.19,5.17-2.19.34-.3.28-1.04.61-1.37.99-1.02,10.6-3.71,12.54-4.01,1.07-.17,2.1.61,3.02.28.48-.17.52-.9.76-1.03,6.83-3.73,10.17-2.56,17.01-4.28,1.21-.3,2.58-1.24,3.06-1.33,1.02-.2,1.9.91,3.28-.29,1.08-.94.85-2.15.41-3.36-.8-.03-.12,1.23-1.03,1.52-.23.08-1.18-.24-1.76-.18-1.89.2-2.78-.25-3.76-.15-.71.07-1.29,1.05-2.2.79-.17-.68.61-.25.74-.42.09-.11-.39-.8-.29-1.28.12-.55,1.14-1.15,1.55-1.68.65-.83.2-1.64,1.97-1.98-1.45-.87-.19-2.01-.45-3.09-.53-2.19-1.86-.11-2.24.08-.55.27-3.22,1.05-2.07-.37-1.42.42-2.5.65-3.58-.6,1.69-1.25,3.02-2.56,4.34-4l-1.16-5.74-2.78,1.99c-.26-.95,2.06-2.62,1.79-3.18-.5-1.04-1.45,1.3-2.19.79.67-2.11.29-1.94-1.31-.71l-3.86,1.51c-.5-1.34.6-1.56.66-1.69,1.32-2.92,4.86-11.07,3.44-14.53-.77-1.86-1.53-4.05-1.68-6.22-.05-.69.62-1.74.36-2.61-.08-.11-1.83,1.12-1.59-.2l4.77-11.15c-.19-1.89-2.34,1.12-2.77.61v-1.59s-1.59,0-1.59,0c-.19-.73.57-.94.73-1.49.17-.61-.28-1.24-.12-1.71.46-1.33,3.31-2.17,4.29-2.83,8.42-5.62,10.84-13.17,21.75-16.83,1.94-.65,5.05-1.44,7.05-1.71.7-.09,1.55.53,2.11.14,1.14-.79-.14-3.05-.81-3.81l3.58,1.19-.79-3.18c1.4,0,.92,1.66,2.61,1.98,2.75.53,4.2-3.38,5.93-.79.71-.49.99-1.46,1.58-2,1.61-1.48,3.79-2.16,5.99-2,.88.06,1.86-.04,1.77,1.22-4.19-1.23-6.9.81-9.14,4.18.91.48,1.77-.77,2.67-.91.36-.06,3.52.17,3.64.37l.03,1.52c-.73-.41-5.64,1.69-4.75,2.4,2.16.28,4.37.01,6.52.45,1.91.39,3.7,1.51,5.42,2.09.4.14,1.05-.24,1.15-.13.14.15-.09,1.03.66,1.55.53.38,1.51.3,2.14.65s.99,1.16,1.65,1.53c.55.31,4.29,2.22,4.55,2.22,2.3.01,2.33-6.62,3.77-5.57l.44,1.75-.83.43,1.17.78c-.88,1.47-1.29,4.2-3.16,4.6l5.96,4.18c.44.82-1.26.84-1.58.59-.93,1.71,5.67,4.48,5.96,6.57.45,1.55-3.43-.71-3.14,1.14.02.13,1.28,2.13,1.38,2.23.37.37.98.29,1.39.69,1.03,1.02.86,2.8,1.97,2.9-.45,1.36-1.71.22-2.78.39.9,2.26-.39,3.82-.43,5.77-.02,1.02.59,2.5.46,3.11-.11.5-2.01.44-.75,2.19.49.17,1.12-.02,1.59.17.83.35,3.66,1.34,2.71,2.28h-1.6c-.08,2.39-.44,7.84-1.96,9.66-.5.6-2.31,1.2-3.07,2.01-2.86,3.08.12,5.25-.94,7.1-.25.44-.89.45-1.1.98-.23.57-.09,1.38-.35,2.03-.28.68-1.74,1.01-2.22,2.18-.6,1.46-.06,3.92-1.81,5.05-3.49,2.25-7.16-.02-10.64.07-4.25.11-1.22,9.69,2.9,10.24.89.12,1.27-.74,1.83-.69.41.04.85.58,1.32.64.69.08,1.56-.62,2.38-.68.73-.06,6.63,1.13,7.33,1.41,1.33.52.97,1.71,4.16,2.07,1.98.23,1.1-.17,3.34.67.62.23,1.13-.79,1.83,1l.2-1.59c2.09-.33,2,.88,2.79,1.41.57.38,2.84-.84,2.78,1.77,1.22.37,1.04-1.55,1.39-1.6,3.26,1.24,6.27,2.1,8.75,4.78l.79-1.19c1.22.29,3.32,2.86,4.37,3.59,1.15.8,5.83,3.05,6.47,4.07.23.36.08,1.04.34,1.44,1.2,1.86,1.43,2.35,3.75,1.63-.47,2.1,1.29,1.94,2.11,2.77.66.67,4.03,4.21,4.45,4.81.96,1.37,2.3,5.5,3.21,6.33s2,.36,2.7.84c1.87,1.31,1.39,5.1,2.35,7.24.48,1.08,1.84,2.14,2.46,3.11.56.89,1.03,2.95,1.8,3.68.47.45,1.16.2,1.22.26.09.09-.38,1.16-.32,1.7.16,1.63,4.93,11.22,6,13.51,1.79,3.84,5.41,8.44,4.51,12.77-.53,2.53-2.65,5.64-4.23,7.62-.35.44-.29,1.19-.43,1.35-.03.04-.63-.21-1.04-.07-5.03,1.67-5.13,2.73-3.76,7.91.72,2.72,2.79,6.59,3.24,9.13,1.02,5.7.35,15.69-.97,21.27-.57,2.43-5.01,3.79-3.16,7.16l-2.2,1.78c.37,1.24,1.85-.92,1.97.4.1,1.02-3.58,2.96-3.8,3.39-.27.54.15,1.13,0,1.6-.68,1.95-2.67,3.89-3.74,5.47-.69,1.01-1.1,2.2-1.98,3.08l.79.98c-1.28.09-1.78.79-2.39,1.78-4.15,6.75-5.09,15.88-9.37,22.85-.62,1.01-4.22,5.23-4.29,5.58-.14.69.2,1.66.14,2.58-.04.6-.65,1.2-.63,1.61.01.38,1.13,2.64,1.44,3.2-.82.36-.94.37-.79,1.38l1.58-.2c-.89,1.22-.59,2.29-2.38,1.99l.64.97.74-.26.6,1.48-1.19-.39c-.31,1.03,1.49.85.76,1.95-.06.09-.96.21-1.3.48-1.21.97-1.36,2.04-2.64.75v1.2s-1.6-.41-1.6-.41l.4-.78c-.94.54-1.97,0-2.89.09-.86.1-2.13.82-2.84.73-.37-.05-.03-1.31-1.03-.83-.86,3.34-.03,6.42.01,9.77.19,15.69,1.6,31.3,3.16,46.91,1.4,14,.85,28.18,1.99,42.16.1,1.26.98,3.21,1.04,4.37.02.44-.59.85-.48,1.81s.91,1.83.96,2.26c.06.46-.58.9-.67,1.51-.28,1.87,1.79,5.2,1.96,6.79.08.72-.68.46-.79.82-.15.49.48,2.12.39,2.66-.05.3-.69.22-.78.52-.51,1.71,1.6,5.98,1.81,8.36.37,4.15-1.48,10.59-.66,14.58.06.31.79.25.83.52.07.55-.46,1.48-.44,2.32.02.91.64,4.83,2.01,3.79.07,1.46-2.14,2.13-.4,3.38l-1.15.65c1,1.35-.47,2.86-.4,3.27s1.01.75,1.16,1.67c.26,1.52-.72,3.99-.8,5.58-.08,1.48.89,3.74.82,4.3-.02.19-1.14,0-.85,2.05.1.74.69.52.74.77.13.72-.15,2.2.11,3.11.1.34.76.28.75.45-.25,3.38-.51,8.17.02,11.54.12.78,1.53,1.93,1.58,3.23l-.79.37.07.73c1.87,1.13.1,3.41.09,4.84-.01,1.13.5,2.16.34,4.38-.2,2.75.05,5.4-.04,7.96-.03.72-.76.53-.84.85-.27,1.13,1.54,9.14,2,10.65.14.47.84,1.32.78,1.4-.03.04-.68.03-.98.4-.63.78-.26,2.1-1.4,2l.79.98c-1.26,2.93-3.57,2.81-5.54,4.01-1.2.73-1.85,2.34-3.85,3.31-2.36,1.14-4.35,1.1-6.74,1.61-.6.87.14,4.1-.16,5.32-.1.41-.89.47-1.21.85-.81.98-.69,6.14-.91,7.87-.29,2.36-1.61,3.62-.65,6.39.13.37.81.27.77.47-.05.28-.61.77-.66,1.61-.16,2.59.66,5.84.24,8.33-.19,1.13-1.24,1.78-1.18,3l-.59-.79c-.66.5-1.95,1.91-2.6,2.17-2.27.91-13.54-.83-16.87-1-4.5-.22-9.45-.34-13.96-.4-1.59-.02-2.98.88-4.5-.04.09-1.95-.96-3.39-1.2-5.36-.17-1.4.11-2.84-.14-4.23s-2.64-4.44.49-2.28l-.22-1.22,1.01-.57c-.43-.83-1.18-.21-1.49-.34-.49-.2-2.81-3.06-3.21-3.7-1.89-3.04-1.4-7.5-2.24-10.88-1.45-.88-2.07-2-3.81-1.35-.17-.13-1.46-3.77-1.49-4.1-.06-.71.33-1.31.32-1.92-.13-7.32-.62-14.54-.82-21.84-.2-7.56.7-15.25-.78-22.68l.8.2c-.22-2.41-.35-5.8-.03-8.18.1-.77.84-.55.85-.79.03-.81-1.17-2.63-1.09-3.9.18-2.78,1.88-7.17,1.45-9.98-.13-.85-.77-1.43-.79-2.39-.02-1.2.81-2.69.77-3.96-.05-1.77-2.05-4.46-1.96-6.38.01-.23.76-.19.82-.49.07-.32-.18-4.51-.31-4.81-.24-.57-.1-.6-.9-.49-.52,2.53-1.46,4.27-1.22,6.98.15,1.67.95,2.38,1.2,3.57.22,1.02-.49.32-.78.18.33,2.02-.46,5.48-.01,7.28.11.46,1.11.5,1.21.88-.44,1.11-1.38,3.39-1.52,4.45-.55,4.09.61,9.06.31,13.03-.24,3.21-2.8,8.07-1.9,11.06.27.89,1.89,1.33,1.51,2.67l-.79-.18c.06.69-1.06,3.16-1.04,3.56.02.34.65.82.66,1.57.06,4.32-.45,6.81.27,11.09.16.94-.79,3.14-.71,4.85.08,1.81.98,3,1.19,4.39.43,2.92-.31,6.47-.56,9.26-.16,1.81-.11,3.67-.22,5.41-.06.85-1.08,2.26-.97,3.42-.93,0-2.9,1.46-3.27,1.51-.52.08-1.74-1.42-2.94-.56l-.31.48c-.04,2.2-.17,4.43-.56,6.6-.56,3.08-2.9,7.23.14,9.7l-.39,1.17c1.13.23.68,2.43-.04,3.17,1.45.43.37,2.14-.4,2.97l1.19.4c-1.18-.18-.36.69-.82,1.32-2.89,4.03-3.52,1.86-6.86,2.67-.3.07-.25.71-.55.78-1.08.26-13.73-.18-15.45-.37-.6-.07-1.23-.08-1.38-.81h7.56ZM335.62,84.2c.73.15.78-.2,1.09-.69.71-1.12,1.54-4.07,1.55-5.4,0-.47-.32-2.27-.64-2.49l-3.2-.57c-.72,1.66.24,2.62.38,3.8.21,1.88-.24,3.5.82,5.35ZM365.84,217.04c.13-1.1-1.22-1.37-1.5-2.27-.48-1.53-.53-7.68-.91-8.21-.48-.68-.71-.76-1.56-.65l1.15.82c.36.44-.66,9.78-.72,11.32-.12,3.22-.02,6.46-.02,9.53,0,2.6-.57,2.1-.75,3.25-.05.35.74,1.38.87,2.18.35,2.16.34,4.86.66,7.1l1.5-4.66c.45-.77,3.17-4.49,3.13-5.08-.01-.23-.84-1.25-1.05-2.03-.35-1.32.19-2.31-.07-3.45-.16-.72-.88-1.19-1.03-1.77-.17-.66-1.1-6.21-.89-6.47l1.19.4ZM242.55,221.22c-.18-2.93,0-6.17,0-9.15,0-.15.43-.51.4-.79-.26-2.18-1.79,1.89-1.9,2.47-1.32,6.97-.66,13.53.42,20.47.6,3.83,1.76,7.6,2.28,11.45l2.29-5.84c-.75-1.88-2.03-3.63-1.1-5.69.62-.6.7.06.78.6.16,1.07.08,2.27.41,3.38l.76-.96-2.36-13.36c-.75-.04-.82-.19-.81.6.01,1.34.7,2.74.41,4.17-.08.11-.51-.21-.6-.39-.15-.32-.93-6.07-.99-6.97ZM249.43,558.57c-.45-.33-.81-1.71-1.71-1.87l.85,3.11c1.18.05.81-.17,1.53-.73,0,1.37,1.75,1.19,2.79,1.19-.54-1.03-2.72-1.17-3.46-1.71ZM349.14,559.49l-3.97,1.98c1.9.85,3.93.38,3.97-1.98ZM319.62,561.57l-5.08-.88c-.99.82,3.33,1.73,3.52,2.04l.06,1.14-1.19.39c1.31.49,1.87,1.32,3.41,1.56.96.15,5.36.69,5.73-.17l-2.97-1.4-.77,1.11-1.82-.3.35-1c-1.22-.35-.58-1.8-1.23-2.49ZM284.71,563.47c-2.35-.74-4.17,1.35-6.76,1.2v1.18c1.18.52,3.58.18,3.59,1.6h.39c-.17-2.21,2.89-1.97,2.79-3.97ZM317.72,567.04c-.84-.9-3.19-3.84-4.37-3.17.03,2.61,1.98,3.72,4.37,3.17ZM349.14,567.45c-.19-.65.87-3.33-.21-3.56-1.48.2-2.42,1.1-3.35,2.17l3.57,1.39ZM282.08,570.86c.5.25,1.63.88,2.04.19l.58-4.39c-.83.5-.69,1.52-1.98,1.2l.8,1.58-3.58-.39c.27.51,1.7,1.59,2.15,1.81ZM268,570.24c-2.05-.62-4.41-.45-6.47-.89-1.11-.24-2.09-1.45-3.47-1.1l5.47,2.31c1.67-.78,3.68,1.26,4.47-.32Z"/>
  <path d="M341.58,576.2c.09.69-.9.37-1.39.39-1.85.08-3.74.02-5.59.02-5.53,0-11.49.33-17.1,0-.44-.03-2.19-.21-2.17-.61,8.65-1.56,17.55-.03,26.25.2Z"/>
</svg>